<?xml version="1.0" standalone="no"?>
<!DOCTYPE svg PUBLIC "-//W3C//DTD SVG 1.1//EN" "http://www.w3.org/Graphics/SVG/1.1/DTD/svg11.dtd" >
<svg xmlns="http://www.w3.org/2000/svg">
<metadata></metadata>
<defs>
<font id="bravorgregular" horiz-adv-x="642" >
<font-face units-per-em="2048" ascent="1638" descent="-410" />
<missing-glyph horiz-adv-x="353" />
<glyph horiz-adv-x="2048" />
<glyph horiz-adv-x="2048" />
<glyph unicode="&#xd;" horiz-adv-x="653" />
<glyph unicode=" "  horiz-adv-x="353" />
<glyph unicode="&#x09;" horiz-adv-x="353" />
<glyph unicode="&#xa0;" horiz-adv-x="353" />
<glyph unicode="!" horiz-adv-x="237" d="M59 0v139h120v-139h-120zM59 263v1114h120v-1114h-120z" />
<glyph unicode="&#x22;" horiz-adv-x="412" d="M59 1079v317h98v-317h-98zM255 1079v317h99v-317h-99z" />
<glyph unicode="#" horiz-adv-x="784" d="M59 460v101h134l64 317h-109v99h129l83 400h102l-83 -400h156l82 400h103l-83 -400h89v-99h-111l-65 -317h109v-101h-128l-94 -460h-103l94 460h-154l-95 -460h-102l94 460h-112zM293 561h155l68 317h-158z" />
<glyph unicode="$" horiz-adv-x="514" d="M59 204v233h120v-233q0 -22 17.5 -34.5t41.5 -12.5h39q24 0 41.5 12.5t17.5 34.5v134q0 57 -47 155l-182 396q-47 98 -48 163v100q0 60 42.5 108t104.5 57v158h100v-158q64 -9 107 -55.5t43 -109.5v-171h-120v171q0 22 -18.5 35.5t-40.5 13.5h-39q-22 0 -40.5 -13.5 t-18.5 -35.5v-108q0 -14 5 -31.5t10 -29t15.5 -34.5t14.5 -31l185 -402q47 -98 47 -162v-150q0 -60 -43 -107.5t-107 -57.5v-157h-100v157q-63 10 -105 56t-42 109z" />
<glyph unicode="%" horiz-adv-x="850" d="M59 466l678 517l55 -75l-678 -518zM110 944v263q0 73 52 121.5t127 48.5h8q76 0 127.5 -48.5t51.5 -121.5v-263q0 -73 -51.5 -121t-127.5 -48h-8q-75 0 -127 48t-52 121zM212 944q0 -30 26.5 -49.5t54.5 -19.5q31 0 55.5 18.5t24.5 50.5v263q0 31 -24.5 51t-55.5 20 q-30 0 -55.5 -18t-25.5 -53v-263zM373 169v264q0 73 52.5 121t126.5 48h9q76 0 127 -48t51 -121v-264q0 -73 -51 -121t-127 -48h-9q-75 0 -127 48t-52 121zM476 169q0 -30 26.5 -49.5t54.5 -19.5q31 0 55.5 18.5t24.5 50.5v264q0 32 -24.5 51t-55.5 19q-30 0 -55.5 -17.5 t-25.5 -52.5v-264z" />
<glyph unicode="&#x26;" horiz-adv-x="668" d="M59 180v409q0 51 27.5 95t70.5 65q-96 55 -97 179v269q0 75 53.5 127.5t126.5 52.5h218v-120h-218q-24 0 -42 -20t-18 -42v-269q0 -54 27 -88.5t78 -34.5h325v-120h-103v-683h-269q-75 0 -127 54t-52 126zM179 182q0 -26 18.5 -43t40.5 -17h149v561h-113q-94 0 -95 -115 v-386z" />
<glyph unicode="'" horiz-adv-x="216" d="M59 1079v317h98v-317h-98z" />
<glyph unicode="(" horiz-adv-x="392" d="M59 596q1 419 171 879h110q-156 -500 -155 -879q0 -418 155 -898h-112q-168 454 -169 898z" />
<glyph unicode=")" horiz-adv-x="392" d="M59 -302q155 480 155 898q0 379 -155 879h110q171 -460 171 -879q0 -444 -169 -898h-112z" />
<glyph unicode="*" horiz-adv-x="522" d="M59 1115l142 57l-142 59l51 88l120 -94l-22 152h105l-22 -152l120 94l53 -88l-143 -59l143 -57l-53 -89l-120 94l22 -150h-105l22 150l-120 -94z" />
<glyph unicode="+" horiz-adv-x="764" d="M59 688v100h273v274h101v-274h273v-100h-273v-273h-101v273h-273z" />
<glyph unicode="," horiz-adv-x="257" d="M59 0v139h140v-139l-94 -212h-46l51 212h-51z" />
<glyph unicode="-" horiz-adv-x="504" d="M59 527v106h387v-106h-387z" />
<glyph unicode="." horiz-adv-x="257" d="M59 0v139h140v-139h-140z" />
<glyph unicode="/" horiz-adv-x="687" d="M19 -302l536 1777h124l-535 -1777h-125z" />
<glyph unicode="0" horiz-adv-x="583" d="M79 179v1018q0 73 54 126.5t124 53.5h69q73 0 126 -54.5t53 -125.5v-1018q0 -77 -53 -128t-126 -51h-69q-75 0 -126.5 52.5t-51.5 126.5zM208 189q0 -24 18 -41.5t42 -17.5h49q24 0 41 17.5t17 41.5v593l-167 -308v-285zM208 690l167 306v192q0 24 -17.5 41t-40.5 17h-49 q-24 0 -42 -17t-18 -41v-498z" />
<glyph unicode="1" horiz-adv-x="559" d="M79 1246v131h269v-1247h134v-130h-396v130h134v1116h-141z" />
<glyph unicode="2" horiz-adv-x="593" d="M79 1038v159q0 73 54 126.5t124 53.5h79q75 0 127.5 -53.5t52.5 -126.5v-159q0 -119 -32 -185l-216 -456q-49 -104 -50 -206v-61h287v-130h-417v191q0 135 62 259l216 452q22 47 21 136v150q0 24 -18.5 41t-42.5 17h-58q-24 0 -42 -17t-18 -41v-150h-129z" />
<glyph unicode="3" horiz-adv-x="599" d="M79 179v217h129v-207q0 -26 18 -42.5t42 -16.5h64q26 0 43 16.5t17 42.5v505q0 26 -19 44t-45 18q-71 0 -108 -70l-110 47l267 513h-298v131h422v-170l-188 -348q22 17 53 17q73 0 114 -46t41 -121v-530q0 -73 -52 -126t-127 -53h-85q-73 0 -125.5 53.5t-52.5 125.5z" />
<glyph unicode="4" horiz-adv-x="664" d="M69 276v120l237 981h186v-981h114v-120h-114v-276h-130v276h-293zM201 396h161v363l25 454z" />
<glyph unicode="5" horiz-adv-x="604" d="M79 179v217h129v-207q0 -24 18 -41.5t44 -17.5h68q24 0 41.5 16.5t17.5 42.5v499q0 30 -22.5 49t-51.5 19q-113 0 -113 -168h-131v789h418v-131h-289v-402q49 43 130 43q73 0 131 -53.5t58 -125.5v-529q0 -73 -53.5 -126t-125.5 -53h-89q-75 0 -127.5 52.5t-52.5 126.5z " />
<glyph unicode="6" horiz-adv-x="602" d="M79 179v1018q0 73 53 126.5t125 53.5h89q74 0 126.5 -53.5t52.5 -126.5v-159h-128v150q0 24 -17.5 41t-43.5 17h-68q-24 0 -42 -17t-18 -41v-360q55 48 128 48q81 0 135 -51.5t54 -126.5v-519q0 -73 -52.5 -126t-126.5 -53h-89q-73 0 -125.5 53.5t-52.5 125.5zM208 189 q0 -24 18 -41.5t42 -17.5h68q26 0 43.5 16.5t17.5 42.5v499q0 24 -18.5 41.5t-42.5 17.5q-128 0 -128 -169v-389z" />
<glyph unicode="7" horiz-adv-x="589" d="M59 1246v131h472v-152q-55 -118 -93.5 -240t-58 -214t-30.5 -244t-13 -238t-6 -289h-129q5 456 39 708.5t161 529.5v8h-342z" />
<glyph unicode="8" horiz-adv-x="589" d="M79 179v491q0 107 101 146q-37 13 -64.5 47t-27.5 77v257q0 75 53.5 127.5t128.5 52.5h53q74 0 126 -53.5t52 -126.5v-257q0 -47 -28.5 -80.5t-61.5 -43.5q100 -45 100 -146v-491q0 -73 -53 -126t-126 -53h-73q-75 0 -127.5 52t-52.5 127zM208 189q0 -26 18 -42.5 t44 -16.5h53q25 0 41.5 17.5t16.5 41.5v497q0 26 -16.5 43.5t-41.5 17.5h-53q-26 0 -44 -17.5t-18 -43.5v-497zM218 934q0 -26 17.5 -42.5t41.5 -16.5h36q26 0 42.5 16.5t16.5 42.5v254q0 24 -17 41t-42 17h-34q-26 0 -43.5 -17t-17.5 -41v-254z" />
<glyph unicode="9" horiz-adv-x="602" d="M79 179v217h127v-207q0 -24 18 -41.5t44 -17.5h66q26 0 44 17.5t18 41.5v432q-57 -53 -128 -53q-75 0 -132 54.5t-57 124.5v450q0 73 53 126.5t125 53.5h87q75 0 128 -53.5t53 -126.5v-1018q0 -73 -53 -126t-128 -53h-87q-75 0 -126.5 52.5t-51.5 126.5zM206 756 q0 -24 18 -41t44 -17q128 0 128 169v321q0 24 -18 41t-44 17h-66q-26 0 -44 -17t-18 -41v-432z" />
<glyph unicode=":" horiz-adv-x="257" d="M59 0v139h140v-139h-140zM59 883v139h140v-139h-140z" />
<glyph unicode=";" horiz-adv-x="257" d="M59 0v139h140v-139l-94 -212h-46l51 212h-51zM59 883v139h140v-139h-140z" />
<glyph unicode="&#x3c;" horiz-adv-x="1015" d="M59 542v77l898 443v-130l-717 -350l717 -352v-128z" />
<glyph unicode="=" horiz-adv-x="893" d="M59 464v118h776v-118h-776zM59 846v120h776v-120h-776z" />
<glyph unicode="&#x3e;" horiz-adv-x="1015" d="M59 102v128l718 352l-718 350v130l898 -443v-77z" />
<glyph unicode="?" horiz-adv-x="514" d="M59 1040v157q0 73 53 126.5t126 53.5h39q75 0 127 -52.5t52 -127.5v-157q0 -100 -68.5 -308.5t-68.5 -311.5v-157h-120v157q0 111 68.5 320t68.5 300v157q0 26 -17 43t-42 17h-39q-26 0 -42.5 -17t-16.5 -43v-157h-120zM199 0v139h120v-139h-120z" />
<glyph unicode="@" horiz-adv-x="1056" d="M69 180v691q0 149 107 255.5t257 106.5h192q150 0 257 -106.5t107 -255.5v-590q0 -80 -60 -128t-135 -48q-118 0 -175 88q-79 -37 -143 -37q-55 0 -88.5 31t-33.5 83v199q0 53 38.5 91t89.5 38h130v171q0 17 -13 30t-29 13h-75q-41 0 -41 -43v-71h-94v81q0 52 38.5 89.5 t91.5 37.5h90q53 0 89.5 -38.5t36.5 -88.5v-526q17 -49 90 -49q75 0 75 77v571q0 108 -78 185.5t-187 77.5h-154q-110 0 -187.5 -78t-77.5 -185v-651q0 -111 77.5 -188.5t187.5 -77.5h193v-117h-212q-150 0 -257 107t-107 255zM448 287q0 -17 14 -29t31 -12q32 0 119 41v218 h-122q-16 0 -29 -13.5t-13 -29.5v-175z" />
<glyph unicode="A" horiz-adv-x="685" d="M39 0l188 1377h233l187 -1377h-130l-59 405h-230l-57 -405h-132zM242 525h202l-96 723h-10z" />
<glyph unicode="B" horiz-adv-x="651" d="M79 0v1377h311q77 0 130.5 -54.5t53.5 -131.5v-261q0 -54 -29 -110.5t-83 -78.5q54 -19 83 -67.5t29 -103.5v-385q0 -77 -54 -131t-130 -54h-311zM208 130h182q24 0 39 15.5t15 39.5v399q0 60 -26 79.5t-88 19.5h-122v-553zM208 803h136q100 0 100 133v255 q0 22 -15.5 38.5t-38.5 16.5h-182v-443z" />
<glyph unicode="C" horiz-adv-x="610" d="M79 185v1006q0 77 55 131.5t129 54.5h85q76 0 130.5 -54.5t54.5 -131.5v-153h-130v153q0 22 -15.5 38.5t-39.5 16.5h-85q-22 0 -38.5 -16.5t-16.5 -38.5v-1006q0 -24 17 -39.5t38 -15.5h85q22 0 38.5 15.5t16.5 39.5v211h130v-211q0 -77 -54.5 -131t-130.5 -54h-85 q-75 0 -129.5 54t-54.5 131z" />
<glyph unicode="D" horiz-adv-x="646" d="M79 0v1377h306q75 0 129 -54.5t54 -131.5v-1006q0 -77 -54 -131t-129 -54h-306zM208 130h177q22 0 38 15.5t16 39.5v1006q0 22 -16 38.5t-38 16.5h-177v-1116z" />
<glyph unicode="E" horiz-adv-x="512" d="M79 0v1377h375v-131h-246v-443h214v-120h-214v-553h244v-130h-373z" />
<glyph unicode="F" horiz-adv-x="473" d="M79 0v1377h375v-131h-246v-443h216v-120h-216v-683h-129z" />
<glyph unicode="G" horiz-adv-x="610" d="M79 185v1006q0 75 55 130.5t129 55.5h85q76 0 130.5 -54.5t54.5 -131.5v-153h-130v153q0 22 -15.5 38.5t-39.5 16.5h-85q-22 0 -38.5 -16.5t-16.5 -38.5v-1006q0 -24 17 -39.5t38 -15.5h85q22 0 38.5 15.5t16.5 39.5v378h-84v120h214v-498q0 -77 -54.5 -131t-130.5 -54 h-85q-77 0 -130.5 54t-53.5 131z" />
<glyph unicode="H" horiz-adv-x="658" d="M79 0v1377h129v-574h242v574h130v-1377h-130v683h-242v-683h-129z" />
<glyph unicode="I" horiz-adv-x="510" d="M79 0v130h112v1116h-112v131h354v-131h-112v-1116h112v-130h-354z" />
<glyph unicode="J" horiz-adv-x="581" d="M49 185v211h130v-211q0 -24 16.5 -39.5t38.5 -15.5h85q24 0 39 15.5t15 39.5v1061h-184v131h314v-1192q0 -77 -53.5 -131t-130.5 -54h-85q-75 0 -130 54t-55 131z" />
<glyph unicode="K" horiz-adv-x="597" d="M79 0v1377h129v-574h49l178 574h133l-202 -614l200 -763h-133l-180 683h-45v-683h-129z" />
<glyph unicode="L" horiz-adv-x="510" d="M79 0v1377h129v-1247h244v-130h-373z" />
<glyph unicode="M" horiz-adv-x="935" d="M79 0v1377h184l206 -1100l201 1100h187v-1377h-129v586l41 536l-14 2l-216 -1124h-138l-214 1124l-14 -2l35 -536v-586h-129z" />
<glyph unicode="N" horiz-adv-x="711" d="M79 0v1377h176l272 -1120l13 4l-37 490v626h130v-1377h-175l-273 1139l-14 -4l37 -510v-625h-129z" />
<glyph unicode="O" horiz-adv-x="656" d="M79 185v1006q0 77 55 131.5t129 54.5h131q76 0 130 -54.5t54 -131.5v-1006q0 -77 -54.5 -131t-129.5 -54h-131q-75 0 -129.5 54t-54.5 131zM208 185q0 -24 17 -39.5t38 -15.5h131q22 0 38 15.5t16 39.5v1006q0 22 -16.5 38.5t-37.5 16.5h-131q-22 0 -38.5 -16.5 t-16.5 -38.5v-1006z" />
<glyph unicode="P" horiz-adv-x="619" d="M79 0v1377h287q75 0 129.5 -54.5t54.5 -131.5v-448q0 -77 -48 -129.5t-125 -52.5h-169v-561h-129zM208 683h150q28 0 45 21.5t17 48.5v438q0 22 -16.5 38.5t-37.5 16.5h-158v-563z" />
<glyph unicode="Q" horiz-adv-x="653" d="M79 185v1006q0 77 54 131.5t130 54.5h129q76 0 130 -54.5t54 -131.5v-1006q0 -77 -54 -131t-130 -54h-129q-77 0 -130.5 54t-53.5 131zM154 -53q74 0 126 -18.5t119 -63.5q93 -59 173 -60v-109q-75 0 -126.5 18t-119.5 64q-88 59 -172 59v110zM208 185q0 -24 17 -39.5 t38 -15.5h129q24 0 39 15.5t15 39.5v1006q0 22 -15.5 38.5t-38.5 16.5h-129q-22 0 -38.5 -16.5t-16.5 -38.5v-1006z" />
<glyph unicode="R" horiz-adv-x="634" d="M79 0v1377h293q74 0 129.5 -55.5t55.5 -130.5v-271q0 -124 -116 -179q116 -26 116 -148v-593h-131v584q0 98 -98 99h-120v-683h-129zM208 803h101q118 0 117 125v263q0 22 -16 38.5t-38 16.5h-164v-443z" />
<glyph unicode="S" horiz-adv-x="617" d="M79 185v211h129v-211q0 -24 17 -39.5t38 -15.5h91q22 0 38.5 15.5t16.5 39.5v234q0 82 -41 131l-224 274q-65 80 -65 208v159q0 75 55 130.5t129 55.5h91q75 0 130 -54.5t55 -131.5v-153h-130v153q0 22 -17 38.5t-38 16.5h-91q-22 0 -38.5 -16.5t-16.5 -38.5v-159 q0 -81 42 -132l222 -273q68 -81 67 -208v-234q0 -77 -55.5 -131t-129.5 -54h-91q-77 0 -130.5 54t-53.5 131z" />
<glyph unicode="T" horiz-adv-x="546" d="M49 1246v131h448v-131h-159v-1246h-130v1246h-159z" />
<glyph unicode="U" horiz-adv-x="658" d="M79 185v1192h129v-1192q0 -24 16 -39.5t39 -15.5h133q22 0 38 15.5t16 39.5v1192h130v-1192q0 -77 -55.5 -131t-128.5 -54h-133q-77 0 -130.5 54t-53.5 131z" />
<glyph unicode="V" horiz-adv-x="677" d="M30 1377h133l175 -1204l178 1204h133l-214 -1377h-195z" />
<glyph unicode="W" horiz-adv-x="1053" d="M39 1377h130l161 -1202h8l69 605l55 325l-38 272h207l-40 -272l56 -325l68 -605h9l159 1202h132l-201 -1377h-189l-94 808h-8l-97 -808h-188z" />
<glyph unicode="X" horiz-adv-x="703" d="M30 0l210 737l-189 640h134l167 -559l167 559h136l-193 -640l212 -737h-134l-188 657l-187 -657h-135z" />
<glyph unicode="Y" horiz-adv-x="615" d="M19 1377h135l150 -549l158 549h134l-226 -748v-499h112v-130h-354v130h112v497z" />
<glyph unicode="Z" horiz-adv-x="565" d="M39 0l315 1246h-271v131h444l-315 -1247h274v-130h-447z" />
<glyph unicode="[" horiz-adv-x="362" d="M59 -302v1679h245v-120h-124v-1437h124v-122h-245z" />
<glyph unicode="\" horiz-adv-x="687" d="M19 1475h125l535 -1777h-124z" />
<glyph unicode="]" horiz-adv-x="362" d="M59 -180h123v1437h-123v120h245v-1679h-245v122z" />
<glyph unicode="_" horiz-adv-x="1199" d="M59 -299h1081v-95h-1081v95z" />
<glyph unicode="`" horiz-adv-x="410" d="M88 1302l60 75l175 -131l-60 -74z" />
<glyph unicode="a" d="M69 156v290q0 75 55 129t128 54h198v247q0 26 -18.5 44t-41.5 18h-118q-26 0 -44 -18q-17 -16 -18 -44v-101h-122v103q0 77 54.5 130.5t131.5 53.5h118q75 0 128.5 -55.5t53.5 -128.5v-878h-102l-20 47l-139 -45q-43 -12 -71 -12q-77 0 -125 46.5t-48 119.5zM191 171 q0 -26 18.5 -42.5t42.5 -16.5q13 0 22 2l176 61v332h-198q-24 0 -42.5 -19.5t-18.5 -41.5v-275z" />
<glyph unicode="b" d="M69 0v1377h122v-360l139 43q32 11 67 11q77 0 127 -47t50 -124v-715q0 -77 -53 -131t-129 -54h-323zM191 122h201q26 0 43 17.5t17 42.5v713q0 53 -55 53q-16 0 -31 -6l-175 -59v-761z" />
<glyph unicode="c" horiz-adv-x="599" d="M69 182v694q0 77 54 131.5t129 54.5h96q76 0 129.5 -54.5t53.5 -131.5v-101h-122v101q0 26 -18 44t-43 18h-96q-26 0 -43.5 -18t-17.5 -44v-694q0 -26 18 -43t43 -17h96q25 0 43 17.5t18 42.5v168h122v-168q0 -74 -53.5 -128t-129.5 -54h-96q-75 0 -129 54t-54 128z" />
<glyph unicode="d" d="M69 163v737q0 75 52 123t127 48q35 0 65 -9l139 -45v360h122v-1377h-102l-20 47l-139 -47q-30 -10 -67 -10q-73 0 -125 50t-52 123zM191 163q0 -24 15.5 -37.5t39.5 -13.5q9 0 26 4l180 59v710l-180 61q-17 3 -24 3q-24 0 -40.5 -14.5t-16.5 -37.5v-734z" />
<glyph unicode="e" horiz-adv-x="623" d="M69 185v693q0 77 54 130.5t129 53.5h120q76 0 129.5 -54.5t53.5 -129.5v-371h-364v-325q0 -26 18.5 -43t42.5 -17h120q25 0 43 18.5t18 41.5v168h122v-165q0 -77 -54.5 -131t-128.5 -54h-120q-75 0 -129 56t-54 129zM191 629h242v247q0 26 -18.5 44t-42.5 18h-120 q-26 0 -43.5 -19t-17.5 -43v-247z" />
<glyph unicode="f" horiz-adv-x="439" d="M30 938v124h94v131q0 75 55 129.5t127 54.5h105v-122h-105q-26 0 -43 -19t-17 -43v-131h146v-124h-146v-938h-122v938h-94z" />
<glyph unicode="g" horiz-adv-x="617" d="M69 163v739q0 71 52 120t125 49q39 0 67 -9l113 -45l20 45h102v-1184q0 -77 -52.5 -129.5t-129.5 -52.5h-236v122h236q26 0 43 17t17 43v169l-113 -47q-28 -10 -65 -10q-75 0 -127 50t-52 123zM191 165q0 -24 15.5 -38.5t39.5 -14.5q19 0 28 4l152 59v710l-154 61 q-13 5 -28 5q-53 0 -53 -52v-734z" />
<glyph unicode="h" horiz-adv-x="617" d="M69 0v1377h122v-360l113 45q34 9 64 9q75 0 127.5 -53.5t52.5 -128.5v-889h-122v897q0 24 -16 38t-42 14q-8 0 -24 -3l-153 -61v-885h-122z" />
<glyph unicode="i" horiz-adv-x="278" d="M79 0v1062h122v-1062h-122zM81 1236v141h120v-141h-120z" />
<glyph unicode="j" horiz-adv-x="278" d="M-65 -77v-122h82q73 0 128.5 54.5t55.5 129.5v1077h-122v-1077q0 -26 -17 -44t-45 -18h-82zM81 1236v141h120v-141h-120z" />
<glyph unicode="k" horiz-adv-x="602" d="M69 0v1377h122v-748h55l197 433h131l-222 -496l220 -566h-129l-201 507h-51v-507h-122z" />
<glyph unicode="l" horiz-adv-x="278" d="M79 0v1377h122v-1377h-122z" />
<glyph unicode="m" horiz-adv-x="906" d="M69 0v1062h102l20 -45l64 37q34 17 83 17q94 0 142 -64l100 47q35 17 82 17q77 0 126 -49t49 -123v-899h-122v899q0 50 -51 50q-17 0 -33 -7l-117 -57v-885h-122v897q0 52 -54 52q-15 0 -32 -7l-115 -57v-885h-122z" />
<glyph unicode="n" horiz-adv-x="617" d="M69 0v1062h102l20 -45l113 45q34 9 64 9q75 0 127.5 -53.5t52.5 -128.5v-889h-122v897q0 24 -16 38t-42 14q-8 0 -24 -3l-153 -61v-885h-122z" />
<glyph unicode="o" horiz-adv-x="644" d="M69 182v694q0 77 53 131.5t130 54.5h142q74 0 128 -54.5t54 -131.5v-694q0 -74 -53.5 -128t-128.5 -54h-142q-77 0 -130 54t-53 128zM191 182q0 -26 18 -43t43 -17h142q26 0 43 17t17 43v694q0 26 -17.5 44t-42.5 18h-142q-26 0 -43.5 -18t-17.5 -44v-694z" />
<glyph unicode="p" horiz-adv-x="617" d="M69 -304v1366h102l20 -45l115 43q30 11 64 11q73 0 125.5 -49t52.5 -123v-736q0 -77 -50 -125t-130 -48q-32 0 -62 12l-115 43v-349h-122zM191 175l155 -57q11 -4 20 -4q26 0 43 15t17 38v722q0 59 -60 59q-14 0 -20 -2l-155 -61v-710z" />
<glyph unicode="q" horiz-adv-x="617" d="M69 163v713q0 77 54 131.5t129 54.5h296v-1366h-122v351l-115 -47q-28 -10 -67 -10q-77 0 -126 49t-49 124zM191 169q0 -57 53 -57q12 0 28 4l154 59v763h-174q-26 0 -43.5 -19t-17.5 -43v-707z" />
<glyph unicode="r" horiz-adv-x="424" d="M69 0v1062h102l20 -45q72 54 194 54v-122q-65 -1 -106 -22t-59.5 -64t-23.5 -84.5t-5 -108.5v-670h-122z" />
<glyph unicode="s" horiz-adv-x="604" d="M69 182v168h122v-168q0 -26 18 -43t43 -17h100q26 0 44.5 17.5t18.5 42.5v83q0 51 -42 93l-223 222q-81 79 -81 191v105q0 77 54 131.5t129 54.5h100q77 0 131 -54.5t54 -131.5v-101h-122v101q0 26 -19 44t-44 18h-100q-26 0 -43.5 -18t-17.5 -44v-96q0 -60 47 -108 l230 -226q69 -69 69 -170v-94q0 -74 -54.5 -128t-130.5 -54h-100q-75 0 -129 54t-54 128z" />
<glyph unicode="t" horiz-adv-x="418" d="M30 938v124h107v163h124v-163h129v-124h-129v-756q0 -26 19 -43t43 -17h67v-122h-69q-75 0 -128.5 56t-53.5 129v753h-109z" />
<glyph unicode="u" horiz-adv-x="612" d="M69 165v897h122v-897q0 -53 61 -53q11 0 25 6l145 59v885h122v-1062h-122v47l-99 -43q-36 -14 -71 -14q-79 0 -131 47t-52 128z" />
<glyph unicode="v" horiz-adv-x="634" d="M19 1062h125l162 -940h22l164 940h123l-193 -1062h-210z" />
<glyph unicode="w" horiz-adv-x="996" d="M19 1062h125l155 -940h16l120 655l-56 285h234l-52 -285l120 -655h17l154 940h125l-187 -1062h-206l-87 507l-86 -507h-207z" />
<glyph unicode="x" horiz-adv-x="664" d="M19 0l201 568l-179 494h132l146 -433h25l146 433h131l-178 -494l202 -568h-129l-170 507h-29l-167 -507h-131z" />
<glyph unicode="y" horiz-adv-x="579" d="M19 1062h125l139 -940h17l126 940h124l-188 -1366h-124l43 304h-104z" />
<glyph unicode="z" horiz-adv-x="540" d="M39 0l291 938h-267v124h438l-291 -940h268v-122h-439z" />
<glyph unicode="{" horiz-adv-x="418" d="M59 537v120h51q20 0 34.5 13.5t14.5 35.5v521q0 60 44.5 105t105.5 45h51v-120h-32q-19 0 -34 -15.5t-15 -34.5v-487q0 -102 -75 -124q75 -17 75 -114v-615q0 -20 15 -34.5t34 -14.5h32v-120h-51q-60 0 -105 44t-45 104v642q0 19 -14.5 34t-34.5 15h-51z" />
<glyph unicode="|" horiz-adv-x="223" d="M59 -302v1679h110v-1679h-110z" />
<glyph unicode="}" horiz-adv-x="418" d="M59 -182h31q19 0 34 14t15 35v615q0 96 75 114q-75 22 -75 124v487q0 19 -14.5 34.5t-34.5 15.5h-31v120h51q61 0 105 -45t44 -105v-521q0 -22 14 -35.5t36 -13.5h51v-120h-51q-22 0 -36 -15t-14 -34v-642q0 -60 -44 -104t-105 -44h-51v120z" />
<glyph unicode="~" horiz-adv-x="906" d="M59 550q94 126 228 127q77 0 169 -53.5t140 -53.5q90 0 173 100l79 -62q-47 -61 -115.5 -100t-136.5 -39q-71 0 -168.5 54.5t-140.5 54.5q-84 0 -150 -88z" />
<glyph unicode="&#xa1;" horiz-adv-x="237" d="M59 -315v1113h120v-1113h-120zM59 923v139h120v-139h-120z" />
<glyph unicode="&#xa2;" horiz-adv-x="561" d="M59 394v587q0 71 51 123t120 56v217h100v-217q71 -2 122 -55t51 -124v-114h-120v114q0 26 -18.5 43.5t-40.5 17.5h-86q-24 0 -41.5 -18.5t-17.5 -42.5v-587q0 -26 17.5 -43t41.5 -17h86q26 0 42.5 18t16.5 42v120h120v-120q0 -73 -52 -125.5t-121 -54.5v-214h-100v214 q-71 2 -121 55.5t-50 124.5z" />
<glyph unicode="&#xa3;" horiz-adv-x="612" d="M59 0v120h114v513h-114v110h114v454q0 75 52 127.5t127 52.5h23q73 0 126.5 -53.5t53.5 -126.5v-135h-118v135q0 26 -18 44t-44 18h-23q-26 0 -42.5 -18t-16.5 -44v-454h175v-110h-175v-513h262v-120h-496z" />
<glyph unicode="&#xa4;" horiz-adv-x="756" d="M59 493l89 89q-49 71 -50 161q0 88 50 159l-89 89l71 71l86 -87q77 51 163 51q92 0 161 -51l87 87l71 -71l-86 -87q50 -69 50 -161q0 -86 -50 -163l86 -87l-71 -71l-88 89q-71 -49 -160 -49q-90 0 -161 49l-88 -89zM199 743q0 -75 53.5 -127.5t126.5 -52.5 q75 0 129.5 52.5t54.5 127.5t-54.5 129t-129.5 54t-127.5 -54t-52.5 -129z" />
<glyph unicode="&#xa5;" horiz-adv-x="693" d="M59 1377h134l151 -549l157 549h135l-168 -553h147v-109h-180l-26 -86v-41h206v-108h-206v-360h112v-120h-354v120h112v360h-200v108h200v39l-26 88h-174v109h143z" />
<glyph unicode="&#xa6;" horiz-adv-x="217" d="M59 -302v739h100v-739h-100zM59 713v664h100v-664h-100z" />
<glyph unicode="&#xa7;" horiz-adv-x="528" d="M59 163v113h110v-113q0 -22 20.5 -37.5t46.5 -15.5h49q65 0 65 65q0 39 -2 58.5t-12 46t-30 50.5l-184 216q-63 75 -63 176q0 122 123 208l-43 51q-47 55 -58.5 98t-11.5 124q0 77 50 125.5t127 48.5h39q73 0 124 -47.5t51 -116.5v-110h-110v100q0 28 -18.5 45.5 t-46.5 17.5h-39q-67 0 -67 -67q0 -37 1.5 -54.5t11 -42.5t30.5 -48l187 -219q60 -73 60 -173q0 -123 -121 -208l44 -53q45 -53 56.5 -98.5t11.5 -127.5q0 -77 -50 -126t-125 -49h-49q-71 0 -124 47t-53 116zM169 722q0 -60 37 -103l70 -82q84 52 84 125q0 61 -36 103l-69 83 q-86 -57 -86 -126z" />
<glyph unicode="&#xa8;" horiz-adv-x="465" d="M59 1236v141h120v-141h-120zM289 1236v141h118v-141h-118z" />
<glyph unicode="&#xa9;" horiz-adv-x="972" d="M59 348v680q0 154 108.5 262t260.5 108h118q152 0 260 -109t108 -261v-680q0 -152 -108 -261t-260 -109h-118q-153 0 -261 108.5t-108 261.5zM159 348q0 -113 79 -191t190 -78h118q111 0 190.5 80t79.5 189v680q0 111 -79.5 190.5t-190.5 79.5h-118q-112 0 -190.5 -79 t-78.5 -191v-680zM261 373v640q0 73 52.5 125.5t127.5 52.5h94q73 0 125.5 -53t52.5 -125v-99h-120v99q0 26 -17 43t-41 17h-94q-26 0 -44 -17.5t-18 -42.5v-640q0 -25 18 -42.5t44 -17.5h94q24 0 41 17.5t17 42.5v166h120v-166q0 -74 -51.5 -127t-126.5 -53h-94 q-75 0 -127.5 53t-52.5 127z" />
<glyph unicode="&#xab;" horiz-adv-x="579" d="M59 531l181 397h88l-131 -397l131 -399h-88zM300 531l133 397h88l-90 -397l90 -399h-88z" />
<glyph unicode="&#xac;" horiz-adv-x="919" d="M59 820v124h802v-413h-124v289h-678z" />
<glyph unicode="&#xad;" horiz-adv-x="484" d="M59 490v99h367v-99h-367z" />
<glyph unicode="&#xae;" horiz-adv-x="974" d="M59 348v680q0 152 108.5 261t258.5 109h122q152 0 260 -109t108 -261v-680q0 -154 -107 -262t-261 -108h-122q-151 0 -259 109.5t-108 260.5zM159 348q0 -111 79 -190t188 -79h122q111 0 190.5 80t79.5 189v680q0 111 -79.5 190.5t-190.5 79.5h-122q-110 0 -188.5 -79.5 t-78.5 -190.5v-680zM291 193v998h236q75 0 127 -53t52 -125v-132q0 -43 -25.5 -85.5t-67.5 -65.5q36 -16 64.5 -61.5t28.5 -88.5v-387h-118v387q0 37 -26.5 63.5t-64.5 26.5h-86v-477h-120zM411 790h86q38 0 64.5 27t26.5 64v132q0 24 -18 42t-43 18h-116v-283z" />
<glyph unicode="&#xaf;" horiz-adv-x="552" d="M88 1276v101h376v-101h-376z" />
<glyph unicode="&#xb0;" horiz-adv-x="557" d="M59 1178q0 90 65 155t157 65q91 0 154.5 -66t63.5 -154q0 -92 -63.5 -156.5t-154.5 -64.5q-92 0 -157 64t-65 157zM148 1178q0 -57 38 -94.5t95 -37.5q55 0 93.5 38t38.5 94q0 53 -39.5 92t-92.5 39q-54 0 -93.5 -38t-39.5 -93z" />
<glyph unicode="&#xb1;" horiz-adv-x="764" d="M59 157v100h647v-100h-647zM59 688v100h273v274h101v-274h273v-100h-273v-273h-101v273h-273z" />
<glyph unicode="&#xb2;" horiz-adv-x="336" d="M59 794v93q0 51 21.5 98t60 104t52.5 85q8 17 8 49v69q0 12 -10 12h-45q-10 0 -11 -12v-82h-76v84q0 36 25.5 59.5t61.5 23.5h45q37 0 61.5 -24t24.5 -59v-73q0 -49 -14 -77q-13 -29 -48.5 -78t-57.5 -91.5t-22 -87.5v-16h142v-77h-218z" />
<glyph unicode="&#xb3;" horiz-adv-x="330" d="M59 881v91h76v-91q0 -9 13 -10h37q10 0 10 10v194q0 22 -24 22q-22 0 -39 -33l-67 31l120 205h-126v77h213v-71l-92 -148q8 6 26 6q30 0 48 -18.5t18 -46.5v-218q0 -37 -26 -62t-61 -25h-37q-38 0 -63.5 25t-25.5 62z" />
<glyph unicode="&#xb4;" horiz-adv-x="410" d="M88 1246l175 131l60 -75l-175 -130z" />
<glyph unicode="&#xb5;" horiz-adv-x="632" d="M79 -199v1261h122v-897q0 -53 60 -53q10 0 26 6l146 59v885h122v-1062h-122v47l-101 -43q-35 -14 -71 -14q-32 0 -60 10v-199h-122z" />
<glyph unicode="&#xb6;" horiz-adv-x="528" d="M59 914v274q0 78 56 133.5t135 55.5h219v-1377h-105v1270h-55v-544h-73q-77 0 -127 54.5t-50 133.5z" />
<glyph unicode="&#xb7;" horiz-adv-x="235" d="M59 666v140h118v-140h-118z" />
<glyph unicode="&#xb8;" horiz-adv-x="325" d="M59 -216h95q7 0 15 7.5t8 17.5v16q0 24 -23 23h-81v191h73v-104h8q45 0 79.5 -32.5t34.5 -79.5v-12q0 -45 -33.5 -80t-80.5 -35h-95v88z" />
<glyph unicode="&#xbb;" horiz-adv-x="579" d="M59 132l91 399l-91 397h89l131 -397l-131 -399h-89zM252 132l131 399l-131 397h88l181 -397l-181 -399h-88z" />
<glyph unicode="&#xbc;" horiz-adv-x="904" d="M59 1285v92h173v-705h72v-90h-241v90h74v613h-78zM191 0l454 1377h104l-454 -1377h-104zM519 159v81l143 556h118v-552h66v-85h-66v-159h-86v159h-175zM606 244h88v193l12 216z" />
<glyph unicode="&#xbd;" horiz-adv-x="949" d="M59 1285v92h173v-705h72v-90h-241v90h74v613h-78zM191 0l454 1377h104l-454 -1377h-104zM606 0v116q0 87 35 149l149 256q14 30 14 77v79q0 11 -10 20t-19 9h-51q-12 0 -21 -10t-9 -19v-95h-88v104q0 46 32 77t75 31h71q45 0 76 -31t31 -77v-108q0 -51 -16 -90l-153 -270 q-22 -43 -22 -88v-40h191v-90h-285z" />
<glyph unicode="&#xbe;" horiz-adv-x="906" d="M59 1007l161 277h-160v93h264v-85l-125 -211q13 10 37 11q40 0 64 -25t24 -71v-306q0 -45 -32.5 -76.5t-77.5 -31.5h-47q-43 0 -75 31.5t-32 76.5v126h94v-116q0 -12 7.5 -21t17.5 -9h24q11 0 20 9t9 21v270q0 11 -9 19.5t-22 8.5q-36 0 -53 -39zM193 0l454 1377h104 l-454 -1377h-104zM521 159v81l143 556h118v-552h66v-85h-66v-159h-86v159h-175zM608 244h88v193l12 216z" />
<glyph unicode="&#xbf;" horiz-adv-x="553" d="M79 22q0 100 68.5 308.5t68.5 310.5v157h120v-157q0 -110 -68.5 -319.5t-68.5 -299.5v-157q0 -26 16.5 -43t41.5 -17h40q26 0 42.5 17t16.5 43v157h120v-157q0 -73 -53 -126.5t-126 -53.5h-40q-75 0 -126.5 52.5t-51.5 127.5v157zM216 923v139h120v-139h-120z" />
<glyph unicode="&#xc0;" horiz-adv-x="685" d="M39 0l188 1377h233l187 -1377h-130l-59 405h-230l-57 -405h-132zM227 1604l58 75l175 -130l-59 -74zM242 525h202l-96 723h-10z" />
<glyph unicode="&#xc1;" horiz-adv-x="685" d="M39 0l188 1377h233l187 -1377h-130l-59 405h-230l-57 -405h-132zM227 1549l174 130l59 -75l-175 -129zM242 525h202l-96 723h-10z" />
<glyph unicode="&#xc2;" horiz-adv-x="685" d="M39 0l188 1377h233l187 -1377h-130l-59 405h-230l-57 -405h-132zM154 1549l176 111h26l175 -111l-59 -74l-130 82l-130 -82zM242 525h202l-96 723h-10z" />
<glyph unicode="&#xc3;" horiz-adv-x="685" d="M39 0l188 1377h233l187 -1377h-130l-59 405h-230l-57 -405h-132zM135 1475q0 60 35.5 100.5t94.5 40.5q41 0 85 -26.5t69 -26.5q49 0 49 53h82q0 -61 -35 -101t-93 -40q-41 0 -84 27t-64 27q-56 0 -56 -54h-83zM242 525h202l-96 723h-10z" />
<glyph unicode="&#xc4;" horiz-adv-x="685" d="M39 0l188 1377h233l187 -1377h-130l-59 405h-230l-57 -405h-132zM169 1475v139h120v-139h-120zM242 525h202l-96 723h-10zM399 1475v139h118v-139h-118z" />
<glyph unicode="&#xc5;" horiz-adv-x="685" d="M39 0l188 1377h233l187 -1377h-130l-59 405h-230l-57 -405h-132zM203 1590q0 59 40 99.5t99 40.5t99.5 -40.5t40.5 -99.5t-40.5 -99t-99.5 -40t-99 40t-40 99zM242 525h202l-96 723h-10zM274 1591q0 -28 20.5 -48.5t48 -20.5t48 20.5t20.5 48.5t-20.5 48.5t-48 20.5 t-48 -20.5t-20.5 -48.5z" />
<glyph unicode="&#xc6;" horiz-adv-x="940" d="M39 0l295 1377h549v-131h-244v-443h214v-120h-214v-553h244v-130h-376v396h-250l-86 -396h-132zM281 516h226v732h-70z" />
<glyph unicode="&#xc7;" horiz-adv-x="610" d="M79 185v1006q0 77 55 131.5t129 54.5h85q76 0 130.5 -54.5t54.5 -131.5v-153h-130v153q0 22 -15.5 38.5t-39.5 16.5h-85q-22 0 -38.5 -16.5t-16.5 -38.5v-1006q0 -24 17 -39.5t38 -15.5h85q22 0 38.5 15.5t16.5 39.5v211h130v-211q0 -77 -54.5 -131t-130.5 -54h-18v-65h8 q45 0 79.5 -32.5t34.5 -79.5v-12q0 -45 -33.5 -80t-80.5 -35h-94v88h94q8 0 16 7.5t8 17.5v16q0 24 -24 23h-81v152q-75 2 -126.5 56t-51.5 129z" />
<glyph unicode="&#xc8;" horiz-adv-x="512" d="M79 0v1377h375v-131h-246v-443h214v-120h-214v-553h244v-130h-373zM135 1604l60 75l175 -130l-59 -74z" />
<glyph unicode="&#xc9;" horiz-adv-x="512" d="M79 0v1377h375v-131h-246v-443h214v-120h-214v-553h244v-130h-373zM135 1549l176 130l59 -75l-175 -129z" />
<glyph unicode="&#xca;" horiz-adv-x="516" d="M79 1549l176 111h26l175 -111l-59 -74l-129 82l-131 -82zM83 0v1377h375v-131h-246v-443h214v-120h-214v-553h244v-130h-373z" />
<glyph unicode="&#xcb;" horiz-adv-x="512" d="M79 0v1377h375v-131h-246v-443h214v-120h-214v-553h244v-130h-373zM79 1475v139h120v-139h-120zM309 1475v139h117v-139h-117z" />
<glyph unicode="&#xcc;" horiz-adv-x="510" d="M79 0v130h112v1116h-112v131h354v-131h-112v-1116h112v-130h-354zM139 1604l60 75l174 -130l-58 -74z" />
<glyph unicode="&#xcd;" horiz-adv-x="510" d="M79 0v130h112v1116h-112v131h354v-131h-112v-1116h112v-130h-354zM139 1549l176 130l58 -75l-174 -129z" />
<glyph unicode="&#xce;" horiz-adv-x="534" d="M79 1549l176 111h26l175 -111l-59 -74l-129 82l-131 -82zM90 0v130h113v1116h-113v131h354v-131h-112v-1116h112v-130h-354z" />
<glyph unicode="&#xcf;" horiz-adv-x="510" d="M79 0v130h112v1116h-112v131h354v-131h-112v-1116h112v-130h-354zM83 1475v139h120v-139h-120zM313 1475v139h118v-139h-118z" />
<glyph unicode="&#xd0;" horiz-adv-x="646" d="M-19 692v100h98v585h306q75 0 129 -54.5t54 -131.5v-1006q0 -77 -54 -131t-129 -54h-306v692h-98zM208 130h177q22 0 38 15.5t16 39.5v1006q0 22 -16 38.5t-38 16.5h-177v-454h160v-100h-160v-562z" />
<glyph unicode="&#xd1;" horiz-adv-x="711" d="M79 0v1377h176l272 -1120l13 4l-37 490v626h130v-1377h-175l-273 1139l-14 -4l37 -510v-625h-129zM150 1475q0 60 35 100.5t94 40.5q42 0 85 -26.5t69 -26.5q49 0 49 53h82q0 -61 -35.5 -101t-91.5 -40q-41 0 -84.5 27t-65.5 27q-55 0 -55 -54h-82z" />
<glyph unicode="&#xd2;" horiz-adv-x="656" d="M79 185v1006q0 77 55 131.5t129 54.5h131q76 0 130 -54.5t54 -131.5v-1006q0 -77 -54.5 -131t-129.5 -54h-131q-75 0 -129.5 54t-54.5 131zM208 185q0 -24 17 -39.5t38 -15.5h131q22 0 38 15.5t16 39.5v1006q0 22 -16.5 38.5t-37.5 16.5h-131q-22 0 -38.5 -16.5 t-16.5 -38.5v-1006zM212 1604l60 75l174 -130l-59 -74z" />
<glyph unicode="&#xd3;" horiz-adv-x="656" d="M79 185v1006q0 77 55 131.5t129 54.5h131q76 0 130 -54.5t54 -131.5v-1006q0 -77 -54.5 -131t-129.5 -54h-131q-75 0 -129.5 54t-54.5 131zM208 185q0 -24 17 -39.5t38 -15.5h131q22 0 38 15.5t16 39.5v1006q0 22 -16.5 38.5t-37.5 16.5h-131q-22 0 -38.5 -16.5 t-16.5 -38.5v-1006zM212 1549l175 130l59 -75l-174 -129z" />
<glyph unicode="&#xd4;" horiz-adv-x="656" d="M79 185v1006q0 77 55 131.5t129 54.5h131q76 0 130 -54.5t54 -131.5v-1006q0 -77 -54.5 -131t-129.5 -54h-131q-75 0 -129.5 54t-54.5 131zM139 1549l178 111h25l175 -111l-59 -74l-130 82l-129 -82zM208 185q0 -24 17 -39.5t38 -15.5h131q22 0 38 15.5t16 39.5v1006 q0 22 -16.5 38.5t-37.5 16.5h-131q-22 0 -38.5 -16.5t-16.5 -38.5v-1006z" />
<glyph unicode="&#xd5;" horiz-adv-x="656" d="M79 185v1006q0 77 55 131.5t129 54.5h131q76 0 130 -54.5t54 -131.5v-1006q0 -77 -54.5 -131t-129.5 -54h-131q-75 0 -129.5 54t-54.5 131zM122 1475q0 60 35.5 100.5t94.5 40.5q41 0 84 -26.5t69 -26.5q49 0 49 53h83q0 -61 -35.5 -101t-92.5 -40q-41 0 -84.5 27 t-65.5 27q-55 0 -55 -54h-82zM208 185q0 -24 17 -39.5t38 -15.5h131q22 0 38 15.5t16 39.5v1006q0 22 -16.5 38.5t-37.5 16.5h-131q-22 0 -38.5 -16.5t-16.5 -38.5v-1006z" />
<glyph unicode="&#xd6;" horiz-adv-x="656" d="M79 185v1006q0 77 55 131.5t129 54.5h131q76 0 130 -54.5t54 -131.5v-1006q0 -77 -54.5 -131t-129.5 -54h-131q-75 0 -129.5 54t-54.5 131zM156 1475v139h120v-139h-120zM208 185q0 -24 17 -39.5t38 -15.5h131q22 0 38 15.5t16 39.5v1006q0 22 -16.5 38.5t-37.5 16.5 h-131q-22 0 -38.5 -16.5t-16.5 -38.5v-1006zM385 1475v139h118v-139h-118z" />
<glyph unicode="&#xd7;" horiz-adv-x="646" d="M59 544l193 195l-193 193l71 70l194 -192l193 192l71 -70l-192 -193l192 -195l-71 -70l-193 194l-194 -194z" />
<glyph unicode="&#xd8;" horiz-adv-x="831" d="M79 0l84 201v990q0 77 55.5 131.5t129.5 54.5h130q88 0 145 -73l51 110l79 -37l-91 -217v-975q0 -77 -53.5 -131t-130.5 -54h-130q-87 0 -144 67l-45 -104zM265 444l268 639v108q0 22 -17 38.5t-38 16.5h-130q-23 0 -39 -16.5t-16 -38.5v-397zM293 185q0 -24 16.5 -39.5 t38.5 -15.5h130q22 0 38.5 15.5t16.5 39.5v411l35 336l-275 -655v-92z" />
<glyph unicode="&#xd9;" horiz-adv-x="658" d="M79 185v1192h129v-1192q0 -24 16 -39.5t39 -15.5h133q22 0 38 15.5t16 39.5v1192h130v-1192q0 -77 -55.5 -131t-128.5 -54h-133q-77 0 -130.5 54t-53.5 131zM212 1604l60 75l174 -130l-59 -74z" />
<glyph unicode="&#xda;" horiz-adv-x="658" d="M79 185v1192h129v-1192q0 -24 16 -39.5t39 -15.5h133q22 0 38 15.5t16 39.5v1192h130v-1192q0 -77 -55.5 -131t-128.5 -54h-133q-77 0 -130.5 54t-53.5 131zM212 1549l175 130l59 -75l-174 -129z" />
<glyph unicode="&#xdb;" horiz-adv-x="658" d="M79 185v1192h129v-1192q0 -24 16 -39.5t39 -15.5h133q22 0 38 15.5t16 39.5v1192h130v-1192q0 -77 -55.5 -131t-128.5 -54h-133q-77 0 -130.5 54t-53.5 131zM139 1549l178 111h25l175 -111l-59 -74l-130 82l-129 -82z" />
<glyph unicode="&#xdc;" horiz-adv-x="658" d="M79 185v1192h129v-1192q0 -24 16 -39.5t39 -15.5h133q22 0 38 15.5t16 39.5v1192h130v-1192q0 -77 -55.5 -131t-128.5 -54h-133q-77 0 -130.5 54t-53.5 131zM156 1475v139h120v-139h-120zM385 1475v139h118v-139h-118z" />
<glyph unicode="&#xdd;" horiz-adv-x="653" d="M39 1377h134l151 -549l158 549h133l-225 -748v-499h111v-130h-353v130h111v497zM210 1549l175 130l59 -75l-174 -129z" />
<glyph unicode="&#xde;" horiz-adv-x="619" d="M79 0v1377h129v-315h158q75 0 129.5 -54.5t54.5 -131.5v-420q0 -77 -48 -129.5t-125 -52.5h-169v-274h-129zM208 396h150q28 0 45 21.5t17 48.5v410q0 23 -16.5 39.5t-37.5 16.5h-158v-536z" />
<glyph unicode="&#xdf;" horiz-adv-x="744" d="M69 0v878q0 75 54 129.5t129 54.5h371v-122l-149 -227q-11 -17 -12 -34q0 -22 14 -42l143 -173q28 -32 39.5 -49.5t24.5 -52t13 -75.5v-102q0 -77 -54 -131t-128 -54h-52q-75 0 -129 54t-54 131v167h122v-167q0 -26 18 -44.5t43 -18.5h52q26 0 43 18.5t17 44.5v102 q0 41 -47 100l-146 174q-41 49 -41 118q0 58 32 103l106 158h-226q-26 0 -43.5 -18t-17.5 -44v-878h-122z" />
<glyph unicode="&#xe0;" d="M69 156v290q0 75 55 129t128 54h198v247q0 26 -18.5 44t-41.5 18h-118q-26 0 -44 -18q-17 -16 -18 -44v-101h-122v103q0 77 54.5 130.5t131.5 53.5h118q75 0 128.5 -55.5t53.5 -128.5v-878h-102l-20 47l-139 -45q-43 -12 -71 -12q-77 0 -125 46.5t-48 119.5zM191 171 q0 -26 18.5 -42.5t42.5 -16.5q13 0 22 2l176 61v332h-198q-24 0 -42.5 -19.5t-18.5 -41.5v-275zM204 1302l59 75l176 -131l-60 -74z" />
<glyph unicode="&#xe1;" d="M69 156v290q0 75 55 129t128 54h198v247q0 26 -18.5 44t-41.5 18h-118q-26 0 -44 -18q-17 -16 -18 -44v-101h-122v103q0 77 54.5 130.5t131.5 53.5h118q75 0 128.5 -55.5t53.5 -128.5v-878h-102l-20 47l-139 -45q-43 -12 -71 -12q-77 0 -125 46.5t-48 119.5zM191 171 q0 -26 18.5 -42.5t42.5 -16.5q13 0 22 2l176 61v332h-198q-24 0 -42.5 -19.5t-18.5 -41.5v-275zM204 1246l175 131l60 -75l-176 -130z" />
<glyph unicode="&#xe2;" d="M69 156v290q0 75 55 129t128 54h198v247q0 26 -18.5 44t-41.5 18h-118q-26 0 -44 -18q-17 -16 -18 -44v-101h-122v103q0 77 54.5 130.5t131.5 53.5h118q75 0 128.5 -55.5t53.5 -128.5v-878h-102l-20 47l-139 -45q-43 -12 -71 -12q-77 0 -125 46.5t-48 119.5zM132 1266 l177 111h25l175 -111l-59 -75l-129 83l-130 -83zM191 171q0 -26 18.5 -42.5t42.5 -16.5q13 0 22 2l176 61v332h-198q-24 0 -42.5 -19.5t-18.5 -41.5v-275z" />
<glyph unicode="&#xe3;" d="M69 156v290q0 75 55 129t128 54h198v247q0 26 -18.5 44t-41.5 18h-118q-26 0 -44 -18q-17 -16 -18 -44v-101h-122v103q0 77 54.5 130.5t131.5 53.5h118q75 0 128.5 -55.5t53.5 -128.5v-878h-102l-20 47l-139 -45q-43 -12 -71 -12q-77 0 -125 46.5t-48 119.5zM114 1235 q0 60 35.5 101t94.5 41q41 0 84.5 -27t68.5 -27q49 0 49 54h83q0 -61 -35.5 -101.5t-92.5 -40.5q-41 0 -84 27t-65 27q-55 0 -55 -54h-83zM191 171q0 -26 18.5 -42.5t42.5 -16.5q13 0 22 2l176 61v332h-198q-24 0 -42.5 -19.5t-18.5 -41.5v-275z" />
<glyph unicode="&#xe4;" d="M69 156v290q0 75 55 129t128 54h198v247q0 26 -18.5 44t-41.5 18h-118q-26 0 -44 -18q-17 -16 -18 -44v-101h-122v103q0 77 54.5 130.5t131.5 53.5h118q75 0 128.5 -55.5t53.5 -128.5v-878h-102l-20 47l-139 -45q-43 -12 -71 -12q-77 0 -125 46.5t-48 119.5zM148 1236 v141h120v-141h-120zM191 171q0 -26 18.5 -42.5t42.5 -16.5q13 0 22 2l176 61v332h-198q-24 0 -42.5 -19.5t-18.5 -41.5v-275zM377 1236v141h118v-141h-118z" />
<glyph unicode="&#xe5;" d="M69 156v290q0 75 55 129t128 54h198v247q0 26 -18.5 44t-41.5 18h-118q-26 0 -44 -18q-17 -16 -18 -44v-101h-122v103q0 77 54.5 130.5t131.5 53.5h118q75 0 128.5 -55.5t53.5 -128.5v-878h-102l-20 47l-139 -45q-43 -12 -71 -12q-77 0 -125 46.5t-48 119.5zM180 1276 q0 59 40.5 99.5t99.5 40.5t99.5 -40.5t40.5 -99.5t-40.5 -99t-99.5 -40t-99.5 40t-40.5 99zM191 171q0 -26 18.5 -42.5t42.5 -16.5q13 0 22 2l176 61v332h-198q-24 0 -42.5 -19.5t-18.5 -41.5v-275zM252 1276q0 -28 20.5 -48.5t48 -20.5t48.5 20.5t21 48.5t-21 48.5 t-48.5 20.5t-48 -20.5t-20.5 -48.5z" />
<glyph unicode="&#xe6;" horiz-adv-x="1006" d="M69 156v290q0 75 55 129t128 54h198v247q0 26 -18.5 44t-41.5 18h-118q-26 0 -44 -18q-17 -16 -18 -44v-101h-122v103q0 77 54.5 130.5t131.5 53.5h118q69 0 122 -47q50 47 122 47h119q76 0 129.5 -54.5t53.5 -129.5v-371h-364v-325q0 -26 19 -43t43 -17h119 q25 0 43 18.5t18 41.5v168h122v-165q0 -77 -54.5 -131t-128.5 -54h-119q-81 0 -139 63l-184 -61q-43 -12 -71 -12q-77 0 -125 46.5t-48 119.5zM191 171q0 -26 18.5 -42.5t42.5 -16.5q13 0 22 2l176 61v332h-198q-24 0 -42.5 -19.5t-18.5 -41.5v-275zM574 629h242v247 q0 26 -18.5 44t-42.5 18h-122q-26 0 -42.5 -16.5t-16.5 -38.5v-254z" />
<glyph unicode="&#xe7;" horiz-adv-x="599" d="M69 182v694q0 77 54 131.5t129 54.5h96q76 0 129.5 -54.5t53.5 -131.5v-101h-122v101q0 26 -18 44t-43 18h-96q-26 0 -43.5 -18t-17.5 -44v-694q0 -26 18 -43t43 -17h96q25 0 43 17.5t18 42.5v168h122v-168q0 -74 -53.5 -128t-129.5 -54h-31v-65h7q46 0 80.5 -32.5 t34.5 -79.5v-12q0 -45 -33.5 -80t-81.5 -35h-94v88h94q8 0 16 7.5t8 17.5v16q0 24 -24 23h-80v152q-73 2 -124 55t-51 127z" />
<glyph unicode="&#xe8;" horiz-adv-x="623" d="M69 185v693q0 77 54 130.5t129 53.5h120q76 0 129.5 -54.5t53.5 -129.5v-371h-364v-325q0 -26 18.5 -43t42.5 -17h120q25 0 43 18.5t18 41.5v168h122v-165q0 -77 -54.5 -131t-128.5 -54h-120q-75 0 -129 56t-54 129zM191 629h242v247q0 26 -18.5 44t-42.5 18h-120 q-26 0 -43.5 -19t-17.5 -43v-247zM195 1302l58 75l175 -131l-58 -74z" />
<glyph unicode="&#xe9;" horiz-adv-x="623" d="M69 185v693q0 77 54 130.5t129 53.5h120q76 0 129.5 -54.5t53.5 -129.5v-371h-364v-325q0 -26 18.5 -43t42.5 -17h120q25 0 43 18.5t18 41.5v168h122v-165q0 -77 -54.5 -131t-128.5 -54h-120q-75 0 -129 56t-54 129zM191 629h242v247q0 26 -18.5 44t-42.5 18h-120 q-26 0 -43.5 -19t-17.5 -43v-247zM195 1246l175 131l58 -75l-175 -130z" />
<glyph unicode="&#xea;" horiz-adv-x="623" d="M69 185v693q0 77 54 130.5t129 53.5h120q76 0 129.5 -54.5t53.5 -129.5v-371h-364v-325q0 -26 18.5 -43t42.5 -17h120q25 0 43 18.5t18 41.5v168h122v-165q0 -77 -54.5 -131t-128.5 -54h-120q-75 0 -129 56t-54 129zM122 1266l177 111h25l175 -111l-58 -75l-130 83 l-131 -83zM191 629h242v247q0 26 -18.5 44t-42.5 18h-120q-26 0 -43.5 -19t-17.5 -43v-247z" />
<glyph unicode="&#xeb;" horiz-adv-x="623" d="M69 185v693q0 77 54 130.5t129 53.5h120q76 0 129.5 -54.5t53.5 -129.5v-371h-364v-325q0 -26 18.5 -43t42.5 -17h120q25 0 43 18.5t18 41.5v168h122v-165q0 -77 -54.5 -131t-128.5 -54h-120q-75 0 -129 56t-54 129zM137 1236v141h120v-141h-120zM191 629h242v247 q0 26 -18.5 44t-42.5 18h-120q-26 0 -43.5 -19t-17.5 -43v-247zM368 1236v141h118v-141h-118z" />
<glyph unicode="&#xec;" horiz-adv-x="278" d="M24 1302l59 75l174 -131l-58 -74zM79 0v1062h122v-1062h-122z" />
<glyph unicode="&#xed;" horiz-adv-x="278" d="M24 1246l175 131l58 -75l-174 -130zM79 0h122v1062h-122v-1062z" />
<glyph unicode="&#xee;" horiz-adv-x="278" d="M-49 1266l177 111h26l174 -111l-58 -75l-131 83l-129 -83zM79 0v1062h122v-1062h-122z" />
<glyph unicode="&#xef;" horiz-adv-x="278" d="M-34 1236v141h120v-141h-120zM79 0v1062h122v-1062h-122zM197 1236v141h118v-141h-118z" />
<glyph unicode="&#xf0;" horiz-adv-x="640" d="M69 185v663q0 78 54 131t129 53q35 0 59 -10l139 -49v55q0 90 -78 128l-270 136l55 110l269 -136q146 -77 146 -238v-843q0 -77 -54 -131t-128 -54h-138q-75 0 -129 54t-54 131zM191 185q0 -26 18 -44.5t43 -18.5h138q26 0 43 18.5t17 44.5v659l-178 62q-12 4 -20 4 q-24 0 -42.5 -18.5t-18.5 -43.5v-663z" />
<glyph unicode="&#xf1;" horiz-adv-x="617" d="M69 0v1062h102l20 -45l113 45q34 9 64 9q75 0 127.5 -53.5t52.5 -128.5v-889h-122v897q0 24 -16 38t-42 14q-8 0 -24 -3l-153 -61v-885h-122zM102 1235q0 60 35.5 101t94.5 41q42 0 85 -27t68 -27q49 0 50 54h82q0 -61 -35.5 -101.5t-91.5 -40.5q-42 0 -85.5 27t-64.5 27 q-55 0 -55 -54h-83z" />
<glyph unicode="&#xf2;" horiz-adv-x="644" d="M69 182v694q0 77 53 131.5t130 54.5h142q74 0 128 -54.5t54 -131.5v-694q0 -74 -53.5 -128t-128.5 -54h-142q-77 0 -130 54t-53 128zM191 182q0 -26 18 -43t43 -17h142q26 0 43 17t17 43v694q0 26 -17.5 44t-42.5 18h-142q-26 0 -43.5 -18t-17.5 -44v-694zM206 1302 l59 75l176 -131l-60 -74z" />
<glyph unicode="&#xf3;" horiz-adv-x="644" d="M69 182q0 -74 53 -128t130 -54h142q76 0 129 54t53 128v694q0 77 -54 131.5t-128 54.5h-142q-77 0 -130 -54.5t-53 -131.5v-694zM191 182v694q0 26 18 44t43 18h142q26 0 43 -18t17 -44v-694q0 -26 -17.5 -43t-42.5 -17h-142q-26 0 -43.5 17.5t-17.5 42.5zM206 1246 l175 131l60 -75l-176 -130z" />
<glyph unicode="&#xf4;" horiz-adv-x="644" d="M69 182v694q0 77 53 131.5t130 54.5h142q74 0 128 -54.5t54 -131.5v-694q0 -74 -53.5 -128t-128.5 -54h-142q-77 0 -130 54t-53 128zM133 1266l178 111h25l175 -111l-59 -75l-129 83l-130 -83zM191 182q0 -26 18 -43t43 -17h142q26 0 43 17t17 43v694q0 26 -17.5 44 t-42.5 18h-142q-26 0 -43.5 -18t-17.5 -44v-694z" />
<glyph unicode="&#xf5;" horiz-adv-x="644" d="M69 182v694q0 77 53 131.5t130 54.5h142q74 0 128 -54.5t54 -131.5v-694q0 -74 -53.5 -128t-128.5 -54h-142q-77 0 -130 54t-53 128zM116 1235q0 60 35.5 101t94.5 41q41 0 84 -27t69 -27q49 0 49 54h83q0 -61 -35.5 -101.5t-92.5 -40.5q-41 0 -84 27t-66 27 q-54 0 -54 -54h-83zM191 182q0 -26 18 -43t43 -17h142q26 0 43 17t17 43v694q0 26 -17.5 44t-42.5 18h-142q-26 0 -43.5 -18t-17.5 -44v-694z" />
<glyph unicode="&#xf6;" horiz-adv-x="644" d="M69 182v694q0 77 53 131.5t130 54.5h142q74 0 128 -54.5t54 -131.5v-694q0 -74 -53.5 -128t-128.5 -54h-142q-77 0 -130 54t-53 128zM150 1236v141h120v-141h-120zM191 182q0 -26 18 -43t43 -17h142q26 0 43 17t17 43v694q0 26 -17.5 44t-42.5 18h-142q-26 0 -43.5 -18 t-17.5 -44v-694zM379 1236v141h118v-141h-118z" />
<glyph unicode="&#xf7;" horiz-adv-x="842" d="M59 688v100h725v-100h-725zM346 415v140h118v-140h-118zM346 923v139h118v-139h-118z" />
<glyph unicode="&#xf8;" horiz-adv-x="790" d="M69 0l70 139q-4 14 -4 43v694q0 75 54.5 130.5t131.5 55.5h141q71 0 126 -51l51 96l83 -45l-79 -152q4 -24 4 -34v-694q0 -74 -54 -128t-131 -54h-141q-73 0 -122 45l-47 -90zM227 304l296 577q-2 24 -19.5 40.5t-41.5 16.5h-141q-26 0 -44 -18t-18 -44v-290zM261 167 q4 -19 22 -32t38 -13h141q26 0 43.5 17.5t17.5 42.5v193l34 366z" />
<glyph unicode="&#xf9;" horiz-adv-x="612" d="M69 165v897h122v-897q0 -53 61 -53q11 0 25 6l145 59v885h122v-1062h-122v47l-99 -43q-36 -14 -71 -14q-79 0 -131 47t-52 128zM191 1302l59 75l174 -131l-58 -74z" />
<glyph unicode="&#xfa;" horiz-adv-x="612" d="M69 165v897h122v-897q0 -53 61 -53q11 0 25 6l145 59v885h122v-1062h-122v47l-99 -43q-36 -14 -71 -14q-79 0 -131 47t-52 128zM191 1246l175 131l58 -75l-174 -130z" />
<glyph unicode="&#xfb;" horiz-adv-x="612" d="M69 165v897h122v-897q0 -53 61 -53q11 0 25 6l145 59v885h122v-1062h-122v47l-99 -43q-36 -14 -71 -14q-79 0 -131 47t-52 128zM118 1266l177 111h26l174 -111l-58 -75l-131 83l-129 -83z" />
<glyph unicode="&#xfc;" horiz-adv-x="612" d="M69 165v897h122v-897q0 -53 61 -53q11 0 25 6l145 59v885h122v-1062h-122v47l-99 -43q-36 -14 -71 -14q-79 0 -131 47t-52 128zM133 1236v141h120v-141h-120zM364 1236v141h118v-141h-118z" />
<glyph unicode="&#xfd;" horiz-adv-x="579" d="M19 1062l158 -1062h104l-43 -304h124l188 1366h-124l-126 -940h-17l-139 940h-125zM169 1246l175 131l59 -75l-175 -130z" />
<glyph unicode="&#xfe;" horiz-adv-x="619" d="M69 -304v1681h122v-317h175q77 0 130.5 -54.5t53.5 -130.5v-693q0 -74 -53.5 -128t-130.5 -54h-175v-304h-122zM191 122h175q26 0 43 17.5t17 42.5v693q0 25 -17 43t-43 18h-175v-814z" />
<glyph unicode="&#xff;" horiz-adv-x="579" d="M19 1062h125l139 -940h17l126 940h124l-188 -1366h-124l43 304h-104zM112 1236v141h120v-141h-120zM342 1236v141h118v-141h-118z" />
<glyph unicode="&#x2c6;" horiz-adv-x="553" d="M88 1266l177 111h26l175 -111l-59 -75l-130 83l-129 -83z" />
<glyph unicode="&#x2da;" horiz-adv-x="456" d="M88 1276q0 59 40.5 99.5t99.5 40.5t99.5 -40.5t40.5 -99.5t-40.5 -99t-99.5 -40t-99.5 40t-40.5 99zM159 1276q0 -28 21 -48.5t48 -20.5t48 20.5t21 48.5t-21 48.5t-48 20.5t-48 -20.5t-21 -48.5z" />
<glyph unicode="&#x2dc;" horiz-adv-x="591" d="M88 1235q0 60 35.5 101t94.5 41q41 0 84.5 -27t69.5 -27q48 0 48 54h83q0 -61 -35 -101.5t-93 -40.5q-41 0 -84 27t-64 27q-56 0 -56 -54h-83z" />
<glyph unicode="&#x400;" horiz-adv-x="512" d="M79 0v1377h375v-131h-246v-443h214v-120h-214v-553h244v-130h-373zM159 1565l59 75l176 -130l-60 -75z" />
<glyph unicode="&#x401;" horiz-adv-x="512" d="M79 0v1377h375v-131h-246v-443h214v-120h-214v-553h244v-130h-373zM92 1475v139h120v-139h-120zM323 1475v139h118v-139h-118z" />
<glyph unicode="&#x402;" horiz-adv-x="750" d="M49 1246v131h488v-131h-199v-297l101 32q33 12 66 12q77 0 127.5 -47t50.5 -124v-837q0 -75 -55.5 -129.5t-128.5 -54.5h-82v122h82q28 0 45 18t17 44v831q0 53 -56 53q-17 0 -31 -6l-136 -47v-816h-130v1246h-159z" />
<glyph unicode="&#x403;" horiz-adv-x="493" d="M79 0v1377h395v-131h-266v-1246h-129zM159 1549l175 130l60 -75l-176 -129z" />
<glyph unicode="&#x404;" horiz-adv-x="583" d="M79 185v1006q0 77 55 131.5t129 54.5h58q76 0 130 -54.5t54 -131.5v-153h-130v153q0 24 -16.5 39.5t-37.5 15.5h-58q-22 0 -38.5 -15.5t-16.5 -39.5v-388h158v-120h-158v-498q0 -22 17 -38.5t38 -16.5h58q22 0 38 16.5t16 38.5v211h130v-211q0 -77 -54 -131t-130 -54h-58 q-75 0 -129.5 54t-54.5 131z" />
<glyph unicode="&#x405;" horiz-adv-x="617" d="M79 185v211h129v-211q0 -24 17 -39.5t38 -15.5h91q22 0 38.5 15.5t16.5 39.5v234q0 82 -41 131l-224 274q-65 80 -65 208v159q0 75 55 130.5t129 55.5h91q75 0 130 -54.5t55 -131.5v-153h-130v153q0 22 -17 38.5t-38 16.5h-91q-22 0 -38.5 -16.5t-16.5 -38.5v-159 q0 -81 42 -132l222 -273q68 -81 67 -208v-234q0 -77 -55.5 -131t-129.5 -54h-91q-77 0 -130.5 54t-53.5 131z" />
<glyph unicode="&#x406;" horiz-adv-x="510" d="M79 0v130h112v1116h-112v131h354v-131h-112v-1116h112v-130h-354z" />
<glyph unicode="&#x407;" horiz-adv-x="522" d="M79 0v130h112v1116h-112v131h354v-131h-112v-1116h112v-130h-354zM96 1475v139h120v-139h-120zM326 1475v139h118v-139h-118z" />
<glyph unicode="&#x408;" horiz-adv-x="581" d="M49 185v211h130v-211q0 -24 16.5 -39.5t38.5 -15.5h85q24 0 39 15.5t15 39.5v1192h130v-1192q0 -77 -53.5 -131t-130.5 -54h-85q-75 0 -130 54t-55 131z" />
<glyph unicode="&#x409;" horiz-adv-x="1035" d="M39 -22v130q109 0 109 399v870h464v-454h180q77 0 131 -55.5t54 -130.5v-552q0 -77 -54 -131t-131 -54h-310v1246h-205v-689q0 -71 -0.5 -109.5t-4.5 -109t-13 -112t-26 -94.5t-42.5 -83t-64 -50.5t-87.5 -20.5zM612 130h180q22 0 39 16.5t17 38.5v562q0 22 -17 39 t-39 17h-180v-673z" />
<glyph unicode="&#x40a;" horiz-adv-x="1004" d="M79 0v1377h129v-574h242v574h130v-574h181q77 0 131 -55.5t54 -130.5v-432q0 -77 -54.5 -131t-130.5 -54h-311v683h-242v-683h-129zM580 130h181q22 0 38.5 16.5t16.5 38.5v442q0 22 -17 39t-38 17h-181v-553z" />
<glyph unicode="&#x40b;" horiz-adv-x="764" d="M49 1246v131h488v-131h-199v-308l114 45q34 10 64 10q74 0 127 -54t53 -129v-810h-122v818q0 24 -17 38.5t-41 14.5q-8 0 -24 -4l-154 -61v-806h-130v1246h-159z" />
<glyph unicode="&#x40c;" horiz-adv-x="599" d="M79 0v1377h129v-574h55q45 0 74 28t29 73v274q0 81 57 140t138 59h9v-129h-9q-28 -4 -47 -23.5t-19 -46.5v-285q0 -55 -29 -104.5t-81 -70.5l185 -718h-133l-178 683h-51v-683h-129zM228 1549l175 130l59 -75l-175 -129z" />
<glyph unicode="&#x40d;" horiz-adv-x="711" d="M79 0v1377h129v-626l-37 -509l14 -4l273 1139h175v-1377h-130v625l37 490l-13 3l-272 -1118h-176zM234 1604l59 75l175 -130l-59 -74z" />
<glyph unicode="&#x40e;" horiz-adv-x="583" d="M30 1377h131l138 -852h25l98 852h133l-159 -1377h-133l48 396h-120zM112 1612v16h96v-22q0 -15 12 -28t28 -13h122q15 0 27 13t12 28v22h96v-16q0 -59 -37 -98t-96 -39h-126q-59 0 -96.5 39t-37.5 98z" />
<glyph unicode="&#x40f;" horiz-adv-x="658" d="M79 0v1377h129v-1247h242v1247h130v-1377h-186v-304h-131v304h-184z" />
<glyph unicode="&#x410;" horiz-adv-x="685" d="M39 0l188 1377h233l187 -1377h-130l-59 405h-230l-57 -405h-132zM242 525h202l-96 723h-10z" />
<glyph unicode="&#x411;" horiz-adv-x="644" d="M79 0v1377h458v-131h-329v-443h173q77 0 131 -53.5t54 -130.5v-434q0 -77 -54 -131t-131 -54h-302zM208 130h173q22 0 39 16.5t17 38.5v442q0 24 -17 40t-39 16h-173v-553z" />
<glyph unicode="&#x412;" horiz-adv-x="651" d="M79 0v1377h311q77 0 130.5 -54.5t53.5 -131.5v-261q0 -54 -29 -110.5t-83 -78.5q54 -19 83 -67.5t29 -103.5v-385q0 -77 -54 -131t-130 -54h-311zM208 130h182q24 0 39 15.5t15 39.5v399q0 60 -26 79.5t-88 19.5h-122v-553zM208 803h136q100 0 100 133v255 q0 22 -15.5 38.5t-38.5 16.5h-182v-443z" />
<glyph unicode="&#x413;" horiz-adv-x="493" d="M79 0v1377h395v-131h-266v-1246h-129z" />
<glyph unicode="&#x414;" horiz-adv-x="833" d="M39 130h73q100 174 100 607v640h492v-1247h110v-434h-130v304h-515v-304h-130v434zM255 130h319v1116h-232v-509q0 -395 -87 -607z" />
<glyph unicode="&#x415;" horiz-adv-x="512" d="M79 0v1377h375v-131h-246v-443h214v-120h-214v-553h244v-130h-373z" />
<glyph unicode="&#x416;" horiz-adv-x="904" d="M30 0l197 684q-51 23 -81 71t-30 104v319q0 28 -18.5 47t-46.5 21h-21v131h21q82 0 138.5 -58.5t56.5 -140.5v-305q0 -45 29 -75.5t75 -30.5h37v610h130v-610h38q45 0 73.5 29.5t28.5 74.5v307q0 81 58 140t138 59h22v-131h-22q-27 -2 -47 -22.5t-20 -45.5v-319 q0 -56 -29 -105.5t-80 -69.5l198 -684h-143l-180 647h-35v-647h-130v647h-35l-181 -647h-141z" />
<glyph unicode="&#x417;" horiz-adv-x="571" d="M49 185v211h130v-211q0 -22 16.5 -38.5t38.5 -16.5h75q24 0 39.5 16.5t15.5 38.5v397q0 54 -26.5 77.5t-82.5 23.5h-64v120h64q51 0 80 36.5t29 92.5v259q0 24 -17 39.5t-38 15.5h-75q-22 0 -38.5 -15.5t-16.5 -39.5v-153h-130v153q0 77 55 131.5t130 54.5h75 q77 0 130.5 -54.5t53.5 -131.5v-261q0 -131 -103 -175q104 -38 103 -151v-419q0 -75 -54 -130t-130 -55h-75q-75 0 -130 54t-55 131z" />
<glyph unicode="&#x418;" horiz-adv-x="711" d="M79 0v1377h129v-626l-37 -509l14 -4l273 1139h175v-1377h-130v625l37 490l-13 3l-272 -1118h-176z" />
<glyph unicode="&#x419;" horiz-adv-x="711" d="M79 0v1377h129v-626l-37 -509l14 -4l273 1139h175v-1377h-130v625l37 490l-13 3l-272 -1118h-176zM159 1612v16h96v-22q0 -15 12 -28t28 -13h122q15 0 27 13t12 28v22h96v-16q0 -59 -37 -98t-96 -39h-126q-59 0 -96.5 39t-37.5 98z" />
<glyph unicode="&#x41a;" horiz-adv-x="599" d="M79 0v1377h129v-574h55q45 0 74 28t29 73v274q0 81 57 140t138 59h9v-129h-9q-28 -4 -47 -23.5t-19 -46.5v-285q0 -55 -29 -104.5t-81 -70.5l185 -718h-133l-178 683h-51v-683h-129z" />
<glyph unicode="&#x41b;" horiz-adv-x="689" d="M39 -22v130q109 0 109 399v870h464v-1377h-130v1246h-205v-689q0 -71 -0.5 -109.5t-4.5 -109t-13 -112t-26 -94.5t-42.5 -83t-64 -50.5t-87.5 -20.5z" />
<glyph unicode="&#x41c;" horiz-adv-x="935" d="M79 0v1377h184l206 -1080l201 1080h187v-1377h-129v586l41 556l-14 2l-216 -1144h-138l-214 1144l-14 -2l35 -556v-586h-129z" />
<glyph unicode="&#x41d;" horiz-adv-x="658" d="M79 0v1377h129v-574h242v574h130v-1377h-130v683h-242v-683h-129z" />
<glyph unicode="&#x41e;" horiz-adv-x="656" d="M79 185v1006q0 77 55 131.5t129 54.5h131q76 0 130 -54.5t54 -131.5v-1006q0 -77 -54.5 -131t-129.5 -54h-131q-75 0 -129.5 54t-54.5 131zM208 185q0 -24 17 -39.5t38 -15.5h131q22 0 38 15.5t16 39.5v1006q0 22 -16.5 38.5t-37.5 16.5h-131q-22 0 -38.5 -16.5 t-16.5 -38.5v-1006z" />
<glyph unicode="&#x41f;" horiz-adv-x="649" d="M79 0v1377h493v-1377h-129v1246h-235v-1246h-129z" />
<glyph unicode="&#x420;" horiz-adv-x="619" d="M79 0v1377h287q75 0 129.5 -54.5t54.5 -131.5v-448q0 -77 -48 -129.5t-125 -52.5h-169v-561h-129zM208 683h150q28 0 45 21.5t17 48.5v438q0 22 -16.5 38.5t-37.5 16.5h-158v-563z" />
<glyph unicode="&#x421;" horiz-adv-x="610" d="M79 185v1006q0 77 55 131.5t129 54.5h85q76 0 130.5 -54.5t54.5 -131.5v-153h-130v153q0 22 -15.5 38.5t-39.5 16.5h-85q-22 0 -38.5 -16.5t-16.5 -38.5v-1006q0 -24 17 -39.5t38 -15.5h85q22 0 38.5 15.5t16.5 39.5v211h130v-211q0 -77 -54.5 -131t-130.5 -54h-85 q-75 0 -129.5 54t-54.5 131z" />
<glyph unicode="&#x422;" horiz-adv-x="546" d="M49 1246v131h448v-131h-159v-1246h-130v1246h-159z" />
<glyph unicode="&#x423;" horiz-adv-x="583" d="M30 1377h131l138 -852h25l98 852h133l-159 -1377h-133l48 396h-120z" />
<glyph unicode="&#x424;" horiz-adv-x="825" d="M79 315v747q0 77 54 130.5t130 53.5h85v150h130v-150h85q76 0 130 -53.5t54 -130.5v-747q0 -77 -54 -131t-130 -54h-85v-130h-130v130h-85q-77 0 -130.5 54t-53.5 131zM208 315q0 -24 16 -40t39 -16h85v857h-85q-24 0 -39.5 -16.5t-15.5 -37.5v-747zM478 259h85 q22 0 38 16t16 40v747q0 22 -16.5 38t-37.5 16h-85v-857z" />
<glyph unicode="&#x425;" horiz-adv-x="703" d="M30 0l210 737l-189 640h134l167 -559l167 559h136l-193 -640l212 -737h-134l-188 657l-187 -657h-135z" />
<glyph unicode="&#x426;" horiz-adv-x="701" d="M79 0v1377h129v-1247h236v1247h130v-1247h109v-434h-131v304h-473z" />
<glyph unicode="&#x427;" horiz-adv-x="653" d="M79 745v632h129v-640q0 -22 17 -38t38 -16h183v694h130v-1377h-130v561h-183q-77 0 -130.5 53.5t-53.5 130.5z" />
<glyph unicode="&#x428;" horiz-adv-x="1017" d="M79 0v1377h129v-1247h236v1247h130v-1247h236v1247h130v-1377h-861z" />
<glyph unicode="&#x429;" horiz-adv-x="1067" d="M79 0v1377h129v-1247h236v1247h130v-1247h236v1247h130v-1247h108v-434h-130v304h-839z" />
<glyph unicode="&#x42a;" horiz-adv-x="782" d="M39 1257v120h299v-454h181q77 0 131 -55.5t54 -130.5v-552q0 -77 -54 -131t-131 -54h-311v1257h-169zM338 130h181q22 0 38.5 16.5t16.5 38.5v562q0 22 -16 39t-39 17h-181v-673z" />
<glyph unicode="&#x42b;" horiz-adv-x="912" d="M79 0v1377h129v-454h182q80 0 132 -54.5t52 -131.5v-552q0 -77 -54 -131t-130 -54h-311zM208 130h182q24 0 39 16.5t15 38.5v562q0 22 -15.5 39t-38.5 17h-182v-673zM704 0v1377h129v-1377h-129z" />
<glyph unicode="&#x42c;" horiz-adv-x="651" d="M79 0v1377h129v-454h182q77 0 130.5 -55.5t53.5 -130.5v-552q0 -77 -54 -131t-130 -54h-311zM208 130h182q22 0 38 16.5t16 38.5v562q0 22 -16.5 39t-37.5 17h-182v-673z" />
<glyph unicode="&#x42d;" horiz-adv-x="544" d="M39 185v211h130v-211q0 -22 17 -38.5t38 -16.5h57q22 0 38.5 16.5t16.5 38.5v498h-157v120h157v388q0 24 -17 39.5t-38 15.5h-57q-22 0 -38.5 -15.5t-16.5 -39.5v-153h-130v153q0 77 54.5 131.5t130.5 54.5h57q75 0 130 -54.5t55 -131.5v-1006q0 -77 -55 -131t-130 -54 h-57q-77 0 -131 54t-54 131z" />
<glyph unicode="&#x42e;" horiz-adv-x="919" d="M79 0v1377h129v-574h146v388q0 77 54 131.5t131 54.5h118q76 0 130.5 -54.5t54.5 -131.5v-1006q0 -77 -54.5 -131t-130.5 -54h-118q-77 0 -131 54t-54 131v498h-146v-683h-129zM484 185q0 -22 16.5 -38.5t38.5 -16.5h118q22 0 38 16.5t16 38.5v1006q0 24 -16 39.5 t-38 15.5h-118q-23 0 -39 -15.5t-16 -39.5v-1006z" />
<glyph unicode="&#x42f;" horiz-adv-x="628" d="M39 0l181 686q-158 51 -157 232v273q0 77 55 131.5t130 54.5h302v-1377h-131v683h-63l-181 -683h-136zM193 918q0 -115 118 -115h108v443h-171q-22 0 -38.5 -15.5t-16.5 -39.5v-273z" />
<glyph unicode="&#x430;" d="M69 156v290q0 75 55 129t128 54h198v247q0 26 -18.5 44t-41.5 18h-118q-26 0 -44 -18q-17 -16 -18 -44v-101h-122v103q0 77 54.5 130.5t131.5 53.5h118q75 0 128.5 -55.5t53.5 -128.5v-878h-102l-20 47l-139 -45q-43 -12 -71 -12q-77 0 -125 46.5t-48 119.5zM191 171 q0 -26 18.5 -42.5t42.5 -16.5q13 0 22 2l176 61v332h-198q-24 0 -42.5 -19.5t-18.5 -41.5v-275z" />
<glyph unicode="&#x431;" d="M69 182v820q0 67 19.5 114.5t61 77t74.5 44.5t95 34q43 13 66.5 23.5t44 31t20.5 50.5h124q0 -51 -15 -87.5t-51 -62.5t-63.5 -37.5t-82.5 -31.5q-10 -4 -40.5 -13.5t-41 -15t-33.5 -17t-32 -24.5t-16.5 -33t-7.5 -48v-24l139 49q34 10 60 10q75 0 129.5 -53t54.5 -130 v-677q0 -74 -56 -128t-128 -54h-138q-75 0 -129 55t-54 127zM191 182q0 -22 18 -41t39 -19h146q26 0 42 17.5t16 42.5v677q0 26 -17.5 45t-42.5 19q-5 -1 -20 -5l-181 -63v-673z" />
<glyph unicode="&#x432;" d="M69 0v1062h323q75 0 128.5 -54.5t53.5 -131.5v-165q0 -49 -29.5 -88t-75.5 -55q47 -13 76 -54.5t29 -89.5v-242q0 -74 -53 -128t-129 -54h-323zM191 122h201q26 0 43 17.5t17 42.5v233q0 37 -27.5 64.5t-64.5 27.5h-169v-385zM191 629h169q37 0 64.5 27.5t27.5 65.5v154 q0 26 -17.5 44t-42.5 18h-201v-309z" />
<glyph unicode="&#x433;" horiz-adv-x="473" d="M69 0v1062h385v-122h-263v-940h-122z" />
<glyph unicode="&#x434;" horiz-adv-x="771" d="M10 122h82q38 90 56.5 204.5t21.5 189.5t3 216v330h487v-940h93v-321h-122v199h-498v-199h-123v321zM227 122h310v816h-240v-206q0 -140 -2 -215.5t-18.5 -189t-49.5 -205.5z" />
<glyph unicode="&#x435;" horiz-adv-x="623" d="M69 185v693q0 77 54 130.5t129 53.5h120q76 0 129.5 -54.5t53.5 -129.5v-371h-364v-325q0 -26 18.5 -43t42.5 -17h120q25 0 43 18.5t18 41.5v168h122v-165q0 -77 -54.5 -131t-128.5 -54h-120q-75 0 -129 56t-54 129zM191 629h242v247q0 26 -18.5 44t-42.5 18h-120 q-26 0 -43.5 -19t-17.5 -43v-247z" />
<glyph unicode="&#x436;" horiz-adv-x="925" d="M30 0l218 497q-55 24 -87.5 73t-32.5 113v184q0 30 -22 50.5t-51 20.5h-23v124h23q78 0 136.5 -57t58.5 -138v-183q0 -33 24.5 -57.5t57.5 -24.5h69v460h124v-460h68q34 0 59 24.5t25 57.5v183q0 81 56.5 138t137.5 57h26v-124h-26q-30 0 -51.5 -20.5t-21.5 -50.5v-184 q0 -61 -32.5 -110.5t-84.5 -75.5l216 -497h-130l-210 480h-32v-480h-124v480h-31l-211 -480h-129z" />
<glyph unicode="&#x437;" horiz-adv-x="591" d="M69 182v168h124v-168q0 -26 17.5 -43t42.5 -17h87q26 0 43.5 17.5t17.5 42.5v214q0 112 -116 111h-92v122h81q56 0 91.5 41t35.5 99v107q0 26 -17.5 44t-43.5 18h-87q-25 0 -42.5 -18t-17.5 -44v-101h-124v103q0 75 54 129.5t130 54.5h87q75 0 129 -54.5t54 -129.5v-137 q0 -120 -103 -173q102 -31 103 -133v-253q0 -74 -54 -128t-129 -54h-87q-76 0 -130 54t-54 128z" />
<glyph unicode="&#x438;" horiz-adv-x="703" d="M69 0v1062h122v-496l-32 -444l307 940h170v-1062h-122v437l30 501l-306 -938h-169z" />
<glyph unicode="&#x439;" horiz-adv-x="703" d="M69 0v1062h122v-496l-32 -444l307 940h170v-1062h-122v437l30 501l-306 -938h-169zM150 1360v17h96v-22q0 -16 12 -29t27 -13h122q15 0 27 13t12 29v22h96v-17q0 -58 -37 -97.5t-96 -39.5h-126q-58 0 -95.5 39.5t-37.5 97.5z" />
<glyph unicode="&#x43a;" horiz-adv-x="599" d="M69 0v1062h122v-433h100q33 0 57 26t24 58v154q0 81 56 138t135 57h7v-124h-7q-30 0 -49 -20.5t-19 -50.5v-158q0 -58 -32 -106t-88 -74l195 -529h-129l-189 507h-61v-507h-122z" />
<glyph unicode="&#x43b;" horiz-adv-x="662" d="M19 -10v124q71 0 91 106t20 313v345q0 75 54 129.5t131 54.5h278v-1062h-121v938h-157q-26 0 -44 -18t-18 -44v-330q0 -131 -5.5 -211t-27 -169t-72 -132.5t-129.5 -43.5z" />
<glyph unicode="&#x43c;" horiz-adv-x="893" d="M69 0v1062h165l212 -880l214 880h166v-1062h-124v407l39 492l-218 -899h-151l-220 899l41 -500v-399h-124z" />
<glyph unicode="&#x43d;" horiz-adv-x="649" d="M69 0v1062h122v-433h269v433h122v-1062h-122v507h-269v-507h-122z" />
<glyph unicode="&#x43e;" horiz-adv-x="644" d="M69 182v694q0 77 53 131.5t130 54.5h142q74 0 128 -54.5t54 -131.5v-694q0 -74 -53.5 -128t-128.5 -54h-142q-77 0 -130 54t-53 128zM191 182q0 -26 18 -43t43 -17h142q26 0 43 17t17 43v694q0 26 -17.5 44t-42.5 18h-142q-26 0 -43.5 -18t-17.5 -44v-694z" />
<glyph unicode="&#x43f;" horiz-adv-x="638" d="M69 0v1062h501v-1062h-122v938h-257v-938h-122z" />
<glyph unicode="&#x440;" horiz-adv-x="617" d="M69 -304v1366h102l20 -45l115 43q30 11 64 11q73 0 125.5 -49t52.5 -123v-736q0 -77 -50 -125t-130 -48q-32 0 -62 12l-115 43v-349h-122zM191 175l155 -57q11 -4 20 -4q26 0 43 15t17 38v722q0 59 -60 59q-14 0 -20 -2l-155 -61v-710z" />
<glyph unicode="&#x441;" horiz-adv-x="599" d="M69 182v694q0 77 54 131.5t129 54.5h96q76 0 129.5 -54.5t53.5 -131.5v-101h-122v101q0 26 -18 44t-43 18h-96q-26 0 -43.5 -18t-17.5 -44v-694q0 -26 18 -43t43 -17h96q25 0 43 17.5t18 42.5v168h122v-168q0 -74 -53.5 -128t-129.5 -54h-96q-75 0 -129 54t-54 128z" />
<glyph unicode="&#x442;" horiz-adv-x="497" d="M19 938v124h459v-124h-169v-938h-122v938h-168z" />
<glyph unicode="&#x443;" horiz-adv-x="579" d="M19 1062h125l139 -940h17l126 940h124l-188 -1366h-124l43 304h-104z" />
<glyph unicode="&#x444;" horiz-adv-x="880" d="M69 159v743q0 73 52 121t123 48q51 0 92 -27l43 -27v360h122v-360l41 27q42 27 95 27q71 0 123 -49t52 -120v-743q0 -71 -52 -120t-123 -49q-58 0 -95 25l-41 30v-349h-122v349l-43 -30q-36 -26 -92 -25q-71 0 -123 49t-52 120zM191 159q0 -22 15.5 -33.5t37.5 -11.5 q19 0 30 6l105 57v708l-105 55q-17 9 -30 9q-22 0 -37.5 -12.5t-15.5 -34.5v-743zM501 177l105 -57q9 -6 31 -6q51 0 51 45v743q0 20 -14.5 33.5t-36.5 13.5q-15 0 -31 -9l-105 -55v-708z" />
<glyph unicode="&#x445;" horiz-adv-x="664" d="M19 0l201 568l-179 494h132l146 -433h25l146 433h131l-178 -494l202 -568h-129l-170 507h-29l-167 -507h-131z" />
<glyph unicode="&#x446;" horiz-adv-x="703" d="M69 0v1062h122v-940h281v940h124v-940h88v-319h-121v197h-494z" />
<glyph unicode="&#x447;" horiz-adv-x="644" d="M69 580v482h122v-503q0 -19 14.5 -35.5t36.5 -16.5h210v555h124v-1062h-124v385h-189q-81 0 -137.5 57t-56.5 138z" />
<glyph unicode="&#x448;" horiz-adv-x="1019" d="M69 0v1062h124v-940h255v940h124v-940h256v940h123v-1062h-882z" />
<glyph unicode="&#x449;" horiz-adv-x="1079" d="M69 0v1062h122v-940h257v940h122v-940h258v940h121v-940h111v-319h-122v197h-869z" />
<glyph unicode="&#x44a;" horiz-adv-x="768" d="M19 940v122h302v-311h184q81 0 138 -57t57 -137v-362q0 -81 -57 -138t-138 -57h-308v940h-178zM321 122h206q19 0 35 16t16 35v405q0 19 -16 35t-35 16h-206v-507z" />
<glyph unicode="&#x44b;" horiz-adv-x="868" d="M69 0v1062h124v-311h165q81 0 137.5 -57t56.5 -137v-362q0 -81 -57.5 -138t-136.5 -57h-289zM193 122h184q19 0 35 16t16 35v405q0 19 -15.5 35t-35.5 16h-184v-507zM677 0v1062h124v-1062h-124z" />
<glyph unicode="&#x44c;" horiz-adv-x="624" d="M69 0v1062h122v-311h171q81 0 138 -57t57 -137v-362q0 -81 -57 -138t-138 -57h-293zM191 122h190q22 0 37 14.5t15 36.5v405q0 22 -15 36.5t-37 14.5h-190v-507z" />
<glyph unicode="&#x44d;" horiz-adv-x="571" d="M69 182v168h122v-168q0 -26 18 -43t43 -17h67q26 0 44 17.5t18 42.5v325h-190v122h190v247q0 26 -18.5 44t-43.5 18h-67q-26 0 -43.5 -18t-17.5 -44v-101h-122v103q0 75 54 129.5t129 54.5h67q77 0 130.5 -54.5t53.5 -129.5v-696q0 -74 -53.5 -128t-130.5 -54h-67 q-75 0 -129 54t-54 128z" />
<glyph unicode="&#x44e;" horiz-adv-x="915" d="M69 0v1062h122v-433h145v249q0 75 55 129.5t130 54.5h141q77 0 131.5 -54.5t54.5 -129.5v-696q0 -74 -54.5 -128t-131.5 -54h-141q-75 0 -130 54t-55 128v325h-145v-507h-122zM460 182q0 -26 17.5 -43t43.5 -17h141q26 0 44 17t18 43v694q0 26 -18 44t-44 18h-141 q-26 0 -43.5 -18t-17.5 -44v-694z" />
<glyph unicode="&#x44f;" horiz-adv-x="612" d="M39 0l164 516q-70 19 -112 76t-42 130v156q0 75 54 129.5t129 54.5h312v-1062h-122v507h-94l-157 -507h-132zM171 720q0 -37 27.5 -64t64.5 -27h159v309h-190q-26 0 -43.5 -18t-17.5 -44v-156z" />
<glyph unicode="&#x450;" horiz-adv-x="623" d="M69 185v693q0 77 54 130.5t129 53.5h120q76 0 129.5 -54.5t53.5 -129.5v-371h-364v-325q0 -26 18.5 -43t42.5 -17h120q25 0 43 18.5t18 41.5v168h122v-165q0 -77 -54.5 -131t-128.5 -54h-120q-75 0 -129 56t-54 129zM191 629h242v247q0 26 -18.5 44t-42.5 18h-120 q-26 0 -43.5 -19t-17.5 -43v-247zM201 1302l58 75l176 -131l-60 -74z" />
<glyph unicode="&#x451;" horiz-adv-x="623" d="M69 185v693q0 77 54 130.5t129 53.5h120q76 0 129.5 -54.5t53.5 -129.5v-371h-364v-325q0 -26 18.5 -43t42.5 -17h120q25 0 43 18.5t18 41.5v168h122v-165q0 -77 -54.5 -131t-128.5 -54h-120q-75 0 -129 56t-54 129zM144 1236v141h119v-141h-119zM191 629h242v247 q0 26 -18.5 44t-42.5 18h-120q-26 0 -43.5 -19t-17.5 -43v-247zM373 1236v141h119v-141h-119z" />
<glyph unicode="&#x452;" horiz-adv-x="617" d="M-41 1165v101h110v111h122v-111h155v-101h-155v-148l113 45q34 9 64 9q75 0 127.5 -53.5t52.5 -128.5v-904q0 -75 -54.5 -129.5t-127.5 -54.5h-83v122h83q28 0 44 18t16 44v912q0 24 -16 38t-42 14q-8 0 -24 -3l-153 -61v-885h-122v1165h-110z" />
<glyph unicode="&#x453;" horiz-adv-x="473" d="M69 0h122v940h263v122h-385v-1062zM156 1246l174 131l60 -75l-176 -130z" />
<glyph unicode="&#x454;" horiz-adv-x="571" d="M69 182v696q0 75 54 129.5t130 54.5h68q75 0 128.5 -54.5t53.5 -129.5v-103h-122v101q0 26 -17.5 44t-42.5 18h-68q-25 0 -43.5 -18t-18.5 -44v-247h190v-122h-190v-325q0 -26 18.5 -43t43.5 -17h68q26 0 43 17.5t17 42.5v168h122v-168q0 -74 -53.5 -128t-128.5 -54h-68 q-76 0 -130 54t-54 128z" />
<glyph unicode="&#x455;" horiz-adv-x="604" d="M69 182v168h122v-168q0 -26 18 -43t43 -17h100q26 0 44.5 17.5t18.5 42.5v83q0 51 -42 93l-223 222q-81 79 -81 191v105q0 77 54 131.5t129 54.5h100q77 0 131 -54.5t54 -131.5v-101h-122v101q0 26 -19 44t-44 18h-100q-26 0 -43.5 -18t-17.5 -44v-96q0 -60 47 -108 l230 -226q69 -69 69 -170v-94q0 -74 -54.5 -128t-130.5 -54h-100q-75 0 -129 54t-54 128z" />
<glyph unicode="&#x456;" horiz-adv-x="278" d="M79 0v1062h122v-1062h-122zM81 1236v141h120v-141h-120z" />
<glyph unicode="&#x457;" horiz-adv-x="278" d="M-34 1236v141h120v-141h-120zM79 0v1062h122v-1062h-122zM197 1236v141h118v-141h-118z" />
<glyph unicode="&#x458;" horiz-adv-x="278" d="M-65 -77v-122h82q73 0 128.5 54.5t55.5 129.5v1077h-122v-1077q0 -26 -17 -44t-45 -18h-82zM81 1236v141h120v-141h-120z" />
<glyph unicode="&#x459;" horiz-adv-x="1039" d="M19 -10v124q71 0 91 106t20 313v345q0 75 54 129.5t131 54.5h291v-311h171q80 0 137.5 -57t57.5 -137v-362q0 -81 -57.5 -138t-137.5 -57h-293v938h-169q-26 0 -44 -18t-18 -44v-330q0 -131 -5.5 -211t-27 -169t-72 -132.5t-129.5 -43.5zM606 122h190q22 0 37 14.5 t15 36.5v405q0 22 -15 36.5t-37 14.5h-190v-507z" />
<glyph unicode="&#x45a;" horiz-adv-x="1015" d="M69 0v1062h122v-433h269v433h122v-433h171q80 0 137.5 -56.5t57.5 -137.5v-240q0 -81 -57.5 -138t-137.5 -57h-293v507h-269v-507h-122zM582 122h191q22 0 36.5 14.5t14.5 36.5v283q0 22 -15 36.5t-36 14.5h-191v-385z" />
<glyph unicode="&#x45b;" horiz-adv-x="617" d="M-10 1165v101h79v111h122v-111h186v-101h-186v-148l113 45q34 9 64 9q75 0 127.5 -53.5t52.5 -128.5v-889h-122v897q0 24 -16 38t-42 14q-8 0 -24 -3l-153 -61v-885h-122v1165h-79z" />
<glyph unicode="&#x45c;" horiz-adv-x="599" d="M69 0h122v507h61l189 -507h129l-195 529q55 26 87.5 74t32.5 106v158q0 30 19 50.5t49 20.5h7v124h-7q-79 0 -135 -57t-56 -138v-154q0 -33 -24 -58.5t-57 -25.5h-100v433h-122v-1062zM203 1246l174 131l60 -75l-176 -130z" />
<glyph unicode="&#x45d;" horiz-adv-x="703" d="M69 0v1062h122v-496l-32 -444l307 940h170v-1062h-122v437l30 501l-306 -938h-169zM230 1302l59 75l175 -131l-59 -74z" />
<glyph unicode="&#x45e;" horiz-adv-x="579" d="M19 1062h125l139 -940h17l126 940h124l-188 -1366h-124l43 304h-104zM92 1360v17h97v-22q0 -16 11.5 -29t27.5 -13h122q16 0 28 13t12 29v22h96v-17q0 -58 -37.5 -97.5t-96.5 -39.5h-125q-59 0 -97 39.5t-38 97.5z" />
<glyph unicode="&#x45f;" horiz-adv-x="649" d="M69 0v1062h122v-940h269v940h122v-1062h-195v-199h-122v199h-196z" />
<glyph unicode="&#x462;" horiz-adv-x="651" d="M-10 1062v100h89v215h129v-215h169v-100h-169v-139h182q77 0 130.5 -55.5t53.5 -130.5v-552q0 -77 -54 -131t-130 -54h-311v1062h-89zM208 130h182q22 0 38 16.5t16 38.5v562q0 22 -16.5 39t-37.5 17h-182v-673z" />
<glyph unicode="&#x463;" horiz-adv-x="644" d="M-10 961v101h98v315h122v-315h167v-101h-167v-210h171q81 0 138 -57t57 -137v-362q0 -81 -57 -138t-138 -57h-293v961h-98zM210 122h191q22 0 36.5 14.5t14.5 36.5v405q0 22 -15 36.5t-36 14.5h-191v-507z" />
<glyph unicode="&#x472;" horiz-adv-x="656" d="M79 185v1006q0 77 55 131.5t129 54.5h131q76 0 130 -54.5t54 -131.5v-1006q0 -77 -54.5 -131t-129.5 -54h-131q-75 0 -129.5 54t-54.5 131zM208 185q0 -24 17 -39.5t38 -15.5h131q22 0 38 15.5t16 39.5v496q-17 -8 -45 -9q-41 0 -79.5 28t-60.5 28q-51 0 -55 -49v-494z M208 804q24 10 47 10q42 0 80 -26.5t64 -26.5q49 0 49 53v377q0 22 -16.5 38.5t-37.5 16.5h-131q-22 0 -38.5 -16.5t-16.5 -38.5v-387z" />
<glyph unicode="&#x473;" horiz-adv-x="648" d="M69 182v694q0 75 54 130.5t130 55.5h143q74 0 129 -54.5t55 -131.5v-694q0 -74 -54 -128t-130 -54h-143q-76 0 -130 54t-54 128zM193 182q0 -26 17.5 -43t42.5 -17h143q25 0 42.5 17.5t17.5 42.5v329q-25 -10 -51 -10q-41 0 -85 28t-67 28q-54 0 -60 -50v-325zM193 631 q24 11 53 12q41 0 85 -27t70 -27q55 1 55 54v233q0 26 -18 44t-42 18h-143q-25 0 -42.5 -18t-17.5 -44v-245z" />
<glyph unicode="&#x474;" horiz-adv-x="724" d="M30 1377h133l175 -1204l152 1026q13 86 62.5 142.5t133.5 56.5h10v-128h-10q-55 -6 -65 -71l-186 -1199h-195z" />
<glyph unicode="&#x475;" horiz-adv-x="711" d="M19 1062h125l186 -940h14l155 782q32 167 184 167h9v-123h-8q-52 0 -67 -72l-178 -876h-203z" />
<glyph unicode="&#x490;" horiz-adv-x="493" d="M79 0v1377h265v263h130v-394h-266v-1246h-129z" />
<glyph unicode="&#x491;" horiz-adv-x="473" d="M69 0v1062h263v315h122v-437h-263v-940h-122z" />
<glyph unicode="&#x492;" horiz-adv-x="581" d="M-19 692v100h98v585h395v-131h-266v-454h160v-100h-160v-692h-129v692h-98z" />
<glyph unicode="&#x493;" horiz-adv-x="473" d="M-19 519v100h88v443h385v-122h-263v-321h177v-100h-177v-519h-122v519h-88z" />
<glyph unicode="&#x496;" horiz-adv-x="966" d="M30 0l197 684q-51 23 -81 71t-30 104v319q0 28 -18.5 47t-46.5 21h-21v131h21q82 0 138.5 -58.5t56.5 -140.5v-305q0 -45 29 -75.5t75 -30.5h37v610h130v-610h38q45 0 73.5 29.5t28.5 74.5v307q0 81 58 140t138 59h22v-131h-22q-27 -2 -47 -22.5t-20 -45.5v-319 q0 -56 -29 -105.5t-80 -69.5l160 -554h111v-434h-130v304h-86l-180 647h-35v-647h-130v647h-35l-181 -647h-141z" />
<glyph unicode="&#x497;" horiz-adv-x="953" d="M30 0l218 497q-55 24 -87.5 73t-32.5 113v184q0 30 -22 50.5t-51 20.5h-23v124h23q78 0 136.5 -57t58.5 -138v-183q0 -33 24.5 -57.5t57.5 -24.5h69v460h124v-460h68q34 0 59 24.5t25 57.5v183q0 81 56.5 138t137.5 57h26v-124h-26q-30 0 -51.5 -20.5t-21.5 -50.5v-184 q0 -61 -32.5 -110.5t-84.5 -75.5l161 -375h92v-321h-122v199h-45l-210 480h-32v-480h-124v480h-31l-211 -480h-129z" />
<glyph unicode="&#x498;" horiz-adv-x="571" d="M49 185v211h130v-211q0 -22 16.5 -38.5t38.5 -16.5h75q24 0 39.5 16.5t15.5 38.5v397q0 54 -26.5 77.5t-82.5 23.5h-64v120h64q51 0 80 36.5t29 92.5v259q0 24 -17 39.5t-38 15.5h-75q-22 0 -38.5 -15.5t-16.5 -39.5v-153h-130v153q0 77 55 131.5t130 54.5h75 q77 0 130.5 -54.5t53.5 -131.5v-261q0 -131 -103 -175q104 -38 103 -151v-419q0 -75 -54 -130t-130 -55h-9v-65h9q45 0 79 -32.5t34 -79.5v-12q0 -45 -33 -80t-80 -35h-95v88h95q8 0 15.5 7.5t7.5 17.5v16q0 24 -23 23h-81v152q-74 2 -126.5 56t-52.5 129z" />
<glyph unicode="&#x499;" horiz-adv-x="591" d="M69 182v168h124v-168q0 -26 17.5 -43t42.5 -17h87q26 0 43.5 17.5t17.5 42.5v214q0 112 -116 111h-92v122h81q56 0 91.5 41t35.5 99v107q0 26 -17.5 44t-43.5 18h-87q-25 0 -42.5 -18t-17.5 -44v-101h-124v103q0 75 54 129.5t130 54.5h87q75 0 129 -54.5t54 -129.5v-137 q0 -120 -103 -173q102 -31 103 -133v-253q0 -74 -54 -128t-129 -54h-23v-65h7q46 0 80.5 -32.5t34.5 -79.5v-12q0 -45 -33.5 -80t-81.5 -35h-94v88h94q8 0 16 7.5t8 17.5v16q0 24 -24 23h-80v152q-73 2 -124 55t-51 127z" />
<glyph unicode="&#x49a;" horiz-adv-x="666" d="M79 0v1377h129v-574h55q45 0 74 28t29 73v274q0 81 57 140t138 59h9v-129h-9q-28 -4 -47 -23.5t-19 -46.5v-285q0 -55 -29 -104.5t-81 -70.5l150 -588h112v-434h-130v304h-80l-178 683h-51v-683h-129z" />
<glyph unicode="&#x49b;" horiz-adv-x="636" d="M69 0v1062h122v-433h100q33 0 57 26t24 58v154q0 81 56 138t135 57h7v-124h-7q-30 0 -49 -20.5t-19 -50.5v-158q0 -58 -32 -106t-88 -74l150 -407h92v-319h-122v197h-54l-189 507h-61v-507h-122z" />
<glyph unicode="&#x49c;" horiz-adv-x="720" d="M79 0v1377h129v-1377h-129zM270 379v683h92v-259h19q47 0 77 28t30 73v274q0 81 57 140t138 59h9v-129h-9q-28 -4 -47 -23.5t-19 -46.5v-285q0 -55 -29 -104.5t-81 -70.5l185 -718h-133l-178 683h-19v-304h-92z" />
<glyph unicode="&#x49d;" horiz-adv-x="720" d="M69 0v1062h122v-1062h-122zM252 189v682h90v-242h61q34 0 57.5 26t23.5 58v154q0 81 56 138t134 57h9v-124h-9q-30 0 -48 -20.5t-18 -50.5v-158q0 -58 -33 -106t-87 -74l195 -529h-131l-188 507h-22v-318h-90z" />
<glyph unicode="&#x4a0;" horiz-adv-x="728" d="M39 1257v120h299v-574h56q45 0 73 28t28 73v274q0 81 57.5 140t137.5 59h10v-129h-10q-28 -4 -46.5 -23.5t-18.5 -46.5v-285q0 -55 -29.5 -104.5t-79.5 -70.5l184 -718h-134l-176 683h-52v-683h-130v1257h-169z" />
<glyph unicode="&#x4a1;" horiz-adv-x="737" d="M19 940v122h300v-433h100q33 0 56.5 26t23.5 58v154q0 81 56.5 138t134.5 57h8v-124h-8q-30 0 -48.5 -20.5t-18.5 -50.5v-158q0 -58 -32 -106t-88 -74l195 -529h-130l-189 507h-60v-507h-122v940h-178z" />
<glyph unicode="&#x4a2;" horiz-adv-x="709" d="M79 0v1377h129v-574h242v574h130v-1247h110v-434h-129v304h-111v683h-242v-683h-129z" />
<glyph unicode="&#x4a3;" horiz-adv-x="711" d="M69 0v1062h122v-433h269v433h122v-940h92v-319h-122v197h-92v507h-269v-507h-122z" />
<glyph unicode="&#x4aa;" horiz-adv-x="610" d="M79 185v1006q0 77 55 131.5t129 54.5h85q76 0 130.5 -54.5t54.5 -131.5v-153h-130v153q0 22 -15.5 38.5t-39.5 16.5h-85q-22 0 -38.5 -16.5t-16.5 -38.5v-1006q0 -24 17 -39.5t38 -15.5h85q22 0 38.5 15.5t16.5 39.5v211h130v-211q0 -75 -51 -128t-126 -57 q-73 -88 -73 -157q0 -30 30 -30h45v-87h-77q-45 0 -69.5 30t-24.5 71q0 83 76 173q-75 0 -129.5 54t-54.5 131z" />
<glyph unicode="&#x4ab;" horiz-adv-x="599" d="M69 182v694q0 77 54 131.5t129 54.5h96q76 0 129.5 -54.5t53.5 -131.5v-101h-122v101q0 26 -18 44t-43 18h-96q-26 0 -43.5 -18t-17.5 -44v-694q0 -26 18 -43t43 -17h96q25 0 43 17.5t18 42.5v168h122v-168q0 -74 -51.5 -127t-123.5 -55q-73 -88 -73 -157q0 -30 30 -30 h45v-87h-77q-45 0 -69.5 30t-24.5 71q0 83 76 173h-11q-75 0 -129 54t-54 128z" />
<glyph unicode="&#x4ae;" horiz-adv-x="653" d="M39 1377h134l151 -549l158 549h133l-225 -748v-499h111v-130h-353v130h111v497z" />
<glyph unicode="&#x4af;" horiz-adv-x="649" d="M30 1062h131l160 -433h13l156 433h131l-210 -555h-21v-507h-125v507h-21z" />
<glyph unicode="&#x4b0;" horiz-adv-x="653" d="M39 1377h134l151 -549l158 549h133l-225 -748v-10h131v-100h-131v-389h111v-130h-353v130h111v389h-126v100h126v8z" />
<glyph unicode="&#x4b1;" horiz-adv-x="634" d="M30 1062h133l152 -548l157 548h134l-227 -747v-215h152v-100h-152v-304h-129v304h-145v100h145v213z" />
<glyph unicode="&#x4b2;" horiz-adv-x="764" d="M30 0l210 737l-189 640h134l167 -559l167 559h136l-193 -640l175 -607h108v-434h-130v304h-75l-188 657l-187 -657h-135z" />
<glyph unicode="&#x4b3;" horiz-adv-x="713" d="M19 0l201 568l-179 494h132l146 -433h25l146 433h131l-178 -494l159 -446h92v-319h-122v197h-56l-170 507h-29l-167 -507h-131z" />
<glyph unicode="&#x4b8;" horiz-adv-x="653" d="M79 745v632h129v-640q0 -22 17 -38t38 -16h26v379h92v-379h65v694h130v-1377h-130v561h-65v-182h-92v182h-26q-77 0 -130.5 53.5t-53.5 130.5z" />
<glyph unicode="&#x4b9;" horiz-adv-x="644" d="M69 580v482h122v-503q0 -19 14.5 -35.5t36.5 -16.5h49v364h90v-364h71v555h124v-1062h-124v385h-71v-196h-90v196h-28q-81 0 -137.5 57t-56.5 138z" />
<glyph unicode="&#x4ba;" horiz-adv-x="658" d="M79 0v1377h129v-574h188q76 0 130 -55.5t54 -130.5v-617h-130v627q0 22 -16.5 39t-37.5 17h-188v-683h-129z" />
<glyph unicode="&#x4bb;" horiz-adv-x="649" d="M69 0v1062h122v-433h208q75 0 129 -54t54 -131v-444h-122v446q0 26 -18 43.5t-43 17.5h-208v-507h-122z" />
<glyph unicode="&#x4d0;" horiz-adv-x="685" d="M39 0l188 1377h233l187 -1377h-130l-59 405h-230l-57 -405h-132zM148 1612v16h96v-22q0 -15 12 -28t27 -13h122q15 0 27 13t12 28v22h96v-16q0 -59 -37 -98t-96 -39h-126q-58 0 -95.5 39t-37.5 98zM242 525h202l-96 723h-10z" />
<glyph unicode="&#x4d1;" d="M69 156v290q0 75 55 129t128 54h198v247q0 26 -18.5 44t-41.5 18h-118q-26 0 -44 -18q-17 -16 -18 -44v-101h-122v103q0 77 54.5 130.5t131.5 53.5h118q75 0 128.5 -55.5t53.5 -128.5v-878h-102l-20 47l-139 -45q-43 -12 -71 -12q-77 0 -125 46.5t-48 119.5zM135 1360v17 h97v-22q0 -16 11.5 -29t28.5 -13h122q15 0 27 13t12 29v22h96v-17q0 -58 -37.5 -97.5t-95.5 -39.5h-126q-59 0 -97 39.5t-38 97.5zM191 171q0 -26 18.5 -42.5t42.5 -16.5q13 0 22 2l176 61v332h-198q-24 0 -42.5 -19.5t-18.5 -41.5v-275z" />
<glyph unicode="&#x4d2;" horiz-adv-x="685" d="M39 0l188 1377h233l187 -1377h-130l-59 405h-230l-57 -405h-132zM169 1475v139h120v-139h-120zM242 525h202l-96 723h-10zM399 1475v139h118v-139h-118z" />
<glyph unicode="&#x4d3;" d="M69 156v290q0 75 55 129t128 54h198v247q0 26 -18.5 44t-41.5 18h-118q-26 0 -44 -18q-17 -16 -18 -44v-101h-122v103q0 77 54.5 130.5t131.5 53.5h118q75 0 128.5 -55.5t53.5 -128.5v-878h-102l-20 47l-139 -45q-43 -12 -71 -12q-77 0 -125 46.5t-48 119.5zM148 1236 v141h120v-141h-120zM191 171q0 -26 18.5 -42.5t42.5 -16.5q13 0 22 2l176 61v332h-198q-24 0 -42.5 -19.5t-18.5 -41.5v-275zM377 1236v141h118v-141h-118z" />
<glyph unicode="&#x4d4;" horiz-adv-x="940" d="M39 0l295 1377h549v-131h-244v-443h214v-120h-214v-553h244v-130h-376v396h-250l-86 -396h-132zM281 516h226v732h-70z" />
<glyph unicode="&#x4d5;" horiz-adv-x="1006" d="M69 156v290q0 75 55 129t128 54h198v247q0 26 -18.5 44t-41.5 18h-118q-26 0 -44 -18q-17 -16 -18 -44v-101h-122v103q0 77 54.5 130.5t131.5 53.5h118q69 0 122 -47q50 47 122 47h119q76 0 129.5 -54.5t53.5 -129.5v-371h-364v-325q0 -26 19 -43t43 -17h119 q25 0 43 18.5t18 41.5v168h122v-165q0 -77 -54.5 -131t-128.5 -54h-119q-81 0 -139 63l-184 -61q-43 -12 -71 -12q-77 0 -125 46.5t-48 119.5zM191 171q0 -26 18.5 -42.5t42.5 -16.5q13 0 22 2l176 61v332h-198q-24 0 -42.5 -19.5t-18.5 -41.5v-275zM574 629h242v247 q0 26 -18.5 44t-42.5 18h-122q-26 0 -42.5 -16.5t-16.5 -38.5v-254z" />
<glyph unicode="&#x4d6;" horiz-adv-x="512" d="M69 1612v16h96v-22q0 -15 12 -28t27 -13h122q16 0 28 13t12 28v22h96v-16q0 -59 -37.5 -98t-96.5 -39h-125q-59 0 -96.5 39t-37.5 98zM79 0v1377h375v-131h-246v-443h214v-120h-214v-553h244v-130h-373z" />
<glyph unicode="&#x4d7;" horiz-adv-x="623" d="M69 185v693q0 77 54 130.5t129 53.5h120q76 0 129.5 -54.5t53.5 -129.5v-371h-364v-325q0 -26 18.5 -43t42.5 -17h120q25 0 43 18.5t18 41.5v168h122v-165q0 -77 -54.5 -131t-128.5 -54h-120q-75 0 -129 56t-54 129zM114 1360v17h96v-22q0 -16 12 -29t28 -13h122 q15 0 27 13t12 29v22h96v-17q0 -58 -37 -97.5t-97 -39.5h-125q-59 0 -96.5 39.5t-37.5 97.5zM191 629h242v247q0 26 -18.5 44t-42.5 18h-120q-26 0 -43.5 -19t-17.5 -43v-247z" />
<glyph unicode="&#x4d8;" d="M79 185v211h127v-205q0 -24 18 -42.5t44 -18.5h107q24 0 43 17.5t19 43.5v483h-358v519q0 75 53 129.5t129 54.5h120q75 0 129 -53.5t54 -130.5v-1008q0 -73 -54 -129t-129 -56h-120q-75 0 -128.5 54t-53.5 131zM206 803h231v383q0 24 -18 42t-44 18h-107q-24 0 -43 -17 t-19 -43v-383z" />
<glyph unicode="&#x4d9;" horiz-adv-x="623" d="M69 185v165h122v-168q0 -24 18 -42t43 -18h120q24 0 42.5 17.5t18.5 42.5v325h-364v371q0 75 53 129.5t130 54.5h120q74 0 128.5 -53.5t54.5 -130.5v-693q0 -73 -54.5 -129t-128.5 -56h-120q-75 0 -129 54t-54 131zM191 629h242v247q0 24 -18 43t-43 19h-120 q-24 0 -42.5 -18t-18.5 -44v-247z" />
<glyph unicode="&#x4da;" d="M79 185v211h127v-205q0 -24 18 -42.5t44 -18.5h107q24 0 43 17.5t19 43.5v483h-358v519q0 75 53 129.5t129 54.5h120q75 0 129 -53.5t54 -130.5v-1008q0 -73 -54 -129t-129 -56h-120q-75 0 -128.5 54t-53.5 131zM139 1475v139h120v-139h-120zM206 803h231v383 q0 24 -18 42t-44 18h-107q-24 0 -43 -17t-19 -43v-383zM370 1475v139h118v-139h-118z" />
<glyph unicode="&#x4db;" horiz-adv-x="623" d="M69 185v165h122v-168q0 -24 18 -42t43 -18h120q24 0 42.5 17.5t18.5 42.5v325h-364v371q0 75 53 129.5t130 54.5h120q74 0 128.5 -53.5t54.5 -130.5v-693q0 -73 -54.5 -129t-128.5 -56h-120q-75 0 -129 54t-54 131zM128 1236v141h120v-141h-120zM191 629h242v247 q0 24 -18 43t-43 19h-120q-24 0 -42.5 -18t-18.5 -44v-247zM358 1236v141h118v-141h-118z" />
<glyph unicode="&#x4dc;" horiz-adv-x="904" d="M30 0l197 684q-51 23 -81 71t-30 104v319q0 28 -18.5 47t-46.5 21h-21v131h21q82 0 138.5 -58.5t56.5 -140.5v-305q0 -45 29 -75.5t75 -30.5h37v610h130v-610h38q45 0 73.5 29.5t28.5 74.5v307q0 81 58 140t138 59h22v-131h-22q-27 -2 -47 -22.5t-20 -45.5v-319 q0 -56 -29 -105.5t-80 -69.5l198 -684h-143l-180 647h-35v-647h-130v647h-35l-181 -647h-141zM279 1475v139h120v-139h-120zM509 1475v139h118v-139h-118z" />
<glyph unicode="&#x4dd;" horiz-adv-x="925" d="M30 0l218 497q-55 24 -87.5 73t-32.5 113v193q0 30 -22 51t-51 21h-23v123h23q78 0 136.5 -58t58.5 -137v-192q0 -33 24.5 -57.5t57.5 -24.5h69v460h124v-460h68q34 0 59 24.5t25 57.5v192q0 79 56.5 137t137.5 58h26v-123h-26q-30 0 -51.5 -21t-21.5 -51v-193 q0 -61 -32.5 -110.5t-84.5 -75.5l216 -497h-130l-210 480h-32v-480h-124v480h-31l-211 -480h-129zM289 1236v141h120v-141h-120zM519 1236v141h118v-141h-118z" />
<glyph unicode="&#x4de;" horiz-adv-x="571" d="M49 185v211h130v-211q0 -22 16.5 -38.5t38.5 -16.5h75q24 0 39.5 16.5t15.5 38.5v397q0 54 -26.5 77.5t-82.5 23.5h-64v120h64q51 0 80 36.5t29 92.5v259q0 24 -17 39.5t-38 15.5h-75q-22 0 -38.5 -15.5t-16.5 -39.5v-153h-130v153q0 77 55 131.5t130 54.5h75 q77 0 130.5 -54.5t53.5 -131.5v-261q0 -131 -103 -175q104 -38 103 -151v-419q0 -75 -54 -130t-130 -55h-75q-75 0 -130 54t-55 131zM98 1475v139h120v-139h-120zM328 1475v139h118v-139h-118z" />
<glyph unicode="&#x4df;" horiz-adv-x="591" d="M69 182v168h124v-168q0 -26 17.5 -43t42.5 -17h87q26 0 43.5 17.5t17.5 42.5v214q0 112 -116 111h-92v122h81q56 0 91.5 41t35.5 99v107q0 26 -17.5 44t-43.5 18h-87q-25 0 -42.5 -18t-17.5 -44v-101h-124v103q0 75 54 129.5t130 54.5h87q75 0 129 -54.5t54 -129.5v-137 q0 -120 -103 -173q102 -31 103 -133v-253q0 -74 -54 -128t-129 -54h-87q-76 0 -130 54t-54 128zM122 1236v141h120v-141h-120zM352 1236v141h117v-141h-117z" />
<glyph unicode="&#x4e2;" horiz-adv-x="711" d="M79 0v1377h129v-626l-37 -509l14 -4l273 1139h175v-1377h-130v625l37 490l-13 3l-272 -1118h-176zM163 1500v100h376v-100h-376z" />
<glyph unicode="&#x4e3;" horiz-adv-x="703" d="M69 0v1062h122v-496l-32 -444l307 940h170v-1062h-122v437l30 501l-306 -938h-169zM159 1276v101h376v-101h-376z" />
<glyph unicode="&#x4e4;" horiz-adv-x="711" d="M79 0v1377h129v-626l-37 -509l14 -4l273 1139h175v-1377h-130v625l37 490l-13 3l-272 -1118h-176zM177 1475v139h120v-139h-120zM407 1475v139h118v-139h-118z" />
<glyph unicode="&#x4e5;" horiz-adv-x="703" d="M69 0v1062h122v-496l-32 -444l307 940h170v-1062h-122v437l30 501l-306 -938h-169zM173 1236v141h120v-141h-120zM403 1236v141h118v-141h-118z" />
<glyph unicode="&#x4e6;" horiz-adv-x="656" d="M79 185v1006q0 77 55 131.5t129 54.5h131q76 0 130 -54.5t54 -131.5v-1006q0 -77 -54.5 -131t-129.5 -54h-131q-75 0 -129.5 54t-54.5 131zM156 1475v139h120v-139h-120zM208 185q0 -24 17 -39.5t38 -15.5h131q22 0 38 15.5t16 39.5v1006q0 22 -16.5 38.5t-37.5 16.5 h-131q-22 0 -38.5 -16.5t-16.5 -38.5v-1006zM385 1475v139h118v-139h-118z" />
<glyph unicode="&#x4e7;" horiz-adv-x="644" d="M69 182v694q0 77 53 131.5t130 54.5h142q74 0 128 -54.5t54 -131.5v-694q0 -74 -53.5 -128t-128.5 -54h-142q-77 0 -130 54t-53 128zM150 1236v141h120v-141h-120zM191 182q0 -26 18 -43t43 -17h142q26 0 43 17t17 43v694q0 26 -17.5 44t-42.5 18h-142q-26 0 -43.5 -18 t-17.5 -44v-694zM379 1236v141h118v-141h-118z" />
<glyph unicode="&#x4e8;" horiz-adv-x="656" d="M79 185v1006q0 77 55 131.5t129 54.5h131q76 0 130 -54.5t54 -131.5v-1006q0 -77 -54.5 -131t-129.5 -54h-131q-75 0 -129.5 54t-54.5 131zM208 185q0 -24 17 -39.5t38 -15.5h131q22 0 38 15.5t16 39.5v498h-240v-498zM208 803h240v388q0 22 -16.5 38.5t-37.5 16.5h-131 q-22 0 -38.5 -16.5t-16.5 -38.5v-388z" />
<glyph unicode="&#x4e9;" horiz-adv-x="648" d="M69 182v694q0 75 54 130.5t130 55.5h143q74 0 129 -54.5t55 -131.5v-694q0 -74 -54 -128t-130 -54h-143q-76 0 -130 54t-54 128zM193 182q0 -26 17.5 -43t42.5 -17h143q25 0 42.5 17.5t17.5 42.5v325h-263v-325zM193 629h263v247q0 26 -18 44t-42 18h-143 q-25 0 -42.5 -18t-17.5 -44v-247z" />
<glyph unicode="&#x4ea;" horiz-adv-x="656" d="M79 185v1006q0 77 55 131.5t129 54.5h131q76 0 130 -54.5t54 -131.5v-1006q0 -77 -54.5 -131t-129.5 -54h-131q-75 0 -129.5 54t-54.5 131zM156 1475v139h120v-139h-120zM208 185q0 -24 17 -39.5t38 -15.5h131q22 0 38 15.5t16 39.5v498h-240v-498zM208 803h240v388 q0 22 -16.5 38.5t-37.5 16.5h-131q-22 0 -38.5 -16.5t-16.5 -38.5v-388zM385 1475v139h118v-139h-118z" />
<glyph unicode="&#x4eb;" horiz-adv-x="648" d="M69 182v694q0 75 54 130.5t130 55.5h143q74 0 129 -54.5t55 -131.5v-694q0 -74 -54 -128t-130 -54h-143q-76 0 -130 54t-54 128zM152 1236v141h120v-141h-120zM193 182q0 -26 17.5 -43t42.5 -17h143q25 0 42.5 17.5t17.5 42.5v325h-263v-325zM193 629h263v247 q0 26 -18 44t-42 18h-143q-25 0 -42.5 -18t-17.5 -44v-247zM381 1236v141h118v-141h-118z" />
<glyph unicode="&#x4ec;" horiz-adv-x="544" d="M39 185v211h130v-211q0 -22 17 -38.5t38 -16.5h57q22 0 38.5 16.5t16.5 38.5v498h-157v120h157v388q0 24 -17 39.5t-38 15.5h-57q-22 0 -38.5 -15.5t-16.5 -39.5v-153h-130v153q0 77 54.5 131.5t130.5 54.5h57q75 0 130 -54.5t55 -131.5v-1006q0 -77 -55 -131t-130 -54 h-57q-77 0 -131 54t-54 131zM79 1475v139h120v-139h-120zM309 1475v139h117v-139h-117z" />
<glyph unicode="&#x4ed;" horiz-adv-x="571" d="M69 182v168h122v-168q0 -26 18 -43t43 -17h67q26 0 44 17.5t18 42.5v325h-190v122h190v247q0 26 -18.5 44t-43.5 18h-67q-26 0 -43.5 -18t-17.5 -44v-101h-122v103q0 75 54 129.5t129 54.5h67q77 0 130.5 -54.5t53.5 -129.5v-696q0 -74 -53.5 -128t-130.5 -54h-67 q-75 0 -129 54t-54 128zM112 1236v141h120v-141h-120zM342 1236v141h118v-141h-118z" />
<glyph unicode="&#x4ee;" horiz-adv-x="583" d="M30 1377h131l138 -852h25l98 852h133l-159 -1377h-133l48 396h-120zM133 1500v100h376v-100h-376z" />
<glyph unicode="&#x4ef;" horiz-adv-x="579" d="M19 1062h125l139 -940h17l126 940h124l-188 -1366h-124l43 304h-104zM100 1276v101h376v-101h-376z" />
<glyph unicode="&#x4f0;" horiz-adv-x="583" d="M30 1377h131l138 -852h25l98 852h133l-159 -1377h-133l48 396h-120zM148 1475v139h120v-139h-120zM377 1475v139h118v-139h-118z" />
<glyph unicode="&#x4f1;" horiz-adv-x="579" d="M19 1062h125l139 -940h17l126 940h124l-188 -1366h-124l43 304h-104zM114 1236v141h120v-141h-120zM344 1236v141h118v-141h-118z" />
<glyph unicode="&#x4f2;" horiz-adv-x="583" d="M30 1377h131l138 -852h25l98 852h133l-159 -1377h-133l48 396h-120zM128 1549l174 130l60 -75l-175 -129zM360 1549l175 130l58 -75l-174 -129z" />
<glyph unicode="&#x4f3;" horiz-adv-x="579" d="M19 1062l158 -1062h104l-43 -304h124l188 1366h-124l-126 -940h-17l-139 940h-125zM102 1246l175 131l59 -75l-175 -130zM334 1246l175 131l59 -75l-174 -130z" />
<glyph unicode="&#x4f4;" horiz-adv-x="653" d="M79 745v632h129v-640q0 -22 17 -38t38 -16h183v694h130v-1377h-130v561h-183q-77 0 -130.5 53.5t-53.5 130.5zM154 1475v139h120v-139h-120zM383 1475v139h118v-139h-118z" />
<glyph unicode="&#x4f5;" horiz-adv-x="644" d="M69 580v482h122v-503q0 -19 14.5 -35.5t36.5 -16.5h210v555h124v-1062h-124v385h-189q-81 0 -137.5 57t-56.5 138zM150 1236v141h120v-141h-120zM379 1236v141h118v-141h-118z" />
<glyph unicode="&#x4f8;" horiz-adv-x="912" d="M79 0v1377h129v-454h182q80 0 132 -54.5t52 -131.5v-552q0 -77 -54 -131t-130 -54h-311zM208 130h182q24 0 39 16.5t15 38.5v562q0 22 -15.5 39t-38.5 17h-182v-673zM270 1475v139h120v-139h-120zM499 1475v139h118v-139h-118zM704 0v1377h129v-1377h-129z" />
<glyph unicode="&#x4f9;" horiz-adv-x="868" d="M69 0v1062h124v-311h165q81 0 137.5 -57t56.5 -137v-362q0 -81 -57.5 -138t-136.5 -57h-289zM193 122h184q19 0 35 16t16 35v405q0 19 -15.5 35t-35.5 16h-184v-507zM268 1236v141h119v-141h-119zM497 1236v141h118v-141h-118zM677 0v1062h124v-1062h-124z" />
<glyph unicode="&#x2000;" horiz-adv-x="865" />
<glyph unicode="&#x2001;" horiz-adv-x="1730" />
<glyph unicode="&#x2002;" horiz-adv-x="865" />
<glyph unicode="&#x2003;" horiz-adv-x="1730" />
<glyph unicode="&#x2004;" horiz-adv-x="576" />
<glyph unicode="&#x2005;" horiz-adv-x="432" />
<glyph unicode="&#x2006;" horiz-adv-x="288" />
<glyph unicode="&#x2007;" horiz-adv-x="288" />
<glyph unicode="&#x2008;" horiz-adv-x="216" />
<glyph unicode="&#x2009;" horiz-adv-x="346" />
<glyph unicode="&#x200a;" horiz-adv-x="96" />
<glyph unicode="&#x2010;" horiz-adv-x="504" d="M59 527v106h387v-106h-387z" />
<glyph unicode="&#x2011;" horiz-adv-x="504" d="M59 527v106h387v-106h-387z" />
<glyph unicode="&#x2012;" horiz-adv-x="504" d="M59 527v106h387v-106h-387z" />
<glyph unicode="&#x2013;" horiz-adv-x="863" d="M59 582v106h745v-106h-745z" />
<glyph unicode="&#x2014;" horiz-adv-x="1019" d="M59 582v106h902v-106h-902z" />
<glyph unicode="&#x2018;" horiz-adv-x="257" d="M59 1024v140l95 213h45l-51 -213h51v-140h-140z" />
<glyph unicode="&#x2019;" horiz-adv-x="257" d="M59 1024l51 212h-51v141h140v-141l-94 -212h-46z" />
<glyph unicode="&#x201a;" horiz-adv-x="235" d="M59 0v139h118v-139l-72 -212h-46l43 212h-43z" />
<glyph unicode="&#x201c;" horiz-adv-x="491" d="M59 1024v140l95 213h45l-51 -213h51v-140h-140zM293 1024v140l94 213h46l-52 -213h52v-140h-140z" />
<glyph unicode="&#x201d;" horiz-adv-x="491" d="M59 1024l51 212h-51v141h140v-141l-94 -212h-46zM293 1024l51 212h-51v141h140v-141l-95 -212h-45z" />
<glyph unicode="&#x201e;" horiz-adv-x="512" d="M59 0v139h140v-139l-94 -212h-46l51 212h-51zM315 0v139h139v-139l-94 -212h-45l51 212h-51z" />
<glyph unicode="&#x2020;" horiz-adv-x="646" d="M59 961v101h215v315h99v-315h215v-101h-215v-961h-99v961h-215z" />
<glyph unicode="&#x2022;" horiz-adv-x="463" d="M59 751q0 73 50 123t122.5 50t123 -50t50.5 -123q0 -71 -51.5 -121t-122 -50t-121.5 50.5t-51 120.5z" />
<glyph unicode="&#x2026;" horiz-adv-x="899" d="M59 0v139h140v-139h-140zM383 0v139h140v-139h-140zM702 0v139h140v-139h-140z" />
<glyph unicode="&#x202f;" horiz-adv-x="346" />
<glyph unicode="&#x2030;" horiz-adv-x="1249" d="M59 482l686 484l56 -75l-687 -486zM120 944v263q0 73 52 121.5t127 48.5h7q77 0 128.5 -48.5t51.5 -121.5v-263q0 -73 -51.5 -121t-128.5 -48h-7q-75 0 -127 48t-52 121zM222 944q0 -30 27 -49.5t53 -19.5q32 0 56.5 18.5t24.5 50.5v263q0 31 -24.5 51t-55.5 20t-56 -18 t-25 -53v-263zM379 171v264q0 73 51.5 121t126.5 48h7q77 0 128 -48t51 -121v-264q0 -75 -51 -123t-128 -48h-7q-75 0 -126.5 49t-51.5 122zM482 171q0 -30 25.5 -50.5t53.5 -20.5q31 0 55.5 19.5t24.5 51.5v264q0 32 -25 50t-55 18t-54.5 -17t-24.5 -51v-264zM828 171v264 q0 73 51 121t126 48h8q77 0 127.5 -48t50.5 -121v-264q0 -75 -50.5 -123t-127.5 -48h-8q-75 0 -126 49t-51 122zM930 171q0 -30 25.5 -50.5t53.5 -20.5q32 0 56.5 19.5t24.5 51.5v264q0 32 -25 50t-56 18q-30 0 -54.5 -17t-24.5 -51v-264z" />
<glyph unicode="&#x2039;" horiz-adv-x="386" d="M59 531l181 397h88l-131 -397l131 -399h-88z" />
<glyph unicode="&#x203a;" horiz-adv-x="386" d="M59 132l132 399l-132 397h89l180 -397l-180 -399h-89z" />
<glyph unicode="&#x205e;" horiz-adv-x="235" d="M59 0v139h118v-139h-118zM59 413v142h118v-142h-118zM59 824v142h118v-142h-118zM59 1235v142h118v-142h-118z" />
<glyph unicode="&#x205f;" horiz-adv-x="432" />
<glyph unicode="&#x20ac;" horiz-adv-x="644" d="M59 539v108h116v128h-116v108h116v314q0 73 52 126.5t127 53.5h53q73 0 126 -53.5t53 -126.5v-159h-118v159q0 26 -17.5 44t-43.5 18h-53q-26 0 -43.5 -18t-17.5 -44v-314h175v-108h-175v-128h175v-108h-175v-359q0 -25 17.5 -42.5t43.5 -17.5h53q26 0 43.5 18t17.5 42 v216h118v-216q0 -74 -52 -127t-127 -53h-53q-75 0 -127 53.5t-52 126.5v359h-116z" />
<glyph unicode="&#x20b4;" horiz-adv-x="546" d="M59 179v123q0 55 27 122l47 115h-74v108h120l53 128h-173v108h218l77 183q14 33 14 67v64q0 26 -18 43t-41 17h-71q-24 0 -41.5 -17t-17.5 -43v-135h-120v135q0 73 53 126.5t126 53.5h71q73 0 126 -53.5t53 -126.5v-64q0 -55 -24 -114l-57 -136h81v-108h-126l-53 -128 h179v-108h-225l-62 -152q-22 -51 -22 -87v-121q0 -24 17.5 -41.5t41.5 -17.5h71q26 0 42.5 18t16.5 41v217h120v-217q0 -73 -53.5 -126t-125.5 -53h-71q-73 0 -126 53.5t-53 125.5z" />
<glyph unicode="&#x2122;" horiz-adv-x="697" d="M59 1319v58h202v-58h-70v-542h-61v542h-71zM317 777v600h84l77 -510l77 510h84v-600h-61v157l20 362l-89 -519h-65l-86 519l19 -362v-157h-60z" />
</font>
</defs>
</svg>
