<?xml version="1.0" standalone="no"?>
<!DOCTYPE svg PUBLIC "-//W3C//DTD SVG 1.1//EN" "http://www.w3.org/Graphics/SVG/1.1/DTD/svg11.dtd" >
<svg xmlns="http://www.w3.org/2000/svg">
<metadata></metadata>
<defs>
<font id="lobster_1.4regular" horiz-adv-x="961" >
<font-face units-per-em="2048" ascent="1638" descent="-410" />
<missing-glyph horiz-adv-x="412" />
<glyph unicode="IJ" horiz-adv-x="1262" d="M11 934q0 96 60 184.5t155 157.5q217 152 454 152q39 0 76 -3l-280 -1315q50 -7 89 -36t39 -85q0 -26 -13 -63q-44 43 -95 43t-87 -41t-36 -82q0 -72 36.5 -108.5t98.5 -36.5t105 50.5t71 183.5l312 1430l286 63l-286 -1352q-97 -470 -476 -470q-307 0 -307 271 q0 66 30 123h-64l276 1294q-266 -112 -266 -416q0 -77 21 -116q5 -8 5 -13q-153 0 -191 97q-13 36 -13 88z" />
<glyph unicode="ij" horiz-adv-x="965" d="M-15 217q0 54 15 124l129 611h275l-137 -647q-8 -34 -8 -67.5t19 -49t54.5 -15.5t65.5 12q-7 -96 -66.5 -146t-144 -50t-143.5 54t-59 174zM124 -291q0 154 202 242q56 24 110 42l204 959h274l-189 -883q89 30 145 88q55 59 96 184h80q-74 -244 -245 -322 q-48 -23 -92 -34l-29 -138q-36 -183 -145 -264q-80 -59 -183 -59t-165.5 46t-62.5 139zM167 1205q0 63 43.5 108t107 45t108.5 -45q45 -44 45 -108q0 -63 -45.5 -106t-108 -43t-106.5 43q-44 44 -44 106zM229 -265q0 -38 36 -57q12 -5 35.5 -5t54 41t49.5 128l12 55 q-187 -65 -187 -162zM661 1207q0 62 43.5 107.5t106.5 45.5t108 -45q44 -45 44 -108t-45 -106.5t-107 -43.5t-106 44t-44 106z" />
<glyph unicode="&#xfb00;" horiz-adv-x="967" d="M-398 -283q0 77 25.5 122.5t82 86t221.5 89.5l229 1088q68 324 347 324q63 0 120 -32.5t84 -87.5q93 120 260 120q89 0 157 -58t68 -148q0 -44 -6 -78h-89q4 30 4 57t-22 43t-44 16q-102 0 -136 -150l-34 -157h190l-17 -76h-188l-216 -1029q-36 -182 -147 -264 q-81 -59 -200 -59q-155 0 -205 120q-91 -120 -259 -120q-88 0 -156.5 58t-68.5 135zM-282 -244q0 -37 46 -57q14 -6 37.5 -6t55.5 32q30 31 50 117l22 111q-102 -37 -140 -67q-71 -57 -71 -130zM137 -269q24 -38 110 -38q31 0 63 32q31 31 50 117l45 217l-196 -36l-36 -176 q-16 -66 -36 -116zM219 71l196 34l163 771h-189zM404 952h188l44 200q4 23 4 49t-22 42t-44 16q-102 0 -136 -150z" />
<glyph unicode="&#xfb01;" horiz-adv-x="1017" d="M-394 -263q0 160 210 237q58 22 119 41l212 1002q87 410 445 410q266 0 327 -140q15 -34 15 -80q0 -84 -46.5 -118.5t-104.5 -34.5q-114 0 -114 102q0 33 17 63t47 30h9q5 0 7 -2q-4 76 -105 76q-126 0 -179 -134q-16 -40 -23 -80l-33 -157h153l-15 -76h-153l-217 -1029 q-37 -178 -144 -260q-81 -63 -188 -63t-173 58q-66 57 -66 155zM-289 -231q0 -41 26 -58.5t53 -17.5t59.5 34t49.5 115l23 111q-211 -69 -211 -184zM494 217q0 54 15 124l129 611h274l-136 -647q-8 -34 -8 -68q0 -64 77 -64q56 0 104 48.5t68 119.5h80q-122 -352 -411 -352 q-74 0 -134 54q-58 54 -58 174z" />
<glyph unicode="&#xfb02;" horiz-adv-x="1043" d="M-398 -283q0 77 25.5 122.5t82 86t221.5 89.5l229 1088q67 324 354 324q124 0 215 -30l155 -53q62 -22 127 -49l-209 -990q-8 -34 -8 -68q0 -64 78 -64q55 0 103 47q47 48 68 121h80q-123 -352 -410 -352q-75 0 -135 54q-58 54 -58 174q0 54 15 124l198 935 q-76 31 -155 31q-98 0 -131 -151l-42 -204h178l-16 -76h-176l-218 -1029q-65 -323 -346 -323q-88 0 -156.5 58t-68.5 135zM-293 -244q0 -37 46 -57q14 -6 36.5 -6t55.5 31.5t50 117.5l23 111q-102 -37 -140 -67q-71 -57 -71 -130z" />
<glyph unicode="&#xfb03;" horiz-adv-x="1455" d="M-398 -283q0 77 25.5 122.5t82 86t221.5 89.5l229 1088q68 324 347 324q157 0 234 -100q105 100 288 100q266 0 326 -140q15 -34 15 -80q0 -84 -46.5 -118.5t-104.5 -34.5q-114 0 -114 102q0 33 17 63t47 30h9q5 0 7 -2q-4 76 -105 76q-163 0 -202 -214l-33 -157h505 l-136 -647q-8 -34 -8 -68q0 -64 77 -64q56 0 104 48.5t68 119.5h80q-122 -352 -410 -352q-75 0 -135 54q-58 54 -58 174q0 54 15 124l112 535h-229l-217 -1029q-37 -178 -143 -260q-82 -63 -192 -63q-149 0 -207 101q-92 -101 -244 -101q-88 0 -156.5 58t-68.5 135z M-282 -244q0 -37 46 -57q14 -6 37 -6t56 32q31 31 50 117l22 111q-102 -37 -140 -67q-71 -57 -71 -130zM135 -272q12 -61 73 -61q39 0 73 42t54 133l44 207l-170 -34l-36 -168q-12 -62 -38 -119zM221 69l168 28l163 779h-160zM407 952h162l14 65q26 138 95 239 q-28 31 -72 31q-137 0 -168 -178z" />
<glyph unicode="&#xfb04;" horiz-adv-x="1485" d="M-398 -283q0 77 25.5 122.5t82 86t221.5 89.5l229 1088q39 185 147 264q83 60 211.5 60t206.5 -80q90 80 222.5 80t223.5 -30l154 -53q63 -22 129 -49l-211 -990q-7 -34 -7 -68q0 -64 78 -64q56 0 103 47q47 49 68 121h80q-123 -352 -410 -352q-75 0 -135 54 q-58 54 -58 174q0 50 15 124l199 935q-77 31 -157 31q-97 0 -130 -151l-42 -204h178l-16 -76h-177l-219 -1029q-37 -178 -143 -260q-82 -63 -192 -63q-150 0 -207 103q-94 -103 -244 -103q-88 0 -156.5 58t-68.5 135zM-282 -244q0 -37 46 -57q14 -6 37 -6t56 32 q31 31 50 117l22 111q-102 -37 -140 -67q-71 -57 -71 -130zM135 -271q5 -62 71 -62q92 0 129 175l44 207l-170 -34l-36 -168q-12 -60 -38 -118zM221 69l168 28l165 779h-162zM407 952h162l33 151q16 91 61 166q-26 18 -64 18q-69 0 -108.5 -51t-52.5 -127z" />
<glyph unicode="Ex" horiz-adv-x="1517" d="M13 294q0 165 97.5 313t254.5 187q-116 85 -116 233.5t121 276.5t297 128q118 0 195 -61.5t77 -161.5t-41.5 -156.5t-96.5 -56.5t-92 51q33 13 58 63.5t25 105.5t-33 79q-35 25 -75 25q-80 0 -135.5 -82.5t-55.5 -186.5q0 -143 104 -216q37 -26 88 -39 q-145 -32 -242.5 -174t-97.5 -262.5t54.5 -166.5t123.5 -46q119 0 236.5 57.5t202.5 153.5l-95 522h269l60 -339q181 194 181 303q0 13 -2 23q-18 -4 -32 -4q-89 0 -89 106q0 90 116 90q55 0 87.5 -49.5t32.5 -131t-66 -187.5t-207 -255l17 -95l12 -56q23 -112 101 -112 q55 0 102 47q47 48 69 121h80q-123 -352 -393 -352q-91 0 -139 59.5t-79 191.5q-101 -118 -275 -194.5t-337 -76.5q-251 0 -333 179q-29 63 -29 146z" />
<glyph unicode="Fi" horiz-adv-x="1382" d="M17 955.5q0 73.5 35 162.5t114 158q172 152 501 152q48 0 99 -5l104 -13q149 -20 264 -20t249 37q-35 -200 -141 -268q-40 -27 -97.5 -27t-105 11t-93 27t-93 34.5t-106.5 33.5l-82 -381h240l-31 -141h-240l-154 -716h-274l274 1272h-21q-127 0 -196 -87t-69 -307 q0 -75 24 -116q3 -8 3 -13q-153 0 -191 97q-13 36 -13 109.5zM859 217q0 54 15 124l129 611h275l-137 -647q-7 -34 -7 -68q0 -64 77 -64q56 0 103.5 48.5t68.5 119.5h80q-123 -352 -410 -352q-76 0 -135 54t-59 174z" />
<glyph unicode="Th" horiz-adv-x="1849" d="M11 953.5q0 73.5 38.5 162.5t119.5 158q181 153 513 153q32 0 90 -8q298 -42 442.5 -42t212.5 46l-33 -65q-38 -82 -98 -363l-29 -146q93 111 227 111q90 0 150 -50q61 -51 61 -147.5t-31 -223.5l-46 -186q-14 -60 -14 -98q0 -82 69 -82q64 0 97.5 41t69.5 127h80 q-71 -210 -180 -295q-73 -57 -156 -57q-137 0 -190.5 62t-53.5 144.5t43 253.5t43 240q0 98 -69 98t-119 -103q-15 -28 -25 -61l-116 -623h-275l262 1216q-60 3 -123 13l-129 18l-269 -1247h-274l272 1265q-179 -7 -272 -86q-110 -93 -110 -296v-7q0 -77 21 -116q5 -8 5 -13 q-153 0 -191 97q-13 36 -13 109.5z" />
<glyph unicode="Ti" horiz-adv-x="1417" d="M11 953.5q0 73.5 35.5 162.5t113.5 158q172 153 501 153q29 0 83 -5l120 -10q170 -16 304.5 -16t201.5 27q20 -67 20 -126q0 -103 -72 -153q-53 -37 -121.5 -37t-132.5 24l-230 83l-261 -1214h-274l274 1278q-41 5 -91 5q-130 0 -211.5 -93t-81.5 -314q0 -77 21 -116 q5 -8 5 -13q-153 0 -191 97q-13 36 -13 109.5zM894 217q0 54 15 124l129 611h274l-136 -647q-8 -34 -8 -68q0 -64 77 -64q56 0 104 48.5t68 119.5h80q-122 -352 -411 -352q-74 0 -134 54q-58 54 -58 174z" />
<glyph unicode="ax" horiz-adv-x="1712" d="M-25 285q0 75 13 150t40 149q59 164 170 271t267 107q82 0 118 -27.5t36 -69.5v-14l21 101h274l-137 -647q-6 -25 -6 -54.5t17 -53.5t60 -24q77 0 162.5 51.5t147.5 127.5l-111 600h269l74 -411q182 194 182 303q0 13 -2 23q-19 -4 -33 -4q-90 0 -90 106q0 43 30.5 66.5 t85.5 23.5t87.5 -49.5t32.5 -131.5q0 -120 -149 -303q-52 -63 -122 -139l16 -95l12 -56q23 -112 101 -112q55 0 102 47q48 48 69 121h80q-123 -352 -392 -352q-91 0 -140 60.5t-81 194.5q-203 -255 -448 -255q-79 0 -140 46t-77 132q-119 -178 -288.5 -178t-229.5 163 q-21 58 -21 133zM257 312q0 -85 35 -119q20 -20 51 -20q57 0 103.5 45t64.5 123l91 430q0 18 -16.5 45.5t-69.5 27.5t-103 -57q-121 -137 -152 -393q-4 -39 -4 -82z" />
<glyph unicode="a&#x7a;" horiz-adv-x="1725" d="M-25 285q0 75 13 150t40 149q59 164 170 271t267 107q82 0 118 -27.5t36 -69.5v-14l21 101h274l-137 -647q-8 -33 -8 -67q0 -65 78 -65q25 0 42 8q-40 -107 -68 -138q-49 -54 -125 -54t-124 46t-60 131q-118 -177 -287 -177t-229 163q-21 58 -21 133zM257 312 q0 -85 35 -119q20 -20 51 -20q57 0 103.5 45t64.5 123l91 430q0 18 -16.5 45.5t-69.5 27.5t-103 -57q-121 -137 -152 -393q-4 -39 -4 -82zM910 0l486 849h-106q-45 0 -75 -4.5t-30 -25.5q0 -4 3 -5t10 -6t7 -44.5t-32 -63.5t-59 -24q-47 0 -72.5 22.5t-25.5 56.5 q0 74 63 135.5t157 61.5h490l-467 -805q12 -1 29 -3l36 -4q43 -5 78 -5q85 0 92 38q-37 4 -37 40q0 28 26 55t80 27q85 0 85 -91q0 -74 -65 -139t-168 -65h-505z" />
<glyph unicode="bs" horiz-adv-x="1521" d="M-13 232q0 52 13 109l204 954l281 39l-91 -429q86 53 157 53q212 0 224 -286q132 26 294 302l281 37q8 -179 15 -299l23 -302q4 -45 4 -88.5t-5 -74.5q61 34 134 94h80q-101 -120 -264 -223q-89 -129 -280 -129q-153 0 -218 83q-47 60 -47 154.5t42 145.5t95 51 q100 0 100 -80q0 -35 -27 -60.5t-65 -25.5t-52 25q0 -142 111 -142q63 0 91.5 37t28.5 115t-9 153q-22 186 -33 389q-132 -199 -301 -256q-17 -198 -105 -347t-236 -211q-78 -31 -194.5 -31t-183.5 64t-67 179zM259 261q0 -88 101 -88q84 0 158 158q47 106 61 236 q-30 22 -30 74.5t25 80.5q-27 101 -92 101q-47 0 -75.5 -12.5t-37.5 -21.5l-104 -484q-6 -24 -6 -44z" />
<glyph unicode="bsx" horiz-adv-x="2178" d="M-13 232q0 52 13 109l204 954l281 39l-91 -429q86 53 157 53q212 0 224 -286q132 26 294 302l281 37q8 -179 15 -299l23 -302q4 -45 4 -90.5t-7 -85.5q149 63 236 137l-107 581h269l74 -411q181 193 181 303q0 13 -2 23q-16 -4 -33 -4q-89 0 -89 106q0 43 30 66.5 t85.5 23.5t88 -49.5t32.5 -131t-66 -187.5t-206 -255l28 -151q24 -112 102 -112q55 0 103 48.5t68 119.5h80q-123 -352 -392 -352q-93 0 -141.5 63t-85.5 219q-79 -55 -178 -98.5t-128 -58.5q-92 -125 -277 -125q-153 0 -218 83q-47 60 -47 154.5t42 145.5t95 51 q100 0 100 -80q0 -35 -27 -60.5t-65 -25.5t-52 25q0 -142 111 -142q63 0 91.5 37t28.5 115t-9 153q-22 186 -33 389q-132 -199 -301 -256q-17 -198 -105 -347t-236 -211q-78 -31 -194.5 -31t-183.5 64t-67 179zM259 261q0 -88 101 -88q84 0 158 158q47 106 61 236 q-30 22 -30 74.5t25 80.5q-27 101 -92 101q-47 0 -75.5 -12.5t-37.5 -21.5l-104 -484q-6 -24 -6 -44z" />
<glyph unicode="bs&#x7a;" horiz-adv-x="2205" d="M-13 232q0 52 13 109l204 954l281 39l-91 -429q86 53 157 53q212 0 224 -286q132 26 294 302l281 37q8 -179 15 -299l23 -302q4 -45 4 -115.5t-30 -132.5q-85 -173 -305 -173q-153 0 -218 83q-47 60 -47 154.5t42 145.5t95 51q100 0 100 -80q0 -35 -27 -60.5t-65 -25.5 t-52 25q0 -142 111 -142q63 0 91.5 37t28.5 115t-9 153q-22 186 -33 389q-132 -199 -301 -256q-17 -198 -105 -347t-236 -211q-78 -31 -194.5 -31t-183.5 64t-67 179zM259 261q0 -88 101 -88q84 0 158 158q47 106 61 236q-30 22 -30 74.5t25 80.5q-27 101 -92 101 q-47 0 -75.5 -12.5t-37.5 -21.5l-104 -484q-6 -24 -6 -44zM1390 0l486 849h-106q-45 0 -75 -4.5t-30 -25.5q0 -4 3 -5t10 -6t7 -44.5t-32 -63.5t-59 -24q-47 0 -73 22.5t-26 56.5q0 74 63.5 135.5t157.5 61.5h490l-467 -805q12 -1 29 -3l36 -4q43 -5 78 -5q85 0 91 38 q-36 4 -36 40q0 28 26 55t80 27q85 0 85 -91q0 -74 -65 -139t-168 -65h-505z" />
<glyph unicode="cx" horiz-adv-x="1437" d="M-38 283.5q0 68.5 11 138.5t36 143q58 173 160 277q128 127 301.5 127t205.5 -112q9 -31 9 -84.5t-31 -85t-68 -31.5t-68 22q23 59 23 112q0 79 -52 79q-46 0 -89 -60q-94 -131 -136 -320q-20 -88 -20 -156q0 -188 192 -188q171 0 341 123q57 41 105 94l-109 590h269 l74 -411q181 194 181 303q0 13 -2 23q-18 -4 -34 -4q-87 0 -87 106q0 90 113 90q56 0 89 -49q34 -49 34 -106q0 -101 -63 -205t-210 -265l17 -93l12 -56q23 -112 101 -112q55 0 102 47q47 48 69 121h80q-92 -263 -268 -330q-58 -22 -118 -22q-98 0 -148 62t-81 200 q-121 -119 -283.5 -190.5t-318.5 -71.5q-238 0 -312 165q-27 61 -27 129.5z" />
<glyph unicode="c&#x7a;" horiz-adv-x="1464" d="M-38 291q0 219 111 422q83 154 229 221q76 35 156 35q133 0 180 -49.5t47 -125t-31 -107t-68 -31.5t-68 22q23 59 23 112q0 79 -52 79q-57 0 -117 -101q-86 -138 -119 -339q-9 -59 -9 -105q0 -158 114 -158q102 0 229 105q-55 -282 -330 -282q-133 0 -214 70t-81 232z M649 0l487 849h-69q-105 0 -105 -27q0 -7 3 -8t10.5 -6t7.5 -44.5t-32 -63.5t-60 -24q-47 0 -73 22.5t-26 56.5q0 73 63 135t159 62h451l-467 -805q55 0 93 -11.5t70.5 -11.5t49 10.5t21.5 38.5q-36 4 -36 40q0 28 26 55t75 27q90 0 90 -91q0 -74 -65.5 -139t-167.5 -65 h-505z" />
<glyph unicode="ex" horiz-adv-x="1451" d="M-25 299q0 210 111 413q84 156 230 222q76 35 156 35q132 0 179.5 -49.5t47.5 -132.5q0 -164 -130.5 -277.5t-309.5 -124.5q-2 -14 -2 -27v-25q0 -106 55.5 -147t120.5 -41q125 0 247.5 57.5t215.5 159.5l-109 590h269l73 -411q181 194 181 303q0 13 -1 23q-16 -4 -35 -4 q-87 0 -87 106q0 90 113 90q56 0 89 -49q34 -49 34 -106q0 -101 -62 -205.5t-211 -264.5l17 -93q7 -27 12 -56q23 -112 101 -112q55 0 103 48.5t69 119.5h80q-92 -262 -269 -330q-62 -24 -112 -24t-89 17q-69 28 -108 126q-20 50 -38 123q-182 -186 -440 -246 q-82 -18 -156 -18q-158 0 -251.5 74t-93.5 236zM274 476q110 4 194 99.5t84 224.5q0 69 -47 69q-68 0 -135.5 -124.5t-95.5 -268.5z" />
<glyph unicode="e&#x7a;" horiz-adv-x="1501" d="M-37 291q0 218 111 421q84 156 229 222q76 35 156 35q134 0 181 -49.5t47 -132.5q0 -163 -130.5 -277t-307.5 -125q-4 -26 -4 -58q0 -158 121 -158q52 0 114 31t108 71q-51 -282 -329 -282q-134 0 -215 70t-81 232zM262 476q110 4 194 99.5t84 224.5q0 69 -47 69 q-90 -4 -174 -211q-35 -88 -57 -182zM685 0l486 849h-106q-45 0 -75 -4.5t-30 -25.5q0 -4 3 -5t10 -6t7 -44.5t-32 -63.5t-59 -24q-47 0 -73 22.5t-26 56.5q0 74 63.5 135.5t157.5 61.5h490l-467 -805q12 -1 29 -3l36 -4q43 -5 78 -5q85 0 92 38q-37 4 -37 40q0 28 26 55 t80 27q85 0 85 -91q0 -74 -65 -139t-168 -65h-505z" />
<glyph unicode="&#xe9;x" horiz-adv-x="1447" d="M-29 279q0 70 11 141t37 146q55 172 160 277q128 126 303 126t204 -115q10 -35 10 -94t-36.5 -128.5t-97.5 -122.5q-129 -113 -305 -124q-4 -32 -4 -61q0 -97 56 -138t123 -41q122 0 245.5 58t213.5 159l-108 590h268l74 -411q182 194 182 303q0 13 -2 23q-16 -4 -33 -4 q-89 0 -89 106q0 90 116 90q55 0 87.5 -49.5t32.5 -131t-66 -187.5t-206 -255l16 -95l13 -56q22 -112 100 -112q56 0 103 47q47 49 68 121h80q-123 -352 -391 -352q-93 0 -143 64.5t-81 199.5q-111 -119 -278 -191.5t-318 -72.5q-243 0 -318 162q-27 58 -27 128zM271 476 q108 8 193 101.5t85 192.5t-46 99q-70 0 -134 -118t-98 -275zM427 1069l173 359h200l-231 -359h-142z" />
<glyph unicode="fft" horiz-adv-x="1485" d="M-398 -283q0 77 25.5 122.5t82 86t221.5 89.5l229 1088q39 185 147 264q83 60 211.5 60t206.5 -80q90 80 222.5 80t223.5 -30l154 -53q63 -22 129 -49l-73 -343h114l-15 -76h-117l-120 -571q-7 -34 -7 -68q0 -64 78 -64q56 0 103 47q47 49 68 121h80q-123 -352 -410 -352 q-75 0 -135 54q-58 54 -58 174q0 50 15 124l112 535h-257l-219 -1029q-37 -178 -143 -260q-82 -63 -192 -63q-150 0 -207 103q-94 -103 -244 -103q-88 0 -156.5 58t-68.5 135zM-282 -244q0 -37 46 -57q14 -6 37 -6t56 32q31 31 50 117l22 111q-102 -37 -140 -67 q-71 -57 -71 -130zM135 -271q5 -62 71 -62q92 0 129 175l44 207l-170 -34l-36 -168q-12 -60 -38 -118zM221 69l168 28l165 779h-162zM407 952h162l33 151q16 91 61 166q-26 18 -64 18q-69 0 -108.5 -51t-52.5 -127zM847 952h260l69 324q-77 31 -157 31q-97 0 -130 -151z" />
<glyph unicode="fix" horiz-adv-x="1710" d="M-394 -263q0 160 210 237q58 22 119 41l212 1002q87 410 445 410q266 0 327 -140q15 -34 15 -80q0 -84 -46.5 -118.5t-104.5 -34.5q-114 0 -114 102q0 33 17 63t47 30h9q5 0 7 -2q-4 76 -105 76q-126 0 -179 -134q-16 -40 -23 -80l-33 -157h153l-15 -76h-153l-217 -1029 q-37 -178 -144 -260q-81 -63 -188 -63t-173 58q-66 57 -66 155zM-289 -231q0 -41 26 -58.5t53 -17.5t59.5 34t49.5 115l23 111q-211 -69 -211 -184zM493 215q0 44 16 126l129 611h274l-136 -647q-9 -33 -9 -61q0 -69 84 -69q112 0 235 108q37 32 68 71l-109 598h269l74 -411 q182 194 182 303q0 13 -2 23q-19 -4 -33 -4q-90 0 -90 106q0 43 30.5 66.5t85.5 23.5t87.5 -49.5t32.5 -131.5q0 -120 -149 -303q-51 -63 -122 -139l17 -95l11 -56q23 -112 101 -112q55 0 102 47q48 48 69 121h80q-123 -352 -392 -352q-92 0 -141 61q-47 62 -80 201 q-158 -178 -349 -240q-67 -22 -144.5 -22t-133.5 54q-57 54 -57 172z" />
<glyph unicode="fi&#x7a;" horiz-adv-x="1721" d="M-394 -263q0 160 210 237q58 22 119 41l212 1002q87 410 445 410q266 0 327 -140q15 -34 15 -80q0 -84 -46.5 -118.5t-104.5 -34.5q-114 0 -114 102q0 33 17 63t47 30h9q5 0 7 -2q-4 76 -105 76q-126 0 -179 -134q-16 -40 -23 -80l-33 -157h153l-15 -76h-153l-217 -1029 q-37 -178 -144 -260q-81 -63 -188 -63t-173 58q-66 57 -66 155zM-289 -231q0 -41 26 -58.5t53 -17.5t59.5 34t49.5 115l23 111q-211 -69 -211 -184zM494 217q0 54 15 124l129 611h274l-136 -647q-8 -34 -8 -67.5t18.5 -49t54 -15.5t66.5 12q-8 -96 -67.5 -146t-143.5 -50 t-144 54q-58 54 -58 174zM907 0l485 849h-106q-44 0 -74.5 -4.5t-30.5 -25.5q0 -4 3.5 -5t10.5 -6t7 -44.5t-32.5 -63.5t-59.5 -24q-47 0 -72.5 22.5t-25.5 56.5q0 74 63 135.5t157 61.5h490l-466 -805q12 -1 28 -3l37 -4q42 -5 78 -5q84 0 91 38q-36 4 -36 40q0 28 26 55 t80 27q84 0 84 -91q0 -74 -65 -139t-167 -65h-505z" />
<glyph unicode="flx" horiz-adv-x="1737" d="M-398 -283q0 77 25.5 122.5t82 86t221.5 89.5l229 1088q67 324 354 324q124 0 215 -30l155 -53q62 -22 127 -49l-209 -990q-8 -34 -8 -61q0 -69 84 -69q112 0 234 108q38 32 69 71l-109 598h269l74 -411q181 193 181 303q0 13 -2 23q-16 -4 -33 -4q-89 0 -89 106 q0 43 30.5 66.5t85.5 23.5t87.5 -49.5t32.5 -131t-66 -187.5t-206 -255l18 -95l12 -56q22 -112 99 -112q56 0 104 48.5t68 119.5h80q-123 -352 -392 -352q-92 0 -141 62t-81 200q-158 -178 -349 -240q-66 -22 -143.5 -22t-133.5 54q-57 54 -57 172q0 52 15 126l198 935 q-76 31 -155 31q-98 0 -131 -151l-42 -204h178l-16 -76h-176l-218 -1029q-65 -323 -346 -323q-88 0 -156.5 58t-68.5 135zM-293 -244q0 -37 46 -57q14 -6 37 -6t55 32q31 31 50 117l23 111q-102 -37 -140 -67q-71 -57 -71 -130z" />
<glyph unicode="fl&#x7a;" horiz-adv-x="1786" d="M-398 -283q0 77 25.5 122.5t82 86t221.5 89.5l229 1088q67 324 354 324q124 0 215 -30l155 -53q62 -22 127 -49l-209 -990q-8 -34 -8 -68q0 -64 78 -64q27 0 39 4l23 8q-9 -96 -68 -146t-143.5 -50t-144.5 54q-58 54 -58 174q0 54 15 124l198 935q-76 31 -155 31 q-98 0 -131 -151l-42 -204h178l-16 -76h-176l-218 -1029q-65 -323 -346 -323q-88 0 -156.5 58t-68.5 135zM-293 -244q0 -37 46 -57q14 -6 36.5 -6t55.5 31.5t50 117.5l23 111q-102 -37 -140 -67q-71 -57 -71 -130zM971 0l485 849h-106q-44 0 -74.5 -4.5t-30.5 -25.5 q0 -4 3.5 -5t10.5 -6t7 -44.5t-32 -63.5t-60 -24q-46 0 -72 22.5t-26 56.5q0 74 63 135.5t157 61.5h491l-467 -805q12 -1 28 -3l37 -4q43 -5 78 -5q85 0 91 38q-36 4 -36 40q0 28 26 55t80 27q84 0 84 -91q0 -74 -65 -139t-167 -65h-505z" />
<glyph unicode="ft" horiz-adv-x="1043" d="M-398 -283q0 77 25.5 122.5t82 86t221.5 89.5l229 1088q67 324 354 324q124 0 215 -30l155 -53q62 -22 127 -49l-72 -343h115l-16 -76h-116l-120 -571q-8 -34 -8 -68q0 -64 78 -64q55 0 103 47q47 48 68 121h80q-123 -352 -410 -352q-75 0 -135 54q-58 54 -58 174 q0 54 15 124l112 535h-256l-218 -1029q-65 -323 -346 -323q-88 0 -156.5 58t-68.5 135zM-293 -244q0 -37 46 -57q14 -6 37 -6t55 32q31 31 50 117l23 111q-102 -37 -140 -67q-71 -57 -71 -130zM405 952h260l68 324q-76 31 -155 31q-98 0 -131 -151z" />
<glyph unicode="fu" horiz-adv-x="1470" d="M-396 -283q0 77 26 123t71 78q65 46 230 97l231 1088q68 324 347 324q88 0 156 -58t68 -148q0 -44 -6 -78h-89q4 30 4 57t-22 43t-43 16q-47 0 -85.5 -35.5t-55.5 -120.5l-32 -151h508l-136 -647q-6 -30 -6 -54q0 -78 57 -78q100 0 152 168l130 611h274l-137 -647 q-8 -33 -8 -67q0 -65 78 -65q107 0 154 168h80q-121 -352 -382 -352q-170 0 -189 180q-111 -180 -281 -180q-86 0 -146 54q-58 54 -58 174q0 54 15 124l112 535h-232l-220 -1029q-65 -323 -340 -323q-88 0 -156.5 58t-68.5 135zM-291 -244q0 -37 45 -57q14 -6 38 -6 t53.5 32.5t47.5 116.5l25 111q-101 -36 -139 -66q-70 -58 -70 -131z" />
<glyph unicode="fx" horiz-adv-x="1262" d="M-396 -283q0 77 26 123t71 78q65 46 230 97l231 1088q68 324 347 324q88 0 156 -58t68 -148q0 -44 -6 -78h-89q4 30 4 57t-22 43t-43 16q-47 0 -85.5 -35.5t-55.5 -120.5l-32 -151h463l69 -377q186 168 186 269q0 13 -2 23q-16 -4 -33 -4q-89 0 -89 106q0 43 30 66.5 t85.5 23.5t88 -49.5t32.5 -132t-66 -181t-212 -229.5l23 -126l12 -56q23 -112 101 -112q55 0 102.5 48.5t68.5 119.5h80q-123 -352 -393 -352q-101 0 -153 80t-86 272l-4 13q-172 -122 -172 -213q9 2 25 2q49 0 63.5 -30t14.5 -64q0 -104 -107 -104q-64 0 -95 37t-31 91 q0 96 84.5 204t197.5 184l-76 415h-222l-220 -1029q-65 -323 -340 -323q-88 0 -156.5 58t-68.5 135zM-297 -244q0 -21 22 -42t45 -21q44 0 72 35t45 114l26 111q-102 -36 -140 -66q-70 -58 -70 -131z" />
<glyph unicode="gp" horiz-adv-x="1857" d="M-25 285q0 75 13 150t40 149q59 164 170 271t267 107q82 0 118 -27.5t36 -69.5v-11l21 98h274l-187 -874q98 22 191 36l192 909h275l-31 -143q95 82 223 82q165 0 214 -158q19 -58 19 -133t-9.5 -150t-30.5 -149q-49 -169 -143 -266q-114 -117 -286 -117q-97 0 -176 5 l-85 -401l-288 -69l102 480q-96 -4 -185 -21l-29 -136q-36 -183 -145 -264q-80 -59 -183.5 -59t-165.5 45q-62 46 -62 146t91.5 174t220.5 113l22 91q-100 -104 -229 -104q-173 0 -233 163q-21 58 -21 133zM229 -265q0 -38 36 -57q12 -5 35.5 -5t54 41t49.5 128l11 55 q-186 -67 -186 -162zM257 312q0 -85 35 -119q20 -20 50 -20q53 0 98.5 40.5t64.5 108.5l97 451q0 43 -40 62q-15 9 -38 9q-61 0 -111 -57q-121 -137 -152 -393q-4 -39 -4 -82zM1198 143q21 2 42 2h42q73 0 125 56q101 109 127 309q14 90 14 157q0 158 -94 158 q-33 0 -69.5 -23.5t-62.5 -70.5z" />
<glyph unicode="gx" horiz-adv-x="1699" d="M-25 285q0 75 13 150t40 149q59 164 170 271t267 107q82 0 118 -27.5t36 -69.5v-14l21 101h274l-187 -878q111 38 181 84q124 83 233 207l-107 587h269l74 -411q181 193 181 303q0 13 -2 23q-16 -4 -33 -4q-89 0 -89 106q0 43 30.5 66.5t85.5 23.5t87.5 -49.5t32.5 -131 t-66 -187.5t-206 -255l29 -151q23 -112 100 -112q56 0 104 48.5t68 119.5h80q-123 -352 -392 -352q-92 0 -141 60q-48 62 -81 200q-158 -176 -456 -262l-29 -140q-36 -183 -145 -264q-80 -59 -183.5 -59t-165.5 45q-62 46 -62 140q0 152 202 237q55 23 108 41l24 108 q-102 -106 -229 -106q-173 0 -233 163q-21 58 -21 133zM229 -265q0 -38 36 -57q12 -5 35.5 -5t54 41t49.5 128l11 57q-186 -67 -186 -164zM257 312q0 -139 95 -139q40 0 87.5 37.5t67.5 116.5l95 444q0 18 -16.5 45.5t-69.5 27.5t-103 -57q-121 -137 -152 -393 q-4 -39 -4 -82z" />
<glyph unicode="g&#x7a;" horiz-adv-x="1727" d="M-26 285q0 75 13 150t40 149q60 166 163 262q118 116 274 116q82 0 118 -27.5t36 -69.5v-4l19 91h276l-232 -1105q-37 -182 -147 -264q-81 -59 -185 -59t-171.5 58t-67.5 136t25.5 123.5t80 84.5t223.5 89l18 80q-102 -106 -229 -106q-173 0 -233 163q-21 58 -21 133z M214 -244q0 -21 22.5 -42t53.5 -21t62 32q32 31 51 117l23 112q-102 -36 -141 -67q-71 -59 -71 -131zM256 312q0 -139 95 -139q39 0 86 35.5t67 107.5l97 461q-5 18 -20 42q-16 25 -67.5 25t-100.5 -57q-122 -137 -153 -393q-4 -39 -4 -82zM912 0l486 849h-106 q-45 0 -75 -4.5t-30 -25.5q0 -4 3 -5t10 -6t7 -44.5t-32 -63.5t-59 -24q-47 0 -73 22.5t-26 56.5q0 74 63.5 135.5t157.5 61.5h490l-467 -805q12 -1 29 -3l36 -4q43 -5 78 -5q85 0 91 38q-36 4 -36 40q0 28 26 55t80 27q85 0 85 -91q0 -74 -65 -139t-168 -65h-505z" />
<glyph unicode="ix" horiz-adv-x="1201" d="M-15 215q0 52 15 126l129 611h275l-137 -647q-8 -34 -8 -61q0 -69 84 -69q114 0 235 106q38 33 67 73l-107 598h267l75 -411q181 194 181 303q0 13 -2 23q-18 -4 -32 -4q-90 0 -90 106q0 90 117 90q55 0 87.5 -49.5t32.5 -131t-66 -187.5t-207 -255l17 -95l12 -56 q22 -112 100 -112q55 0 103 47q47 48 69 121h80q-123 -352 -393 -352q-91 0 -140 62t-80 200q-158 -178 -351 -240q-66 -22 -142.5 -22t-133.5 54t-57 172zM167 1205q0 63 43.5 108t107 45t108.5 -45q45 -44 45 -108q0 -63 -45.5 -106t-108 -43t-106.5 43q-44 44 -44 106z " />
<glyph unicode="i&#x7a;" horiz-adv-x="1213" d="M-15 217q0 54 15 124l129 611h275l-137 -647q-8 -34 -8 -67.5t19 -49t54.5 -15.5t65.5 12q-7 -96 -66.5 -146t-144 -50t-143.5 54t-59 174zM167 1205q0 63 43.5 108t107 45t108.5 -45q45 -44 45 -108q0 -63 -45.5 -106t-108 -43t-106.5 43q-44 44 -44 106zM398 0l486 849 h-107q-44 0 -74.5 -4.5t-30.5 -25.5q0 -4 3.5 -5t10.5 -6t7 -44.5t-32 -63.5t-60 -24q-46 0 -72 22.5t-26 56.5q0 74 63.5 135.5t157.5 61.5h490l-467 -805q12 -1 29 -3l36 -4q43 -5 78 -5q85 0 91 38q-36 4 -36 40q0 28 26 55t80 27q85 0 85 -91q0 -74 -65.5 -139 t-167.5 -65h-505z" />
<glyph unicode="&#xed;x" horiz-adv-x="1201" d="M-15 215q0 52 15 126l129 611h275l-137 -647q-8 -34 -8 -61q0 -69 84 -69q114 0 235 106q38 33 67 73l-107 598h267l75 -411q181 194 181 303q0 13 -2 23q-18 -4 -32 -4q-90 0 -90 106q0 90 117 90q55 0 87.5 -49.5t32.5 -131t-66 -187.5t-207 -255l17 -95l12 -56 q22 -112 100 -112q55 0 103 47q47 48 69 121h80q-123 -352 -393 -352q-91 0 -140 62t-80 200q-158 -178 -351 -240q-66 -22 -142.5 -22t-133.5 54t-57 172zM214 1069l173 359h200l-231 -359h-142z" />
<glyph unicode="&#xed;&#x7a;" horiz-adv-x="1213" d="M-15 217q0 54 15 124l129 611h275l-137 -647q-8 -34 -8 -67.5t19 -49t54.5 -15.5t65.5 12q-7 -96 -66.5 -146t-144 -50t-143.5 54t-59 174zM213 1069l173 359h200l-231 -359h-142zM398 0l486 849h-107q-44 0 -74.5 -4.5t-30.5 -25.5q0 -4 3.5 -5t10.5 -6t7 -44.5 t-32 -63.5t-60 -24q-46 0 -72 22.5t-26 56.5q0 74 63.5 135.5t157.5 61.5h490l-467 -805q12 -1 29 -3l36 -4q43 -5 78 -5q85 0 91 38q-36 4 -36 40q0 28 26 55t80 27q85 0 85 -91q0 -74 -65.5 -139t-167.5 -65h-505z" />
<glyph unicode="jx" horiz-adv-x="1188" d="M-387 -285q0 101 102 175q67 50 211 97l203 965h275l-187 -878q110 38 180 84q125 83 234 207l-107 587h268l75 -411q180 193 180 303q0 13 -2 23q-15 -4 -31 -4q-91 0 -91 106q0 43 31 67q30 23 85.5 23t88 -49.5t32.5 -131t-66 -187.5t-207 -255l18 -95l12 -56 q22 -112 100 -112q55 0 103 48.5t69 119.5h80q-123 -352 -393 -352q-91 0 -139.5 60t-80.5 200q-164 -178 -458 -262l-29 -140q-36 -183 -145 -264q-80 -59 -182.5 -59t-165.5 46t-63 145zM-282 -255q0 -48 36 -67q13 -5 36 -5t53.5 41t49.5 128l14 57q-75 -27 -132 -66 t-57 -88zM151 1207q0 62 43 107.5t106.5 45.5t107.5 -45q45 -45 45 -108t-45 -106.5t-107.5 -43.5t-106.5 44q-43 44 -43 106z" />
<glyph unicode="j&#x7a;" horiz-adv-x="1177" d="M-392 -282q0 78 26 123.5t80 84t225 89.5l196 937h276l-232 -1105q-66 -323 -346 -323q-89 0 -157 58t-68 136zM-287 -244q0 -37 45 -57q14 -6 37.5 -6t54.5 32q32 31 50 117l26 112q-92 -31 -152.5 -75.5t-60.5 -122.5zM166 1207q0 62 43 107.5t106.5 45.5t108.5 -45 t45 -108t-45.5 -106.5t-108 -43.5t-106.5 44q-43 44 -43 106zM362 0l485 849h-106q-44 0 -74.5 -4.5t-30.5 -25.5q0 -4 3.5 -5t10.5 -6t7 -44.5t-32.5 -63.5t-59.5 -24q-47 0 -72.5 22.5t-25.5 56.5q0 74 63 135.5t157 61.5h490l-466 -805q12 -1 28 -3l37 -4q42 -5 78 -5 q84 0 91 38q-36 4 -36 40q0 28 26 55t80 27q84 0 84 -91q0 -74 -65 -139t-167 -65h-505z" />
<glyph unicode="lx" horiz-adv-x="1201" d="M-13 215q0 52 15 126l202 954l281 39l-216 -1029q-8 -34 -8 -61q0 -69 79 -69q122 0 239 105q37 32 68 72l-109 600h267l75 -411q181 194 181 303q0 13 -2 23q-18 -4 -32 -4q-90 0 -90 106q0 90 117 90q55 0 87.5 -49.5t32.5 -131t-66 -187.5t-207 -255l17 -95l12 -56 q22 -112 100 -112q55 0 103 47q47 48 69 121h80q-123 -352 -393 -352q-90 0 -139 60q-49 62 -81 200q-158 -177 -349 -239q-66 -21 -143 -21t-133 54q-57 54 -57 172z" />
<glyph unicode="l&#x7a;" horiz-adv-x="1209" d="M-19 221q0 53 15 124l204 954l282 38l-219 -1028q-8 -36 -8 -62t17 -48t55 -22t67 12q-7 -97 -67 -148.5t-143.5 -51.5t-143 54.5t-59.5 177.5zM394 0l486 849h-106q-45 0 -75 -4.5t-30 -25.5q0 -4 3 -5t10 -6t7 -44.5t-32 -63.5t-60 -24q-46 0 -72 22.5t-26 56.5 q0 74 63.5 135.5t157.5 61.5h490l-467 -805q12 -1 29 -3l36 -4q43 -5 78 -5q85 0 91 38q-36 4 -36 40q0 28 26 55t80 27q85 0 85 -91q0 -74 -65 -139t-168 -65h-505z" />
<glyph unicode="mx" horiz-adv-x="2140" d="M-73 0l202 952h275l-21 -98q95 108 233 108q168 0 195 -164q105 162 265 162q90 0 151 -50q60 -51 60 -147.5t-31 -223.5l-45 -186q-15 -60 -15 -100q0 -80 84 -80q106 0 233 109q39 33 72 72l-109 598h269l74 -411q181 193 181 303q0 13 -2 23q-16 -4 -32 -4 q-90 0 -90 106q0 43 30 66.5t85.5 23.5t88 -49.5t32.5 -131t-66 -187.5t-206 -255l17 -95l12 -56q23 -112 101 -112q55 0 102.5 48.5t68.5 119.5h80q-123 -352 -393 -352q-91 0 -141 62.5t-82 199.5q-168 -175 -348 -240q-59 -22 -117 -22q-110 0 -158 60.5t-48 146.5 t42.5 257t42.5 236q0 98 -68.5 98t-122.5 -109q-16 -31 -26 -67l-130 -611h-274l140 658q5 22 5 47q0 84 -56 84t-95.5 -52.5t-60.5 -125.5l-129 -611h-275z" />
<glyph unicode="m&#x7a;" horiz-adv-x="2142" d="M-73 0l202 952h275l-21 -98q95 108 233 108q168 0 195 -164q105 162 265 162q90 0 151 -50q60 -51 60 -147.5t-31 -223.5l-45 -186q-15 -60 -15 -98t16.5 -60t61 -22t61.5 12q-13 -103 -74 -150q-60 -46 -125 -46q-113 0 -157.5 61t-44.5 146.5t42.5 256.5t42.5 236 q0 98 -68.5 98t-122.5 -109q-16 -31 -26 -67l-130 -611h-274l140 658q5 22 5 47q0 84 -56 84t-95.5 -52.5t-60.5 -125.5l-129 -611h-275zM1327 0l486 849h-106q-45 0 -75.5 -4.5t-30.5 -25.5q0 -4 3.5 -5t10.5 -6t7 -44.5t-32 -63.5t-59 -24q-48 0 -73.5 22.5t-25.5 56.5 q0 74 63.5 135.5t157.5 61.5h490l-467 -805q12 -1 29 -3l36 -4q43 -5 78 -5q85 0 91 38q-36 4 -36 40q0 28 26 55t80 27q85 0 85 -91q0 -74 -65.5 -139t-167.5 -65h-505z" />
<glyph unicode="n&#x7a;" horiz-adv-x="1679" d="M-73 0l202 952h275l-21 -98q93 106 222 106q92 0 152 -50q60 -51 60 -149.5t-31 -222.5l-46 -185q-15 -60 -15 -98t16.5 -60t61 -22t62.5 12q-14 -103 -75 -150q-60 -46 -125 -46q-114 0 -161 67q-41 56 -41 141t43 256t43 236q0 98 -69 98t-123 -109q-16 -31 -26 -67 l-129 -611h-275zM865 0l485 849h-106q-44 0 -74.5 -4.5t-30.5 -25.5q0 -4 3.5 -5t10.5 -6t7 -44.5t-32 -63.5t-60 -24q-46 0 -72 22.5t-26 56.5q0 74 63 135.5t157 61.5h491l-467 -805q12 -1 28 -3l37 -4q43 -5 78 -5q85 0 91 38q-36 4 -36 40q0 28 26 55t80 27q84 0 84 -91 q0 -74 -65 -139t-167 -65h-505z" />
<glyph unicode="o&#xe6;" horiz-adv-x="2073" d="M-23 280q0 69 11 140t36 146q56 172 160 277q128 126 309 126q234 0 244 -287q89 36 135 71l138 104q144 105 289 105q196 0 284 -78q108 78 251 78q171 0 199 -110q8 -33 8 -92t-35.5 -128.5t-97.5 -122.5q-128 -113 -305 -124q-3 -32 -3 -61q0 -107 31.5 -141t90.5 -34 q118 0 188 43.5t164 148.5h65q-217 -352 -525 -352q-231 0 -280 182q-92 -182 -264 -182q-249 0 -249 249q0 314 435 314q55 0 87 -7q42 94 42 160.5t-29.5 105t-104.5 38.5t-127.5 -25t-121.5 -76l-118 -84q-49 -33 -148 -68q-17 -274 -143.5 -438.5t-310.5 -164.5 q-218 0 -282 161q-23 57 -23 126zM261 329q0 -103 20 -134t66 -31q81 0 144 115q63 116 82 283q-51 11 -51 91.5t59 100.5q-3 56 -20.5 78t-60 22t-88 -58t-78 -140t-53 -174.5t-20.5 -152.5zM1089 271q0 -58 30 -78t58 -20q106 0 153 261l-41 2q-130 0 -182 -96 q-18 -32 -18 -69zM1617 476q109 8 193.5 101.5t84.5 192.5t-45 99q-70 0 -134 -118t-99 -275z" />
<glyph unicode="os" horiz-adv-x="1497" d="M-27 280q0 69 11 140t36 146q56 172 160 277q129 126 309 126q239 0 244 -298q140 7 310 303l282 37l9 -167q3 -74 7 -132l7 -104q3 -46 6 -82l9 -116q4 -45 4 -88.5t-5 -74.5q39 22 74 47l61 47h80q-100 -118 -265 -223q-87 -129 -283 -129q-262 0 -262 253q0 79 42 130 t96 51q98 0 98 -80q0 -35 -26.5 -60.5t-64.5 -25.5t-51 25q0 -142 110 -142q63 0 92 37t29 139q0 46 -9 117l-12 111l-15 172q-3 52 -7 118q-136 -208 -320 -263q-18 -261 -145 -419.5t-306 -158.5q-219 0 -283 161q-22 57 -22 126zM257 329q0 -103 21 -134t66 -31 q82 0 142.5 114t82.5 280q-45 17 -45 88.5t54 96.5q-5 61 -21 86t-60 25t-89 -58q-87 -113 -132 -315q-19 -92 -19 -152z" />
<glyph unicode="osx" horiz-adv-x="2155" d="M-25 280q0 69 11 140t36 146q56 172 160 277q129 126 309 126q240 0 245 -298q139 7 309 303l282 37l8 -167q4 -74 8 -132l7 -104q3 -46 6 -82l9 -116q5 -56 5 -95t-8 -81q146 62 236 137l-106 581h268l74 -411q181 194 181 303q0 13 -2 23q-18 -4 -32 -4q-89 0 -89 106 q0 90 116 90q55 0 87.5 -49.5t32.5 -131t-66 -187.5t-207 -255l17 -95l12 -56q22 -112 101 -112q54 0 102 47q47 48 69 121h80q-123 -352 -393 -352q-93 0 -142 64t-84 218q-79 -55 -177.5 -98.5t-129.5 -58.5q-89 -125 -280 -125q-261 0 -261 253q0 79 42 130t96 51 q98 0 98 -80q0 -35 -27 -60.5t-64.5 -25.5t-50.5 25q0 -142 111 -142q62 0 91 37t29 139q0 46 -10 117l-11 111l-15 172q-3 52 -7 118q-136 -208 -320 -263q-19 -261 -146 -419.5t-305 -158.5q-218 0 -282 161q-23 57 -23 126zM259 329q0 -103 20 -134t67 -31 q82 0 142.5 114t82.5 280q-46 17 -46 88.5t54 96.5q-4 61 -20 86t-60 25t-89 -58q-84 -110 -130 -314q-21 -93 -21 -153z" />
<glyph unicode="os&#x7a;" horiz-adv-x="2169" d="M-27 280q0 69 11 140t36 146q56 172 160 277q129 126 309 126q239 0 244 -298q140 7 310 303l282 37l9 -167q3 -74 7 -132l7 -104q3 -46 6 -82l9 -116q4 -45 4 -115.5t-31 -132.5q-84 -173 -304 -173q-265 0 -265 253q0 79 42 130t96 51q98 0 98 -80q0 -35 -26.5 -60.5 t-64.5 -25.5t-51 25q0 -142 110 -142q63 0 92 37t29 139q0 46 -9 117l-12 111l-15 172q-3 52 -7 118q-136 -208 -320 -263q-18 -261 -145 -419.5t-306 -158.5q-219 0 -283 161q-22 57 -22 126zM257 329q0 -103 21 -134t66 -31q82 0 142.5 114t82.5 280q-45 17 -45 88.5 t54 96.5q-5 61 -21 86t-60 25t-89 -58q-87 -113 -132 -315q-19 -92 -19 -152zM1354 0l486 849h-106q-45 0 -75.5 -4.5t-30.5 -25.5q0 -4 3.5 -5t10.5 -6t7 -44.5t-32 -63.5t-60 -24q-46 0 -72 22.5t-26 56.5q0 74 63.5 135.5t157.5 61.5h490l-467 -805q12 -1 29 -3l36 -4 q43 -5 78 -5q85 0 91 38q-36 4 -36 40q0 28 26 55t80 27q85 0 85 -91q0 -74 -65.5 -139t-167.5 -65h-505z" />
<glyph unicode="ox" horiz-adv-x="1620" d="M-29 280q0 69 11.5 140t37.5 146q56 171 164 277q128 126 309 126q240 0 244 -298q107 10 234 190l-17 91h269l69 -377q186 168 186 269q0 13 -2 23q-16 -4 -33 -4q-89 0 -89 106q0 43 30.5 66.5t85.5 23.5t87.5 -49.5t32.5 -132t-66 -181t-212 -229.5l35 -182 q23 -112 100 -112q56 0 104 48.5t68 119.5h80q-123 -352 -392 -352q-102 0 -154 80t-86 272l-4 13q-172 -122 -172 -213q9 2 25 2q49 0 63.5 -30t14.5 -64q0 -104 -107 -104q-64 0 -94.5 37t-30.5 91q0 96 84 204t197 184l-53 295q-116 -138 -257 -183q-22 -262 -149.5 -421 t-307.5 -159q-219 0 -283 161q-22 57 -22 126zM255 318q0 -92 16.5 -116.5t35.5 -31t50 -6.5q66 0 130 114t86 280q-51 12 -51 89t59 98q-3 60 -19.5 84.5t-60.5 24.5q-86 0 -166 -190t-80 -346z" />
<glyph unicode="&#xf3;s" horiz-adv-x="1499" d="M-25 280q0 69 11 140t36 146q56 172 160 277q129 126 309 126q239 0 244 -298q140 7 310 303l282 37l8 -167q4 -74 8 -132l7 -104q3 -46 6 -82l9 -116q4 -45 4 -88.5t-6 -74.5q39 22 75 47l61 47h80q-100 -118 -265 -223q-87 -129 -284 -129q-261 0 -261 253q0 79 42 130 t96 51q98 0 98 -80q0 -35 -27 -60.5t-64.5 -25.5t-50.5 25q0 -142 110 -142q63 0 92 37t29 139q0 46 -10 117l-11 111l-15 172q-3 52 -7 118q-136 -208 -320 -263q-19 -261 -146 -419.5t-305 -158.5q-220 0 -283 161q-22 57 -22 126zM259 329q0 -103 20.5 -134t66.5 -31 q82 0 142.5 114t82.5 280q-46 17 -46 88.5t54 96.5q-4 61 -20 86t-60 25t-89 -58q-87 -113 -132 -315q-19 -92 -19 -152zM418 1069l173 359h199l-230 -359h-142z" />
<glyph unicode="&#xf3;sx" horiz-adv-x="2173" d="M-23 280q0 69 11 140t36 146q56 172 160 277q128 126 309 126q240 0 244 -298q140 7 310 303l283 37q7 -179 15 -299l7 -104q3 -46 6 -82l9 -116q5 -56 5 -121t-31 -127q-85 -173 -305 -173q-265 0 -265 253q0 79 42 130t96 51q98 0 98 -80q0 -35 -27 -60.5t-64.5 -25.5 t-50.5 25q0 -142 111 -142q62 0 91 37t29 139q0 46 -10 117l-11 111q-13 135 -21 290q-138 -208 -321 -263q-19 -261 -146 -419.5t-305 -158.5q-218 0 -282 161q-23 57 -23 126zM261 329q0 -103 20 -134t67 -31q82 0 142.5 114t82.5 280q-46 17 -46 88.5t54 96.5 q-3 61 -19.5 86t-60 25t-89 -58t-78 -140t-53 -174.5t-20.5 -152.5zM419 1069l173 359h200l-230 -359h-143zM1358 0l485 849h-106q-44 0 -74.5 -4.5t-30.5 -25.5q0 -4 3.5 -5t10.5 -6t7 -44.5t-32.5 -63.5t-59.5 -24q-46 0 -72 22.5t-26 56.5q0 74 63 135.5t157 61.5h490 l-466 -805q12 -1 28 -3l37 -4q42 -5 78 -5q84 0 91 38q-36 4 -36 40q0 28 26 55t80 27q84 0 84 -91q0 -74 -65 -139t-167 -65h-505z" />
<glyph unicode="&#xf3;s&#x7a;" horiz-adv-x="2171" d="M-25 280q0 69 11 140t36 146q56 172 160 277q129 126 309 126q240 0 245 -298q139 7 309 303l282 37l8 -167q4 -74 8 -132l7 -104q3 -46 6 -82l9 -116q5 -56 5 -121t-31 -127q-84 -173 -305 -173q-265 0 -265 253q0 79 42 130t96 51q98 0 98 -80q0 -35 -27 -60.5 t-64.5 -25.5t-50.5 25q0 -142 111 -142q62 0 91 37t29 139q0 46 -10 117l-11 111l-15 172q-3 52 -7 118q-136 -208 -320 -263q-19 -261 -146 -419.5t-305 -158.5q-218 0 -282 161q-23 57 -23 126zM259 329q0 -103 20 -134t67 -31q82 0 142.5 114t82.5 280q-46 17 -46 88.5 t54 96.5q-4 61 -20 86t-60 25t-89 -58q-84 -110 -130 -314q-21 -93 -21 -153zM418 1069l173 359h199l-230 -359h-142zM1356 0l485 849h-106q-44 0 -74.5 -4.5t-30.5 -25.5q0 -4 3.5 -5t10.5 -6t7 -44.5t-32 -63.5t-60 -24q-46 0 -72 22.5t-26 56.5q0 74 63.5 135.5 t156.5 61.5h491l-467 -805q12 -1 29 -3l36 -4q43 -5 78 -5q85 0 91 38q-36 4 -36 40q0 28 26 55t80 27q84 0 84 -91q0 -74 -65 -139t-167 -65h-505z" />
<glyph unicode="&#xf3;x" horiz-adv-x="1622" d="M-27 280q0 69 11.5 140t36.5 146q57 171 165 277q128 126 309 126q240 0 244 -298q107 10 235 190l-18 91h269l69 -377q186 168 186 269q0 13 -2 23q-16 -4 -33 -4q-89 0 -89 106q0 43 30 66.5t85.5 23.5t88 -49.5t32.5 -132t-66 -181t-212 -229.5l34 -182 q24 -112 102 -112q55 0 103 48.5t68 119.5h80q-123 -352 -392 -352q-102 0 -154 80t-86 272l-4 13q-171 -123 -171 -213q9 2 24 2q49 0 63.5 -30t14.5 -64q0 -104 -107 -104q-64 0 -94.5 37t-30.5 91q0 95 85 204.5t196 183.5l-53 295q-116 -138 -256 -183 q-25 -264 -151.5 -422t-306.5 -158q-219 0 -283 161q-22 57 -22 126zM257 318q0 -92 16.5 -116.5t35 -31t50.5 -6.5q66 0 129.5 114t86.5 280q-51 12 -51 89t59 98q-4 60 -20 84.5t-60 24.5q-86 0 -166 -193t-80 -343zM416 1069l173 359h200l-231 -359h-142z" />
<glyph unicode="rx" horiz-adv-x="1493" d="M-73 0l202 952h275l-25 -118q48 42 105 80t123.5 38t100.5 -43q33 -44 33 -84q0 -69 -36.5 -111.5t-88.5 -42.5t-69 23.5t-20.5 48t-9.5 39t-26 14.5q-39 0 -69 -18t-68 -54l-152 -724h-275zM636 73q0 97 82.5 202t195.5 183l-110 494h268l86 -385q92 85 143 153t51 124 q0 13 -2 23q-15 -4 -32 -4q-89 0 -89 106q0 43 30 66.5t85.5 23.5t88 -49.5t32.5 -109.5q0 -105 -66 -203.5t-218 -233.5l41 -178q24 -112 100 -112q55 0 103 48.5t69 119.5h80q-123 -352 -387 -352q-101 0 -152 78.5t-94 273.5l-4 13q-172 -122 -172 -213q10 2 25 2 q50 0 64.5 -30t14.5 -64q0 -104 -107 -104q-64 0 -95 37t-31 91z" />
<glyph unicode="r&#x7a;" horiz-adv-x="1245" d="M-73 0l202 952h275l-25 -118q48 42 105 80t125 38h636l-466 -805q55 0 93 -11.5t71 -11.5t48.5 10.5t22.5 38.5q-37 4 -37 40q0 28 26.5 55t75.5 27q88 0 88 -91q0 -75 -64.5 -139.5t-166.5 -64.5h-505l483 844h-177q2 -10 2 -35q0 -58 -36.5 -98t-87.5 -40t-68 23.5 t-20.5 48t-9.5 39t-26 14.5q-39 0 -69 -18t-68 -54l-152 -724h-275z" />
<glyph unicode="sx" horiz-adv-x="1384" d="M-61 217q0 82 31 128q32 46 70 64q134 240 234 565l282 37q8 -179 15 -299l23 -302q4 -45 4 -90t-9 -88q155 66 238 139l-107 581h269l74 -411q180 193 180 303q0 13 -1 23q-16 -4 -33 -4q-89 0 -89 106q0 43 30 66.5t85.5 23.5t88 -49.5t32.5 -131t-66 -187.5t-207 -255 l29 -151q24 -112 102 -112q55 0 102.5 48.5t68.5 119.5h80q-123 -352 -393 -352q-93 0 -141 63t-86 219q-63 -46 -141 -81l-118 -54q-40 -18 -70 -33q-108 -114 -299 -114q-134 0 -206 73t-72 155zM40 272q0 -132 100 -132q182 0 182 176q0 49 -8 116l-11 109 q-10 104 -17 226q-49 -156 -155 -360q44 -20 44 -60.5t-23 -70t-61.5 -29.5t-50.5 25z" />
<glyph unicode="s&#x7a;" horiz-adv-x="1417" d="M-61 217q0 82 31 128q32 46 70 64q134 240 234 565l282 37q8 -179 15 -299l23 -302q4 -45 4 -99.5t-17 -103.5t-47 -85q-55 -69 -141.5 -101t-167.5 -32q-141 0 -213.5 73t-72.5 155zM40 272q0 -132 100 -132q182 0 182 176q0 49 -8 116l-11 109q-10 104 -17 226 q-49 -156 -155 -360q44 -20 44 -60.5t-23 -70t-61.5 -29.5t-50.5 25zM602 0l485 849h-106q-44 0 -74.5 -4.5t-30.5 -25.5q0 -4 3.5 -5t10.5 -6t7 -44.5t-32.5 -63.5t-59.5 -24q-47 0 -72.5 22.5t-25.5 56.5q0 74 63 135.5t157 61.5h490l-467 -805q13 -1 29 -3l37 -4 q42 -5 78 -5q84 0 91 38q-36 4 -36 40q0 28 26 55t80 27q84 0 84 -91q0 -74 -65 -139t-167 -65h-505z" />
<glyph unicode="tx" horiz-adv-x="1201" d="M-13 215q0 52 15 126l114 535h-63l16 76h62l58 264l282 38l-66 -302h400l75 -411q181 194 181 303q0 13 -2 23q-18 -4 -32 -4q-90 0 -90 106q0 90 117 90q55 0 87.5 -49.5t32.5 -131t-66 -187.5t-207 -255l17 -95l12 -56q22 -112 100 -112q55 0 103 47q47 48 69 121h80 q-123 -352 -393 -352q-90 0 -139 60q-49 62 -81 200q-158 -177 -349 -239q-66 -21 -143 -21t-133 54q-57 54 -57 172zM261 244q0 -69 79 -69q122 0 239 105q37 32 68 72l-96 524h-160l-122 -571q-8 -34 -8 -61z" />
<glyph unicode="t&#x7a;" horiz-adv-x="1341" d="M-11 183q0 70 11 122l122 571h-63l15 76h63l57 264l282 38l-65 -302h114l-14 -76h-115l-122 -571q-9 -36 -9 -67t13.5 -50t49 -19t53.5 6q-55 -158 -150 -181q-26 -5 -52 -5q-101 0 -145.5 62t-44.5 132zM525 0l486 849h-106q-45 0 -75 -4.5t-30 -25.5q0 -4 3 -5t10 -6 t7 -44.5t-32 -63.5t-59 -24q-47 0 -72.5 22.5t-25.5 56.5q0 74 63 135.5t157 61.5h490l-467 -805q12 -1 29 -3l36 -4q43 -5 78 -5q85 0 92 38q-37 4 -37 40q0 28 26 55t80 27q85 0 85 -91q0 -74 -65 -139t-168 -65h-505z" />
<glyph unicode="uv" horiz-adv-x="1757" d="M-15 217q0 54 15 124l129 611h275l-137 -647q-6 -24 -6 -48q0 -84 57 -84q100 0 153 168l129 611h272l-201 -952h-273l21 97q-95 -108 -230 -108q-86 0 -145 54t-59 174zM943 207q0 42 11 98l113 544l-50 25l15 78h335l-138 -647q-4 -21 -8 -38.5t-4 -32.5q0 -61 72 -61 q117 0 220 216q66 136 88 292q6 46 6 86v31q-19 -8 -50.5 -8t-50.5 34t-19 68t31 66t70 32q130 0 130 -169q0 -275 -124 -529q-42 -86 -101 -154q-132 -149 -310 -149q-111 0 -173.5 54.5t-62.5 163.5z" />
<glyph unicode="ux" horiz-adv-x="1672" d="M-15 219q0 52 15 122l129 611h275l-137 -647q-6 -24 -6 -48q0 -84 57 -84q100 0 153 168l129 611h274l-137 -647q-6 -25 -6 -48q0 -84 82 -84q111 0 238 111q37 32 67 68l-111 600h269l74 -411q182 194 182 303q0 13 -2 23q-19 -4 -33 -4q-90 0 -90 106q0 43 31 67 q30 23 85 23t87.5 -49.5t32.5 -131.5q0 -120 -149 -303q-52 -63 -122 -139l16 -95l13 -56q22 -112 100 -112q55 0 102 47q48 48 69 121h80q-123 -352 -392 -352q-91 0 -140 60.5t-81 194.5q-202 -255 -448 -255q-80 0 -142 48q-61 49 -77 134q-112 -182 -283 -182 q-85 0 -144.5 54.5t-59.5 175.5z" />
<glyph unicode="yp" horiz-adv-x="1817" d="M-15 217q0 54 15 124l129 611h275l-137 -647q-6 -24 -6 -48q0 -84 54.5 -84t92.5 45q37 45 59 111l133 623h274l-187 -874q98 22 191 36l192 909h275l-31 -143q95 82 223 82q165 0 215 -158q18 -58 18 -133t-9.5 -150t-30.5 -149q-49 -169 -143 -266q-114 -117 -286 -117 q-97 0 -176 5l-85 -401l-288 -69l102 480q-96 -4 -185 -21l-29 -136q-36 -183 -145 -264q-80 -59 -183.5 -59t-165.5 45q-62 46 -62 146t102 182q81 66 210 105l22 93q-99 -106 -229 -106q-86 0 -145 54t-59 174zM189 -265q0 -38 36 -57q12 -5 35.5 -5t54 41t49.5 128l11 55 q-186 -67 -186 -162zM1158 143q21 2 42 2h42q73 0 125 56q101 109 128 309q13 90 13 157q0 158 -94 158q-33 0 -69 -23.5t-63 -70.5z" />
<glyph unicode="yx" horiz-adv-x="1659" d="M-15 217q0 54 15 124l129 611h275l-137 -647q-6 -24 -6 -48q0 -84 57 -84q100 0 153 168l129 611h274l-187 -878q111 38 181 84q124 83 233 207l-107 587h269l74 -411q181 193 181 303q0 13 -2 23q-16 -4 -33 -4q-89 0 -89 106q0 43 31 67q30 23 85 23t87.5 -49.5 t32.5 -131t-66 -187.5t-206 -255l17 -95l13 -56q22 -112 99 -112q56 0 104 48.5t68 119.5h80q-121 -350 -392 -350q-91 0 -140.5 61t-81.5 197q-158 -176 -456 -262l-29 -140q-36 -183 -145 -264q-80 -59 -183.5 -59t-165.5 45q-62 46 -62 140q0 152 202 237q55 23 108 41 l25 110q-94 -106 -230 -106q-86 0 -145 53t-59 173zM189 -265q0 -38 36 -57q12 -5 35.5 -5t54 41t49.5 128l11 57q-186 -67 -186 -164z" />
<glyph unicode="y&#x7a;" horiz-adv-x="1691" d="M-15 217q0 54 15 124l129 611h275l-137 -647q-6 -24 -6 -48q0 -84 57 -84q100 0 153 168l129 611h276l-232 -1105q-37 -182 -147 -264q-81 -59 -185.5 -59t-171.5 58t-67 136t25.5 123.5t79.5 84.5t224 89l19 84q-96 -110 -232 -110q-86 0 -145 54t-59 174zM177 -244 q0 -21 22.5 -42t53 -21t63 32.5t49.5 116.5l24 112q-103 -36 -142 -67q-70 -59 -70 -131zM876 0l486 849h-106q-45 0 -75.5 -4.5t-30.5 -25.5q0 -4 3.5 -5t10.5 -6t7 -44.5t-32 -63.5t-60 -24q-46 0 -72 22.5t-26 56.5q0 74 63.5 135.5t157.5 61.5h490l-467 -805 q12 -1 29 -3l36 -4q43 -5 78 -5q85 0 91 38q-36 4 -36 40q0 28 26 55t80 27q85 0 85 -91q0 -74 -65.5 -139t-167.5 -65h-505z" />
<glyph unicode="&#x430;&#x445;" horiz-adv-x="1712" d="M-25 285q0 75 13 150t40 149q59 164 170 271t267 107q82 0 118 -27.5t36 -69.5v-14l21 101h274l-137 -647q-6 -25 -6 -54.5t17 -53.5t60 -24q77 0 162.5 51.5t147.5 127.5l-111 600h269l74 -411q182 194 182 303q0 13 -2 23q-19 -4 -33 -4q-90 0 -90 106q0 43 30.5 66.5 t85.5 23.5t87.5 -49.5t32.5 -131.5q0 -120 -149 -303q-52 -63 -122 -139l16 -95l12 -56q23 -112 101 -112q55 0 102 47q48 48 69 121h80q-123 -352 -392 -352q-91 0 -140 60.5t-81 194.5q-203 -255 -448 -255q-79 0 -140 46t-77 132q-119 -178 -288.5 -178t-229.5 163 q-21 58 -21 133zM257 312q0 -85 35 -119q20 -20 51 -20q57 0 103.5 45t64.5 123l91 430q0 18 -16.5 45.5t-69.5 27.5t-103 -57q-121 -137 -152 -393q-4 -39 -4 -82z" />
<glyph unicode="&#x430;&#x447;" horiz-adv-x="1891" d="M-25 285q0 75 13 150t40 149q59 164 170 271t267 107q82 0 118 -27.5t36 -69.5v-14l21 101h274l-137 -647q-8 -33 -8 -67q0 -65 78 -65q25 0 42 8q-40 -107 -68 -138q-49 -54 -125 -54t-124 46t-60 131q-118 -177 -287 -177t-229 163q-21 58 -21 133zM257 312 q0 -85 35 -119q20 -20 51 -20q57 0 103.5 45t64.5 123l91 430q0 18 -16.5 45.5t-69.5 27.5t-103 -57q-121 -137 -152 -393q-4 -39 -4 -82zM977 511q0 53 15 123l67 318h275l-75 -354q-5 -30 -5 -53q0 -78 56 -78t96.5 46t56.5 121l67 318h273l-136 -647q-8 -34 -8 -68 q0 -64 78 -64q103 0 155 168h80q-71 -205 -194 -293q-84 -59 -179.5 -59t-155.5 54q-58 54 -58 174q0 54 15 124l10 48q-98 -107 -229 -107q-85 0 -145 54q-59 54 -59 175z" />
<glyph unicode="&#x431;&#x433;" horiz-adv-x="1554" d="M-25 314q0 229 134 401q149 186 386 186q10 0 17.5 -1t14.5 -1q-38 46 -79 85t-75 76q-78 86 -78 160.5t49.5 108.5t156.5 34h374q66 0 87 36q12 18 21 56h84q-46 -216 -109 -283q-36 -37 -87.5 -50t-125.5 -13h-183q-24 0 -24 -24q0 -11 46 -62.5t76 -113.5t53.5 -126 t25.5 -174q95 173 206 266.5t277 93.5t223 -116q20 -41 20 -109t-26.5 -123.5t-66.5 -96t-87 -72.5t-87 -61q-93 -69 -93 -142q0 -100 131 -100t245 101q42 37 89 91h64q-226 -352 -508 -352q-310 0 -310 215q0 134 114 228q33 26 67 50l66 47q114 82 114 174.5t-88 92.5 q-155 0 -344 -362l-51 -99q-97 -193 -194 -267.5t-220 -74.5q-305 0 -305 321zM253 296q0 -75 23 -103q23 -29 71 -29t82 30t60 78q47 86 69.5 206t22.5 189t-18.5 93.5t-59 24.5t-77 -29t-65.5 -73q-51 -82 -79.5 -197t-28.5 -190z" />
<glyph unicode="&#x431;&#x436;" horiz-adv-x="2402" d="M-25 314q0 229 134 401q149 186 386 186q10 0 17.5 -1t14.5 -1q-38 46 -79 85t-75 76q-78 86 -78 160.5t49.5 108.5t156.5 34h374q66 0 87 36q12 18 21 56h84q-46 -216 -109 -283q-36 -37 -87.5 -50t-125.5 -13h-183q-24 0 -24 -24q0 -6 13 -23l33 -44q133 -173 152 -338 q147 289 360 289q131 0 204 -82q74 -82 74 -220q0 -50 -7 -96h114l80 381h256l-80 -381h106q84 274 251 365q62 33 131 33q116 0 160.5 -49.5t44.5 -122.5t-28.5 -107t-66 -34t-69.5 22q20 68 20 112q0 79 -45 79q-71 0 -138 -180t-67 -360q0 -104 38.5 -152t104 -48 t126.5 51.5t97 160.5h80q-84 -237 -262 -322q-63 -30 -139 -30q-130 0 -204 82t-74 220q0 90 16 167h-109l-95 -458h-255l97 458h-109q-38 -193 -132 -319q-113 -150 -273 -150q-106 0 -151 49.5t-45 122.5t28.5 107.5t66.5 34.5t68 -23q-19 -68 -19 -113q0 -78 45 -78 q71 0 140 185q65 175 65 355q0 103 -37.5 151.5t-94.5 48.5q-138 0 -269 -347q-15 -42 -28 -75l-23 -60q-138 -354 -409 -354q-305 0 -305 321zM253 296q0 -75 23 -103q23 -29 71 -29t82 30t60 78q47 86 69.5 206t22.5 189t-18.5 93.5t-59 24.5t-77 -29t-65.5 -73 q-51 -82 -79.5 -197t-28.5 -190z" />
<glyph unicode="&#x431;&#x44d;" horiz-adv-x="1637" d="M-25 314q0 229 134 401q149 186 386 186q10 0 17.5 -1t14.5 -1q-38 46 -79 85t-75 76q-78 86 -78 160.5t49.5 108.5t156.5 34h374q66 0 87 36q12 18 21 56h84q-46 -216 -109 -283q-36 -37 -87.5 -50t-125.5 -13h-183q-24 0 -24 -24q0 -10 33 -50q89 -106 141 -245 q27 -74 27 -157v-20q89 159 191 243q137 113 319 113q142 0 227 -74.5t85 -236.5q0 -124 -40 -234q-77 -203 -189 -309q-137 -126 -321 -126q-131 0 -195 54t-64 159.5t68 137.5q21 11 52.5 11t61.5 -27q-25 -69 -25 -130q0 -105 105 -105q77 0 144.5 109t100.5 260h-236 l24 113h229q4 39 4 73q0 97 -39 131t-92 34t-85 -14q-147 -63 -312 -352q-56 -101 -108.5 -204.5t-146.5 -174.5t-217 -71q-305 0 -305 321zM253 296q0 -75 23 -103q23 -29 71 -29t82 30t60 78q47 86 69.5 206t22.5 189t-18.5 93.5t-59 24.5t-77 -29t-65.5 -73 q-51 -82 -79.5 -197t-28.5 -190z" />
<glyph unicode="&#x431;&#x453;" horiz-adv-x="1554" d="M-25 314q0 229 134 401q149 186 386 186q10 0 17.5 -1t14.5 -1q-38 46 -79 85t-75 76q-78 86 -78 160.5t49.5 108.5t156.5 34h374q66 0 87 36q12 18 21 56h84q-46 -216 -109 -283q-36 -37 -87.5 -50t-125.5 -13h-183q-24 0 -24 -24q0 -11 46 -62.5t76 -113.5t53.5 -126 t25.5 -174q95 173 206 266.5t277 93.5t223 -116q20 -41 20 -109t-26.5 -123.5t-66.5 -96t-87 -72.5t-87 -61q-93 -69 -93 -142q0 -100 131 -100t245 101q42 37 89 91h64q-226 -352 -508 -352q-310 0 -310 215q0 134 114 228q33 26 67 50l66 47q114 82 114 174.5t-88 92.5 q-155 0 -344 -362l-51 -99q-97 -193 -194 -267.5t-220 -74.5q-305 0 -305 321zM253 296q0 -75 23 -103q23 -29 71 -29t82 30t60 78q47 86 69.5 206t22.5 189t-18.5 93.5t-59 24.5t-77 -29t-65.5 -73q-51 -82 -79.5 -197t-28.5 -190zM1132 1069l173 359h200l-231 -359h-142z " />
<glyph unicode="&#x431;&#x456;" horiz-adv-x="1327" d="M-25 314q0 229 134 401q149 186 386 186q10 0 17.5 -1t14.5 -1q-38 46 -79 85t-75 76q-78 86 -78 160.5t49.5 108.5t156.5 34h278q66 0 88 36q11 18 20 56h84q-44 -215 -109 -283q-36 -37 -87 -50t-126 -13h-87q-24 0 -24 -24q0 -11 31 -47q170 -199 170 -425t-121 -411 q-58 -90 -143.5 -149.5t-175.5 -59.5q-166 0 -245 79t-79 242zM253 296q0 -75 23 -103q23 -29 71 -29t82 30t60 78q47 86 69.5 206t22.5 189t-18.5 93.5t-59 24.5t-77 -29t-65.5 -73q-51 -82 -79.5 -197t-28.5 -190zM804 217q0 50 15 124l130 611h274l-138 -647 q-7 -34 -7 -68q0 -64 78 -64q56 0 103 47q47 49 68 121h80q-124 -352 -410 -352q-75 0 -135 54q-58 54 -58 174zM987 1205q0 63 43 108t106.5 45t107.5 -45q45 -44 45 -108q0 -63 -45 -106t-107.5 -43t-106.5 43q-43 44 -43 106z" />
<glyph unicode="&#x431;&#x457;" horiz-adv-x="1327" d="M-25 314q0 229 134 401q149 186 386 186q10 0 17.5 -1t14.5 -1q-38 46 -79 85t-75 76q-78 86 -78 160.5t49.5 108.5t156.5 34h245q65 0 85 36q13 18 23 56h83q-45 -214 -109 -283q-37 -37 -87.5 -50t-124.5 -13h-54q-24 0 -24 -24q0 -11 31 -47q170 -199 170 -425 t-121 -411q-58 -90 -143.5 -149.5t-175.5 -59.5q-166 0 -245 79t-79 242zM253 296q0 -75 23 -103q23 -29 71 -29t82 30t60 78q47 86 69.5 206t22.5 189t-18.5 93.5t-59 24.5t-77 -29t-65.5 -73q-51 -82 -79.5 -197t-28.5 -190zM804 217q0 50 15 124l130 611h274l-138 -647 q-7 -34 -7 -68q0 -64 78 -64q56 0 103 47q47 49 68 121h80q-124 -352 -410 -352q-75 0 -135 54q-58 54 -58 174zM925 1206.5q0 49.5 33.5 83t82 33.5t83 -33.5t34.5 -82.5t-35 -83q-35 -32 -70 -32q-61 0 -94.5 32.5t-33.5 82zM1212 1206q0 49 32 83q34 34 82.5 34 t82.5 -33.5t34 -82.5t-34 -82t-83 -33t-81.5 32.5t-32.5 81.5z" />
<glyph unicode="&#x431;&#x458;" horiz-adv-x="1274" d="M-25 314q0 229 134 401q149 186 386 186q10 0 17.5 -1t14.5 -1q-38 46 -79 85t-75 76q-78 86 -78 160.5t49.5 108.5t156.5 34h278q66 0 88 36q11 18 20 56h84q-44 -215 -109 -283q-36 -37 -87 -50t-126 -13h-87q-24 0 -24 -24q0 -11 31 -47q170 -199 170 -425t-121 -411 q-58 -90 -143.5 -149.5t-175.5 -59.5q-166 0 -245 79t-79 242zM253 296q0 -75 23 -103q23 -29 71 -29t82 30t60 78q47 86 69.5 206t22.5 189t-18.5 93.5t-59 24.5t-77 -29t-65.5 -73q-51 -82 -79.5 -197t-28.5 -190zM432 -291q0 153 202 242q56 24 109 42l206 959h274 l-189 -883q87 29 143 88t97 184h80q-75 -246 -245 -323q-48 -22 -92 -33l-28 -138q-39 -184 -146 -264q-80 -59 -183 -59t-165 45q-63 46 -63 140zM538 -265q0 -38 35 -57q12 -5 35.5 -5t54 41t49.5 128l12 55q-186 -65 -186 -162zM969 1207q0 62 44 108q44 45 107 45 t108 -45q44 -45 44 -108t-45 -106.5t-107 -43.5t-107 44q-44 44 -44 106z" />
<glyph unicode="&#x431;&#x45e;" horiz-adv-x="1744" d="M-25 314q0 229 134 401q149 186 386 186q10 0 17.5 -1t14.5 -1q-38 46 -79 85t-75 76q-78 86 -78 160.5t49.5 108.5t156.5 34h336q66 0 87 36q12 18 21 56h84q-46 -216 -110 -283q-35 -37 -86.5 -50t-125.5 -13h-145q-24 0 -24 -24q0 -11 31 -47q170 -199 170 -425 t-121 -411q-58 -90 -143.5 -149.5t-175.5 -59.5q-166 0 -245 79t-79 242zM253 296q0 -75 23 -103q23 -29 71 -29t82 30t60 78q47 86 69.5 206t22.5 189t-18.5 93.5t-59 24.5t-77 -29t-65.5 -73q-51 -82 -79.5 -197t-28.5 -190zM804 217q0 50 15 124l130 611h274l-138 -647 q-5 -24 -5 -48q0 -84 57 -84q52 0 81 33q46 56 67 123l134 623h275l-189 -883q86 29 142.5 88t97.5 184h80q-76 -246 -246 -323q-47 -22 -92 -33l-28 -138q-38 -184 -146 -264q-80 -59 -182.5 -59t-165.5 45q-62 46 -62 146q0 176 311 278l22 102q-97 -106 -229 -106 q-85 0 -145 54q-58 54 -58 174zM1007 -265q0 -38 36 -57q13 -5 36.5 -5t53.5 41t50 128l11 55q-187 -65 -187 -162zM1067 1202q0 68 34.5 107t90.5 39q120 0 120 -108q0 -56 -45 -86q29 -7 72 -7q214 0 297 223h80q-89 -261 -275 -310q-60 -15 -153 -15t-157 44.5t-64 112.5 z" />
<glyph unicode="&#x431;&#x451;" horiz-adv-x="1550" d="M-25 314q0 229 134 401q149 186 386 186q10 0 17.5 -1t14.5 -1q-38 46 -79 85t-75 76q-78 86 -78 160.5t49.5 108.5t156.5 34h316q67 0 87 36q12 18 21 56h84q-44 -215 -109 -283q-36 -37 -87 -50t-126 -13h-125q-24 0 -24 -24q0 -11 31 -47q170 -199 170 -425t-121 -411 q-58 -90 -143.5 -149.5t-175.5 -59.5q-166 0 -245 79t-79 242zM253 296q0 -75 23 -103q23 -29 71 -29t82 30t60 78q47 86 69.5 206t22.5 189t-18.5 93.5t-59 24.5t-77 -29t-65.5 -73q-51 -82 -79.5 -197t-28.5 -190zM794 291q0 218 112 421q84 156 229 222q76 35 174 35 q209 0 209 -182q0 -162 -131 -276.5t-307 -125.5q-4 -43 -4 -76q0 -98 34.5 -129t96.5 -31q109 0 182 47.5t161 144.5h65q-213 -352 -523 -352q-136 0 -217 70t-81 232zM1045 1206.5q0 49.5 33.5 83t82 33.5t83 -33.5t34.5 -82.5t-35 -83q-35 -32 -71 -32q-60 0 -93.5 32.5 t-33.5 82zM1096 476q108 8 192 103t84 221q0 69 -49 69q-68 -2 -133 -121t-94 -272zM1388 1206.5q0 49.5 33.5 83t82 33.5t83 -33.5t34.5 -82.5t-34 -83q-36 -32 -71 -32q-61 0 -94.5 32.5t-33.5 82z" />
<glyph unicode="&#x431;&#x439;" horiz-adv-x="1780" d="M-25 314q0 229 134 401q149 186 386 186q10 0 17.5 -1t14.5 -1q-38 46 -79 85t-75 76q-78 86 -78 160.5t49.5 108.5t156.5 34h336q66 0 87 36q12 18 21 56h84q-46 -216 -110 -283q-35 -37 -86.5 -50t-125.5 -13h-145q-24 0 -24 -24q0 -11 31 -47q170 -199 170 -425 t-121 -411q-58 -90 -143.5 -149.5t-175.5 -59.5q-166 0 -245 79t-79 242zM253 296q0 -75 23 -103q23 -29 71 -29t82 30t60 78q47 86 69.5 206t22.5 189t-18.5 93.5t-59 24.5t-77 -29t-65.5 -73q-51 -82 -79.5 -197t-28.5 -190zM804 217q0 50 15 124l130 611h274l-138 -647 q-5 -30 -5 -54q0 -78 57 -78q105 0 152 168l130 611h275l-138 -647q-8 -34 -8 -68q0 -64 79 -64q102 0 154 168h80q-123 -352 -383 -352q-169 0 -189 180q-109 -180 -282 -180q-85 0 -145 54q-58 54 -58 174zM1067 1202q0 68 34.5 107t90.5 39q120 0 120 -108q0 -56 -45 -86 q29 -7 72 -7q214 0 297 223h80q-89 -261 -275 -310q-60 -15 -153 -15t-157 44.5t-64 112.5z" />
<glyph unicode="&#x432;&#x433;" horiz-adv-x="1594" d="M-27 332.5q0 153.5 77 408.5q84 277 209 467q147 222 310 222q89 0 146.5 -60t57.5 -207.5t-103 -351.5l-52 -99q28 -15 58 -41q38 21 126 86l134 97q166 115 317 115q106 0 171.5 -57t65.5 -146.5t-26 -144.5q-46 -96 -155 -169l-87 -61q-93 -69 -93 -142 q0 -100 131.5 -100t246.5 101q41 37 87 91h65q-106 -165 -217 -248q-139 -104 -306 -104q-296 0 -296 215q0 134 114 228q33 26 67 50l66 47q72 51 93.5 94.5t21.5 83.5q0 89 -80 89q-62 0 -137.5 -42.5t-133.5 -78t-129 -75.5q21 -54 21 -136.5t-30.5 -169.5t-89.5 -154 q-128 -147 -334 -147q-157 0 -236.5 93t-79.5 246.5zM257 329q0 -165 116 -165q88 0 142 82.5t54 168.5t-17 120q-29 -11 -71 -11t-69 24.5t-27 61.5q0 63 35 89.5t98 31.5q87 158 122 333q11 59 11 115.5t-15 79.5t-46 23q-59 0 -123 -121q-106 -201 -181 -597 q-29 -152 -29 -235z" />
<glyph unicode="&#x432;&#x453;" horiz-adv-x="1594" d="M-27 332.5q0 153.5 77 408.5q84 277 209 467q147 222 310 222q89 0 146.5 -60t57.5 -207.5t-103 -351.5l-52 -99q28 -15 58 -41q38 21 126 86l134 97q166 115 317 115q106 0 171.5 -57t65.5 -146.5t-26 -144.5q-46 -96 -155 -169l-87 -61q-93 -69 -93 -142 q0 -100 131.5 -100t246.5 101q41 37 87 91h65q-106 -165 -217 -248q-139 -104 -306 -104q-296 0 -296 215q0 134 114 228q33 26 67 50l66 47q72 51 93.5 94.5t21.5 83.5q0 89 -80 89q-62 0 -137.5 -42.5t-133.5 -78t-129 -75.5q21 -54 21 -136.5t-30.5 -169.5t-89.5 -154 q-128 -147 -334 -147q-157 0 -236.5 93t-79.5 246.5zM257 329q0 -165 116 -165q88 0 142 82.5t54 168.5t-17 120q-29 -11 -71 -11t-69 24.5t-27 61.5q0 63 35 89.5t98 31.5q87 158 122 333q11 59 11 115.5t-15 79.5t-46 23q-59 0 -123 -121q-106 -201 -181 -597 q-29 -152 -29 -235zM1156 1069l174 359h200l-231 -359h-143z" />
<glyph unicode="&#x432;&#x436;" horiz-adv-x="2435" d="M-27 332.5q0 153.5 77 408.5q84 277 209 467q147 222 310 222q89 0 146.5 -60t57.5 -207.5t-103 -351.5l-52 -99q33 -16 56 -40q201 241 377 284q51 13 102 13q106 0 181 -82q73 -84 73 -220q0 -45 -5 -96h114l80 381h256l-80 -381h106q83 274 250 365q62 33 130 33 q117 0 161.5 -49.5t44.5 -122.5t-28 -107t-66.5 -34t-68.5 22q18 65 18 112q0 79 -43 79q-72 0 -139 -180t-67 -360q0 -104 38.5 -152t103.5 -48q107 0 180 118q25 39 44 94h80q-80 -236 -262 -322q-64 -30 -138 -30q-130 0 -204 82t-74 220q0 98 15 167h-108l-95 -458h-256 l98 458h-109q-65 -314 -250 -428q-68 -41 -142 -41q-210 0 -210 173q0 72 28.5 106.5t65 34.5t70.5 -23q-20 -68 -20 -113q0 -78 44 -78q37 0 65 39q82 115 123 321q19 97 19 167q0 119 -26 166t-81.5 47t-147 -51.5t-201.5 -175.5q23 -68 23 -144.5t-30.5 -163.5 t-89.5 -154q-128 -147 -334 -147q-157 0 -236.5 93t-79.5 246.5zM257 329q0 -165 116 -165q88 0 142 82.5t54 168.5t-17 120q-29 -11 -71 -11t-69 24.5t-27 61.5q0 63 35 89.5t98 31.5q87 158 122 333q11 59 11 115.5t-15 79.5t-46 23q-59 0 -123 -121q-106 -201 -181 -597 q-29 -152 -29 -235z" />
<glyph unicode="&#x432;&#x437;" horiz-adv-x="1569" d="M-27 332.5q0 153.5 77 408.5q84 277 209 467q147 222 310 222q89 0 146.5 -60t57.5 -207.5t-103 -351.5l-52 -99q24 -11 47 -34q24 20 55 49l67 63q193 179 358 179h5q139 0 210.5 -83t71.5 -235t-119 -283q-62 -68 -109.5 -93.5t-66.5 -28.5q46 -16 91.5 -65.5 t65.5 -125.5q108 33 169.5 93t106.5 193h80q-51 -173 -160 -267q-75 -64 -189 -95q-4 -212 -102 -333.5t-258 -121.5q-88 0 -151 46t-63 139q0 180 300 280q-6 202 -138 202h-59l26 114h54q102 0 168.5 98t66.5 248q0 56 -19 100.5t-83 44.5t-161 -69l-168 -120 q29 -61 29 -143.5t-30.5 -169.5t-89.5 -154q-128 -147 -334 -147q-157 0 -236.5 93t-79.5 246.5zM257 329q0 -165 116 -165q88 0 142 82.5t54 168.5t-17 120q-29 -11 -71 -11t-69 24.5t-27 61.5q0 63 35 89.5t98 31.5q87 158 122 333q11 59 11 115.5t-15 79.5t-46 23 q-59 0 -123 -121q-106 -201 -181 -597q-29 -152 -29 -235zM832 -265q0 -26 16.5 -44t42.5 -18q47 0 82.5 65.5t47.5 158.5q-189 -66 -189 -162z" />
<glyph unicode="&#x432;&#x445;" horiz-adv-x="1620" d="M-27 332.5q0 153.5 77 408.5q84 277 209 467q147 222 310 222q89 0 146.5 -60t57.5 -207.5t-103 -351.5l-52 -99q24 -11 47 -34q54 48 103 98.5t100 91.5q115 94 218.5 94t152.5 -78q32 -53 43 -148l21 -171q89 100 135.5 171t51.5 129q-19 -4 -33 -4q-90 0 -90 106 q0 50 39 72t78 22q62 0 90.5 -52t28.5 -109.5t-17 -102.5q-34 -85 -143 -208l-127 -140l16 -110q11 -91 32.5 -120t41 -37.5t44.5 -8.5q55 0 103 48.5t68 119.5h80q-71 -200 -192 -287q-89 -65 -189 -65h-8q-179 0 -232 331l-263 -320h-137l385 434l-31 213 q-16 97 -31 127.5t-35.5 30.5t-39.5 -7q-36 -14 -115 -89l-101 -100q31 -65 31 -146.5t-30.5 -168.5t-89.5 -154q-128 -147 -334 -147q-157 0 -236.5 93t-79.5 246.5zM257 329q0 -165 116 -165q88 0 142 82.5t54 168.5t-17 120q-29 -11 -71 -11t-69 24.5t-27 61.5 q0 63 35 89.5t98 31.5q87 158 122 333q11 59 11 115.5t-15 79.5t-46 23q-59 0 -123 -121q-106 -201 -181 -597q-29 -152 -29 -235z" />
<glyph unicode="&#x433;&#x437;" horiz-adv-x="1599" d="M-40 208q0 155 202 274q52 30 97 63q105 74 105 162.5t-88 88.5q-123 0 -205 -198h-92q63 179 160 275t264.5 96t227.5 -116q20 -41 20 -99t-16.5 -104t-44.5 -81q-46 -57 -140 -117l-73 -47q-81 -49 -104.5 -85.5t-23.5 -80.5t35 -67t85 -23q156 0 287 258l86 171 q111 232 213 311.5t231.5 79.5t202.5 -79q74 -79 74 -231.5t-119 -290.5q-70 -77 -142 -110q-21 -10 -35 -12q46 -16 92.5 -66t63.5 -125q110 33 156 78q78 76 121 208h80q-71 -247 -255 -328q-50 -22 -93 -34q-4 -212 -102 -333.5t-259 -121.5q-88 0 -151 45 q-62 46 -62 140q0 180 299 280q-6 202 -137 202h-59l24 114h56q102 0 168.5 95.5t66.5 218t-54 162.5q-21 15 -59.5 15t-76.5 -24q-71 -45 -151 -192l-86 -165q-47 -89 -92 -166q-155 -260 -421 -260q-121 0 -198.5 51t-77.5 168zM863 -265q0 -26 16.5 -44t43.5 -18 q47 0 82 66t46 158q-188 -66 -188 -162z" />
<glyph unicode="&#x433;&#x445;" horiz-adv-x="1409" d="M-40 208q0 155 202 274q52 30 97 63q105 74 105 162.5t-88 88.5q-123 0 -205 -198h-92q63 179 160 275t264.5 96t227.5 -116q20 -41 20 -99t-16.5 -104t-44.5 -81q-46 -57 -140 -117l-73 -47q-81 -49 -104.5 -85.5t-23.5 -70.5q0 -100 142 -100t340 162l111 94l-122 547 h269l85 -385q92 85 143.5 153t51.5 124q0 13 -2 23q-16 -4 -33 -4q-89 0 -89 106q0 90 116 90q55 0 87.5 -49.5t32.5 -109.5q0 -105 -66 -203.5t-218 -233.5l41 -178q15 -67 41 -89.5t70.5 -22.5t92 48.5t68.5 119.5h80q-123 -352 -387 -352q-96 0 -147.5 71.5t-90.5 244.5 q-158 -150 -261.5 -208t-186 -83t-191 -25t-187.5 51t-79 168z" />
<glyph unicode="&#x433;&#x447;" horiz-adv-x="1675" d="M-40 204q0 121 105 209q45 38 97 68.5t97 63.5q105 74 105 162.5t-88 88.5q-123 0 -205 -198h-92q63 179 160 275t264.5 96t227.5 -116q20 -41 20 -99t-16.5 -104t-44.5 -81q-46 -57 -140 -117l-73 -47q-81 -49 -104.5 -85.5t-23.5 -70.5q0 -100 136 -100 q100 0 219.5 136t166.5 326l73 341h274l-75 -354q-5 -30 -5 -53q0 -78 58 -78q82 0 130 99q14 31 21 68l67 318h274l-136 -647q-9 -33 -9 -67q0 -65 78 -65q107 0 155 168h80q-71 -205 -194 -293q-83 -59 -179 -59t-155 54t-59 174q0 50 16 124l9 48q-97 -107 -232 -107 t-181 116q-89 -173 -230.5 -291t-295.5 -118q-295 0 -295 215z" />
<glyph unicode="&#x453;&#x437;" horiz-adv-x="1599" d="M-40 208q0 155 202 274q52 30 97 63q105 74 105 162.5t-88 88.5q-123 0 -205 -198h-92q63 179 160 275t264.5 96t227.5 -116q20 -41 20 -99t-16.5 -104t-44.5 -81q-46 -57 -140 -117l-73 -47q-81 -49 -104.5 -85.5t-23.5 -80.5t35 -67t85 -23q156 0 287 258l86 171 q111 232 213 311.5t231.5 79.5t202.5 -79q74 -79 74 -231.5t-119 -290.5q-70 -77 -142 -110q-21 -10 -35 -12q46 -16 92.5 -66t63.5 -125q110 33 156 78q78 76 121 208h80q-71 -247 -255 -328q-50 -22 -93 -34q-4 -212 -102 -333.5t-259 -121.5q-88 0 -151 45 q-62 46 -62 140q0 180 299 280q-6 202 -137 202h-59l24 114h56q102 0 168.5 95.5t66.5 218t-54 162.5q-21 15 -59.5 15t-76.5 -24q-71 -45 -151 -192l-86 -165q-47 -89 -92 -166q-155 -260 -421 -260q-121 0 -198.5 51t-77.5 168zM391 1069l173 359h200l-231 -359h-142z M863 -265q0 -26 16.5 -44t43.5 -18q47 0 82 66t46 158q-188 -66 -188 -162z" />
<glyph unicode="&#x453;&#x445;" horiz-adv-x="1409" d="M-40 208q0 155 202 274q52 30 97 63q105 74 105 162.5t-88 88.5q-123 0 -205 -198h-92q63 179 160 275t264.5 96t227.5 -116q20 -41 20 -99t-16.5 -104t-44.5 -81q-46 -57 -140 -117l-73 -47q-81 -49 -104.5 -85.5t-23.5 -70.5q0 -100 142 -100t340 162l111 94l-122 547 h269l85 -385q92 85 143.5 153t51.5 124q0 13 -2 23q-16 -4 -33 -4q-89 0 -89 106q0 90 116 90q55 0 87.5 -49.5t32.5 -109.5q0 -105 -66 -203.5t-218 -233.5l41 -178q15 -67 41 -89.5t70.5 -22.5t92 48.5t68.5 119.5h80q-123 -352 -387 -352q-96 0 -147.5 71.5t-90.5 244.5 q-158 -150 -261.5 -208t-186 -83t-191 -25t-187.5 51t-79 168zM391 1069l173 359h200l-231 -359h-142z" />
<glyph unicode="&#x453;&#x447;" horiz-adv-x="1675" d="M-40 204q0 121 105 209q45 38 97 68.5t97 63.5q105 74 105 162.5t-88 88.5q-123 0 -205 -198h-92q63 179 160 275t264.5 96t227.5 -116q20 -41 20 -99t-16.5 -104t-44.5 -81q-46 -57 -140 -117l-73 -47q-81 -49 -104.5 -85.5t-23.5 -70.5q0 -100 136 -100 q100 0 219.5 136t166.5 326l73 341h274l-75 -354q-5 -30 -5 -53q0 -78 56 -78t97 47q40 48 56 120l67 318h274l-136 -647q-9 -33 -9 -67q0 -65 78 -65q107 0 155 168h80q-71 -205 -194 -293q-83 -59 -179 -59t-155 54t-59 174q0 50 16 124l9 48q-97 -107 -232 -107t-181 116 q-89 -173 -230.5 -291t-295.5 -118q-295 0 -295 215zM391 1069l173 359h200l-231 -359h-142z" />
<glyph unicode="&#x434;&#x447;" horiz-adv-x="1923" d="M-25 285q0 75 13 150t40 149q59 164 170 271t267 107q82 0 118 -27.5t36 -69.5v-11l21 98h274l-189 -883q148 52 212 199q25 54 40 128l115 556h273l-73 -354q-7 -27 -7 -53q0 -78 58 -78q83 0 130 100q14 31 22 67l66 318h275l-137 -647q-7 -34 -7 -68q0 -64 78 -64 q106 0 153 168h80q-70 -205 -193 -293q-84 -59 -179.5 -59t-154.5 54t-59 174q0 54 15 124l10 48q-97 -107 -217.5 -107t-177.5 78q-68 -297 -338 -375l-29 -138q-36 -183 -145 -264q-80 -59 -183.5 -59t-165.5 45q-62 46 -62 146q0 174 310 278l24 100q-100 -104 -229 -104 q-173 0 -233 163q-21 58 -21 133zM229 -265q0 -38 36 -57q12 -5 35.5 -5t54 41t49.5 128l11 55q-186 -67 -186 -162zM257 312q0 -85 35 -119q20 -20 50 -20q53 0 98.5 40.5t64.5 108.5l97 451q0 43 -40 62q-15 9 -38 9q-61 0 -111 -57q-121 -137 -152 -393q-4 -39 -4 -82z " />
<glyph unicode="&#x434;&#x458;" horiz-adv-x="1421" d="M-25 285q0 75 13 150t40 149q59 164 170 271t267 107q82 0 118 -27.5t36 -69.5v-14l21 101h274l-202 -945l45 4q22 2 43 6l97 10l199 925h274l-187 -874q87 30 147.5 88.5t90.5 174.5h80q-61 -228 -225 -308q-51 -24 -111 -39l-29 -147q-67 -323 -346 -323 q-151 0 -201 112q-94 -112 -252 -112q-89 0 -151 45q-62 46 -62 140q0 196 307 258l27 128q-102 -106 -229 -106q-173 0 -233 163q-21 58 -21 133zM229 -265q0 -22 16 -42t47.5 -20t62 41t49.5 128l9 44q-184 -46 -184 -151zM257 312q0 -139 95 -139q40 0 87.5 37.5 t67.5 116.5l95 444q0 18 -16.5 45.5t-69.5 27.5t-103 -57q-121 -137 -152 -393q-4 -39 -4 -82zM640 -274q31 -33 71 -33q66 0 97 32.5t51 116.5l23 109l-43 -4q-22 -2 -43 -6l-98 -10l-18 -84q-10 -50 -40 -121zM1116 1207q0 62 43 107.5t107 45.5t109 -45q44 -45 44 -108 t-45 -106.5t-108 -43.5t-106 44q-44 44 -44 106z" />
<glyph unicode="&#x451;&#x437;" horiz-adv-x="1668" d="M-25 291q0 218 111 421q84 156 230 222q76 35 156 35q132 0 179.5 -49.5t47.5 -132.5q0 -163 -131 -277t-307 -125q-4 -54 -4 -76q0 -98 34.5 -129t108.5 -31q137 0 232 110q62 70 137 252l53 119q89 201 184 270t228 69t215.5 -79.5t82.5 -235t-120 -286.5 q-61 -67 -109 -93t-67 -29q46 -16 92.5 -65.5t63.5 -125.5q108 33 170 93t106 193h80q-73 -249 -254 -329q-50 -21 -94 -33q-4 -213 -101.5 -334t-258.5 -121q-89 0 -151 45q-62 46 -62 140q0 180 298 280q-5 202 -136 202h-60l25 114h55q102 0 168 95t66 232 q0 164 -116 164q-126 0 -217 -160q-32 -58 -59 -123l-47 -109q-189 -415 -532 -415q-135 0 -216 70t-81 232zM227 1206.5q0 48.5 32 82.5q34 34 83 34t83 -33.5t34 -82.5t-34 -83q-35 -32 -72 -32q-61 0 -93.5 33t-32.5 81.5zM276 476q110 8 193 102.5t83 221.5q0 69 -47 69 q-70 -2 -135 -123.5t-94 -269.5zM569 1206.5q0 49.5 33.5 83t82 33.5t83 -33.5t34.5 -82.5t-35 -83q-35 -32 -71 -32q-60 0 -93.5 32.5t-33.5 82zM931 -265q0 -26 16 -44t43 -18q47 0 82.5 65.5t47.5 158.5q-189 -66 -189 -162z" />
<glyph unicode="&#x435;&#x447;" horiz-adv-x="1693" d="M-25 291q0 218 111 421q84 156 230 222q76 35 156 35q132 0 179.5 -49.5t47.5 -132.5q0 -163 -131 -277t-307 -125q-4 -54 -4 -76q0 -98 34.5 -129t91.5 -31q117 0 243 145t168 340l67 318h275l-75 -354q-5 -30 -5 -53q0 -78 56 -78q83 0 130 100q14 31 23 67l67 318h273 l-137 -647q-7 -34 -7 -68q0 -64 78 -64q102 0 155 168h80q-71 -205 -195 -293q-84 -59 -179 -59t-155 54q-58 54 -58 174q0 54 15 124l10 48q-98 -107 -232.5 -107t-181.5 116q-143 -274 -363 -374q-78 -35 -163 -35q-135 0 -216 70t-81 232zM276 476q110 8 193 102.5 t83 221.5q0 69 -47 69q-70 -2 -135 -123.5t-94 -269.5z" />
<glyph unicode="&#x451;&#x447;" horiz-adv-x="1693" d="M-25 291q0 218 111 421q84 156 230 222q76 35 156 35q132 0 179.5 -49.5t47.5 -132.5q0 -163 -131 -277t-307 -125q-4 -54 -4 -76q0 -98 34.5 -129t102.5 -31t137 52t109 109q124 175 154 324l67 318h275l-75 -354q-5 -30 -5 -53q0 -78 56 -78q83 0 130 100q14 31 23 67 l67 318h273l-137 -647q-7 -34 -7 -68q0 -64 78 -64q102 0 155 168h80q-71 -205 -195 -293q-84 -59 -179 -59t-155 54q-58 54 -58 174q0 54 15 124l10 48q-98 -107 -232.5 -107t-181.5 116q-143 -274 -363 -374q-78 -35 -163 -35q-135 0 -216 70t-81 232zM227 1206.5 q0 48.5 32 82.5q34 34 83 34t83 -33.5t34 -82.5t-34 -83q-35 -32 -72 -32q-61 0 -93.5 33t-32.5 81.5zM276 476q110 8 193 102.5t83 221.5q0 69 -47 69q-70 -2 -135 -123.5t-94 -269.5zM569 1206.5q0 49.5 33.5 83t82 33.5t83 -33.5t34.5 -82.5t-35 -83q-35 -32 -71 -32 q-60 0 -93.5 32.5t-33.5 82z" />
<glyph unicode="&#x436;&#x447;" horiz-adv-x="2651" d="M-71 191q0 117 70 149q21 11 53 11t59 -27q-25 -69 -25 -128.5t22.5 -83t53.5 -23.5t59 39q87 121 123 321q18 94 18 180q0 200 -116 200q-55 0 -87.5 -37.5t-59.5 -106.5h-99q81 284 316 284q131 0 205 -82q73 -82 73 -220q0 -48 -5 -96h114l80 381h255l-80 -381h107 q80 273 250 365q62 33 130 33q116 0 161.5 -50t45.5 -122.5t-29 -106.5t-66.5 -34t-69.5 22q20 62 20 112q0 79 -44 79q-73 0 -141 -185q-65 -185 -65 -355q0 -104 39 -152t102 -48q92 0 195.5 155t149.5 354l67 314h274l-74 -354q-7 -27 -7 -53q0 -78 58 -78q112 0 151 164 l67 321h275l-137 -647q-7 -34 -7 -68q0 -64 78 -64q102 0 154 168h80q-71 -205 -194 -293q-84 -59 -179.5 -59t-154.5 54t-59 174q0 54 15 124l9 48q-96 -107 -228 -107t-181 107q-133 -311 -340 -383q-50 -17 -107 -17q-130 0 -204 82t-74 220q0 95 15 167h-109l-95 -458 h-255l97 458h-107q-62 -315 -255 -428q-70 -41 -147 -41q-132 0 -186 57.5t-54 144.5z" />
<glyph unicode="&#x438;&#x447;" horiz-adv-x="1923" d="M-15 217q0 54 15 124l129 611h275l-137 -647q-6 -30 -6 -54q0 -78 57 -78q100 0 153 168l129 611h274l-137 -647q-8 -33 -8 -67q0 -65 78 -65q122 0 187 304q11 52 19 96.5t14 68.5l65 310h273l-73 -354q-7 -27 -7 -53q0 -78 57 -78t97.5 46t55.5 121l66 318h275 l-137 -647q-7 -34 -7 -68q0 -64 78 -64q106 0 153 168h80q-70 -205 -193 -293q-84 -59 -179.5 -59t-154.5 54t-59 174q0 54 15 124l10 48q-97 -107 -220.5 -107t-174.5 80q-83 -263 -251 -343q-61 -30 -137 -30q-170 0 -188 180q-112 -180 -282 -180q-86 0 -145 54t-59 174z " />
<glyph unicode="&#x439;&#x447;" horiz-adv-x="1923" d="M-15 217q0 54 15 124l129 611h275l-137 -647q-6 -30 -6 -54q0 -78 57 -78q100 0 153 168l129 611h274l-137 -647q-8 -33 -8 -67q0 -65 78 -65q139 0 205 395q7 45 13 70l67 314h273l-73 -354q-7 -27 -7 -53q0 -78 58 -78q112 0 151 164l67 321h275l-137 -647 q-7 -34 -7 -68q0 -64 78 -64q106 0 153 168h80q-70 -205 -193 -293q-84 -59 -179.5 -59t-154.5 54t-59 174q0 54 15 124l10 48q-97 -107 -220.5 -107t-174.5 80q-83 -263 -251 -343q-61 -30 -137 -30q-170 0 -188 180q-112 -180 -282 -180q-86 0 -145 54t-59 174zM247 1202 q0 68 34.5 107t92.5 39q119 0 119 -108q0 -56 -46 -86q30 -7 77 -7q207 0 293 223h80q-89 -261 -276 -310q-59 -15 -151 -15t-157.5 44.5t-65.5 112.5z" />
<glyph unicode="&#x435;&#x437;" horiz-adv-x="1668" d="M-25 291q0 218 111 421q84 156 230 222q76 35 156 35q132 0 179.5 -49.5t47.5 -132.5q0 -163 -131 -277t-307 -125q-4 -54 -4 -76q0 -98 34.5 -129t108.5 -31q137 0 232 110q62 70 137 252l53 119q89 201 184 270t228 69t215.5 -79.5t82.5 -235t-120 -286.5 q-61 -67 -109 -93t-67 -29q46 -16 92.5 -65.5t63.5 -125.5q108 33 170 93t106 193h80q-73 -249 -254 -329q-50 -21 -94 -33q-4 -213 -101.5 -334t-258.5 -121q-89 0 -151 45q-62 46 -62 140q0 180 298 280q-5 202 -136 202h-60l25 114h55q102 0 168 95t66 232 q0 164 -116 164q-126 0 -217 -160q-32 -58 -59 -123l-47 -109q-189 -415 -532 -415q-135 0 -216 70t-81 232zM276 476q110 8 193 102.5t83 221.5q0 69 -47 69q-70 -2 -135 -123.5t-94 -269.5zM931 -265q0 -26 16 -44t43 -18q47 0 82.5 65.5t47.5 158.5q-189 -66 -189 -162z " />
<glyph unicode="&#x43a;&#x447;" horiz-adv-x="1935" d="M-73 0l204 952h274l-81 -377l119 123l91 99q90 97 143 135q53 37 121.5 37t100.5 -36t32 -91t-30.5 -88.5t-89.5 -33.5t-82 31q-22 32 -22 48v18q-54 -32 -97 -79l-71 -78q-27 -29 -57 -60q43 7 80 7q103 0 142 -46t39 -130q0 -23 -4 -45l-8 -46q-11 -66 -11 -96 q0 -71 89 -71t151 138q43 96 80 270l76 371h274l-74 -354q-6 -30 -6 -53q0 -78 57 -78q84 0 130 99q15 31 23 68l67 318h274l-138 -647q-7 -34 -7 -68q0 -64 78 -64q107 0 154 168h80q-122 -352 -383 -352q-85 0 -145 54q-58 54 -58 174q0 50 15 124l10 48 q-98 -107 -223.5 -107t-178.5 89q-91 -311 -275 -366q-52 -16 -103 -16q-116 0 -172.5 57t-56.5 154q0 47 11 98t11 83q0 91 -73 91q-33 0 -67 -26l-54 -44l-84 -402h-275z" />
<glyph unicode="&#x45c;&#x447;" horiz-adv-x="1935" d="M-73 0l204 952h274l-81 -377l119 123l91 99q90 97 143 135q53 37 121.5 37t100.5 -36t32 -91t-30.5 -88.5t-89.5 -33.5t-82 31q-22 32 -22 48v18q-54 -32 -97 -79l-71 -78q-27 -29 -57 -60q43 7 80 7q103 0 142 -46t39 -130q0 -23 -4 -45l-8 -46q-11 -66 -11 -96 q0 -71 89 -71t151 138q43 96 80 270l76 371h274l-74 -354q-6 -30 -6 -53q0 -78 57 -78q84 0 130 100q15 31 23 67l67 318h274l-138 -647q-7 -34 -7 -68q0 -64 78 -64q107 0 154 168h80q-122 -352 -383 -352q-85 0 -145 54q-58 54 -58 174q0 50 15 124l10 48 q-98 -107 -223.5 -107t-178.5 89q-91 -315 -276 -367q-52 -15 -104 -15q-114 0 -170.5 57t-56.5 154q0 47 11 98t11 83q0 91 -73 91q-33 0 -67 -26l-54 -44l-84 -402h-275zM442 1069l174 359h200l-231 -359h-143z" />
<glyph unicode="&#x43b;&#x447;" horiz-adv-x="2020" d="M-73 193.5q0 80.5 31.5 121.5t81.5 41t77.5 -27.5t27.5 -73.5t-23 -67.5t-53 -18.5q4 -19 16.5 -39.5t59 -20.5t74.5 30.5t47 81.5t32 118t38.5 178t61.5 203.5t81 144t99.5 69.5t126.5 18h269l-135 -619q-12 -55 -12 -80q0 -80 76 -80q110 0 176 272q18 77 35 157 l75 350h274l-75 -354q-5 -30 -5 -53q0 -78 57 -78q83 0 130 100q15 31 22 67l67 318h274l-137 -647q-8 -34 -8 -68q0 -64 79 -64q102 0 154 168h80q-123 -352 -383 -352q-86 0 -145 54t-59 174q0 50 16 124l9 48q-97 -107 -217 -107t-177 78q-57 -181 -156.5 -276 t-203.5 -95q-105 0 -164 57q-57 59 -57 136q0 78 41 267l84 378q-96 0 -146 -79q-49 -79 -83.5 -240.5t-57.5 -250t-56 -147.5q-68 -121 -209 -121q-103 0 -156 61q-54 63 -54 143.5z" />
<glyph unicode="&#x43c;&#x447;" horiz-adv-x="2430" d="M-73 198q0 76 31.5 114.5t81.5 38.5t77.5 -27.5t27.5 -73.5t-23 -68t-53 -18q-2 -22 13 -47.5t63 -25.5t79 33.5t51 88t34 124t30 143.5l101 472h267l40 -731l354 731h282q-111 -515 -129 -594.5t-18 -104.5q0 -80 76 -80q113 0 176 272q19 77 35 157l75 350h274 l-74 -354q-6 -30 -6 -53q0 -78 58 -78q83 0 129 99q15 31 22 68l67 318h275l-137 -647q-8 -33 -8 -67q0 -65 78 -65q107 0 154 168h80q-71 -205 -193 -293q-84 -59 -180 -59t-155 54t-59 174q0 50 16 124l9 48q-96 -107 -216.5 -107t-177.5 78q-57 -181 -156.5 -276 t-204.5 -95t-163 57q-56 59 -56 141t42 262l27 129l-281 -578h-267l-34 581l-25 -120q-23 -114 -44.5 -202t-52.5 -147q-67 -123 -202 -123q-101 0 -156 67q-54 66 -54 142z" />
<glyph unicode="&#x43d;&#x447;" horiz-adv-x="1926" d="M-73 0l202 952h275l-82 -381h213l86 381h255l-100 -472l-34 -147q-13 -55 -13 -80q0 -80 76 -80q82 0 131 117q31 77 83 310l75 352h273l-73 -354q-7 -27 -7 -53q0 -78 58 -78q83 0 130 100q14 31 22 67l66 318h275l-137 -647q-7 -34 -7 -68q0 -64 78 -64q102 0 154 168 h80q-71 -205 -194 -293q-84 -59 -179.5 -59t-154.5 54t-59 174q0 54 15 124l9 48q-96 -107 -219.5 -107t-174.5 80q-54 -178 -149 -275.5t-206 -97.5q-113 0 -169 57q-58 59 -58 145q0 65 44 267h-212l-97 -458h-275z" />
<glyph unicode="&#x43e;&#x433;" horiz-adv-x="1531" d="M-27 280q0 69 11.5 140t36.5 146q57 171 165 277q128 126 309 126q244 0 244 -304v-2q28 24 61 57l68 65q90 85 149 119q114 65 213 65q177 0 236 -116q21 -41 21 -109t-29.5 -123.5t-74 -96t-97 -72.5t-97 -61.5t-74.5 -63t-30 -78.5q0 -100 131.5 -100t246.5 101 q42 37 87 91h65q-106 -165 -217 -248q-139 -104 -306 -104q-296 0 -296 215q0 121 104 209q46 38 98 68.5t98 63.5q104 74 104 162.5t-88 88.5q-61 0 -173 -83l-99 -75q-51 -40 -104 -73h-3q-22 -260 -149.5 -416t-305.5 -156q-219 0 -283 161q-22 57 -22 126zM257 318 q0 -92 16.5 -116.5t35 -31t50.5 -6.5q65 0 129 114t87 282q-51 13 -51 84.5t59 98.5q-4 61 -19 86t-60 25q-87 0 -167 -193t-80 -343z" />
<glyph unicode="&#x43e;&#x453;" horiz-adv-x="1531" d="M-27 280q0 69 11.5 140t36.5 146q57 171 165 277q128 126 309 126q244 0 244 -304v-2q28 24 61 57l68 65q90 85 149 119q114 65 213 65q177 0 236 -116q21 -41 21 -109t-29.5 -123.5t-74 -96t-97 -72.5t-97 -61.5t-74.5 -63t-30 -78.5q0 -100 131.5 -100t246.5 101 q42 37 87 91h65q-106 -165 -217 -248q-139 -104 -306 -104q-296 0 -296 215q0 121 104 209q46 38 98 68.5t98 63.5q104 74 104 162.5t-88 88.5q-61 0 -173 -83l-99 -75q-51 -40 -104 -73h-3q-22 -260 -149.5 -416t-305.5 -156q-219 0 -283 161q-22 57 -22 126zM257 318 q0 -92 16.5 -116.5t35 -31t50.5 -6.5q65 0 129 114t87 282q-51 13 -51 84.5t59 98.5q-4 61 -19 86t-60 25q-87 0 -167 -193t-80 -343zM1207 1069l174 359h200l-231 -359h-143z" />
<glyph unicode="&#x44e;&#x433;" horiz-adv-x="1999" d="M-73 0l202 952h275l-80 -381h148q92 270 300 364q76 34 173 34q244 0 244 -304v-2q27 24 59 57l69 65q196 184 367 184t232 -116q21 -41 21 -99q0 -150 -127 -250q-36 -29 -75 -52l-74 -47q-79 -49 -102.5 -85.5t-23.5 -70.5q0 -100 131.5 -100t245.5 101q42 37 88 91h65 q-106 -165 -218 -248q-139 -104 -306 -104q-296 0 -296 215q0 160 202 278q53 30 99 63q104 74 104 162.5t-89 88.5q-61 0 -173 -82l-99 -76q-51 -40 -104 -73h-2q-22 -260 -149.5 -416t-306.5 -156q-218 0 -282 161q-22 57 -22 134t17 170h-143l-95 -458h-275zM707 318 q0 -91 16 -116t35 -31.5t49.5 -6.5t65.5 30.5t64 83.5q66 114 88 282q-51 12 -51 84.5t58 98.5q-3 61 -18.5 86t-59.5 25q-87 0 -167 -190t-80 -346z" />
<glyph unicode="&#x44e;&#x453;" horiz-adv-x="1999" d="M-73 0l202 952h275l-80 -381h148q92 270 300 364q76 34 173 34q244 0 244 -304v-2q27 24 59 57l69 65q196 184 367 184t232 -116q21 -41 21 -99q0 -150 -127 -250q-36 -29 -75 -52l-74 -47q-79 -49 -102.5 -85.5t-23.5 -70.5q0 -100 131.5 -100t245.5 101q42 37 88 91h65 q-106 -165 -218 -248q-139 -104 -306 -104q-296 0 -296 215q0 160 202 278q53 30 99 63q104 74 104 162.5t-89 88.5q-61 0 -173 -82l-99 -76q-51 -40 -104 -73h-2q-22 -260 -149.5 -416t-306.5 -156q-218 0 -282 161q-22 57 -22 134t17 170h-143l-95 -458h-275zM707 318 q0 -91 16 -116t35 -31.5t49.5 -6.5t65.5 30.5t64 83.5q66 114 88 282q-51 12 -51 84.5t58 98.5q-3 61 -18.5 86t-59.5 25q-87 0 -167 -190t-80 -346zM1657 1069l173 359h200l-230 -359h-143z" />
<glyph unicode="&#x43e;&#x436;" horiz-adv-x="2420" d="M-27 280q0 69 11.5 140t36.5 146q57 171 165 277q128 126 309 126q234 0 244 -287q171 248 307 278q43 9 92 9q106 0 180 -82.5t74 -219.5q0 -45 -5 -96h114l80 381h255l-80 -381h107q83 275 250 365q62 33 130 33q116 0 161.5 -50t45.5 -122.5t-29 -106.5t-67 -34 t-68 22q19 65 19 112q0 79 -44 79q-73 0 -142 -185q-64 -185 -64 -355q0 -104 39 -152t104 -48t126 51.5t97 160.5h80q-84 -237 -262 -322q-63 -30 -138 -30q-130 0 -204 82t-74 220q0 95 15 167h-108l-96 -458h-255l97 458h-109q-38 -193 -133 -319q-112 -150 -272 -150 q-186 0 -224 127q-11 37 -11 96t33.5 99t76 40t72.5 -27q-25 -69 -25 -126t20.5 -83t54 -26t72 53t66.5 131.5t45.5 174t17.5 166.5q0 123 -25.5 169t-81.5 46t-130 -66.5t-187 -197.5h-3q-22 -260 -149.5 -416t-305.5 -156q-219 0 -283 161q-22 57 -22 126zM257 318 q0 -92 16.5 -116.5t35 -31t50.5 -6.5q65 0 129 114t87 282q-51 13 -51 84.5t59 98.5q-4 61 -19 86t-60 25q-87 0 -167 -193t-80 -343z" />
<glyph unicode="&#x44e;&#x436;" horiz-adv-x="2869" d="M-73 0l202 952h275l-80 -381h148q92 270 300 364q76 34 173 34q233 0 244 -287q124 177 208.5 232t191 55t179.5 -82t73 -220q0 -45 -5 -96h114l80 381h256l-80 -381h106q84 274 251 365q61 33 129 33q118 0 162.5 -49.5t44.5 -122.5t-28.5 -107t-67 -34t-68.5 22 q19 65 19 112q0 79 -44 79q-73 0 -141 -185q-65 -185 -65 -355q0 -104 39 -152t103 -48q108 0 181 118q24 39 43 94h80q-80 -236 -262 -322q-64 -30 -138 -30q-130 0 -204 82t-74 220q0 98 16 167h-109l-95 -458h-256l98 458h-109q-65 -314 -251 -428q-67 -41 -145 -41 q-139 0 -195 63q-49 51 -49 135.5t33 124t76 39.5t72 -27q-24 -70 -24 -126.5t20.5 -82.5t54 -26t71.5 52q77 108 112 308q18 94 18 165q0 121 -25.5 168t-82 47t-129.5 -67q-38 -33 -84 -82l-104 -115h-2q-22 -260 -149.5 -416t-306.5 -156q-218 0 -282 161q-22 57 -22 134 t17 170h-143l-95 -458h-275zM707 318q0 -91 16 -116t35 -31.5t49.5 -6.5t65.5 30.5t64 83.5q66 114 88 282q-51 12 -51 84.5t58 98.5q-3 61 -18.5 86t-59.5 25q-87 0 -167 -190t-80 -346z" />
<glyph unicode="&#x43e;&#x437;" horiz-adv-x="1594" d="M-27 280q0 69 11.5 140t36.5 146q57 171 165 277q128 126 309 126q237 0 244 -295l96 108q165 187 341 187q122 0 201.5 -79.5t79.5 -235t-120 -286.5q-60 -67 -108.5 -93t-66.5 -29q45 -16 91.5 -65.5t64.5 -125.5q110 33 155 78q78 76 121 208h80q-73 -248 -255 -328 q-49 -22 -94 -34q-3 -213 -101 -334t-259 -121q-88 0 -150 45q-63 46 -63 140q0 180 299 280q-6 202 -137 202h-58l24 114h56q101 0 167 95t66 232q0 164 -112 164q-83 0 -235 -150q-41 -41 -86 -81h-3q-22 -260 -149.5 -416t-305.5 -156q-219 0 -283 161q-22 57 -22 126z M257 318q0 -92 16.5 -116.5t35 -31t50.5 -6.5q65 0 129 114t87 282q-51 13 -51 84.5t59 98.5q-4 61 -19 86t-60 25q-87 0 -167 -193t-80 -343zM857 -265q0 -26 16 -44t43 -18q48 0 83 66t46 158q-188 -66 -188 -162z" />
<glyph unicode="&#x44e;&#x437;" horiz-adv-x="2044" d="M-73 0l202 952h275l-80 -381h148q92 270 300 364q76 34 173 34q238 0 244 -295l96 109q161 186 340 186q122 0 201.5 -79.5t79.5 -235t-119 -286.5q-62 -68 -109.5 -93.5t-65.5 -28.5q45 -16 90.5 -65.5t65.5 -125.5q108 33 170 93t106 193h80q-51 -173 -160 -267 q-74 -64 -189 -95q-3 -212 -101.5 -333.5t-258.5 -121.5q-89 0 -151 45q-62 46 -62 140q0 180 299 280q-6 202 -138 202h-58l25 114h55q101 0 167.5 95.5t66.5 231.5q0 164 -112 164q-84 0 -235 -150q-42 -41 -87 -81h-2q-22 -260 -149.5 -416t-306.5 -156q-218 0 -282 161 q-22 57 -22 134t17 170h-143l-95 -458h-275zM707 318q0 -91 16 -116t35 -31.5t49.5 -6.5t65.5 30.5t64 83.5q66 114 88 282q-51 12 -51 84.5t58 98.5q-3 61 -18.5 86t-59.5 25q-87 0 -167 -190t-80 -346zM1307 -265q0 -26 16 -44t42 -18q48 0 83 65.5t47 158.5 q-188 -66 -188 -162z" />
<glyph unicode="&#x43e;&#x43b;" horiz-adv-x="1889" d="M-27 278.5q0 142.5 36 253.5q146 437 486 437q244 0 244 -304q0 -328 -164 -528q106 34 179 80q4 64 34.5 101.5t79.5 37.5t76 -27.5t27 -73.5t-23 -67.5t-52 -18.5q1 -19 15 -39.5t59.5 -20.5t74.5 31q52 54 80 199l29 141q82 398 248 454q53 18 118 18h280l-101 -472 l-33 -147q-12 -55 -12 -80q0 -80 76 -80q57 0 91.5 44t68.5 124h80q-120 -352 -355 -352q-108 0 -166.5 58t-58.5 135.5t42 266.5l84 378q-96 0 -145.5 -80t-84 -240t-57 -248t-54.5 -147q-66 -123 -212 -123q-88 0 -136 44q-48 43 -63 104q-159 -96 -364 -133 q-64 -11 -127 -11q-138 0 -219 71.5t-81 214zM257 318q0 -92 16.5 -116.5t35 -31t53 -6.5t76 42.5t74.5 116.5q73 165 73 376q0 80 -15.5 117.5t-62.5 37.5q-90 0 -170 -193t-80 -343z" />
<glyph unicode="&#x44e;&#x43b;" horiz-adv-x="2338" d="M-73 0l202 952h275l-80 -381h148q92 270 300 364q76 34 173 34q244 0 244 -304q0 -332 -164 -528q106 35 178 80q4 64 35 101.5t79.5 37.5t76 -27.5t27.5 -73.5t-23 -67.5t-53 -18.5q1 -19 15.5 -39.5t59.5 -20.5t74 31q51 53 81 199l28 141q58 280 149 385q77 87 218 87 h280q-111 -515 -129 -594.5t-18 -104.5q0 -80 76 -80q58 0 92 44t68 124h80q-120 -352 -354 -352q-109 0 -167 58t-58 135.5t41 266.5l85 378q-97 0 -146.5 -80t-84 -240t-56.5 -248t-55 -148t-82 -91t-133.5 -31t-132 43t-62.5 105q-163 -96 -364 -133q-65 -11 -127 -11 q-138 0 -219 71.5t-81 228.5q0 72 17 165h-143l-95 -458h-275zM707 318q0 -91 16 -116t35 -31.5t53 -6.5t75.5 42.5t74.5 116.5q73 165 73 376q0 80 -15.5 117.5t-62.5 37.5q-89 0 -169 -190t-80 -346z" />
<glyph unicode="&#x43e;&#x459;" horiz-adv-x="2245" d="M-27 278.5q0 142.5 36 253.5q146 437 486 437q244 0 244 -304q0 -328 -164 -528q106 34 179 80q4 61 34.5 100t79.5 39t76 -27.5t27 -73.5t-23 -67.5t-52 -18.5q1 -19 15 -39.5t59.5 -20.5t74.5 31q52 54 80 199l29 141q82 398 248 454q53 18 118 18h280l-66 -308 q94 38 171 38q133 0 199 -67t66 -178t-65.5 -223t-200.5 -179q-95 -46 -226 -46t-206.5 64.5t-75.5 178.5q0 54 14 109l106 486q-96 0 -145.5 -80t-84 -240t-57 -248t-54.5 -147q-66 -123 -212 -123q-89 0 -137.5 42.5t-63.5 103.5q-159 -97 -362 -131q-64 -11 -127 -11 q-138 0 -219 71.5t-81 214zM257 318q0 -92 16.5 -116.5t35 -31t53 -6.5t76 42.5t74.5 116.5q73 165 73 376q0 80 -15.5 117.5t-62.5 37.5q-90 0 -170 -193t-80 -343zM1652 229q0 -78 82 -78q70 0 128 87.5t58 161.5q0 141 -103 141q-61 0 -112 -34l-48 -225q-5 -17 -5 -53z " />
<glyph unicode="&#x44e;&#x459;" horiz-adv-x="2695" d="M-73 0l202 952h275l-80 -381h148q92 270 300 364q76 34 173 34q244 0 244 -304q0 -332 -164 -528q106 35 178 80q4 61 35 100t79.5 39t76 -27.5t27.5 -73.5t-23 -67.5t-53 -18.5q1 -19 15.5 -39.5t59.5 -20.5t74 31q51 53 81 199l28 141q58 280 149 385q77 87 218 87h280 l-67 -308q91 38 198.5 38t172.5 -66t65 -179q0 -164 -128 -306q-45 -50 -139 -96t-225 -46t-207 64q-74 66 -74 179q0 52 13 109l107 486q-97 0 -146.5 -80t-84 -240t-56.5 -248t-55 -148t-82 -91t-134 -31t-132.5 42t-63.5 104q-163 -97 -362 -131q-64 -11 -126 -11 q-139 0 -220 71.5t-81 228.5q0 72 17 165h-143l-95 -458h-275zM707 318q0 -91 16 -116t35 -31.5t53 -6.5t75.5 42.5t74.5 116.5q73 165 73 376q0 80 -15.5 117.5t-62.5 37.5q-89 0 -169 -190t-80 -346zM2101 229q0 -78 82 -78q69 0 128 87.5t59 161.5q0 141 -104 141 q-60 0 -112 -34l-48 -225q-5 -17 -5 -53z" />
<glyph unicode="&#x43e;&#x43c;" horiz-adv-x="2298" d="M-27 278.5q0 142.5 36 253.5q146 437 486 437q244 0 244 -304q0 -328 -164 -528q106 34 179 80q2 64 32.5 99t80.5 35t77 -27.5t27 -73.5t-23 -68t-52 -18q-2 -22 12.5 -47.5t63 -25.5t80.5 34q57 59 85 212l28 143l102 472h267l40 -731l354 731h282 q-111 -515 -129 -594.5t-18 -104.5q0 -80 76 -80q58 0 92 44t68 124h80q-120 -352 -354 -352q-109 0 -167 58t-58 140t40 257l30 135l-282 -579h-266l-35 581l-24 -120q-23 -114 -44.5 -202t-54.5 -147q-65 -123 -201 -123q-82 0 -130.5 42.5t-68.5 105.5 q-159 -96 -364 -133q-64 -11 -127 -11q-138 0 -219 71.5t-81 214zM257 318q0 -92 16.5 -116.5t35 -31t53 -6.5t76 42.5t74.5 116.5q73 165 73 376q0 80 -15.5 117.5t-62.5 37.5q-90 0 -170 -193t-80 -343z" />
<glyph unicode="&#x44e;&#x43c;" horiz-adv-x="2748" d="M-73 0l202 952h275l-80 -381h148q92 270 300 364q76 34 173 34q244 0 244 -304q0 -332 -164 -528q106 35 178 80q2 64 32.5 99t80.5 35t77.5 -27.5t27.5 -73.5t-23 -68t-53 -18q-2 -22 13 -47.5t63.5 -25.5t80.5 33.5t52 88t33 124t28 143.5l101 472h267l40 -731l354 731 h282q-111 -515 -129 -594.5t-18 -104.5q0 -80 76 -80q58 0 92.5 44t67.5 124h80q-120 -352 -354 -352q-110 0 -167 58t-57 140t40 257l29 135l-281 -579h-266l-35 581l-25 -120q-51 -262 -90.5 -336t-87 -105t-126 -31t-127.5 43t-67 105q-163 -96 -364 -133 q-65 -11 -127 -11q-138 0 -219 71.5t-81 228.5q0 72 17 165h-143l-95 -458h-275zM707 318q0 -91 16 -116t35 -31.5t53 -6.5t75.5 42.5t74.5 116.5q73 165 73 376q0 80 -15.5 117.5t-62.5 37.5q-89 0 -169 -190t-80 -346z" />
<glyph unicode="&#x44e;&#x445;" horiz-adv-x="2072" d="M-73 0l202 952h275l-80 -381h148q92 270 300 364q76 34 173 34q239 0 244 -298q106 10 234 190l-18 91h269l69 -377q187 169 187 269q0 13 -2 23q-19 -4 -33 -4q-89 0 -89 106q0 90 115 90q55 0 87.5 -49.5t32.5 -132t-66 -181t-212 -229.5l24 -126l12 -56 q22 -112 100 -112q55 0 102 47q48 48 69 121h80q-123 -352 -392 -352q-102 0 -153 79.5t-87 272.5l-4 13q-81 -57 -112 -93q-59 -67 -59 -120q9 2 24 2q50 0 64 -30q14 -31 14 -64q0 -104 -106 -104q-125 0 -125 135q0 89 85.5 198.5t195.5 182.5l-53 295 q-117 -138 -257 -183q-23 -263 -150.5 -421.5t-307.5 -158.5q-218 0 -282 161q-22 57 -22 134t17 170h-143l-95 -458h-275zM707 318q0 -91 16 -116t35 -31.5t49.5 -6.5t65.5 30t64 83q66 114 88 281q-51 12 -51 89t58 98q-3 60 -19.5 84.5t-60.5 24.5q-85 0 -165 -190 t-80 -346z" />
<glyph unicode="&#x43e;&#x44d;" horiz-adv-x="1651" d="M-27 280q0 69 11.5 140t36.5 146q57 171 165 277q128 126 309 126q244 0 244 -304v-2q34 23 72 62q238 244 450 244q142 0 228 -75t86 -236q0 -207 -126 -414q-155 -255 -440 -255q-115 0 -179.5 54t-64.5 159.5t68 137.5q21 11 52.5 11t61.5 -27q-25 -69 -25 -130 q0 -105 105 -105q78 0 146 109t99 260h-236l25 113h228q5 33 5 73q0 97 -38 131t-114.5 34t-200.5 -93l-138 -106q-35 -26 -67 -45h-3q-22 -260 -149.5 -416t-305.5 -156q-219 0 -283 161q-22 57 -22 126zM257 318q0 -92 16.5 -116.5t35 -31t50.5 -6.5q65 0 129 114t87 282 q-51 13 -51 84.5t59 98.5q-4 61 -19 86t-60 25q-87 0 -167 -193t-80 -343z" />
<glyph unicode="&#x44e;&#x44d;" horiz-adv-x="2100" d="M-73 0l202 952h275l-80 -381h148q92 270 300 364q76 34 173 34q244 0 244 -304v-2q33 22 71 61.5t68 65.5l61 52q164 127 314 127t236 -75t86 -236q0 -124 -41 -234q-163 -435 -510 -435q-131 0 -194.5 54t-63.5 159t67 138q20 11 52 11t61 -27q-24 -70 -24 -130 q0 -105 104 -105q78 0 146 109t99 260h-236l25 113h229q4 39 4 73q0 97 -38 131t-100 34t-112 -27.5t-102 -65.5l-105 -80q-53 -42 -101 -71h-2q-22 -260 -149.5 -416t-306.5 -156q-218 0 -282 161q-22 57 -22 134t17 170h-143l-95 -458h-275zM707 318q0 -91 16 -116 t35 -31.5t49.5 -6.5t65.5 30.5t64 83.5q66 114 88 282q-51 12 -51 84.5t58 98.5q-3 61 -18.5 86t-59.5 25q-87 0 -167 -190t-80 -346z" />
<glyph unicode="&#x43f;&#x447;" horiz-adv-x="1923" d="M-73 0l202 952h275l-21 -98q93 106 222 106q92 0 152 -50q60 -51 60 -149.5t-31 -222.5l-46 -185q-15 -60 -15 -98t16.5 -60t62 -22t78.5 32q55 55 95 225l40 174l75 348h273l-73 -354q-7 -27 -7 -53q0 -78 58 -78q83 0 130 100q14 31 22 67l66 318h275l-137 -647 q-7 -34 -7 -68q0 -64 78 -64q106 0 153 168h80q-70 -205 -193 -293q-84 -59 -179.5 -59t-154.5 54t-59 174q0 54 15 124l10 48q-97 -107 -218.5 -107t-176.5 80q-56 -183 -143 -278t-210 -95t-177 62t-54 146.5t43 255.5t43 236q0 98 -69 98t-123 -109q-16 -31 -26 -67 l-129 -611h-275z" />
<glyph unicode="&#x441;&#x437;" horiz-adv-x="1668" d="M-25 291q0 219 111 422q83 154 229 221q76 35 156 35q228 0 228 -173q0 -72 -29.5 -106t-67 -34t-71.5 22q23 61 23 112q0 79 -54.5 79t-114.5 -99q-86 -139 -119 -347q-9 -62 -9 -137t34.5 -106t108.5 -31q137 0 232 110q62 70 137 252l53 119q89 201 184 270t228 69 t215.5 -79.5t82.5 -235t-120 -286.5q-61 -67 -109 -93t-67 -29q46 -16 92.5 -65.5t63.5 -125.5q108 33 170 93t106 193h80q-73 -249 -254 -329q-50 -21 -94 -33q-4 -213 -101.5 -334t-258.5 -121q-89 0 -151 45q-62 46 -62 140q0 180 298 280q-5 202 -136 202h-60l25 114h55 q102 0 168 95t66 232q0 164 -116 164q-126 0 -217 -160q-32 -58 -59 -123l-47 -109q-189 -415 -532 -415q-135 0 -216 70t-81 232zM931 -265q0 -26 16 -44t43 -18q47 0 82.5 65.5t47.5 158.5q-189 -66 -189 -162z" />
<glyph unicode="&#x443;&#x458;" horiz-adv-x="1381" d="M-15 217q0 54 15 124l129 611h275l-137 -647q-6 -24 -6 -48q0 -84 57 -84q100 0 153 168l129 611h274l-202 -945l185 20l199 925h274l-187 -874q87 30 147.5 88.5t90.5 174.5h80q-61 -228 -225 -308q-51 -24 -111 -39l-29 -147q-67 -323 -345 -323q-152 0 -202 112 q-94 -112 -252 -112q-89 0 -151 45q-62 46 -62 140q0 196 307 258l28 130q-95 -108 -230 -108q-86 0 -145 54t-59 174zM189 -265q0 -22 16 -42t47.5 -20t62 41t49.5 128l9 44q-184 -46 -184 -151zM600 -274q31 -33 70 -33q67 0 98 32.5t51 116.5l23 109l-184 -20l-18 -84 q-10 -50 -40 -121zM1076 1207q0 62 43 107.5t106.5 45.5t108.5 -45t45 -108t-45.5 -106.5t-108 -43.5t-105.5 44q-44 44 -44 106z" />
<glyph unicode="&#x454;&#x437;" horiz-adv-x="1668" d="M-25 291q0 219 111 422q83 154 229 221q76 35 156 35q228 0 228 -173q0 -72 -29.5 -106t-67 -34t-71.5 22q23 61 23 112q0 79 -53 79q-84 0 -161 -185q-22 -54 -39 -113h226l-24 -113h-231q-15 -82 -15 -164.5t34.5 -113.5t108.5 -31q137 0 232 110q62 70 137 252l53 119 q89 201 184 270t228 69t215.5 -79.5t82.5 -235t-120 -286.5q-61 -67 -109 -93t-67 -29q46 -16 92.5 -65.5t63.5 -125.5q108 33 170 93t106 193h80q-73 -249 -254 -329q-50 -21 -94 -33q-4 -213 -101.5 -334t-258.5 -121q-89 0 -151 45q-62 46 -62 140q0 180 298 280 q-5 202 -136 202h-60l25 114h55q102 0 168 95t66 232q0 164 -116 164q-126 0 -217 -160q-32 -58 -59 -123l-47 -109q-189 -415 -532 -415q-135 0 -216 70t-81 232zM931 -265q0 -26 16 -44t43 -18q47 0 82.5 65.5t47.5 158.5q-189 -66 -189 -162z" />
<glyph unicode="&#x454;&#x445;" horiz-adv-x="1437" d="M-38 283.5q0 68.5 11 138.5t36 143q58 173 160 277q128 127 301.5 127t205.5 -112q9 -31 9 -84.5t-31 -85t-68 -31.5t-68 22q23 59 23 112q0 79 -53 79t-108 -86t-94 -212h241l-24 -113h-246q-13 -61 -13 -125q0 -188 192 -188q171 0 341 123q57 41 105 94l-109 590h269 l74 -411q181 194 181 303q0 13 -2 23q-18 -4 -34 -4q-87 0 -87 106q0 90 113 90q56 0 89 -49q34 -49 34 -106q0 -101 -63 -205t-210 -265l17 -93l12 -56q23 -112 101 -112q55 0 102 47q47 48 69 121h80q-92 -263 -268 -330q-58 -22 -118 -22q-98 0 -148 62t-81 200 q-121 -119 -283.5 -190.5t-318.5 -71.5q-238 0 -312 165q-27 61 -27 129.5z" />
<glyph unicode="&#x441;&#x447;" horiz-adv-x="1693" d="M-25 291q0 219 111 422q83 154 229 221q76 35 156 35q228 0 228 -173q0 -72 -29.5 -106t-67 -34t-71.5 22q23 61 23 112q0 79 -54.5 79t-114.5 -99q-86 -139 -119 -347q-9 -62 -9 -137q0 -137 130 -137q112 0 238 143t167 339l69 321h275l-75 -354q-5 -30 -5 -53 q0 -78 56 -78t96.5 46t56.5 121l67 318h273l-137 -647q-7 -34 -7 -68q0 -64 78 -64q102 0 155 168h80q-71 -205 -195 -293q-84 -59 -179 -59t-155 54q-58 54 -58 174q0 54 15 124l10 48q-98 -107 -232.5 -107t-181.5 116q-143 -274 -363 -374q-78 -35 -163 -35 q-135 0 -216 70t-81 232z" />
<glyph unicode="&#x454;&#x447;" horiz-adv-x="1693" d="M-25 291q0 219 111 422q83 154 229 221q76 35 156 35q228 0 228 -173q0 -72 -29.5 -106t-67 -34t-71.5 22q23 61 23 112q0 79 -53 79q-84 0 -161 -185q-22 -54 -39 -113h226l-24 -113h-231q-15 -82 -15 -164.5t34.5 -113.5t93.5 -31q119 0 241 144q129 148 170 349 l65 310h275l-75 -354q-5 -30 -5 -53q0 -78 56 -78t96.5 46t56.5 121l67 318h273l-137 -647q-7 -34 -7 -68q0 -64 78 -64q102 0 155 168h80q-71 -205 -195 -293q-84 -59 -179 -59t-155 54q-58 54 -58 174q0 54 15 124l10 48q-98 -107 -232.5 -107t-181.5 116 q-143 -274 -363 -374q-78 -35 -163 -35q-135 0 -216 70t-81 232z" />
<glyph unicode="&#x442;&#x447;" horiz-adv-x="2393" d="M-73 0l202 952h275l-21 -98q95 108 233 108q168 0 195 -164q105 162 265 162q90 0 151 -50q60 -51 60 -147.5t-31 -223.5l-45 -186q-15 -60 -15 -98t16.5 -60t62.5 -22t78 33q61 62 102 242l106 504h275l-75 -354q-5 -30 -5 -53q0 -78 58 -78q82 0 130 100q14 31 22 67 l66 318h274l-136 -647q-9 -33 -9 -67q0 -65 78 -65q107 0 155 168h80q-71 -205 -194 -293q-83 -59 -178.5 -59t-155.5 54q-58 54 -58 174q0 54 15 124l9 48q-97 -107 -218 -107t-176 80q-56 -183 -144 -278t-210.5 -95t-176 61t-53.5 146.5t42.5 256.5t42.5 236 q0 98 -68.5 98t-122.5 -109q-16 -31 -26 -67l-130 -611h-274l140 658q5 22 5 47q0 84 -56 84t-95.5 -52.5t-60.5 -125.5l-129 -611h-275z" />
<glyph unicode="&#x441;&#x44a;" horiz-adv-x="1601" d="M-25 291q0 219 111 422q83 154 229 221q76 35 156 35q228 0 228 -173q0 -72 -29.5 -106t-67 -34t-71.5 22q23 61 23 112q0 79 -54.5 79t-114.5 -99q-86 -139 -119 -347q-9 -62 -9 -137t34.5 -106t107 -31t135.5 33q113 60 243 220l122 156q51 79 112 152l118 139h-93 q-105 0 -105 -27q0 -7 3 -8t10.5 -6t7.5 -44.5t-32 -63.5t-59 -24q-47 0 -73 22.5t-26 60.5q0 75 60.5 134t160.5 59h342l-56 -91q-75 -118 -119 -238q94 59 192.5 59t164 -59.5t65.5 -171.5q0 -211 -147.5 -336.5t-351.5 -125.5t-268 136q-22 46 -22 109v25q0 13 4 27 q-249 -297 -507 -297q-305 0 -305 302zM1054 247q0 -96 75 -96q80 0 136.5 95t56.5 195t-93 100q-62 0 -113 -32q-51 -139 -56.5 -188t-5.5 -74z" />
<glyph unicode="&#x45e;&#x458;" horiz-adv-x="1381" d="M-15 217q0 54 15 124l129 611h275l-137 -647q-6 -24 -6 -48q0 -84 57 -84q100 0 153 168l129 611h274l-202 -945l46 4q21 2 42 6l97 10l199 925h274l-187 -874q87 30 147.5 88.5t90.5 174.5h80q-61 -228 -225 -308q-51 -24 -111 -39l-29 -147q-67 -323 -345 -323 q-152 0 -202 112q-94 -112 -252 -112q-89 0 -151 45q-62 46 -62 140q0 196 307 258l28 130q-95 -108 -230 -108q-86 0 -145 54t-59 174zM189 -265q0 -22 16 -42t47.5 -20t62 41t49.5 128l9 44q-184 -46 -184 -151zM247 1202q0 68 34.5 107t92.5 39q119 0 119 -108 q0 -56 -46 -86q30 -7 77 -7q207 0 293 223h80q-89 -261 -276 -310q-59 -15 -151 -15t-157.5 44.5t-65.5 112.5zM600 -274q31 -33 70 -33q67 0 98 32.5t51 116.5l23 109l-42 -4q-23 -2 -44 -6l-98 -10l-18 -84q-10 -50 -40 -121zM1076 1207q0 62 43 107.5t106.5 45.5 t108.5 -45t45 -108t-45.5 -106.5t-108 -43.5t-105.5 44q-44 44 -44 106z" />
<glyph unicode="&#x443;&#x447;" horiz-adv-x="1883" d="M-15 217q0 54 15 124l129 611h275l-137 -647q-6 -24 -6 -48q0 -84 54.5 -84t92.5 45q37 45 59 111l133 623h274l-189 -883q148 52 213 199q24 54 39 128l114 556h274l-73 -354q-7 -27 -7 -53q0 -78 58 -78q112 0 151 164l67 321h275l-137 -647q-7 -34 -7 -68 q0 -64 78 -64q106 0 153 168h80q-70 -205 -193 -293q-84 -59 -179.5 -59t-154.5 54t-59 174q0 54 15 124l10 48q-97 -107 -217.5 -107t-177.5 78q-70 -301 -338 -375l-29 -138q-36 -183 -145 -264q-80 -59 -183.5 -59t-165.5 45q-62 46 -62 146q0 174 310 278l24 102 q-99 -106 -229 -106q-86 0 -145 54t-59 174zM189 -265q0 -38 36 -57q12 -5 35.5 -5t54 41t49.5 128l11 55q-186 -67 -186 -162z" />
<glyph unicode="&#x45e;&#x447;" horiz-adv-x="1883" d="M-15 217q0 54 15 124l129 611h275l-137 -647q-6 -24 -6 -48q0 -84 54.5 -84t92.5 45q37 45 59 111l133 623h274l-189 -883q148 52 213 199q24 54 39 128l114 556h274l-73 -354q-7 -27 -7 -53q0 -78 57 -78t97.5 46t55.5 121l66 318h275l-137 -647q-7 -34 -7 -68 q0 -64 78 -64q106 0 153 168h80q-70 -205 -193 -293q-84 -59 -179.5 -59t-154.5 54t-59 174q0 54 15 124l10 48q-97 -107 -217.5 -107t-177.5 78q-70 -301 -338 -375l-29 -138q-36 -183 -145 -264q-80 -59 -183.5 -59t-165.5 45q-62 46 -62 146q0 174 310 278l24 102 q-99 -106 -229 -106q-86 0 -145 54t-59 174zM189 -265q0 -38 36 -57q12 -5 35.5 -5t54 41t49.5 128l11 55q-186 -67 -186 -162zM247 1202q0 68 34.5 107t92.5 39q119 0 119 -108q0 -56 -46 -86q30 -7 77 -7q207 0 293 223h80q-89 -261 -276 -310q-59 -15 -151 -15 t-157.5 44.5t-65.5 112.5z" />
<glyph unicode="&#x445;&#x447;" horiz-adv-x="1955" d="M0 341q46 199 85 284.5t66 131.5q59 96 132.5 150.5t149 54.5t113 -22t68 -66t42.5 -138l16 -145q159 177 166 274q-16 -4 -33 -4q-89 0 -89 106q0 50 39 72t78 22q62 0 90.5 -52t28.5 -109t-16 -100q-31 -82 -132 -197l-117 -131l18 -133q11 -91 32.5 -120t41 -37.5 t56.5 -8.5q77 0 132 119q37 84 82 302l74 358h275l-75 -354q-5 -30 -5 -53q0 -78 56 -78t97 47q40 48 56 120l67 318h274l-136 -647q-9 -33 -9 -67q0 -65 78 -65q107 0 155 168h80q-71 -205 -194 -293q-83 -59 -178.5 -59t-155.5 54q-58 54 -58 174q0 54 15 124l9 48 q-97 -107 -220 -107t-174 80q-115 -373 -375 -373q-100 0 -161.5 78t-90.5 253l-262 -320h-138l385 434l-31 213q-15 97 -30.5 127.5t-42.5 30.5q-61 0 -134 -121t-120 -343h-80z" />
<glyph unicode="&#x445;&#x44a;" horiz-adv-x="1915" d="M0 341q46 199 85 284.5t66 131.5q59 96 132.5 150.5t149 54.5t113 -22t68 -66t42.5 -138l16 -145q159 177 166 274q-16 -4 -33 -4q-89 0 -89 106q0 50 39 72t78 22q62 0 90.5 -52t28.5 -109t-16 -100q-31 -82 -132 -197l-117 -131l18 -133q11 -91 32.5 -120t41 -37.5 t46 -8.5t56 16t57.5 41q52 44 102 116.5t79.5 128t61.5 103.5q65 94 143 186l74 85h-93q-105 0 -105 -27q0 -7 3 -8t10.5 -6t7.5 -44.5t-32 -63.5t-60 -24q-47 0 -73 22.5t-26 60.5q0 76 60.5 134.5t161.5 58.5h342q-75 -121 -89 -145l-32 -59q-35 -68 -54 -125 q94 59 198 59q149 0 204 -130q19 -45 19 -129t-40.5 -168t-109.5 -143q-143 -123 -351 -123q-119 0 -199.5 54t-88.5 170q-162 -224 -355 -224q-145 0 -207 180q-22 63 -36 151l-262 -320h-138l385 434l-31 213q-15 97 -30.5 127.5t-42.5 30.5q-61 0 -134 -121t-120 -343 h-80zM1322 247q0 -96 77.5 -96t134 95t56.5 195t-93 100q-63 0 -112 -32q-54 -136 -58.5 -186.5t-4.5 -75.5z" />
<glyph unicode="&#x447;&#x447;" horiz-adv-x="1923" d="M47 511q0 49 16 123l66 318h275l-75 -354q-5 -30 -5 -53q0 -78 57 -78q104 0 152 167l67 318h274l-137 -647q-8 -33 -8 -67q0 -65 78 -65q122 0 187 304q11 52 19 96.5t14 68.5l65 310h273l-73 -354q-7 -27 -7 -53q0 -78 57 -78t97.5 46t55.5 121l66 318h275l-137 -647 q-7 -34 -7 -68q0 -64 78 -64q106 0 153 168h80q-70 -205 -193 -293q-84 -59 -179.5 -59t-154.5 54t-59 174q0 54 15 124l10 48q-97 -107 -220.5 -107t-174.5 80q-117 -373 -394 -373q-82 0 -141 56q-57 57 -57 166q0 64 16 130l9 48q-97 -107 -229 -107q-85 0 -145 54 q-59 54 -59 175z" />
<glyph unicode="&#x448;&#x447;" horiz-adv-x="2393" d="M-15 217q0 54 15 124l129 611h275l-137 -647q-6 -30 -6 -54q0 -78 57 -78q100 0 153 168l129 611h274l-137 -647q-6 -27 -6 -54q0 -78 58 -78q100 0 152 168l129 611h275l-138 -647q-7 -34 -7 -68q0 -64 78 -64q122 0 187 304q11 52 19 96.5t13 68.5l64 310h275l-75 -354 q-5 -30 -5 -53q0 -78 58 -78q82 0 130 100q14 31 22 67l66 318h274l-136 -647q-9 -33 -9 -67q0 -65 78 -65q107 0 155 168h80q-71 -205 -194 -293q-83 -59 -178.5 -59t-155.5 54q-58 54 -58 174q0 54 15 124l9 48q-97 -107 -220 -107t-174 80q-82 -262 -252 -343 q-62 -30 -137 -30q-169 0 -188 180q-111 -180 -281.5 -180t-188.5 180q-112 -180 -282 -180q-86 0 -145 54t-59 174z" />
<glyph unicode="&#x44b;&#x447;" horiz-adv-x="2204" d="M-11 232q0 52 13 109l125 611h264l-142 -670q-5 -17 -5 -53q0 -78 82.5 -78t144.5 93q62 94 62 223q0 47 -28 72q-22 -17 -52.5 -17t-59.5 18q-28 20 -28 64t34.5 65.5t75 21.5t76.5 -11q70 31 130 64l232 137q59 35 127 71h118l-101 -472l-34 -147q-12 -55 -12 -80 q0 -80 76 -80q122 0 187 304q11 52 19 96.5t14 68.5l65 310h273l-73 -354q-7 -27 -7 -53q0 -78 58 -78q83 0 129 100q15 31 23 67l66 318h275l-137 -647q-7 -34 -7 -68q0 -64 78 -64q102 0 154 168h80q-71 -205 -193 -293q-85 -59 -180.5 -59t-154.5 54t-59 174q0 54 15 124 l9 48q-96 -107 -217 -107t-174 76q-74 -256 -231 -338q-57 -29 -128 -31q-110 7 -166 65q-54 58 -54 142q0 22 2 38l5 36q3 18 8 45l90 418l-214 -124q45 -71 45 -204q0 -132 -101 -262q-119 -154 -325 -154q-131 0 -201.5 64t-70.5 179z" />
<glyph unicode="&#x456;&#x447;" horiz-adv-x="1453" d="M-15 193q0 72 15 148l129 611h275l-137 -647q-8 -34 -8 -68q0 -64 78 -64q121 0 187 304q11 52 19 96.5t13 68.5l65 310h275l-75 -354q-5 -30 -5 -53q0 -78 56 -78q83 0 131 100q13 31 22 67l67 318h273l-136 -647q-8 -34 -8 -68q0 -64 78 -64q103 0 155 168h80 q-71 -205 -195 -293q-83 -59 -178.5 -59t-155.5 54q-58 54 -58 174q0 54 15 124l9 48q-97 -107 -220 -107t-173 80q-121 -373 -389 -373q-147 0 -191 132q-13 41 -13 72zM167 1205q0 63 43.5 108t107 45t108.5 -45q45 -44 45 -108q0 -63 -45.5 -106t-108 -43t-106.5 43 q-44 44 -44 106z" />
<glyph unicode="&#x457;&#x447;" horiz-adv-x="1453" d="M-15 193q0 72 15 148l129 611h275l-137 -647q-8 -34 -8 -68q0 -64 78 -64q121 0 187 304q11 52 19 96.5t13 68.5l65 310h275l-75 -354q-5 -30 -5 -53q0 -78 56 -78t96.5 46t56.5 121l67 318h273l-136 -647q-8 -34 -8 -68q0 -64 78 -64q103 0 155 168h80 q-71 -205 -195 -293q-83 -59 -178.5 -59t-155.5 54q-58 54 -58 174q0 54 15 124l9 48q-97 -107 -220 -107t-173 80q-121 -373 -389 -373q-147 0 -191 132q-13 41 -13 72zM31 1206.5q0 48.5 32 82.5q34 34 82.5 34t83 -33.5t34.5 -82.5t-34 -83q-36 -32 -71 -32q-61 0 -94 33 t-33 81.5zM373 1219q0 37 33.5 70.5t82.5 33.5t82.5 -33.5t33.5 -82.5t-34 -82t-71 -33q-89 0 -119 69q-8 21 -8 58z" />
<glyph unicode="&#x457;&#x457;" horiz-adv-x="1034" d="M-15 217q0 54 15 124l129 611h275l-137 -647q-8 -34 -8 -68q0 -64 78 -64q55 0 103 48.5t69 119.5l129 611h274l-136 -647q-9 -33 -9 -67q0 -65 78 -65q56 0 104 48.5t68 119.5h80q-122 -352 -405 -352q-70 0 -125 40.5t-69 128.5q-124 -169 -309 -169q-86 0 -145 54 t-59 174zM31 1206.5q0 48.5 32 82.5q34 34 82.5 34t83 -33.5t34.5 -82.5t-34 -83q-36 -32 -71 -32q-61 0 -94 33t-33 81.5zM314 1206.5q0 49.5 33.5 83t82 33.5t83 -33.5t34.5 -82.5t-35 -83q-35 -32 -71 -32q-60 0 -93.5 32.5t-33.5 82zM598 1206.5q0 49.5 33.5 83t82 33.5 t82.5 -33.5t34 -82.5t-34 -83q-35 -32 -71 -32q-60 0 -93.5 32.5t-33.5 82zM882 1206.5q0 49.5 33.5 83t81.5 33.5t82.5 -33.5t34.5 -82.5t-34 -83q-36 -32 -72 -32q-59 0 -92.5 32.5t-33.5 82z" />
<glyph unicode="&#x45b;&#x458;" horiz-adv-x="1375" d="M-73 0l202 952h-102l20 104h106l51 239l281 39l-58 -278h238l-23 -104h-238l-50 -230q94 107 225 107q92 0 151.5 -51t59.5 -165q0 -29 -11 -84l-110 -522l43 4q21 2 42 6l97 10l198 925h274l-184 -874q87 32 147.5 90.5t88.5 172.5h80q-66 -228 -225 -306 q-51 -24 -110 -41l-31 -147q-36 -182 -146 -264q-80 -59 -198 -59q-148 0 -202 111q-89 -111 -236 -111t-197 104q-17 34 -17 86q0 193 307 255l103 481q7 30 10 48l6 30q3 21 3 30q0 98 -69 98q-51 0 -89.5 -52.5t-60.5 -123.5l-101 -480h-275zM198 -265q0 -22 16.5 -42 t47.5 -20t61.5 41t49.5 128l10 45q-185 -46 -185 -152zM596 -276q27 -31 82 -31q52 0 76 24q41 42 59 125l23 109l-43 -4q-22 -2 -42 -6l-100 -10l-17 -84q-21 -82 -38 -123zM1070 1207q0 62 43.5 107.5t106.5 45.5t108.5 -45t45.5 -108t-46 -106.5t-108 -43.5t-106 44 t-44 106z" />
<glyph unicode="&#x45b;&#x447;" horiz-adv-x="1886" d="M-73 0l202 952h-102l20 104h106l51 239l281 39l-58 -278h238l-23 -104h-238l-50 -230q94 107 225 107q92 0 151.5 -51t59.5 -165q0 -15 -2 -38l-6 -31q-3 -19 -8 -47l-94 -424q148 58 208 197q23 53 37 126l115 556h274l-74 -354q-6 -30 -6 -53q0 -78 56.5 -78t97.5 47 q40 48 55 120l67 318h275l-137 -647q-8 -33 -8 -67q0 -65 78 -65q107 0 154 168h80q-71 -205 -193 -293q-84 -59 -180 -59t-155 54t-59 174q0 50 16 124l9 48q-96 -107 -216.5 -107t-177.5 78q-68 -297 -337 -375l-30 -138q-62 -269 -233 -311q-49 -12 -116.5 -12t-126.5 45 q-60 46 -60 149t92 173t224 107l65 299q24 110 32 149l9 58q7 34 7 54q0 98 -69 98q-51 0 -89.5 -52.5t-60.5 -123.5l-101 -480h-275zM200 -265q0 -38 36 -57q12 -5 35.5 -5t54 41t43.5 103.5t20 87.5q-189 -72 -189 -170z" />
<glyph unicode="&#x458;&#x458;" horiz-adv-x="914" d="M-383 -291q0 194 309 258l207 985h274l-201 -945l45 4q21 2 42 6l98 10l198 925h274l-187 -874q88 30 148 88.5t90 174.5h80q-64 -229 -225 -308q-51 -24 -110 -39l-30 -147q-67 -323 -345 -323q-150 0 -202 112q-92 -112 -251 -112q-89 0 -151.5 46t-62.5 139z M-278 -265q0 -22 16 -42t47.5 -20t62 41t49.5 128l10 44q-81 -22 -133 -57t-52 -94zM133 -274q32 -33 70 -33q67 0 98 32.5t51 116.5l23 109l-42 -4q-22 -2 -44 -6l-98 -10l-18 -84q-12 -60 -40 -121zM153 1207q0 62 43 107.5t106 45.5t108 -45t45 -108t-45 -106.5 t-107.5 -43.5t-106.5 44q-43 44 -43 106zM609 1207q0 62 44 108q45 45 107.5 45t107.5 -45q44 -45 44 -108t-45 -106.5t-107 -43.5t-107 44q-44 44 -44 106z" />
<glyph unicode="&#x458;&#x447;" horiz-adv-x="1415" d="M-385 -291q0 154 203 242q56 24 109 42l204 959h274l-188 -883q100 35 160.5 108.5t91.5 218.5l114 556h274l-74 -354q-6 -30 -6 -53q0 -78 56.5 -78t97 46t56.5 121l67 318h273l-137 -647q-7 -34 -7 -68q0 -64 78 -64q102 0 154 168h80q-70 -205 -193 -293 q-85 -59 -180 -59t-155 54q-58 54 -58 174q0 54 14 124l11 48q-98 -107 -219 -107t-176 78q-71 -300 -339 -375l-29 -138q-36 -183 -145 -264q-80 -59 -182.5 -59t-165.5 46t-63 139zM-280 -265q0 -38 36 -57q12 -5 35.5 -5t54 41t49.5 128l12 55q-187 -65 -187 -162z M153 1207q0 62 43 107.5t106 45.5t108 -45t45 -108t-45 -106.5t-107.5 -43.5t-106.5 44q-43 44 -43 106z" />
<glyph unicode="&#x437;&#x437;" horiz-adv-x="1599" d="M-61 217q0 82 31 128q32 46 70 64q134 240 234 565l282 37q8 -179 15 -299l23 -302q4 -45 4 -87t-7 -79q7 9 17 28l26 44q25 46 57 124l60 149q62 151 108.5 216t87.5 97q86 67 219 67t215 -79t82 -223q0 -215 -185 -361q-65 -52 -111 -60q45 -17 92 -67t64 -124 q114 35 158 78q80 78 119 208h80q-71 -247 -255 -328q-50 -22 -93 -34q-4 -214 -102 -334.5t-259 -120.5q-88 0 -151 45q-62 46 -62 140q0 180 299 280q-3 104 -36.5 153t-100.5 49h-59l24 114h56q102 0 168.5 95.5t66.5 217.5q0 178 -117 178q-95 0 -160 -96t-120 -238 t-104.5 -224t-114.5 -138q-132 -111 -343 -111q-134 0 -206 73t-72 155zM40 272q0 -132 100 -132q182 0 182 176q0 49 -8 116l-11 109q-10 104 -17 226q-49 -156 -155 -360q44 -20 44 -60.5t-23 -70t-61.5 -29.5t-50.5 25zM863 -265q0 -26 16.5 -44t43.5 -18q47 0 82 66 t46 158q-188 -66 -188 -162z" />
<glyph unicode="&#x437;&#x445;" horiz-adv-x="1384" d="M-61 217q0 82 31 128q32 46 70 64q134 240 234 565l282 37q8 -179 15 -299l23 -302q4 -45 4 -90t-9 -88q155 66 238 139l-107 581h269l74 -411q180 193 180 303q0 13 -1 23q-16 -4 -33 -4q-89 0 -89 106q0 43 30 66.5t85.5 23.5t88 -49.5t32.5 -131t-66 -187.5t-207 -255 l29 -151q24 -112 102 -112q55 0 102.5 48.5t68.5 119.5h80q-123 -352 -393 -352q-93 0 -141 63t-86 219q-63 -46 -141 -81l-118 -54q-40 -18 -70 -33q-108 -114 -299 -114q-134 0 -206 73t-72 155zM40 272q0 -132 100 -132q182 0 182 176q0 49 -8 116l-11 109 q-10 104 -17 226q-49 -156 -155 -360q44 -20 44 -60.5t-23 -70t-61.5 -29.5t-50.5 25z" />
<glyph unicode="&#x437;&#x447;" horiz-adv-x="1731" d="M-61 217q0 82 31 128q32 46 70 64q134 240 234 565l282 37q8 -179 15 -299l23 -302q4 -45 4 -90t-9 -88q80 60 153 186t92 226l65 308h275l-75 -354q-5 -30 -5 -53q0 -78 56 -78q83 0 130 100q15 31 23 67l67 318h273l-136 -647q-8 -34 -8 -68q0 -64 78 -64 q103 0 155 168h80q-71 -205 -194 -293q-84 -59 -179.5 -59t-155.5 54q-58 54 -58 174q0 54 15 124l9 48q-97 -107 -235.5 -107t-183.5 131q-76 -178 -250 -288q-48 -30 -93 -49q-108 -87 -256 -87t-220 73t-72 155zM40 272q0 -132 100 -132q182 0 182 176q0 49 -8 116 l-11 109q-10 104 -17 226q-49 -156 -155 -360q44 -20 44 -60.5t-23 -70t-61.5 -29.5t-50.5 25z" />
<glyph unicode="&#x45f;&#x447;" horiz-adv-x="1923" d="M-15 217q0 54 15 124l129 611h275l-137 -647q-6 -30 -6 -54q0 -78 57 -78q100 0 153 168l129 611h274l-137 -647q-8 -33 -8 -67q0 -65 78 -65q122 0 187 304q11 52 19 96.5t14 68.5l65 310h273l-73 -354q-7 -27 -7 -53q0 -78 58 -78q83 0 130 100q14 31 22 67l66 318h275 l-137 -647q-7 -34 -7 -68q0 -64 78 -64q106 0 153 168h80q-70 -205 -193 -293q-84 -59 -179.5 -59t-154.5 54t-59 174q0 54 15 124l10 48q-97 -107 -220.5 -107t-174.5 80q-83 -263 -251 -343q-61 -30 -137 -30q-170 0 -188 180q-112 -180 -282 -180q-86 0 -145 54t-59 174z M287 -213q0 112 102 213h96q-24 -24 -24 -52t15 -48l32 -45q46 -63 46 -126q-3 -99 -103 -205h-97q25 25 25 55.5t-14 50.5t-32 41q-46 55 -46 116z" />
<glyph unicode="&#x44d;&#x437;" horiz-adv-x="1594" d="M-71 202.5q0 105.5 69 137.5q20 11 51.5 11t61.5 -27q-25 -69 -25 -130q0 -105 105 -105q83 0 158 110t106 259h-255l25 113h247q4 39 4 73q0 165 -152 165q-75 0 -117.5 -31t-79.5 -93h-96q57 141 147 212.5t238 71.5t233.5 -71t89.5 -224l96 108q165 187 341 187 q122 0 201.5 -79.5t79.5 -235t-120 -286.5q-60 -67 -108.5 -93t-66.5 -29q45 -16 91.5 -65.5t64.5 -125.5q110 33 155 78q78 76 121 208h80q-73 -248 -255 -328q-49 -22 -94 -34q-3 -213 -101 -334t-259 -121q-88 0 -150 45q-63 46 -63 140q0 180 299 280q-6 202 -137 202 h-58l24 114h56q101 0 167 95t66 232q0 164 -113 164q-64 0 -152 -75q-40 -34 -82.5 -75t-90.5 -81q-13 -85 -50 -186q-83 -221 -265 -333q-97 -57 -228 -57t-195 54t-64 159.5zM857 -265q0 -26 16 -44t43 -18q48 0 83 66t46 158q-188 -66 -188 -162z" />
<glyph unicode="&#x44f;&#x447;" horiz-adv-x="1961" d="M-73 211.5q0 98.5 69 133.5q22 11 58 11t63.5 -27.5t27.5 -73.5t-23 -67.5t-53 -18.5q5 -60 73 -60t100 81t63 212q-181 42 -181 221q0 231 263 303q96 26 238 26h289l-138 -647q-9 -33 -9 -67q0 -65 78 -65q58 0 96 58q71 112 101 293l13 67q5 30 10 51l64 310h274 l-73 -354q-7 -27 -7 -53q0 -78 58 -78q83 0 129 100q15 31 24 67l66 318h274l-137 -647q-7 -34 -7 -68q0 -64 78 -64q106 0 153 168h80q-70 -205 -193 -293q-84 -59 -179 -59t-155 54q-59 54 -59 174q0 54 15 124l10 48q-97 -107 -217.5 -107t-175.5 76q-76 -261 -233 -340 q-57 -29 -129 -29q-218 0 -218 211q0 45 11 97l23 107q-52 -12 -109 -12q-53 -221 -93 -285.5t-85.5 -91t-105.5 -26.5q-110 0 -165.5 62t-55.5 160.5zM364 635.5q0 -90.5 40 -122.5q40 -31 97 -31h31q15 0 26 3l78 364h-45q-114 0 -170.5 -61.5t-56.5 -152z" />
<glyph unicode="&#x415;&#x437;" horiz-adv-x="1790" d="M13 308.5q0 150.5 97.5 298.5t254.5 187q-116 85 -116 233.5t121 276.5t297 128q118 0 195 -61.5t77 -161.5t-41.5 -156.5t-96.5 -56.5t-92 51q33 13 58 63.5t25 105.5t-33 79q-35 25 -75 25q-80 0 -135.5 -82.5t-55.5 -186.5q0 -143 104 -216q37 -26 88 -39 q-145 -32 -242.5 -174t-97.5 -281q0 -80 42 -136t128 -56t140.5 27.5t95.5 75.5q56 66 136 250l56 128q90 201 185 270t228.5 69t215.5 -79t82 -235t-120 -287q-61 -67 -109.5 -93t-66.5 -29q45 -16 91.5 -65.5t64.5 -125.5q109 33 155 77.5t72.5 92t48.5 116.5h80 q-73 -249 -256 -329q-48 -21 -93 -33q-3 -213 -101 -334t-258 -121q-89 0 -151 45q-62 46 -62 140q0 149 191 237q54 25 107 43q-5 202 -137 202h-59l25 114h56q101 0 167 95t66 232q0 164 -116 164q-126 0 -217 -160q-32 -58 -70 -154q-96 -237 -218 -361 q-154 -155 -380 -155q-174 0 -262.5 96t-88.5 246.5zM1054 -265q0 -26 15.5 -44t42.5 -18q48 0 83 66t47 158q-188 -66 -188 -162z" />
<glyph unicode="&#x415;&#x445;" horiz-adv-x="1517" d="M13 294q0 165 97.5 313t254.5 187q-116 85 -116 233.5t121 276.5t297 128q118 0 195 -61.5t77 -161.5t-41.5 -156.5t-96.5 -56.5t-92 51q33 13 58 63.5t25 105.5t-33 79q-35 25 -75 25q-80 0 -135.5 -82.5t-55.5 -186.5q0 -143 104 -216q37 -26 88 -39 q-145 -32 -242.5 -174t-97.5 -262.5t54.5 -166.5t123.5 -46q119 0 236.5 57.5t202.5 153.5l-95 522h269l60 -339q181 194 181 303q0 13 -2 23q-18 -4 -32 -4q-89 0 -89 106q0 90 116 90q55 0 87.5 -49.5t32.5 -131t-66 -187.5t-207 -255l17 -95l12 -56q23 -112 101 -112 q55 0 102 47q47 48 69 121h80q-123 -352 -393 -352q-91 0 -139 59.5t-79 191.5q-101 -118 -275 -194.5t-337 -76.5q-251 0 -333 179q-29 63 -29 146z" />
<glyph unicode="&#x401;&#x437;" horiz-adv-x="1790" d="M13 308.5q0 150.5 97.5 298.5t254.5 187q-116 85 -116 233.5t121 276.5t297 128q118 0 195 -61.5t77 -161.5t-41.5 -156.5t-96.5 -56.5t-92 51q33 13 58 63.5t25 105.5t-33 79q-35 25 -75 25q-80 0 -135.5 -82.5t-55.5 -186.5q0 -143 104 -216q37 -26 88 -39 q-145 -32 -242.5 -174t-97.5 -281q0 -80 42 -136t128 -56t140.5 27.5t95.5 75.5q56 66 136 250l56 128q90 201 185 270t228.5 69t215.5 -79t82 -235t-120 -287q-61 -67 -109.5 -93t-66.5 -29q45 -16 91.5 -65.5t64.5 -125.5q109 33 155 77.5t72.5 92t48.5 116.5h80 q-73 -249 -256 -329q-48 -21 -93 -33q-3 -213 -101 -334t-258 -121q-89 0 -151 45q-62 46 -62 140q0 149 191 237q54 25 107 43q-5 202 -137 202h-59l25 114h56q101 0 167 95t66 232q0 164 -116 164q-126 0 -217 -160q-32 -58 -70 -154q-96 -237 -218 -361 q-154 -155 -380 -155q-174 0 -262.5 96t-88.5 246.5zM454 1682.5q0 48.5 32 82.5q34 35 83 35t83 -34t34 -83t-34 -82q-35 -33 -72 -33q-61 0 -93.5 33t-32.5 81.5zM796 1682.5q0 49.5 33.5 83.5t82 34t83 -34t34.5 -83t-35 -82t-71 -33q-60 0 -93.5 32.5t-33.5 82z M1054 -265q0 -26 15.5 -44t42.5 -18q48 0 83 66t47 158q-188 -66 -188 -162z" />
<glyph unicode="&#x401;&#x445;" horiz-adv-x="1517" d="M13 294q0 165 97.5 313t254.5 187q-116 85 -116 233.5t121 276.5t297 128q118 0 195 -61.5t77 -161.5t-41.5 -156.5t-96.5 -56.5t-92 51q33 13 58 63.5t25 105.5t-33 79q-35 25 -75 25q-80 0 -135.5 -82.5t-55.5 -186.5q0 -143 104 -216q37 -26 88 -39 q-145 -32 -242.5 -174t-97.5 -262.5t54.5 -166.5t123.5 -46q119 0 236.5 57.5t202.5 153.5l-95 522h269l60 -339q181 194 181 303q0 13 -2 23q-18 -4 -32 -4q-89 0 -89 106q0 90 116 90q55 0 87.5 -49.5t32.5 -131t-66 -187.5t-207 -255l17 -95l12 -56q23 -112 101 -112 q55 0 102 47q47 48 69 121h80q-123 -352 -393 -352q-91 0 -139 59.5t-79 191.5q-101 -118 -275 -194.5t-337 -76.5q-251 0 -333 179q-29 63 -29 146zM454 1682.5q0 48.5 32 82.5q34 35 83 35t83 -34t34 -83t-34 -82q-35 -33 -72 -33q-61 0 -93.5 33t-32.5 81.5zM796 1682.5 q0 49.5 33.5 83.5t82 34t83 -34t34.5 -83t-35 -82t-71 -33q-60 0 -93.5 32.5t-33.5 82z" />
<glyph unicode="&#x421;&#x437;" horiz-adv-x="1853" d="M36 425q0 239 79 477q92 281 272 420q138 106 314 106q222 0 293 -138q25 -48 25 -116q0 -176 -134 -176q-67 0 -108 49q35 19 61.5 70t26.5 101.5t-26.5 85.5t-84.5 35t-108 -39t-94 -106q-88 -134 -144 -342t-56 -378t50 -245.5t172.5 -75.5t209 85t170.5 273l52 119 q90 201 185 270t228 69t215 -79t82 -231.5t-119 -290.5q-96 -107 -176 -122q46 -16 91.5 -65.5t64.5 -125.5q108 33 170.5 93t105.5 193h80q-73 -249 -255 -329q-49 -21 -93 -33q-4 -213 -101.5 -334t-258.5 -121q-89 0 -151.5 46t-62.5 139q0 149 192 237q54 25 107 43 q-5 202 -136 202h-60l25 114h55q102 0 168 95t66 232q0 164 -116 164q-87 0 -153.5 -68.5t-120.5 -212.5q-101 -265 -256.5 -405.5t-328.5 -140.5q-216 0 -316.5 108.5t-100.5 347.5zM1116 -265q0 -26 16.5 -44t43.5 -18q46 0 81.5 65.5t47.5 158.5q-189 -66 -189 -162z" />
<glyph unicode="&#x421;&#x445;" horiz-adv-x="1550" d="M36 425.5q0 238.5 79 476.5q92 281 272 420q138 106 314 106q222 0 293 -138q25 -48 25 -116q0 -176 -134 -176q-67 0 -108 49q35 19 61.5 70t26.5 101.5t-26.5 85.5t-84.5 35t-108 -39t-94 -106q-88 -134 -144 -342t-56 -378t46 -239q54 -82 183 -82q171 0 329 126 q46 37 84 81l-95 520h268l62 -339q181 194 181 303q0 15 -3 23q-16 -4 -32 -4q-90 0 -90 106q0 43 30.5 66.5t85.5 23.5t87.5 -49.5t32.5 -131t-66 -187.5t-206 -255l29 -151q23 -112 101 -112q55 0 102 47q48 48 69 121h80q-122 -352 -392 -352q-91 0 -140 58 q-47 60 -79 195q-114 -135 -285 -204t-286 -69q-219 0 -315.5 109t-96.5 347.5z" />
<glyph unicode="&#x404;&#x437;" horiz-adv-x="1853" d="M36 425q0 239 79 477q92 281 272 420q138 106 314 106q222 0 293 -138q25 -48 25 -116q0 -176 -134 -176q-67 0 -108 49q35 19 61.5 70t26.5 101.5t-26.5 85.5t-84.5 35q-104 0 -195.5 -136.5t-149.5 -345.5h364l-30 -141h-365q-26 -139 -26 -236t11 -151 q31 -176 212 -176q122 0 208.5 85t170.5 273l52 119q90 201 185 270t228 69t215 -79t82 -231.5t-119 -290.5q-96 -107 -176 -122q46 -16 91.5 -65.5t64.5 -125.5q108 33 170.5 93t105.5 193h80q-73 -249 -255 -329q-49 -21 -93 -33q-4 -213 -101.5 -334t-258.5 -121 q-89 0 -151.5 46t-62.5 139q0 149 192 237q54 25 107 43q-5 202 -136 202h-60l25 114h55q102 0 168 95t66 232q0 164 -116 164q-87 0 -153.5 -68.5t-120.5 -212.5q-101 -265 -256.5 -405.5t-328.5 -140.5q-216 0 -316.5 108.5t-100.5 347.5zM1116 -265q0 -26 16.5 -44 t43.5 -18q46 0 81.5 65.5t47.5 158.5q-189 -66 -189 -162z" />
<glyph unicode="&#x404;&#x445;" horiz-adv-x="1550" d="M36 425.5q0 238.5 79 476.5q92 281 272 420q138 106 314 106q222 0 293 -138q25 -48 25 -116q0 -176 -134 -176q-67 0 -108 49q35 19 61.5 70t26.5 101.5t-26.5 85.5t-84.5 35q-104 0 -195.5 -136.5t-149.5 -345.5h364l-30 -141h-365q-26 -139 -26 -236t11 -151 q31 -176 210 -176t337 126q46 37 84 81l-95 520h268l62 -339q181 194 181 303q0 15 -3 23q-16 -4 -32 -4q-90 0 -90 106q0 43 30.5 66.5t85.5 23.5t87.5 -49.5t32.5 -131t-66 -187.5t-206 -255l29 -151q23 -112 101 -112q55 0 102 47q48 48 69 121h80q-122 -352 -392 -352 q-91 0 -140 58q-47 60 -79 195q-114 -135 -285 -204t-286 -69q-219 0 -315.5 109t-96.5 347.5z" />
<glyph unicode="&#x435;&#x445;" horiz-adv-x="1451" d="M-25 299q0 210 111 413q84 156 230 222q76 35 156 35q132 0 179.5 -49.5t47.5 -132.5q0 -164 -130.5 -277.5t-309.5 -124.5q-2 -14 -2 -27v-25q0 -106 55.5 -147t120.5 -41q125 0 247.5 57.5t215.5 159.5l-109 590h269l73 -411q181 194 181 303q0 13 -1 23q-16 -4 -35 -4 q-87 0 -87 106q0 90 113 90q56 0 89 -49q34 -49 34 -106q0 -101 -62 -205.5t-211 -264.5l17 -93q7 -27 12 -56q23 -112 101 -112q55 0 103 48.5t69 119.5h80q-92 -262 -269 -330q-62 -24 -112 -24t-89 17q-69 28 -108 126q-20 50 -38 123q-182 -186 -440 -246 q-82 -18 -156 -18q-158 0 -251.5 74t-93.5 236zM274 476q110 4 194 99.5t84 224.5q0 69 -47 69q-68 0 -135.5 -124.5t-95.5 -268.5z" />
<glyph unicode="&#x451;&#x445;" horiz-adv-x="1451" d="M-25 299q0 210 111 413q84 156 230 222q76 35 156 35q132 0 179.5 -49.5t47.5 -132.5q0 -164 -130.5 -277.5t-309.5 -124.5q-2 -14 -2 -27v-25q0 -106 55.5 -147t120.5 -41q125 0 247.5 57.5t215.5 159.5l-109 590h269l73 -411q181 194 181 303q0 13 -1 23q-16 -4 -35 -4 q-87 0 -87 106q0 90 113 90q56 0 89 -49q34 -49 34 -106q0 -101 -62 -205.5t-211 -264.5l17 -93q7 -27 12 -56q23 -112 101 -112q55 0 103 48.5t69 119.5h80q-92 -262 -269 -330q-62 -24 -112 -24t-89 17q-69 28 -108 126q-20 50 -38 123q-182 -186 -440 -246 q-82 -18 -156 -18q-158 0 -251.5 74t-93.5 236zM227 1206.5q0 48.5 32 82.5q34 34 83 34t83 -33.5t34 -82.5t-34 -83q-35 -32 -72 -32q-61 0 -93.5 33t-32.5 81.5zM274 476q110 4 194 99.5t84 224.5q0 69 -47 69q-68 0 -135.5 -124.5t-95.5 -268.5zM569 1206.5 q0 49.5 33.5 83t82 33.5t83 -33.5t34.5 -82.5t-35 -83q-35 -32 -71 -32q-60 0 -93.5 32.5t-33.5 82z" />
<glyph unicode="&#x43e;&#x445;" horiz-adv-x="1619" d="M-29 280q0 69 11.5 140t37.5 146q56 171 164 277q128 126 309 126q240 0 244 -298q107 10 234 190l-17 91h269l69 -377q186 168 186 269q0 13 -2 23q-16 -4 -33 -4q-89 0 -89 106q0 43 30.5 66.5t85.5 23.5t87.5 -49.5t32.5 -132t-66 -181t-212 -229.5l35 -182 q23 -112 100 -112q56 0 104 48.5t68 119.5h80q-123 -352 -392 -352q-102 0 -154 80t-86 272l-4 13q-172 -122 -172 -213q9 2 25 2q49 0 63.5 -30t14.5 -64q0 -104 -107 -104q-64 0 -94.5 37t-30.5 91q0 96 84 204t197 184l-53 295q-116 -138 -257 -183q-22 -262 -149.5 -421 t-307.5 -159q-219 0 -283 161q-22 57 -22 126zM255 318q0 -92 16.5 -116.5t35.5 -31t50 -6.5q66 0 130 114t86 280q-51 12 -51 89t59 98q-3 60 -19.5 84.5t-60.5 24.5q-86 0 -166 -190t-80 -346z" />
<glyph unicode="&#x440;&#x437;" horiz-adv-x="1695" d="M-173 -476l318 1499h274l-30 -143q95 82 222 82q226 0 233 -284l93 105q165 186 339 186q123 0 202.5 -79.5t79.5 -231.5t-119 -290q-96 -107 -176 -122q46 -16 91.5 -65.5t64.5 -125.5q108 33 170.5 93t105.5 193h80q-73 -249 -255 -329q-49 -21 -93 -33 q-4 -213 -101.5 -334t-258.5 -121q-89 0 -151 45q-62 46 -62 140q0 149 191 237q54 25 107 43q-5 202 -136 202h-60l25 114h55q102 0 168 95t66 217.5t-55 163.5q-21 15 -56.5 15t-74.5 -21t-79 -53.5t-80.5 -72.5t-84.5 -78q-17 -223 -116 -387q-76 -121 -202 -171 q-64 -24 -142 -24h-5q-121 0 -162 68l-99 -464zM244 198q16 -44 81 -44t116 54q99 106 128 304q14 87 14 155q0 158 -96 158q-32 0 -68 -23.5t-63 -70.5zM958 -265q0 -26 16 -44t43 -18q47 0 82.5 65.5t47.5 158.5q-189 -66 -189 -162z" />
<glyph unicode="&#x441;&#x445;" horiz-adv-x="1437" d="M-38 283.5q0 68.5 11 138.5t36 143q58 173 160 277q128 127 301.5 127t205.5 -112q9 -31 9 -84.5t-31 -85t-68 -31.5t-68 22q23 59 23 112q0 79 -52 79q-46 0 -89 -60q-94 -131 -136 -320q-20 -88 -20 -156q0 -188 192 -188q171 0 341 123q57 41 105 94l-109 590h269 l74 -411q181 194 181 303q0 13 -2 23q-18 -4 -34 -4q-87 0 -87 106q0 90 113 90q56 0 89 -49q34 -49 34 -106q0 -101 -63 -205t-210 -265l17 -93l12 -56q23 -112 101 -112q55 0 102 47q47 48 69 121h80q-92 -263 -268 -330q-58 -22 -118 -22q-98 0 -148 62t-81 200 q-121 -119 -283.5 -190.5t-318.5 -71.5q-238 0 -312 165q-27 61 -27 129.5z" />
<glyph unicode="&#x444;&#x437;" horiz-adv-x="2186" d="M-27 295q0 214 120 429q57 103 153 170.5t217 67.5q156 0 156 -105l95 438l263 39l-103 -454q93 82 223 82q225 0 233 -288h2l96 108q164 187 340 187q123 0 202.5 -79.5t79.5 -235t-119 -286.5q-62 -67 -110 -93t-67 -29q46 -16 92.5 -65.5t63.5 -125.5q109 33 155 77.5 t72.5 92t48.5 116.5h80q-73 -249 -255 -329q-49 -21 -93 -33q-4 -213 -101.5 -334t-258.5 -121q-89 0 -151 45q-62 46 -62 140q0 149 191 237q54 25 107 43q-5 202 -136 202h-60l25 114h55q103 0 168.5 95.5t65.5 231.5q0 164 -111 164q-65 0 -155 -75q-39 -34 -80 -75 t-88 -81h-2q-31 -400 -269 -530q-85 -46 -201 -46t-156 68l-99 -464l-269 -69l127 569q-98 -104 -220.5 -104t-193.5 73.5t-71 232.5zM254 318q0 -98 37 -127q20 -20 46 -20t56 14q74 34 106 124l101 470q-11 65 -82.5 65t-136.5 -95q-64 -96 -91 -200q-36 -139 -36 -231z M729 198q8 -21 34.5 -32.5t55.5 -11.5q123 0 195.5 154.5t72.5 358.5q0 81 -29 119.5t-72 38.5q-92 0 -144 -94zM1450 -265q0 -26 15.5 -44t42.5 -18q48 0 83.5 66t46.5 158q-188 -66 -188 -162z" />
<glyph horiz-adv-x="0" />
<glyph unicode="&#xd;" horiz-adv-x="634" />
<glyph unicode=" "  horiz-adv-x="412" />
<glyph unicode="&#x09;" horiz-adv-x="412" />
<glyph unicode="&#xa0;" horiz-adv-x="412" />
<glyph unicode="!" horiz-adv-x="489" d="M65 152q0 63 44.5 107t107.5 44t106.5 -44t43.5 -106q0 -63 -43.5 -108t-106.5 -45t-107 45q-45 44 -45 107zM187 440l135 894h274l-247 -894h-162z" />
<glyph unicode="&#x22;" horiz-adv-x="799" d="M118 1069l116 359h200l-173 -359h-143zM418 1069l115 359h200l-173 -359h-142z" />
<glyph unicode="#" horiz-adv-x="1255" d="M86 211l40 194h198l40 216h-195l40 195h189l100 551h167l-124 -551h200l99 551h167l-123 -551h198l-39 -195h-201l-48 -216h204l-38 -194h-209l-58 -262h-108l47 262h-225l-56 -262h-109l47 262h-203zM451 405h216l40 216h-208z" />
<glyph unicode="$" horiz-adv-x="767" d="M46 423q0 74 40 119t88.5 45t69.5 -14.5t21 -33.5q-76 -15 -76 -141q0 -42 23.5 -71.5t56.5 -44.5l68 374l-71 55q-81 62 -106 110.5t-25 98.5q0 96 91 169t203 76l36 202h110l-48 -207q75 -13 105 -38q61 -47 61 -118q0 -147 -91 -147q-38 0 -75 44q46 27 46 99 q0 21 -14 45.5t-47 37.5l-68 -306l74 -53q141 -98 141 -234.5t-94 -209.5t-249 -76l-55 -255h-52l46 257q-88 6 -149 55q-60 50 -60 162zM316 942.5q0 -51.5 53 -106.5l46 258q-56 -13 -77.5 -56.5t-21.5 -95zM333 274q68 10 98 59q28 49 28 119.5t-55 138.5z" />
<glyph unicode="%" horiz-adv-x="1226" d="M204 917q0 186 83.5 303t224.5 117q84 0 120.5 -55t36.5 -175.5t-77.5 -257.5t-210.5 -137q-101 0 -139 54t-38 151zM231 0l734 1428h138l-736 -1428h-136zM341 945q0 -86 9.5 -124t43.5 -38q71 0 115.5 109.5t44.5 257.5q0 50 -8 85t-39 35q-48 0 -96 -72 q-70 -106 -70 -253zM676 203q0 188 84 305t225 117q85 0 130 -55t45 -181t-68 -245q-81 -144 -234 -144q-106 0 -144 53t-38 150zM804 194q0 -47 9 -85t44 -38q69 0 111.5 101t42.5 241.5t-53 140.5q-46 0 -89 -70q-65 -103 -65 -290z" />
<glyph unicode="&#x26;" horiz-adv-x="1299" d="M21 366.5q0 152.5 90.5 273.5t253.5 154q-188 102 -188 289q0 138 115 241.5t308 103.5q146 0 248 -63.5t102 -190.5q0 -176 -133 -176q-66 0 -108 49q31 10 57 63.5t26 79.5q0 155 -125 155q-102 0 -167.5 -69t-65.5 -158.5t58 -175.5q59 -85 193 -146 q-171 -72 -251 -172.5t-80 -207.5t65.5 -181.5t158.5 -74.5q181 0 283 185q38 69 61 173l-70 7q-33 4 -65 4q-125 0 -180 -85l-13 1q29 119 124 194t244 75l145 -9q51 0 103.5 19t76.5 63h12q0 -83 -87.5 -165.5t-202.5 -99.5q-114 -412 -362 -504q-77 -29 -204 -29 t-200.5 32.5t-122.5 86.5q-99 106 -99 258.5z" />
<glyph unicode="'" horiz-adv-x="510" d="M194 1069l117 359h200l-174 -359h-143z" />
<glyph unicode="(" horiz-adv-x="832" d="M263 191q0 182 44 374q90 402 321 664q118 133 256 199l25 -76q-210 -103 -360 -474q-92 -223 -129 -486q-18 -129 -18 -252q0 -350 139 -561l-63 -55q-215 236 -215 667z" />
<glyph unicode=")" horiz-adv-x="786" d="M-55 -400q107 53 198 180q188 251 269 653q39 194 39 380q0 351 -139 561l63 54q111 -122 163 -297q53 -175 53 -365q0 -393 -169 -743q-81 -169 -196.5 -300t-256.5 -199z" />
<glyph unicode="*" horiz-adv-x="981" d="M164 954l207 120l-207 120l57 100l204 -118v256h122v-256l204 118l56 -100l-207 -120l207 -120l-56 -98l-204 118v-258h-122v258l-204 -118z" />
<glyph unicode="+" horiz-adv-x="981" d="M101 391l46 213h244l51 232h216l-53 -232h242l-43 -213h-244l-51 -235h-216l52 235h-244z" />
<glyph unicode="," horiz-adv-x="411" d="M46 133q0 72 43 117t107 45q93 0 121 -87q9 -27 9 -63q0 -85 -67.5 -197t-180.5 -188q-17 11 -17 34q0 31 49.5 83t49.5 81t-32 49q-82 54 -82 126z" />
<glyph unicode="-" horiz-adv-x="552" d="M36 423l35 150h380l-32 -150h-383z" />
<glyph unicode="." horiz-adv-x="501" d="M59 142.5q0 62.5 43 107.5q45 45 107.5 45t107.5 -45q45 -44 45 -107.5t-45 -106.5t-107 -43t-108 43q-43 44 -43 106.5z" />
<glyph unicode="/" horiz-adv-x="592" d="M21 -476l404 1904h137l-404 -1904h-137z" />
<glyph unicode="0" horiz-adv-x="1039" d="M57 452q0 547 272 815q165 161 389 161q339 0 339 -484q0 -335 -157 -629q-176 -332 -461 -332q-220 0 -309 131q-73 110 -73 338zM349 431q0 -288 112 -288q82 0 145 80q126 156 177 501q24 164 24 277q0 189 -17 249q-23 80 -84 80t-135 -89q-125 -151 -184 -421 q-38 -167 -38 -389z" />
<glyph unicode="1" horiz-adv-x="603" d="M40 0l251 1189h-180l22 87q107 0 180 19q155 40 305 130l-304 -1425h-274z" />
<glyph unicode="2" horiz-adv-x="937" d="M-21 25v32q0 104 45 189q76 142 264.5 329.5t270.5 361.5q46 104 46 230q0 71 -37 114q-37 42 -82 42q-87 0 -119 -37t-32 -110.5t39 -115.5q14 -15 33 -20q-72 -64 -137.5 -64t-104.5 43.5t-39 109.5q0 128 96.5 213t295.5 85q362 0 362 -307q0 -262 -279 -497 l-153 -126q-75 -61 -140.5 -121t-105.5 -125h9q86 0 172 -17t163.5 -17t111.5 8q59 16 114 67l58 57q2 -23 2 -44v-40q0 -152 -46 -219t-167 -67t-213.5 23.5t-146 34t-97.5 10.5q-59 0 -106 -21l-73 -32q-4 15 -4 31z" />
<glyph unicode="3" horiz-adv-x="979" d="M11 319q0 114 58 192q58 76 180 76t142 -98q-168 -11 -168 -205q0 -142 91 -163q26 -7 70.5 -7t93.5 26.5t84 71.5q70 92 70 224q0 184 -139 298q-48 39 -114 62q151 44 238.5 153t87.5 218q0 156 -162 156q-53 0 -93.5 -40.5t-40.5 -92.5q0 -130 73 -150 q-72 -64 -145 -64q-93 0 -127 92q-10 30 -10 82t30.5 105.5t83.5 91.5q112 80 280 80t261.5 -81t93.5 -187t-65 -202t-197 -163q126 -42 183 -127t57 -187q0 -183 -146 -331q-155 -157 -383 -157q-54 0 -113 8q-150 24 -230 140q-44 65 -44 179z" />
<glyph unicode="4" horiz-adv-x="906" d="M15 524q17 52 44 111l120 258q114 252 114 421q0 60 -13 114q141 0 194 -102q17 -34 17 -101.5t-29.5 -144.5t-72.5 -146.5t-91 -135t-85 -133.5h298l154 725l282 38l-164 -763h122l-38 -141h-115l-110 -524h-275l113 524h-465z" />
<glyph unicode="5" horiz-adv-x="984" d="M29 265q0 137 73.5 203.5t181.5 66.5t127 -97q-74 -10 -123 -53q-48 -43 -48 -124.5t52 -115.5q39 -27 101 -27q114 0 179.5 107t65.5 244t-56 206.5t-143.5 69.5t-144.5 -27q-105 -51 -149 -80l156 760q51 -6 95 -11l87 -11q87 -11 161 -11q152 0 308 62q4 -30 4 -69 q0 -91 -51.5 -153t-167.5 -62q-74 0 -182 22t-136 25l-76 -345q123 60 224 60q178 0 263.5 -112.5t85.5 -281.5q0 -218 -130 -359q-149 -161 -422 -161q-335 0 -335 274z" />
<glyph unicode="6" horiz-adv-x="946" d="M31 367v35q0 127 29.5 282.5t69.5 265.5q84 226 231 352t351 126q101 0 160 -47t59 -102.5t-41 -93.5t-128 -42q30 29 30 67.5t-27 71.5q-27 32 -67 32q-94 0 -188.5 -113t-159.5 -373q-36 -139 -51 -287.5t-15 -205.5q0 -117 37 -156t99 -39q110 0 192 124 q86 127 86 262q0 199 -100 199t-169 -144q-38 55 -38 103q0 90 79 144t168 54t138 -28.5t80 -73.5q60 -85 60 -211q0 -246 -153.5 -412t-360.5 -166q-303 0 -356 232q-15 68 -15 144z" />
<glyph unicode="7" horiz-adv-x="883" d="M63 228.5q0 126.5 49 247.5q91 223 322 504l229 272q-84 11 -162 11q-274 0 -394 -136q-16 69 -16 114q0 94 60.5 140.5t199.5 46.5h625l-182 -277l-242 -385q-133 -222 -150 -261q-61 -140 -61 -246q0 -57 21 -99t72 -86q-28 -74 -166 -74q-105 0 -155 51t-50 177.5z " />
<glyph unicode="8" horiz-adv-x="950" d="M-15 365q0 148 89 264.5t253 164.5q-161 94 -161 260q0 142 121 257.5t298 115.5t271 -79t94 -186.5t-66 -204.5t-200 -163q120 -37 175 -119t55 -158.5t-17.5 -137t-50.5 -117.5q-71 -121 -191.5 -196t-267.5 -75q-188 0 -295 113t-107 261zM261 316q0 -88 35 -138.5 t92 -50.5q100 0 164 96.5t64 223.5q0 177 -121 282q-170 -116 -220 -311q-14 -56 -14 -102zM415 1105q0 -157 101 -246q135 88 180 255q13 47 13 96.5t-24 87t-71 37.5q-89 0 -144 -74.5t-55 -155.5z" />
<glyph unicode="9" horiz-adv-x="930" d="M55 171q0 141 164 141q-26 -26 -26 -66t29 -72.5t59.5 -32.5t48 2t55.5 18t69 44q82 72 146.5 242.5t86.5 479.5q4 73 4 100q0 163 -41 219.5t-129.5 56.5t-163.5 -131.5t-75 -282.5q0 -78 23.5 -137t83.5 -59q116 0 160 114q40 -47 40 -95q0 -72 -75.5 -123t-193.5 -51 t-186.5 100.5t-68.5 231.5q0 237 143 397.5t350 160.5q367 0 367 -447q0 -288 -77 -511t-224.5 -351t-343.5 -128q-103 0 -164 55t-61 125z" />
<glyph unicode=":" horiz-adv-x="508" d="M78 257q0 62 43.5 107t106.5 45t108 -44.5t45 -107.5q0 -64 -45.5 -107t-107.5 -43t-106 44q-44 43 -44 106zM173 714q0 63 44 108t107 45t108 -45q44 -45 44 -108.5t-45 -106.5t-107 -43t-107 43q-44 44 -44 107z" />
<glyph unicode=";" horiz-adv-x="525" d="M87 163.5q0 71.5 43.5 117t107.5 45.5q93 0 121 -88q8 -26 8 -63q0 -85 -67.5 -197.5t-179.5 -186.5q-17 11 -17 34q0 31 49.5 83t49.5 80t-25 46q-90 58 -90 129.5zM179 629.5q0 62.5 43.5 108t106.5 45.5t108 -45t45 -108.5t-45 -106.5t-108 -43q-62 0 -106 44 q-44 43 -44 105.5z" />
<glyph unicode="&#x3c;" horiz-adv-x="683" d="M38 453l17 78l585 286l-19 -105l-459 -228l369 -183l-22 -108z" />
<glyph unicode="=" horiz-adv-x="981" d="M61 193l46 212h700l-43 -212h-703zM145 602l46 214h700l-44 -214h-702z" />
<glyph unicode="&#x3e;" horiz-adv-x="655" d="M29 193l26 108l457 183l-369 228l17 105l469 -286l-22 -102z" />
<glyph unicode="?" horiz-adv-x="839" d="M91 152q0 63 45 107t108 44t106.5 -44t43.5 -106q0 -63 -43.5 -108t-106.5 -45t-108 45q-45 44 -45 107zM105 1011q0 131 92 218q110 105 308 105q256 0 294 -142q11 -40 11 -74.5t-1 -36.5q0 -193 -193 -339l-104 -84q-122 -103 -160 -216h-125q0 111 89 226 q39 48 84 94.5t84 96.5q89 118 89 229q0 142 -108 142q-53 0 -101 -45.5t-48 -112t38 -105.5q14 -15 35 -20q-50 -80 -140 -80q-56 0 -100 40t-44 104z" />
<glyph unicode="@" horiz-adv-x="1070" d="M-15 312q0 312 192 531q121 138 286 191q84 26 151 26t117 -9q117 -21 174 -131q31 -60 31 -155.5t-28 -185.5t-73.5 -161t-104 -115t-118.5 -44t-85 44q-49 -74 -112 -74q-122 0 -122 127t56 259.5t122 181.5q34 25 77 25l1 1q42 0 69 -34l7 30l104 -12l-85 -365 q-8 -24 -8 -52t27 -28q74 0 132 315q12 69 12 102q0 74 -31 110q-41 50 -123.5 50t-143 -25.5t-109.5 -69.5q-97 -87 -151.5 -229.5t-54.5 -276t49.5 -186.5t168 -53t184.5 30t116 96q44 -18 44 -74q0 -105 -103 -162q-106 -62 -289 -62t-281 88t-98 297zM418 404 q0 -59 33 -59q24 0 63 26q0 19 6 40l82 316q-13 16 -45 16t-60 -43q-63 -92 -78 -261q-1 -21 -1 -35z" />
<glyph unicode="A" horiz-adv-x="1272" d="M17 636q0 99 110 168q113 68 278 68q39 0 100 -5q154 242 327.5 401.5t334.5 159.5q97 0 151 -26l-299 -1402h-274l146 691q-127 58 -255 69q-171 -379 -229 -695q-18 -101 -18 -173t26 -109q-113 0 -158 24q-97 48 -97 178q0 197 166 554q52 112 114 221 q-89 -6 -146.5 -27.5t-76.5 -71.5q8 0 16.5 -19t8.5 -47t-31.5 -48t-65.5 -20q-62 0 -95 29.5t-33 79.5zM676 842q133 -26 233 -66l110 518q-163 -90 -343 -452z" />
<glyph unicode="B" horiz-adv-x="1221" d="M23 923q0 101 57 190.5t152 160.5q213 154 482 154q199 0 302.5 -87.5t103.5 -215.5q0 -85 -49 -167q-48 -82 -142 -135q115 -23 170 -107t55 -200q0 -68 -19 -163q-45 -210 -198 -326q-79 -60 -202 -60t-168 70q-18 28 -18 73t24 109q64 -68 123 -68q100 0 151 117 q42 95 42 225q0 243 -180 243q-42 0 -88 -7l-156 -729h-274l258 1212l282 37l-89 -422h11q110 0 192 98.5t82 210.5q0 139 -135 188q-48 17 -110 17t-119 -12.5t-109 -37.5q-116 -57 -185 -161.5t-69 -251.5q0 -75 23 -116q4 -8 4 -13q-151 0 -190 93q-14 33 -14 81z" />
<glyph unicode="C" horiz-adv-x="946" d="M36 425q0 239 79 477q92 281 272 420q138 106 314 106q222 0 293 -138q25 -48 25 -116q0 -176 -134 -176q-67 0 -108 49q35 19 61.5 70t26.5 101.5t-26.5 85.5t-84.5 35t-108 -39t-94 -106q-88 -134 -144 -342t-56 -378t50 -245.5t171 -75.5q238 0 379 190l44 -19 q-91 -231 -347 -320q-100 -36 -197 -36h-6q-211 2 -310.5 110t-99.5 347z" />
<glyph unicode="D" horiz-adv-x="1262" d="M11 933.5q0 56.5 25.5 119.5t72.5 119q95 114 258.5 185t352.5 71q343 0 459 -277q50 -118 50 -277.5t-44 -321.5q-90 -337 -284 -497q-97 -80 -206 -80t-226 101l-16 -76h-274l259 1212l282 37l-229 -1068q52 -38 109 -38q85 0 153 76q131 148 186 468q26 147 26 294 q0 360 -278 360q-217 0 -357.5 -125.5t-140.5 -337.5q0 -77 21 -116q5 -8 5 -13q-151 0 -190 94q-14 34 -14 90.5z" />
<glyph unicode="E" horiz-adv-x="874" d="M13 308.5q0 150.5 97.5 298.5t254.5 187q-116 85 -116 233.5t121 276.5t297 128q118 0 195 -61.5t77 -161.5t-41.5 -156.5t-96.5 -56.5t-92 51q33 13 58 63.5t25 105.5t-33 79q-35 25 -75 25q-80 0 -135.5 -82.5t-55.5 -186.5q0 -143 104 -216q37 -26 88 -39 q-145 -32 -242.5 -174t-97.5 -281q0 -80 42 -136t137.5 -56t198.5 51t155 143l44 -19q-76 -166 -230 -262t-328 -96t-262.5 96t-88.5 246.5z" />
<glyph unicode="F" horiz-adv-x="874" d="M17 955.5q0 73.5 35 162.5t114 158q172 152 501 152q62 0 143 -11.5t177 -11.5t167 23l-18 -64q-34 -136 -162 -164q-104 0 -267 36l-80 -379h278l-31 -141h-278l-154 -716h-275l275 1272q-121 -3 -184 -91q-64 -86 -64 -303q0 -75 24 -116q3 -8 3 -13q-153 0 -191 97 q-13 36 -13 109.5z" />
<glyph unicode="G" horiz-adv-x="1101" d="M36 696q0 137 46 269q70 198 234 330.5t398 132.5t320 -138q31 -48 31 -116q0 -176 -134 -176q-88 0 -131 49q31 12 57.5 64t26.5 78q0 150 -132 150q-77 0 -154.5 -60.5t-136.5 -154.5t-95.5 -212t-36.5 -206q0 -162 55 -251.5t164.5 -89.5t163.5 71l82 362l246 -2 l-156 -716q-49 -235 -157.5 -354.5t-330.5 -119.5q-126 0 -195.5 77t-69.5 183t63 184.5t157 78.5t128 -16q72 -31 72 -111q0 -35 -12 -76q-58 49 -119.5 49t-95 -46t-33.5 -97t29.5 -91t77 -40t74.5 9q86 27 130 225l76 341q-127 -69 -238 -69q-213 0 -316 145 q-88 124 -88 344z" />
<glyph unicode="H" horiz-adv-x="1266" d="M23 934q0 96 61 184q122 181 368 269q118 41 239 41q39 0 76 -3l-122 -568h280l122 568h275l-303 -1425h-274l152 716h-279l-153 -716h-274l276 1295q-127 -53 -197 -158.5t-70 -258.5q0 -75 23 -116q4 -8 4 -13q-154 0 -191 97q-13 36 -13 88z" />
<glyph unicode="I" horiz-adv-x="714" d="M11 934q0 96 60 184.5t155 157.5q217 152 454 152q39 0 76 -3l-303 -1425h-274l276 1294q-266 -112 -266 -416q0 -77 21 -116q5 -8 5 -13q-153 0 -191 97q-13 36 -13 88z" />
<glyph unicode="J" horiz-adv-x="1021" d="M33 -134.5q0 111.5 62 187.5t156.5 76t127.5 -16q72 -31 72 -111q0 -35 -11 -76q-53 42 -77 45.5t-37 3.5q-67 0 -100 -44t-33 -89q0 -76 39.5 -108.5t79.5 -32.5q78 0 118 46t73 188l299 1360q-126 -52 -197.5 -157.5t-71.5 -259.5q0 -75 23 -116q4 -8 4 -13 q-153 0 -190 97q-14 36 -14 88q0 96 60 184.5t155 157.5q217 152 454 152h76l-285 -1352q-51 -232 -164.5 -351t-337.5 -119q-137 0 -210 74q-71 74 -71 185.5z" />
<glyph unicode="K" horiz-adv-x="1144" d="M11 934q0 96 60 184.5t155 157.5q217 152 454 152q39 0 76 -3l-124 -583l419 560l14 17h200l-529 -610l66 2q190 0 225 -123q11 -37 11 -88q0 -77 -46.5 -246.5t-46.5 -220.5q0 -105 74 -133q-119 -33 -189 -33q-148 0 -148 128q1 67 50.5 244t50.5 257q0 129 -114 129 q-26 0 -64 -7l-152 -718h-274l276 1295q-127 -53 -196.5 -158.5t-69.5 -258.5q0 -77 21 -116q5 -8 5 -13q-153 0 -191 97q-13 36 -13 88z" />
<glyph unicode="L" horiz-adv-x="721" d="M11 914q0 186 215 342q218 154 454 154q30 0 76 -5l-293 -1367q78 -18 165 -64l138 -75q193 -106 337 -106q87 0 160 30q-15 -135 -67.5 -217t-130.5 -82q-123 0 -291 130l-218 167q-184 135 -341 135h-22q-10 0 -22 -2l284 1320q-127 -51 -196.5 -155t-69.5 -260 q0 -77 21 -116q5 -7 5 -14q-153 0 -191 98q-13 35 -13 87z" />
<glyph unicode="M" horiz-adv-x="1499" d="M127 0l484 1309q-142 -48 -222 -157t-80 -272q0 -82 22 -119q4 -7 4 -12q-204 0 -204 173q0 180 195 345q84 72 193.5 116.5t199.5 44.5t163 -26l-44 -1004l419 1004h275l-200 -1402h-275l122 856l-358 -856h-261l38 859l-318 -859h-153z" />
<glyph unicode="N" horiz-adv-x="1272" d="M11 935.5q0 53.5 17.5 111t49.5 112.5q71 120 193.5 194.5t279.5 74.5q44 0 89 -2.5t87 -23.5l151 -1010l207 1033h275l-303 -1425h-230l-162 996l-212 -996h-274l274 1294q-127 -53 -195.5 -158t-68.5 -258q0 -77 21 -116q5 -8 5 -13q-153 0 -191 97q-13 36 -13 89.5z " />
<glyph unicode="O" horiz-adv-x="1266" d="M31 914q0 93 63 187q135 197 416 285q139 42 288 42q451 0 451 -487q0 -328 -165 -614q-117 -205 -312 -294q-101 -44 -200.5 -44t-162.5 20q-203 69 -203 362q0 196 73 418q117 357 322 450q57 26 117.5 26t102.5 -16q-83 -49 -163 -211q-118 -232 -158 -513 q-13 -88 -13 -161q0 -221 111 -221h2q92 0 184 134t152 338t60 387t-50 261t-194 78q-228 0 -388 -135.5t-160 -354.5q0 -56 9.5 -74t9.5 -28q-93 0 -142.5 36t-49.5 129z" />
<glyph unicode="P" horiz-adv-x="1091" d="M11 934q0 96 60 184.5t155 157.5q217 152 445.5 152t343 -107.5t114.5 -266.5q0 -91 -37.5 -182.5t-109.5 -164.5q-160 -164 -403 -164h-10l-116 -543h-274l259 1212l282 37l-135 -636q139 13 236 160t97 318t-129 230q-45 20 -107 20q-233 0 -363 -122t-130 -341 q0 -77 21 -116q5 -8 5 -13q-153 0 -191 97q-13 36 -13 88z" />
<glyph unicode="Q" horiz-adv-x="1266" d="M31 914q0 93 63 187q135 197 416 285q139 42 288 42q451 0 451 -487q0 -223 -91.5 -466.5t-272.5 -375.5q52 -74 88 -102q68 -52 150 -52q20 0 42 4q-38 -100 -86.5 -132t-111.5 -32q-111 0 -171 74q-35 43 -72 156q-82 -26 -168 -26q-167 0 -258.5 91.5t-91.5 289 t73 419.5q117 357 322 450q57 26 117.5 26t102.5 -16q-83 -49 -163 -211q-118 -232 -158 -513q-13 -88 -13 -161v-43q0 -20 4 -39q67 17 134.5 17t136.5 -52q98 123 166 339.5t68 410.5v10q0 178 -50 256t-194 78q-228 0 -388 -135.5t-160 -354.5q0 -56 9.5 -74t9.5 -28 q-93 0 -142.5 36t-49.5 129zM507 221q26 -78 91 -78q40 0 73 21q-40 65 -109 65q-25 0 -55 -8z" />
<glyph unicode="R" horiz-adv-x="1144" d="M11 934q0 96 60 184.5t155 157.5q217 152 441.5 152t334.5 -87.5t110 -217.5q0 -88 -53.5 -177t-151.5 -148q131 -37 131 -187q0 -88 -46.5 -257.5t-46.5 -220.5q0 -105 74 -133q-119 -33 -189 -33q-148 0 -148 128q1 67 50.5 244t50.5 257q0 129 -114 129q-25 0 -64 -7 l-152 -718h-274l259 1212l282 37l-93 -440h15q113 0 191.5 107.5t78.5 234.5t-114 173q-39 17 -124.5 17t-180.5 -31.5t-162 -91.5q-142 -126 -142 -340q0 -77 21 -116q5 -8 5 -13q-153 0 -191 97q-13 36 -13 88z" />
<glyph unicode="S" horiz-adv-x="1085" d="M51 283q0 149 85.5 233t191.5 84t152 -64q18 -24 19 -62q-146 0 -202 -95q-21 -35 -21 -78q0 -81 48 -134.5t140 -53.5t154 66t62 167t-29 166.5t-72.5 122.5t-94 108.5t-93.5 104.5q-102 123 -102 239q0 147 127 244t313 97q230 0 290 -139q17 -37 17 -105.5t-42 -122.5 t-104.5 -54t-97.5 40q86 49 86 177q0 37 -30.5 76t-110.5 39t-127.5 -43t-47.5 -113t18 -112q34 -77 118 -150l78 -71q104 -93 141 -154q73 -124 73 -251q0 -238 -163 -367q-148 -118 -372 -118q-277 0 -371 178q-33 62 -33 145z" />
<glyph unicode="T" horiz-adv-x="916" d="M11 953.5q0 73.5 35.5 162.5t113.5 158q172 153 501 153q135 0 214.5 -14t138.5 -22t158 -8t198 40q-9 -242 -238 -242q-87 0 -296 42l-263 -1223h-274l270 1261h-22q-168 0 -255 -78q-103 -93 -103 -307q0 -77 21 -116q5 -8 5 -13q-153 0 -191 97q-13 36 -13 109.5z" />
<glyph unicode="U" horiz-adv-x="1363" d="M0 923q0 102 60 193q128 189 391 272q131 40 269 40q42 0 91 -9l-194 -723q-63 -241 -63 -337t29.5 -141t112 -45t120.5 28q68 51 118 185.5t120 449.5l127 589h269l-127 -595q-72 -354 -148 -521q-92 -200 -245 -272q-110 -50 -240 -50t-200.5 20t-113.5 58 q-81 74 -81 220.5t47 342.5l172 690q-157 -42 -247 -152.5t-90 -285.5q0 -81 22 -119q5 -7 5 -12q-151 0 -190 93q-14 33 -14 81z" />
<glyph unicode="V" horiz-adv-x="1171" d="M11 934q0 96 60 184.5t155 157.5q217 152 454 152q39 0 76 -3l17 -1172l401 1166h133l-530 -1419h-274l-31 1301q-133 -50 -208 -157t-75 -266q0 -77 21 -116q5 -8 5 -13q-153 0 -191 97q-13 36 -13 88z" />
<glyph unicode="W" horiz-adv-x="1832" d="M11 934q0 96 60 184.5t155 157.5q217 152 454 152q39 0 76 -3l17 -1172l401 1166h241l17 -1166l400 1166h134l-530 -1419h-274l-23 969l-362 -969h-274l-31 1301q-133 -50 -208 -157t-75 -266q0 -77 21 -116q5 -8 5 -13q-153 0 -191 97q-13 36 -13 88z" />
<glyph unicode="X" horiz-adv-x="1181" d="M11 934q0 96 60 184.5t155 157.5q217 152 454 152q39 0 76 -3l82 -396l221 390h133l-320 -554l179 -865h-302l-102 476l-276 -476h-116l358 632l-141 669q-133 -50 -208 -157t-75 -266q0 -77 21 -116q5 -8 5 -13q-153 0 -191 97q-13 36 -13 88z" />
<glyph unicode="Y" horiz-adv-x="1181" d="M11 934q0 96 60 184.5t155 157.5q217 152 454 152q39 0 76 -3l166 -682l281 676h127l-370 -832l-126 -587h-305l127 587l-184 714q-133 -50 -208 -157t-75 -266q0 -77 21 -116q5 -8 5 -13q-153 0 -191 97q-13 36 -13 88z" />
<glyph unicode="Z" horiz-adv-x="1032" d="M21 0l666 1325l-171 5q-175 0 -175 -43q10 0 21 -13t11 -46q0 -57 -35 -83.5t-84 -26.5t-69.5 35.5t-20.5 74.5q0 80 62 140t172 60h653l-657 -1304l184 -4q66 0 121.5 7t76.5 35q-11 0 -23 12.5t-12 44.5q0 57 34.5 84.5t84 27.5t71 -35.5t21.5 -72.5 q0 -82 -68.5 -152.5t-174.5 -70.5h-688z" />
<glyph unicode="[" horiz-adv-x="761" d="M-46 -476l404 1904h367l-24 -118h-230l-355 -1668h231l-25 -118h-368z" />
<glyph unicode="\" horiz-adv-x="689" d="M80 1428h137l404 -1904h-137z" />
<glyph unicode="]" horiz-adv-x="761" d="M-46 -476l25 118h230l355 1668h-231l25 118h367l-403 -1904h-368z" />
<glyph unicode="^" horiz-adv-x="801" d="M95 1069l404 359h40l114 -359h-61l-114 152l-299 -152h-84z" />
<glyph unicode="_" horiz-adv-x="845" d="M69 0l34 151h666l-32 -151h-668z" />
<glyph unicode="`" horiz-adv-x="383" d="M46 1428h200l55 -359h-143z" />
<glyph unicode="a" horiz-adv-x="1001" d="M-25 285q0 75 13 150t40 149q59 164 170 271t267 107q82 0 118 -27.5t36 -69.5v-14l21 101h274l-137 -647q-8 -33 -8 -61q0 -82 78 -82q102 0 155 179h80q-121 -352 -383 -352q-168 0 -187 175q-124 -175 -290 -175t-226 163q-21 58 -21 133zM257 312q0 -85 35 -119 q20 -20 51 -20q57 0 103.5 45t64.5 123l91 430q0 18 -16.5 45.5t-69.5 27.5t-103 -57q-121 -137 -152 -393q-4 -39 -4 -82z" />
<glyph unicode="b" horiz-adv-x="845" d="M-13 232q0 52 13 109l204 954l281 39l-91 -429q86 53 157 53q225 0 225 -326q0 -219 -110 -405q-86 -145 -234 -207q-78 -31 -194.5 -31t-183.5 64t-67 179zM259 261q0 -88 101 -88q84 0 158 158q65 148 65 289.5t-57 186.5q-19 16 -37 16q-36 0 -70.5 -9t-49.5 -25 l-104 -484q-6 -24 -6 -44z" />
<glyph unicode="c" horiz-adv-x="730" d="M-25 291q0 219 111 422q83 154 229 221q76 35 156 35q228 0 228 -173q0 -72 -29.5 -106t-67 -34t-71.5 22q23 61 23 112q0 79 -54.5 79t-114.5 -99q-86 -139 -119 -347q-9 -62 -9 -137q0 -137 131 -137q110 0 184.5 48.5t158.5 143.5h65q-214 -352 -524 -352 q-135 0 -216 70t-81 232z" />
<glyph unicode="d" horiz-adv-x="999" d="M-25 285q0 75 13 150t40 149q59 164 170 271t267 107q82 0 118 -27.5t36 -69.5v-8l93 438l282 39l-218 -1029q-9 -33 -9 -67q0 -65 78 -65q107 0 155 168h80q-119 -341 -382 -341q-165 0 -187 164q-116 -175 -285.5 -175t-229.5 163q-21 58 -21 133zM257 312 q0 -139 95 -139q40 0 88.5 38.5t68.5 119.5v10l93 436q-18 67 -78.5 67t-110.5 -57q-121 -137 -152 -393q-4 -39 -4 -82z" />
<glyph unicode="e" horiz-adv-x="730" d="M-25 291q0 218 111 421q84 156 230 222q76 35 156 35q132 0 179.5 -49.5t47.5 -132.5q0 -163 -131 -277t-307 -125q-4 -54 -4 -76q0 -98 34.5 -129t96.5 -31q110 0 184.5 48.5t158.5 143.5h65q-214 -352 -524 -352q-135 0 -216 70t-81 232zM276 476q110 8 193 102.5 t83 221.5q0 69 -47 69q-70 -2 -135 -123.5t-94 -269.5z" />
<glyph unicode="f" horiz-adv-x="508" d="M-396 -283q0 77 26 123t71 78q65 46 230 97l231 1088q68 324 347 324q88 0 156 -58t68 -148q0 -44 -6 -78h-89q4 30 4 57t-22 43t-43 16q-47 0 -85.5 -35.5t-55.5 -120.5l-32 -151h139l-14 -76h-140l-220 -1029q-65 -323 -340 -323q-88 0 -156.5 58t-68.5 135zM-291 -244 q0 -37 45 -57q14 -6 38 -6t53.5 32.5t47.5 116.5l25 111q-101 -36 -139 -66q-70 -58 -70 -131z" />
<glyph unicode="g" horiz-adv-x="965" d="M-25 285q0 75 13 150t40 149q59 164 170 271t267 107q82 0 118 -27.5t36 -69.5v-11l21 98h274l-189 -883q87 29 143 88t97 184h80q-72 -245 -245 -323q-48 -22 -91 -33l-29 -138q-36 -183 -145 -264q-80 -59 -183.5 -59t-165.5 45q-62 46 -62 146q0 174 310 278l24 100 q-100 -104 -229 -104q-173 0 -233 163q-21 58 -21 133zM229 -265q0 -38 36 -57q12 -5 35.5 -5t54 41t49.5 128l11 55q-186 -67 -186 -162zM257 312q0 -85 35 -119q20 -20 50 -20q53 0 98.5 40.5t64.5 108.5l97 451q0 43 -40 62q-15 9 -38 9q-61 0 -111 -57 q-121 -137 -152 -393q-4 -39 -4 -82z" />
<glyph unicode="h" d="M-73 0l277 1295l281 39l-102 -480q93 106 222 106q92 0 152 -50q60 -51 60 -149.5t-31 -222.5l-46 -185q-15 -60 -15 -98q0 -82 70 -82q64 0 98.5 41t68.5 127h80q-111 -321 -300 -348q-30 -4 -73.5 -4t-86.5 18q-119 51 -119 197q0 78 43 249t43 236q0 98 -69 98 t-123 -109q-16 -31 -26 -67l-129 -611h-275z" />
<glyph unicode="i" horiz-adv-x="508" d="M-15 217q0 54 15 124l129 611h275l-137 -647q-8 -34 -8 -68q0 -64 78 -64q55 0 103 48.5t69 119.5h80q-123 -352 -410 -352q-76 0 -135 54t-59 174zM167 1205q0 63 43.5 108t107 45t108.5 -45q45 -44 45 -108q0 -63 -45.5 -106t-108 -43t-106.5 43q-44 44 -44 106z" />
<glyph unicode="j" horiz-adv-x="457" d="M-385 -291q0 154 203 242q56 24 109 42l204 959h274l-188 -883q88 30 144 88q56 59 97 184h80q-75 -244 -246 -322q-47 -23 -92 -34l-29 -138q-36 -183 -145 -264q-80 -59 -182.5 -59t-165.5 46t-63 139zM-280 -265q0 -38 36 -57q12 -5 35.5 -5t54 41t49.5 128l12 55 q-187 -65 -187 -162zM153 1207q0 62 43 107.5t106 45.5t108 -45t45 -108t-45 -106.5t-107.5 -43.5t-106.5 44q-43 44 -43 106z" />
<glyph unicode="k" horiz-adv-x="986" d="M-73 0l277 1295l281 39l-142 -671l368 289h188l-381 -265q33 9 63 9q105 0 157 -66t52 -158q0 -33 -7 -72l-21 -95q-10 -39 -10 -61q0 -71 77.5 -71t126.5 100q15 31 31 68h80q-119 -352 -351 -352q-119 0 -179.5 56t-60.5 161q0 43 11 99l16 74q8 40 8 70q0 92 -69 92 q-54 0 -141 -70l-99 -471h-275z" />
<glyph unicode="l" horiz-adv-x="508" d="M-15 217q0 54 15 124l204 954l281 39l-218 -1029q-8 -34 -8 -68q0 -64 78 -64q55 0 103 48.5t69 119.5h80q-123 -352 -410 -352q-76 0 -135 54t-59 174z" />
<glyph unicode="m" horiz-adv-x="1432" d="M-73 0l202 952h275l-21 -98q95 108 233 108q168 0 195 -164q105 162 265 162q90 0 151 -50q60 -51 60 -147.5t-31 -223.5l-45 -186q-15 -60 -15 -98q0 -82 70 -82q64 0 98.5 41t67.5 127h80q-70 -210 -178 -295q-75 -57 -157 -57q-243 0 -243 215q0 78 42.5 249t42.5 236 q0 98 -68.5 98t-122.5 -109q-16 -31 -26 -67l-130 -611h-274l140 658q5 22 5 47q0 84 -56 84t-95.5 -52.5t-60.5 -125.5l-129 -611h-275z" />
<glyph unicode="n" d="M-73 0l202 952h275l-21 -98q93 106 222 106q92 0 152 -50q60 -51 60 -149.5t-31 -222.5l-46 -185q-15 -60 -15 -98q0 -82 70 -82q64 0 98.5 41t68.5 127h80q-111 -321 -300 -348q-30 -4 -73.5 -4t-86.5 18q-119 51 -119 197q0 78 43 249t43 236q0 98 -69 98t-123 -109 q-16 -31 -26 -67l-129 -611h-275z" />
<glyph unicode="o" horiz-adv-x="836" d="M-27 280q0 69 11.5 140t36.5 146q57 171 165 277q128 126 309 126q244 0 244 -304v-2q10 -2 32 -2q51 0 131.5 32.5t151.5 82.5l16 -52q-115 -121 -337 -159q-22 -260 -149.5 -416t-305.5 -156q-219 0 -283 161q-22 57 -22 126zM257 318q0 -92 16.5 -116.5t35 -31 t50.5 -6.5q65 0 129 114t87 282q-51 13 -51 84.5t59 98.5q-4 61 -19 86t-60 25q-87 0 -167 -193t-80 -343z" />
<glyph unicode="p" horiz-adv-x="890" d="M-173 -476l318 1499h274l-30 -143q95 82 222 82q165 0 215 -158q18 -58 18 -133t-9 -150t-30.5 -149.5t-56.5 -143.5t-87 -122.5t-123 -85t-177.5 -31.5t-147.5 68l-99 -464zM244 198q16 -44 81 -44t116 54q99 106 128 304q14 87 14 155q0 158 -96 158q-32 0 -68 -23.5 t-63 -70.5z" />
<glyph unicode="q" horiz-adv-x="925" d="M-25 285q0 75 13 150t40 149q59 164 170 271t267 107q82 0 118 -27.5t36 -69.5v-4l19 91h274l-289 -1359l-288 -69l120 569q-98 -104 -226 -104q-173 0 -233 163q-21 58 -21 133zM257 312q0 -139 95 -139q40 0 83 35t66 101l101 470q-5 17 -21 41t-67 24t-101 -57 q-121 -137 -152 -393q-4 -39 -4 -82z" />
<glyph unicode="r" horiz-adv-x="716" d="M-73 0l202 952h275l-25 -118q48 42 105 80t123.5 38t100.5 -43q33 -44 33 -84q0 -69 -36.5 -111.5t-88.5 -42.5t-69 23.5t-20.5 48t-9.5 39t-26 14.5q-39 0 -69 -18t-68 -54l-152 -724h-275z" />
<glyph unicode="s" horiz-adv-x="727" d="M-61 217q0 82 31 128q32 46 70 64q134 240 234 565l282 37q8 -179 15 -299l23 -302q4 -45 4 -88.5t-7 -75.5q83 48 136 95h80q-118 -137 -291 -238q-108 -114 -299 -114q-134 0 -206 73t-72 155zM40 272q0 -132 100 -132q182 0 182 176q0 49 -8 116l-11 109 q-10 104 -17 226q-49 -156 -155 -360q44 -20 44 -60.5t-23 -70t-61.5 -29.5t-50.5 25z" />
<glyph unicode="t" horiz-adv-x="508" d="M-15 217q0 54 15 124l114 535h-63l16 76h62l58 264l282 38l-65 -302h114l-15 -76h-114l-122 -571q-8 -34 -8 -68q0 -64 78 -64q55 0 103 48.5t69 119.5h80q-123 -352 -410 -352q-76 0 -135 54t-59 174z" />
<glyph unicode="u" d="M-15 217q0 54 15 124l129 611h275l-137 -647q-6 -30 -6 -54q0 -78 57 -78q100 0 153 168l129 611h274l-137 -647q-8 -33 -8 -67q0 -65 78 -65q107 0 155 168h80q-121 -352 -383 -352q-170 0 -188 180q-112 -180 -282 -180q-86 0 -145 54t-59 174z" />
<glyph unicode="v" horiz-adv-x="788" d="M-17 213q0 47 10 92l136 647h275l-137 -647q-10 -46 -10 -69q0 -63 65 -63q88 0 168 119q108 159 150 398q11 67 11 119q-5 -10 -27 -14l-20 -4q-8 -1 -13 -1q-34 0 -51.5 32.5t-17.5 70.5t28.5 67.5t76.5 29.5q75 0 104 -47.5t29 -120.5t-13 -165t-41 -185 q-62 -209 -185.5 -346t-303.5 -137q-108 0 -171 55t-63 169z" />
<glyph unicode="w" horiz-adv-x="1259" d="M-15 217q0 54 15 124l129 611h275l-137 -647q-6 -24 -6 -48q0 -84 57 -84q100 0 153 168l129 611h274l-137 -647q-10 -46 -10 -69q0 -63 65 -63q89 0 169 119q108 159 149 398q12 67 12 119q-5 -10 -27 -14l-20 -4q-8 -1 -14 -1q-33 0 -51 32.5t-18 71t28.5 67.5t76.5 29 q76 0 104.5 -47.5t28.5 -120.5t-13 -165t-41 -185q-62 -209 -174 -334q-134 -149 -321.5 -149t-221.5 160q-106 -160 -270 -160q-86 0 -145 54t-59 174z" />
<glyph unicode="x" horiz-adv-x="994" d="M0 341q46 199 85 284.5t66 131.5q59 96 132.5 150.5t149 54.5t113 -22t68 -66t42.5 -138l16 -145q159 177 166 274q-16 -4 -33 -4q-89 0 -89 106q0 50 39 72t78 22q62 0 90.5 -52t28.5 -109t-16 -100q-31 -82 -132 -197l-117 -131l18 -133q11 -91 32.5 -120t41 -37.5 t44.5 -8.5q55 0 102 47q48 48 69 121h80q-71 -199 -190 -287q-89 -65 -191 -65h-8q-179 0 -232 331l-262 -320h-138l385 434l-31 213q-15 97 -30.5 127.5t-42.5 30.5q-61 0 -134 -121t-120 -343h-80z" />
<glyph unicode="y" horiz-adv-x="925" d="M-15 217q0 54 15 124l129 611h275l-137 -647q-6 -24 -6 -48q0 -84 54.5 -84t92.5 45q37 45 59 111l133 623h274l-189 -883q87 29 143 88t97 184h80q-72 -245 -245 -323q-48 -22 -91 -33l-29 -138q-36 -183 -145 -264q-80 -59 -183.5 -59t-165.5 45q-62 46 -62 146 q0 174 310 278l24 102q-99 -106 -229 -106q-86 0 -145 54t-59 174zM189 -265q0 -38 36 -57q12 -5 35.5 -5t54 41t49.5 128l11 55q-186 -67 -186 -162z" />
<glyph unicode="z" horiz-adv-x="815" d="M0 0l485 849h-106q-44 0 -74.5 -4.5t-30.5 -25.5q0 -4 3.5 -5t10.5 -6t7 -44.5t-32 -63.5t-60 -24q-46 0 -72 22.5t-26 56.5q0 74 63.5 135.5t157.5 61.5h490l-467 -805q12 -1 29 -3l36 -4q43 -5 78 -5q85 0 91 38q-36 4 -36 40q0 28 26 55t80 27q84 0 84 -91 q0 -74 -65 -139t-167 -65h-505z" />
<glyph unicode="{" horiz-adv-x="670" d="M57 -270q0 70 28 141.5t65 147.5l74 154q62 130 62 202q0 59 -79 59q-24 0 -60 -5l22 109q33 -7 69 -7q70 0 101 72q17 45 17 140l-13 302q0 132 67 246q81 137 237 137h82l-17 -94q-99 0 -128 -17t-45 -34q-52 -56 -69 -120t-19 -142l12 -325q-6 -154 -76 -212 q22 -27 22 -79t-26 -115l-94 -204q-106 -218 -106 -322q0 -153 162 -153l-18 -85h-16q-96 0 -139 13.5t-79 67t-36 123.5z" />
<glyph unicode="|" horiz-adv-x="1013" d="M418 -476v1906h176v-1906h-176z" />
<glyph unicode="}" horiz-adv-x="670" d="M57 -474l17 95q97 0 127 16q128 73 134 296l-11 326q6 153 76 212q-22 26 -22 79.5t40 145.5t77.5 170.5t73 165.5t35.5 158q0 153 -162 153l17 85h17q94 0 138 -12.5t79.5 -66t35.5 -113.5t-13 -107q-23 -85 -80 -193l-50 -103q-85 -178 -85 -254q0 -59 78 -59 q23 0 61 5l-22 -107q-36 5 -71 5q-68 0 -99 -71q-17 -46 -17 -141l13 -302q0 -132 -67 -246q-81 -137 -237 -137h-83z" />
<glyph unicode="~" horiz-adv-x="821" d="M93 1109q97 186 318 186q76 0 140 -21.5t98.5 -31.5t75.5 -10q77 0 120 44l12 -2q-17 -71 -109 -130q-93 -61 -177 -61q-85 0 -155.5 24.5t-107.5 35.5t-77 11q-72 0 -126 -49z" />
<glyph unicode="&#xa1;" horiz-adv-x="417" d="M-116 -472l247 893h162l-135 -893h-274zM113 707.5q0 62.5 43 108t106.5 45.5t108 -45t44.5 -108.5t-45 -106.5t-107.5 -43t-106.5 44q-43 43 -43 105.5z" />
<glyph unicode="&#xa2;" horiz-adv-x="767" d="M59 602q0 202 105.5 353.5t290.5 178.5l43 233h109l-51 -231q117 -7 156 -72q15 -24 15 -57t-9 -64h-109q10 36 10 53q0 65 -70 65h-10l-145 -654q10 -2 29 -2q76 0 121 30q81 55 130 100q-21 -120 -94 -186.5t-215 -72.5l-72 -327h-51l59 329q-106 16 -174 99.5 t-68 224.5zM259 625q0 -138 70 -189l105 581q-119 -95 -162 -292q-13 -59 -13 -100z" />
<glyph unicode="&#xa3;" horiz-adv-x="885" d="M47 638q66 128 200 169l138 563l286 58l-153 -630l78 -24q38 -12 99 -12t105 43l11 -1q-16 -70 -108 -130.5t-198 -60.5h-31l-107 -440q34 5 66 5.5t65 1.5q79 4 150 28t165 93q-15 -137 -67 -219t-130 -82h-563l164 682l-32 2q-72 0 -126 -50z" />
<glyph unicode="&#xa4;" horiz-adv-x="952" d="M129 937l73 68l107 -106q77 57 172.5 57t169.5 -55l107 106l69 -68l-105 -105q57 -79 57 -174t-57 -175l105 -104l-69 -69l-105 106q-73 -56 -170 -56t-176 57l-107 -107l-69 69l107 106q-55 74 -55 171t55 171zM291 659.5q0 -79.5 55 -135.5q57 -55 136.5 -55t134.5 55 t55 135t-55 135t-134.5 55t-135.5 -55t-56 -134.5z" />
<glyph unicode="&#xa5;" horiz-adv-x="903" d="M36 271l27 94h183l26 124h-188l27 96h182v2l-213 841h312l168 -687l285 687h126l-373 -841v-2h249l-26 -96h-243l-27 -124h249l-27 -94h-244l-57 -271h-305l58 271h-189z" />
<glyph unicode="&#xa6;" horiz-adv-x="1013" d="M418 423h176v-899h-176v899zM418 573v857h176v-857h-176z" />
<glyph unicode="&#xa7;" horiz-adv-x="1032" d="M15 147q0 103 52 169q53 65 120.5 65t101.5 -31t60 -64q-125 -12 -146 -83q-9 -25 -9 -80.5t35.5 -92.5t113.5 -37q160 0 160 184q-3 147 -110 256l-124 116q-109 96 -109 198t57 171.5t141 100.5q-10 44 -10 103t37 124q69 120 221 162q81 21 156 21t141 -28 q97 -41 97 -150t-73 -146q-23 -11 -59.5 -11t-63.5 29q32 20 50 56.5t18 66.5q0 54 -27.5 83t-72.5 29q-83 0 -134 -61.5t-51 -142.5q0 -109 118 -205q33 -28 70 -55q86 -64 137 -137t51 -184t-58.5 -201.5t-161.5 -112.5v-6q0 -164 -109 -260t-305 -96q-238 0 -298 153 q-16 41 -16 97zM362 861q0 -42 23 -76.5t59 -69t81 -71.5q172 -144 206 -295q36 45 36 123q0 127 -128 231l-137 109q-61 47 -104 113q-36 -22 -36 -64z" />
<glyph unicode="&#xa8;" horiz-adv-x="746" d="M107 1206.5q0 48.5 33 82.5t82 34t83 -33.5t34 -82.5t-34 -83q-35 -32 -71 -32q-61 0 -94 33t-33 81.5zM449 1206.5q0 49.5 33.5 83t82 33.5t83 -33.5t34.5 -82.5t-35 -83q-35 -32 -70 -32q-61 0 -94.5 32.5t-33.5 82z" />
<glyph unicode="&#xa9;" horiz-adv-x="1117" d="M97 631q0 204 135.5 345.5t325.5 141.5t325.5 -142t135.5 -343.5t-135.5 -344.5t-326 -143t-325.5 141.5t-135 344.5zM185 631q0 -171 109.5 -288.5t266.5 -117.5t266.5 117t109.5 289q0 171 -110 288t-266.5 117t-266 -117.5t-109.5 -287.5zM289 641q0 120 82.5 200.5 t199.5 80.5q91 -5 155 -55t81 -126l-89 -34l-13 37q-29 79 -130 79q-73 0 -127 -43t-54 -130.5t53 -146t128 -58.5q44 0 83.5 23t59.5 63l84 -55q-40 -61 -102 -95t-126 -34q-120 0 -202.5 87t-82.5 207z" />
<glyph unicode="&#xaa;" horiz-adv-x="657" d="M82 1042q0 43 14 112t47.5 125t89 92t117 36t95.5 -26l6 29h158l-80 -351l-3.5 -17.5t-1.5 -16.5q0 -38 40 -38h13q8 0 15 3q-24 -67 -54.5 -80.5t-59.5 -13.5q-87 0 -111 75q-67 -82 -161 -82q-124 0 -124 153zM231 1047q0 -45 22 -58t42 -13q34 0 69 49l70 307 q-21 18 -54 18q-62 0 -105.5 -95.5t-43.5 -207.5z" />
<glyph unicode="&#xab;" horiz-adv-x="1121" d="M38 453l17 78l585 286l-19 -105l-459 -228l369 -183l-22 -108zM438 453l17 78l585 286l-19 -105l-459 -228l369 -183l-22 -108z" />
<glyph unicode="&#xac;" horiz-adv-x="845" d="M36 423l35 150h689l-97 -476h-216l67 326h-478z" />
<glyph unicode="&#xad;" horiz-adv-x="552" d="M36 423l35 150h380l-32 -150h-383z" />
<glyph unicode="&#xae;" horiz-adv-x="1053" d="M65 636.5q0 202.5 134 344.5t325 142t327 -141.5t136 -343.5t-136 -344.5t-326 -142.5t-325 141q-135 142 -135 344.5zM153 636q0 -170 109 -287.5t266 -117.5t267 117t110 288t-110.5 288.5t-267 117.5t-265.5 -118t-109 -288zM335 365l2 555h179q102 0 165.5 -41 t63.5 -119q0 -53 -31 -92t-82 -55l124 -238l-89 -13l-118 238h-126v-235h-88zM423 672h99q136 0 136 84q0 66 -93 81q-24 5 -47 5h-95v-170z" />
<glyph unicode="&#xb0;" horiz-adv-x="597" d="M71 915q0 188 83.5 305t224.5 117q84 0 120 -55t36 -176.5t-77 -257.5t-211 -136q-99 0 -137.5 53t-38.5 150zM207 945q0 -86 9.5 -124t44.5 -38q70 0 115 109.5t45 257.5q0 52 -8.5 86t-39.5 34q-47 0 -95 -72q-24 -36 -47.5 -101.5t-23.5 -151.5z" />
<glyph unicode="&#xb1;" horiz-adv-x="1015" d="M59 129l34 151h699l-32 -151h-701zM158 589l46 213h243l52 232h215l-51 -232h242l-44 -213h-243l-53 -235h-214l51 235h-244z" />
<glyph unicode="&#xb2;" horiz-adv-x="571" d="M6 707q0 36 27 83t67 91t87 87.5t88 91.5q94 112 94 227q0 58 -42 78q-12 7 -31 7q-46 0 -64.5 -20.5t-18.5 -45.5q0 -77 42 -87q-42 -36 -80 -36t-61 23.5t-23 60.5q0 68 56 114t173 46q209 0 209 -164q0 -86 -47.5 -150t-115.5 -120l-131 -102q-66 -47 -100 -99h8 q53 0 106.5 -9.5t107 -9.5t73.5 14q42 30 71 58q0 -114 -15 -144q-28 -56 -117 -56q-59 0 -138 19.5t-112 19.5t-45 -4t-23.5 -8.5t-22 -10t-19.5 -8.5q-3 18 -3 54z" />
<glyph unicode="&#xb3;" horiz-adv-x="601" d="M25 826q0 64 33 106t103.5 42t84.5 -52q-87 -10 -95 -81q-2 -21 -2 -43q0 -82 88 -82q66 0 105 53.5t39 118.5t-34 120.5t-109 78.5q88 22 138.5 82.5t50.5 108.5q0 94 -71 94q-99 0 -99 -83q0 -37 15.5 -52t26.5 -18q-43 -36 -80.5 -36t-60.5 23.5t-23 60.5 q0 68 61.5 114t167.5 46t154.5 -45t48.5 -100q0 -126 -149 -197q72 -20 104 -65.5t32 -96.5q0 -101 -83 -186.5t-200 -85.5q-160 0 -221 78q-25 33 -25 97z" />
<glyph unicode="&#xb4;" horiz-adv-x="601" d="M229 1069l173 359h200l-231 -359h-142z" />
<glyph unicode="&#xb5;" d="M-140 -316l269 1268h275l-137 -647q-6 -24 -6 -48q0 -84 57 -84q100 0 153 168l129 611h274l-137 -647q-8 -33 -8 -67q0 -65 78 -65q107 0 155 168h80q-119 -341 -383 -341q-168 0 -187 171q-106 -171 -272 -171l-51 -247z" />
<glyph unicode="&#xb6;" horiz-adv-x="1032" d="M137 936q0 190 126 340q127 151 360.5 151t313.5 -170q28 -59 28 -132q0 -71 -15 -149l-241 -1130h-180l155 723q-33 -12 -82 -20l-147 -703h-179l147 703q-138 25 -213 135q-73 110 -73 252zM623 645h11q36 0 67 8l91 432q12 54 12 96q0 78 -44 118z" />
<glyph unicode="&#xb7;" horiz-adv-x="826" d="M229 508q0 76 53 130q53 55 129 55t130 -55q55 -54 55 -129q0 -77 -55 -130t-130.5 -53t-128.5 53t-53 129z" />
<glyph unicode="&#xb8;" horiz-adv-x="432" d="M0 -362q35 61 71 61q49 0 85 -25.5t61 -25.5t41 24.5t16 53t-17 49.5t-63 21t-93 -23l101 282l67 -44l-56 -137q59 15 101 15q118 0 118 -95.5t-69 -152t-150 -56.5t-115 11.5t-55 22.5z" />
<glyph unicode="&#xb9;" horiz-adv-x="412" d="M42 658l147 641h-105l13 48q100 0 164.5 26.5t116.5 53.5l-176 -769h-160z" />
<glyph unicode="&#xba;" horiz-adv-x="626" d="M80 1058q0 176 83 268.5t206 92.5q39 0 72 -13t33 -34.5t-16 -31.5t-33 -17q-16 37 -46.5 37t-52 -16t-38.5 -42q-30 -50 -45.5 -117t-15.5 -118q0 -78 78 -78q86 0 113 205q-29 7 -29 38.5t23 56.5t47.5 25t32 -7.5t7.5 -28.5q26 17 46 42l17 19l11 -21 q-30 -83 -74 -109q-8 -148 -84 -235t-163.5 -87t-129.5 39t-42 132z" />
<glyph unicode="&#xbb;" horiz-adv-x="1116" d="M29 193l26 108l457 183l-369 228l17 105l469 -286l-22 -102zM451 193l27 108l458 183l-371 228l18 105l468 -286l-21 -102z" />
<glyph unicode="&#xbc;" horiz-adv-x="1312" d="M133 429l147 641h-105l13 48q100 0 165 26.5t116 53.5l-176 -769h-160zM265 -314l502 1742h138l-503 -1742h-137zM712 286q14 41 41 92q119 224 119 333q0 32 -7 62q48 0 86 -24t38 -73q0 -100 -114 -244q-28 -36 -48 -72h171l89 392l165 21l-96 -413h73l-24 -74h-66 l-65 -284h-158l65 284h-269z" />
<glyph unicode="&#xbd;" horiz-adv-x="1285" d="M133 429l147 641h-105l13 48q100 0 165 26.5t116 53.5l-176 -769h-160zM255 -314l503 1742h138l-504 -1742h-137zM697 60q0 36 27 83t67 91t87 88q182 167 182 318q0 58 -42 78q-12 6 -32 6q-44 0 -63 -20t-19 -46q0 -76 42 -86q-42 -36 -80 -36t-61 23.5t-23 59.5 q0 69 56 114.5t173 45.5q209 0 209 -163q0 -86 -47.5 -150t-115.5 -120l-131 -102q-66 -48 -100 -99h8q53 0 106.5 -9.5t107 -9.5t74.5 14q40 30 70 58q0 -114 -15 -144q-28 -56 -117 -56q-59 0 -137.5 19t-112 19t-52 -5.5t-34 -14t-24.5 -10.5q-3 18 -3 54z" />
<glyph unicode="&#xbe;" horiz-adv-x="1559" d="M116 597q0 64 33 106t104 42t84 -52q-87 -9 -95 -81q-2 -21 -2 -43q0 -82 88 -82q66 0 105 53.5t39 118.5t-33.5 120.5t-109.5 78.5q88 23 138.5 83.5t50.5 107.5q0 94 -71 94q-99 0 -99 -83q0 -37 15.5 -52t27.5 -18q-44 -36 -81.5 -36t-60.5 24t-23 60q0 68 61.5 114 t167.5 46t154.5 -44.5t48.5 -100.5q0 -126 -149 -196q72 -21 104 -66.5t32 -96.5q0 -101 -83 -186.5t-200 -85.5q-160 0 -221 78q-25 33 -25 97zM485 -314l504 1742h136l-502 -1742h-138zM939 286q14 41 41 92l52 106q67 137 67 227q0 32 -7 62q48 0 86 -24t38 -73 q0 -100 -114 -244q-28 -36 -48 -72h171l89 392l164 21l-95 -413h72l-23 -74h-67l-64 -284h-158l64 284h-268z" />
<glyph unicode="&#xbf;" horiz-adv-x="836" d="M23 -221.5q0 65.5 25 128.5q45 112 158 206l103 86q125 109 173 222h125q0 -111 -90 -226q-38 -49 -82.5 -95.5t-82.5 -96.5q-91 -117 -91 -227q0 -143 107 -143q57 0 103.5 45t46.5 111.5t-39 106.5q-14 15 -34 20q51 80 140 80q56 0 100 -40.5t44 -104.5 q0 -129 -91 -216q-111 -106 -309 -106q-243 0 -292 143q-14 41 -14 106.5zM440 709v2q0 61 43 106.5t106.5 45.5t108.5 -45t45 -107v-2q0 -65 -45.5 -108t-108 -43t-105.5 44q-44 43 -44 107z" />
<glyph unicode="&#xc0;" horiz-adv-x="1272" d="M17 636q0 99 110 168q113 68 278 68q39 0 100 -5q154 242 327.5 401.5t334.5 159.5q97 0 151 -26l-299 -1402h-274l146 691q-127 58 -255 69q-171 -379 -229 -695q-18 -101 -18 -173t26 -109q-113 0 -158 24q-97 48 -97 178q0 197 166 554q52 112 114 221 q-89 -6 -146.5 -27.5t-76.5 -71.5q8 0 16.5 -19t8.5 -47t-31.5 -48t-65.5 -20q-62 0 -95 29.5t-33 79.5zM676 842q133 -26 233 -66l110 518q-163 -90 -343 -452zM832 1905h200l56 -360h-143z" />
<glyph unicode="&#xc1;" horiz-adv-x="1272" d="M17 636q0 99 110 168q113 68 278 68q39 0 100 -5q154 242 327.5 401.5t334.5 159.5q97 0 151 -26l-299 -1402h-274l146 691q-127 58 -255 69q-171 -379 -229 -695q-18 -101 -18 -173t26 -109q-113 0 -158 24q-97 48 -97 178q0 197 166 554q52 112 114 221 q-89 -6 -146.5 -27.5t-76.5 -71.5q8 0 16.5 -19t8.5 -47t-31.5 -48t-65.5 -20q-62 0 -95 29.5t-33 79.5zM676 842q133 -26 233 -66l110 518q-163 -90 -343 -452zM926 1545l173 360h200l-230 -360h-143z" />
<glyph unicode="&#xc2;" horiz-adv-x="1272" d="M17 636q0 99 110 168q113 68 278 68q39 0 100 -5q154 242 327.5 401.5t334.5 159.5q97 0 151 -26l-299 -1402h-274l146 691q-127 58 -255 69q-171 -379 -229 -695q-18 -101 -18 -173t26 -109q-113 0 -158 24q-97 48 -97 178q0 197 166 554q52 112 114 221 q-89 -6 -146.5 -27.5t-76.5 -71.5q8 0 16.5 -19t8.5 -47t-31.5 -48t-65.5 -20q-62 0 -95 29.5t-33 79.5zM676 842q133 -26 233 -66l110 518q-163 -90 -343 -452zM776 1545l403 360h40l115 -360h-61l-114 152l-300 -152h-83z" />
<glyph unicode="&#xc3;" horiz-adv-x="1272" d="M17 636q0 99 110 168q113 68 278 68q39 0 100 -5q154 242 327.5 401.5t334.5 159.5q97 0 151 -26l-299 -1402h-274l146 691q-127 58 -255 69q-171 -379 -229 -695q-18 -101 -18 -173t26 -109q-113 0 -158 24q-97 48 -97 178q0 197 166 554q52 112 114 221 q-89 -6 -146.5 -27.5t-76.5 -71.5q8 0 16.5 -19t8.5 -47t-31.5 -48t-65.5 -20q-62 0 -95 29.5t-33 79.5zM676 842q133 -26 233 -66l110 518q-163 -90 -343 -452zM779 1585q92 187 318 187q74 0 138.5 -22t100 -32t93 -10t103.5 44l11 -2q-16 -69 -109.5 -129.5t-197.5 -60.5 q-64 0 -135 24t-108 35t-77 11q-72 0 -126 -49z" />
<glyph unicode="&#xc4;" horiz-adv-x="1272" d="M17 636q0 99 110 168q113 68 278 68q39 0 100 -5q154 242 327.5 401.5t334.5 159.5q97 0 151 -26l-299 -1402h-274l146 691q-127 58 -255 69q-171 -379 -229 -695q-18 -101 -18 -173t26 -109q-113 0 -158 24q-97 48 -97 178q0 197 166 554q52 112 114 221 q-89 -6 -146.5 -27.5t-76.5 -71.5q8 0 16.5 -19t8.5 -47t-31.5 -48t-65.5 -20q-62 0 -95 29.5t-33 79.5zM676 842q133 -26 233 -66l110 518q-163 -90 -343 -452zM819 1682.5q0 48.5 33 82.5q33 35 82 35t83.5 -34t34.5 -83t-35 -82t-70 -33q-62 0 -95 33t-33 81.5z M1162 1682.5q0 49.5 33.5 83.5t81.5 34t82.5 -34t34.5 -83t-34 -82q-36 -33 -71 -33q-60 0 -93.5 32.5t-33.5 82z" />
<glyph unicode="&#xc5;" horiz-adv-x="1272" d="M17 636q0 99 110 168q113 68 278 68q39 0 100 -5q154 242 327.5 401.5t334.5 159.5q97 0 151 -26l-299 -1402h-274l146 691q-127 58 -255 69q-171 -379 -229 -695q-18 -101 -18 -173t26 -109q-113 0 -158 24q-97 48 -97 178q0 197 166 554q52 112 114 221 q-89 -6 -146.5 -27.5t-76.5 -71.5q8 0 16.5 -19t8.5 -47t-31.5 -48t-65.5 -20q-62 0 -95 29.5t-33 79.5zM676 842q133 -26 233 -66l110 518q-163 -90 -343 -452zM923 1646q0 120 88 170q31 18 88 18t90.5 -43.5t33.5 -104.5t-37.5 -110t-113.5 -49t-112 39q-37 39 -37 80z M1000 1665q0 -71 65 -71q87 0 87 87q0 63 -28 82q-13 9 -35 9q-48 0 -68.5 -35.5t-20.5 -71.5z" />
<glyph unicode="&#xc6;" horiz-adv-x="1455" d="M17 637q0 98 112.5 164t259.5 66q49 0 112 -6q240 392 493 524q88 45 171 45q39 0 79 -5l82 -13q116 -20 182 -20q115 0 224 36l-22 -68q-43 -141 -183 -141q-72 0 -126 20l-109 41l-103 -482h294l-38 -140h-287l-97 -456h426l-40 -202h-702l146 691q-138 61 -257 69 q-167 -367 -227 -692q-18 -101 -18 -157t4 -75t8.5 -28.5t9 -13t4.5 -9.5q-129 5 -170 29q-85 49 -85 184q0 190 166 543q52 110 114 219q-86 -6 -144 -27t-79 -72q8 0 16.5 -19t8.5 -45t-27.5 -48t-79 -22t-85.5 28q-33 28 -33 82zM672 840q122 -23 237 -64l110 518 q-171 -95 -347 -454z" />
<glyph unicode="&#xc7;" horiz-adv-x="946" d="M36 425q0 239 79 477q92 281 272 420q138 106 314 106q222 0 293 -138q25 -48 25 -116q0 -176 -134 -176q-67 0 -108 49q35 19 61.5 70t26.5 101.5t-26.5 85.5t-84.5 35t-108 -39t-94 -106q-88 -134 -144 -342t-56 -378t50 -245.5t171 -75.5q238 0 379 190l44 -19 q-91 -231 -347 -320q-69 -24 -140 -32l-39 -98q59 15 101 15q118 0 118 -95.5t-69 -152t-150 -56.5t-115 11.5t-56 22.5l-42 19q35 61 70 61q50 0 85.5 -25.5t60.5 -25.5t41.5 24.5t16.5 53t-17 49.5t-63 21t-93 -23l70 197q-196 4 -294 110t-98 345z" />
<glyph unicode="&#xc8;" horiz-adv-x="874" d="M13 308.5q0 150.5 97.5 298.5t254.5 187q-116 85 -116 233.5t121 276.5t297 128q118 0 195 -61.5t77 -161.5t-41.5 -156.5t-96.5 -56.5t-92 51q33 13 58 63.5t25 105.5t-33 79q-35 25 -75 25q-80 0 -135.5 -82.5t-55.5 -186.5q0 -143 104 -216q37 -26 88 -39 q-145 -32 -242.5 -174t-97.5 -281q0 -80 42 -136t137.5 -56t198.5 51t155 143l44 -19q-76 -166 -230 -262t-328 -96t-262.5 96t-88.5 246.5zM480 1905h200l56 -360h-144z" />
<glyph unicode="&#xc9;" horiz-adv-x="874" d="M13 308.5q0 150.5 97.5 298.5t254.5 187q-116 85 -116 233.5t121 276.5t297 128q118 0 195 -61.5t77 -161.5t-41.5 -156.5t-96.5 -56.5t-92 51q33 13 58 63.5t25 105.5t-33 79q-35 25 -75 25q-80 0 -135.5 -82.5t-55.5 -186.5q0 -143 104 -216q37 -26 88 -39 q-145 -32 -242.5 -174t-97.5 -281q0 -80 42 -136t137.5 -56t198.5 51t155 143l44 -19q-76 -166 -230 -262t-328 -96t-262.5 96t-88.5 246.5zM629 1545l173 360h200l-231 -360h-142z" />
<glyph unicode="&#xca;" horiz-adv-x="874" d="M13 308.5q0 150.5 97.5 298.5t254.5 187q-116 85 -116 233.5t121 276.5t297 128q118 0 195 -61.5t77 -161.5t-41.5 -156.5t-96.5 -56.5t-92 51q33 13 58 63.5t25 105.5t-33 79q-35 25 -75 25q-80 0 -135.5 -82.5t-55.5 -186.5q0 -143 104 -216q37 -26 88 -39 q-145 -32 -242.5 -174t-97.5 -281q0 -80 42 -136t137.5 -56t198.5 51t155 143l44 -19q-76 -166 -230 -262t-328 -96t-262.5 96t-88.5 246.5zM385 1545l404 360h40l114 -360h-60l-115 152l-299 -152h-84z" />
<glyph unicode="&#xcb;" horiz-adv-x="874" d="M13 308.5q0 150.5 97.5 298.5t254.5 187q-116 85 -116 233.5t121 276.5t297 128q118 0 195 -61.5t77 -161.5t-41.5 -156.5t-96.5 -56.5t-92 51q33 13 58 63.5t25 105.5t-33 79q-35 25 -75 25q-80 0 -135.5 -82.5t-55.5 -186.5q0 -143 104 -216q37 -26 88 -39 q-145 -32 -242.5 -174t-97.5 -281q0 -80 42 -136t137.5 -56t198.5 51t155 143l44 -19q-76 -166 -230 -262t-328 -96t-262.5 96t-88.5 246.5zM454 1682.5q0 48.5 32 82.5q34 35 83 35t83 -34t34 -83t-34 -82q-35 -33 -72 -33q-61 0 -93.5 33t-32.5 81.5zM796 1682.5 q0 49.5 33.5 83.5t82 34t83 -34t34.5 -83t-35 -82t-71 -33q-60 0 -93.5 32.5t-33.5 82z" />
<glyph unicode="&#xcc;" horiz-adv-x="714" d="M11 934q0 96 60 184.5t155 157.5q217 152 454 152q39 0 76 -3l-303 -1425h-274l276 1294q-266 -112 -266 -416q0 -77 21 -116q5 -8 5 -13q-153 0 -191 97q-13 36 -13 88zM326 1905h199l56 -360h-143z" />
<glyph unicode="&#xcd;" horiz-adv-x="714" d="M11 934q0 96 60 184.5t155 157.5q217 152 454 152q39 0 76 -3l-303 -1425h-274l276 1294q-266 -112 -266 -416q0 -77 21 -116q5 -8 5 -13q-153 0 -191 97q-13 36 -13 88zM512 1545l173 360h200l-230 -360h-143z" />
<glyph unicode="&#xce;" horiz-adv-x="714" d="M11 934q0 96 60 184.5t155 157.5q217 152 454 152q39 0 76 -3l-303 -1425h-274l276 1294q-266 -112 -266 -416q0 -77 21 -116q5 -8 5 -13q-153 0 -191 97q-13 36 -13 88zM287 1545l404 360h40l114 -360h-60l-114 152l-300 -152h-84z" />
<glyph unicode="&#xcf;" horiz-adv-x="714" d="M11 934q0 96 60 184.5t155 157.5q217 152 454 152q39 0 76 -3l-303 -1425h-274l276 1294q-266 -112 -266 -416q0 -77 21 -116q5 -8 5 -13q-153 0 -191 97q-13 36 -13 88zM318 1682.5q0 48.5 33 82.5q33 35 82 35t83.5 -34t34.5 -83t-35 -82t-71 -33q-62 0 -94.5 33 t-32.5 81.5zM660 1682.5q0 49.5 33.5 83.5t82 34t83 -34t34.5 -83t-35 -82t-71 -33q-60 0 -93.5 32.5t-33.5 82z" />
<glyph unicode="&#xd0;" horiz-adv-x="1262" d="M11 934q0 96 60 184.5t155 157.5q217 152 454 152q549 0 549 -514q0 -187 -43 -354q-90 -353 -286 -508q-96 -77 -205 -77t-226 101l-16 -76h-274l141 658h-74l38 140h67l87 414l282 37l-97 -451h150l-37 -140h-144l-101 -477q52 -38 109 -38q85 0 153 76 q131 146 186 465q26 145 26 259t-10 184t-39 117q-59 97 -213 97q-234 0 -374 -125q-140 -124 -140 -338q0 -77 21 -116q5 -8 5 -13q-153 0 -191 97q-13 36 -13 88z" />
<glyph unicode="&#xd1;" horiz-adv-x="1306" d="M11 935.5q0 53.5 17.5 111t49.5 112.5q71 120 193.5 194.5t279.5 74.5q44 0 89 -2.5t87 -23.5l151 -1010l207 1033h275l-303 -1425h-230l-162 996l-212 -996h-274l274 1294q-127 -53 -195.5 -158t-68.5 -258q0 -77 21 -116q5 -8 5 -13q-153 0 -191 97q-13 36 -13 89.5z M587 1585q92 187 318 187q73 0 138 -22t100 -32t93 -10t103 44l11 -2q-15 -69 -108.5 -129.5t-198.5 -60.5q-64 0 -134.5 24t-107.5 35t-77 11q-72 0 -126 -49z" />
<glyph unicode="&#xd2;" horiz-adv-x="1253" d="M31 914q0 93 63 187q135 197 416 285q139 42 288 42q451 0 451 -487q0 -328 -165 -614q-117 -205 -312 -294q-101 -44 -200.5 -44t-162.5 20q-203 69 -203 362q0 196 73 418q117 357 322 450q57 26 117.5 26t102.5 -16q-83 -49 -163 -211q-118 -232 -158 -513 q-13 -88 -13 -161q0 -221 111 -221h2q92 0 184 134t152 338t60 387t-50 261t-194 78q-228 0 -388 -135.5t-160 -354.5q0 -56 9.5 -74t9.5 -28q-93 0 -142.5 36t-49.5 129zM556 1905h200l56 -360h-143z" />
<glyph unicode="&#xd3;" horiz-adv-x="1253" d="M31 914q0 93 63 187q135 197 416 285q139 42 288 42q451 0 451 -487q0 -328 -165 -614q-117 -205 -312 -294q-101 -44 -200.5 -44t-162.5 20q-203 69 -203 362q0 196 73 418q117 357 322 450q57 26 117.5 26t102.5 -16q-83 -49 -163 -211q-118 -232 -158 -513 q-13 -88 -13 -161q0 -221 111 -221h2q92 0 184 134t152 338t60 387t-50 261t-194 78q-228 0 -388 -135.5t-160 -354.5q0 -56 9.5 -74t9.5 -28q-93 0 -142.5 36t-49.5 129zM756 1545l173 360h200l-231 -360h-142z" />
<glyph unicode="&#xd4;" horiz-adv-x="1253" d="M31 914q0 93 63 187q135 197 416 285q139 42 288 42q451 0 451 -487q0 -328 -165 -614q-117 -205 -312 -294q-101 -44 -200.5 -44t-162.5 20q-203 69 -203 362q0 196 73 418q117 357 322 450q57 26 117.5 26t102.5 -16q-83 -49 -163 -211q-118 -232 -158 -513 q-13 -88 -13 -161q0 -221 111 -221h2q92 0 184 134t152 338t60 387t-50 261t-194 78q-228 0 -388 -135.5t-160 -354.5q0 -56 9.5 -74t9.5 -28q-93 0 -142.5 36t-49.5 129zM518 1545l404 360h40l114 -360h-60l-115 152l-299 -152h-84z" />
<glyph unicode="&#xd5;" horiz-adv-x="1253" d="M31 914q0 93 63 187q135 197 416 285q139 42 288 42q451 0 451 -487q0 -328 -165 -614q-117 -205 -312 -294q-101 -44 -200.5 -44t-162.5 20q-203 69 -203 362q0 196 73 418q117 357 322 450q57 26 117.5 26t102.5 -16q-83 -49 -163 -211q-118 -232 -158 -513 q-13 -88 -13 -161q0 -221 111 -221h2q92 0 184 134t152 338t60 387t-50 261t-194 78q-228 0 -388 -135.5t-160 -354.5q0 -56 9.5 -74t9.5 -28q-93 0 -142.5 36t-49.5 129zM522 1585q92 187 318 187q73 0 138 -22t100 -32t93 -10t103 44l11 -2q-16 -69 -109 -129.5 t-198 -60.5q-64 0 -134.5 24t-108 35t-77.5 11q-71 0 -125 -49z" />
<glyph unicode="&#xd6;" horiz-adv-x="1253" d="M31 914q0 93 63 187q135 197 416 285q139 42 288 42q451 0 451 -487q0 -328 -165 -614q-117 -205 -312 -294q-101 -44 -200.5 -44t-162.5 20q-203 69 -203 362q0 196 73 418q117 357 322 450q57 26 117.5 26t102.5 -16q-83 -49 -163 -211q-118 -232 -158 -513 q-13 -88 -13 -161q0 -221 111 -221h2q92 0 184 134t152 338t60 387t-50 261t-194 78q-228 0 -388 -135.5t-160 -354.5q0 -56 9.5 -74t9.5 -28q-93 0 -142.5 36t-49.5 129zM549 1682.5q0 48.5 32 82.5q34 35 82.5 35t83 -34t34.5 -83t-34 -82q-36 -33 -72 -33q-61 0 -93.5 33 t-32.5 81.5zM891 1682.5q0 49.5 33.5 83.5t82 34t82.5 -34t34 -83t-34 -82q-35 -33 -72 -33q-59 0 -92.5 32.5t-33.5 82z" />
<glyph unicode="&#xd7;" horiz-adv-x="981" d="M187 314l180 181l-180 181l124 122l178 -180l183 182l122 -124l-181 -181l181 -181l-122 -123l-183 180l-178 -178z" />
<glyph unicode="&#xd8;" horiz-adv-x="1253" d="M29 849q0 94 60 182q128 183 402 265q136 41 278 41h23q12 0 24 -2l20 93h100l-24 -106q291 -68 291 -442q0 -112 -32 -259q-69 -309 -280 -499q-109 -98 -259 -124l-28 -133h-99l26 124h-4q-236 0 -305 193q-24 69 -24 153.5t14 175t41 183.5q62 208 167 338 q122 153 276 153q43 0 85 -13l17 77q-30 7 -104.5 7t-170 -32.5t-168.5 -91.5q-159 -130 -159 -336q0 -51 9.5 -68t9.5 -27q-90 0 -125.5 25t-48 53.5t-12.5 69.5zM471 348q0 -196 91 -215l217 1029q-61 -41 -102 -113q-128 -222 -181 -482q-25 -125 -25 -219zM669 167 q117 88 204 320.5t87 455.5q0 95 -14.5 160.5t-58.5 103.5z" />
<glyph unicode="&#xd9;" horiz-adv-x="1369" d="M0 923q0 102 60 193q128 189 391 272q131 40 269 40q42 0 91 -9l-194 -723q-63 -241 -63 -337t29.5 -141t112 -45t120.5 28q68 51 118 185.5t120 449.5l127 589h269l-127 -595q-72 -354 -148 -521q-92 -200 -245 -272q-110 -50 -240 -50t-200.5 20t-113.5 58 q-81 74 -81 220.5t47 342.5l172 690q-157 -42 -247 -152.5t-90 -285.5q0 -81 22 -119q5 -7 5 -12q-151 0 -190 93q-14 33 -14 81zM781 1905h200l56 -360h-143z" />
<glyph unicode="&#xda;" horiz-adv-x="1369" d="M0 923q0 102 60 193q128 189 391 272q131 40 269 40q42 0 91 -9l-194 -723q-63 -241 -63 -337t29.5 -141t112 -45t120.5 28q68 51 118 185.5t120 449.5l127 589h269l-127 -595q-72 -354 -148 -521q-92 -200 -245 -272q-110 -50 -240 -50t-200.5 20t-113.5 58 q-81 74 -81 220.5t47 342.5l172 690q-157 -42 -247 -152.5t-90 -285.5q0 -81 22 -119q5 -7 5 -12q-151 0 -190 93q-14 33 -14 81zM859 1545l173 360h200l-230 -360h-143z" />
<glyph unicode="&#xdb;" horiz-adv-x="1369" d="M0 923q0 102 60 193q128 189 391 272q131 40 269 40q42 0 91 -9l-194 -723q-63 -241 -63 -337t29.5 -141t112 -45t120.5 28q68 51 118 185.5t120 449.5l127 589h269l-127 -595q-72 -354 -148 -521q-92 -200 -245 -272q-110 -50 -240 -50t-200.5 20t-113.5 58 q-81 74 -81 220.5t47 342.5l172 690q-157 -42 -247 -152.5t-90 -285.5q0 -81 22 -119q5 -7 5 -12q-151 0 -190 93q-14 33 -14 81zM691 1545l404 360h40l114 -360h-60l-115 152l-299 -152h-84z" />
<glyph unicode="&#xdc;" horiz-adv-x="1369" d="M0 923q0 102 60 193q128 189 391 272q131 40 269 40q42 0 91 -9l-194 -723q-63 -241 -63 -337t29.5 -141t112 -45t120.5 28q68 51 118 185.5t120 449.5l127 589h269l-127 -595q-72 -354 -148 -521q-92 -200 -245 -272q-110 -50 -240 -50t-200.5 20t-113.5 58 q-81 74 -81 220.5t47 342.5l172 690q-157 -42 -247 -152.5t-90 -285.5q0 -81 22 -119q5 -7 5 -12q-151 0 -190 93q-14 33 -14 81zM711 1682.5q0 48.5 32 82.5q34 35 82.5 35t83 -34t34.5 -83t-34 -82q-36 -33 -72 -33q-61 0 -93.5 33t-32.5 81.5zM1053 1682.5 q0 49.5 33.5 83.5t81.5 34t82.5 -34t34.5 -83t-34 -82q-35 -33 -72 -33q-59 0 -92.5 32.5t-33.5 82z" />
<glyph unicode="&#xdd;" horiz-adv-x="1181" d="M11 934q0 96 60 184.5t155 157.5q217 152 454 152q39 0 76 -3l166 -682l281 676h127l-370 -832l-126 -587h-305l127 587l-184 714q-133 -50 -208 -157t-75 -266q0 -77 21 -116q5 -8 5 -13q-153 0 -191 97q-13 36 -13 88zM863 1545l173 360h200l-231 -360h-142z" />
<glyph unicode="&#xde;" horiz-adv-x="1110" d="M11 732.5q0 60.5 33.5 128.5t91.5 127q118 122 293 186l47 216l282 38l-46 -209q207 -10 312 -116t105 -259q0 -194 -152.5 -352.5t-397.5 -158.5h-55l-71 -333h-274l228 1070q-218 -114 -218 -401q0 -78 21 -117q5 -7 5 -13q-153 0 -191 98q-13 35 -13 95.5zM539 404h26 q95 0 181 75q120 106 160 286q12 55 12 107q0 111 -55.5 182.5t-166.5 77.5z" />
<glyph unicode="&#xdf;" horiz-adv-x="857" d="M-162 -476l316 1485q37 183 147 264q83 61 204.5 61t189 -71t67.5 -162.5t-45.5 -169.5t-129.5 -118q100 -34 142 -109t42 -167t-17 -170t-45 -138q-53 -110 -136.5 -168.5t-163.5 -60.5q-32 0 -62 4l24 112q127 0 183 242q25 103 25 224q0 63 -29.5 104t-107.5 63 l34 110q60 25 109 76t49 120.5t-17 89.5t-44 20q-50 0 -89 -35t-55 -121l-303 -1416z" />
<glyph unicode="&#xe0;" horiz-adv-x="1001" d="M-25 285q0 75 13 150t40 149q59 164 170 271t267 107q82 0 118 -27.5t36 -69.5v-14l21 101h274l-137 -647q-8 -33 -8 -61q0 -82 78 -82q102 0 155 179h80q-121 -352 -383 -352q-168 0 -187 175q-124 -175 -290 -175t-226 163q-21 58 -21 133zM257 312q0 -85 35 -119 q20 -20 51 -20q57 0 103.5 45t64.5 123l91 430q0 18 -16.5 45.5t-69.5 27.5t-103 -57q-121 -137 -152 -393q-4 -39 -4 -82zM411 1428h200l56 -359h-143z" />
<glyph unicode="&#xe1;" horiz-adv-x="1001" d="M-25 285q0 75 13 150t40 149q59 164 170 271t267 107q82 0 118 -27.5t36 -69.5v-14l21 101h274l-137 -647q-8 -33 -8 -61q0 -82 78 -82q102 0 155 179h80q-121 -352 -383 -352q-168 0 -187 175q-124 -175 -290 -175t-226 163q-21 58 -21 133zM257 312q0 -85 35 -119 q20 -20 51 -20q57 0 103.5 45t64.5 123l91 430q0 18 -16.5 45.5t-69.5 27.5t-103 -57q-121 -137 -152 -393q-4 -39 -4 -82zM467 1069l173 359h200l-231 -359h-142z" />
<glyph unicode="&#xe2;" horiz-adv-x="1001" d="M-25 285q0 75 13 150t40 149q59 164 170 271t267 107q82 0 118 -27.5t36 -69.5v-14l21 101h274l-137 -647q-8 -33 -8 -61q0 -82 78 -82q102 0 155 179h80q-121 -352 -383 -352q-168 0 -187 175q-124 -175 -290 -175t-226 163q-21 58 -21 133zM257 312q0 -85 35 -119 q20 -20 51 -20q57 0 103.5 45t64.5 123l91 430q0 18 -16.5 45.5t-69.5 27.5t-103 -57q-121 -137 -152 -393q-4 -39 -4 -82zM278 1069l404 359h40l114 -359h-60l-115 152l-299 -152h-84z" />
<glyph unicode="&#xe3;" horiz-adv-x="1001" d="M-25 285q0 75 13 150t40 149q59 164 170 271t267 107q82 0 118 -27.5t36 -69.5v-14l21 101h274l-137 -647q-8 -33 -8 -61q0 -82 78 -82q102 0 155 179h80q-121 -352 -383 -352q-168 0 -187 175q-124 -175 -290 -175t-226 163q-21 58 -21 133zM194 1109q92 186 318 186 q74 0 138.5 -21.5t100 -31.5t93 -10t103.5 44l11 -2q-16 -69 -109.5 -130t-197.5 -61q-64 0 -135 24.5t-108 35.5t-77 11q-72 0 -125 -49zM257 312q0 -85 35 -119q20 -20 51 -20q57 0 103.5 45t64.5 123l91 430q0 18 -16.5 45.5t-69.5 27.5t-103 -57q-121 -137 -152 -393 q-4 -39 -4 -82z" />
<glyph unicode="&#xe4;" horiz-adv-x="1001" d="M-25 285q0 75 13 150t40 149q59 164 170 271t267 107q82 0 118 -27.5t36 -69.5v-14l21 101h274l-137 -647q-8 -33 -8 -61q0 -82 78 -82q102 0 155 179h80q-121 -352 -383 -352q-168 0 -187 175q-124 -175 -290 -175t-226 163q-21 58 -21 133zM257 312q0 -85 35 -119 q20 -20 51 -20q57 0 103.5 45t64.5 123l91 430q0 18 -16.5 45.5t-69.5 27.5t-103 -57q-121 -137 -152 -393q-4 -39 -4 -82zM343 1206.5q0 48.5 33 82.5t82 34t83.5 -33.5t34.5 -82.5t-35 -83q-35 -32 -70 -32q-62 0 -95 33t-33 81.5zM685 1206.5q0 49.5 33.5 83t82 33.5 t83 -33.5t34.5 -82.5t-34 -83q-36 -32 -71 -32q-61 0 -94.5 32.5t-33.5 82z" />
<glyph unicode="&#xe5;" horiz-adv-x="1001" d="M-25 285q0 75 13 150t40 149q59 164 170 271t267 107q82 0 118 -27.5t36 -69.5v-14l21 101h274l-137 -647q-8 -33 -8 -61q0 -82 78 -82q102 0 155 179h80q-121 -352 -383 -352q-168 0 -187 175q-124 -175 -290 -175t-226 163q-21 58 -21 133zM257 312q0 -85 35 -119 q20 -20 51 -20q57 0 103.5 45t64.5 123l91 430q0 18 -16.5 45.5t-69.5 27.5t-103 -57q-121 -137 -152 -393q-4 -39 -4 -82zM445 1170q0 120 88 170q31 18 88 18t90.5 -43.5t33.5 -104.5t-37.5 -110t-113.5 -49t-112 39q-37 39 -37 80zM522 1189q0 -71 65 -71q87 0 87 87 q0 63 -28 82q-13 8 -35 8q-48 0 -68.5 -35t-20.5 -71z" />
<glyph unicode="&#xe6;" horiz-adv-x="1237" d="M-15 243q0 160 114 234.5t308 74.5q65 0 100 -7q40 86 40 173t-63 119q-23 10 -81 10q-104 0 -203 -89l-53 55q134 137 267 146q39 3 79 3q152 0 248 -77q110 84 268.5 84t187.5 -115q8 -35 8 -94t-36 -128.5t-97 -122.5q-128 -113 -305 -124q-3 -32 -3 -61 q0 -107 31.5 -141t91.5 -34q117 0 187 43.5t164 148.5h65q-212 -348 -526 -348q-230 0 -279 178q-47 -85 -89 -119q-79 -63 -182 -63q-164 0 -220 124q-22 48 -22 130zM253 279q0 -66 29.5 -86t56.5 -20q53 0 89.5 56.5t64.5 204.5q-9 2 -16 2h-16q-95 0 -151 -45 q-57 -46 -57 -112zM781 476q109 8 193.5 101.5t84.5 192.5t-45 99q-70 0 -134 -118t-99 -275z" />
<glyph unicode="&#xe7;" horiz-adv-x="730" d="M-25 291q0 219 111 422q83 154 229 221q76 35 156 35q228 0 228 -173q0 -72 -29.5 -106t-67 -34t-71.5 22q23 61 23 112q0 79 -54.5 79t-114.5 -99q-86 -139 -119 -347q-9 -62 -9 -137q0 -137 131 -137q110 0 184.5 48.5t158.5 143.5h65q-148 -243 -351 -322 q-14 -6 -28 -10l-55 -135q59 15 101 15q118 0 118 -95.5t-69 -152t-150 -56.5t-115 11.5t-55 22.5l-43 19q35 61 70 61q50 0 85.5 -25.5t61 -25.5t41.5 24.5t16 53t-17 49.5t-63 21t-93 -23l78 219q-27 -3 -56 -3q-135 0 -216 70t-81 232z" />
<glyph unicode="&#xe8;" horiz-adv-x="730" d="M-25 291q0 218 111 421q84 156 230 222q76 35 156 35q132 0 179.5 -49.5t47.5 -132.5q0 -163 -131 -277t-307 -125q-4 -54 -4 -76q0 -98 34.5 -129t96.5 -31q110 0 184.5 48.5t158.5 143.5h65q-214 -352 -524 -352q-135 0 -216 70t-81 232zM276 476q110 8 193 102.5 t83 221.5q0 69 -47 69q-70 -2 -135 -123.5t-94 -269.5zM329 1428h200l56 -359h-143z" />
<glyph unicode="&#xe9;" horiz-adv-x="730" d="M-25 291q0 218 111 421q84 156 230 222q76 35 156 35q132 0 179.5 -49.5t47.5 -132.5q0 -163 -131 -277t-307 -125q-4 -54 -4 -76q0 -98 34.5 -129t96.5 -31q110 0 184.5 48.5t158.5 143.5h65q-214 -352 -524 -352q-135 0 -216 70t-81 232zM276 476q110 8 193 102.5 t83 221.5q0 69 -47 69q-70 -2 -135 -123.5t-94 -269.5zM370 1069l173 359h200l-231 -359h-142z" />
<glyph unicode="&#xea;" horiz-adv-x="730" d="M-25 291q0 218 111 421q84 156 230 222q76 35 156 35q132 0 179.5 -49.5t47.5 -132.5q0 -163 -131 -277t-307 -125q-4 -54 -4 -76q0 -98 34.5 -129t96.5 -31q110 0 184.5 48.5t158.5 143.5h65q-214 -352 -524 -352q-135 0 -216 70t-81 232zM200 1069l404 359h40l114 -359 h-60l-115 152l-299 -152h-84zM276 476q110 8 193 102.5t83 221.5q0 69 -47 69q-70 -2 -135 -123.5t-94 -269.5z" />
<glyph unicode="&#xeb;" horiz-adv-x="730" d="M-25 291q0 218 111 421q84 156 230 222q76 35 156 35q132 0 179.5 -49.5t47.5 -132.5q0 -163 -131 -277t-307 -125q-4 -54 -4 -76q0 -98 34.5 -129t96.5 -31q110 0 184.5 48.5t158.5 143.5h65q-214 -352 -524 -352q-135 0 -216 70t-81 232zM227 1206.5q0 48.5 32 82.5 q34 34 83 34t83 -33.5t34 -82.5t-34 -83q-35 -32 -72 -32q-61 0 -93.5 33t-32.5 81.5zM276 476q110 8 193 102.5t83 221.5q0 69 -47 69q-70 -2 -135 -123.5t-94 -269.5zM569 1206.5q0 49.5 33.5 83t82 33.5t83 -33.5t34.5 -82.5t-35 -83q-35 -32 -71 -32q-60 0 -93.5 32.5 t-33.5 82z" />
<glyph unicode="&#xec;" horiz-adv-x="508" d="M-15 217q0 54 15 124l129 611h275l-137 -647q-8 -34 -8 -68q0 -64 78 -64q55 0 103 48.5t69 119.5h80q-123 -352 -410 -352q-76 0 -135 54t-59 174zM126 1428h200l55 -359h-143z" />
<glyph unicode="&#xed;" horiz-adv-x="508" d="M-15 217q0 54 15 124l129 611h275l-137 -647q-8 -34 -8 -68q0 -64 78 -64q55 0 103 48.5t69 119.5h80q-123 -352 -410 -352q-76 0 -135 54t-59 174zM231 1069l173 359h200l-231 -359h-142z" />
<glyph unicode="&#xee;" horiz-adv-x="508" d="M-15 217q0 54 15 124l129 611h275l-137 -647q-8 -34 -8 -68q0 -64 78 -64q55 0 103 48.5t69 119.5h80q-123 -352 -410 -352q-76 0 -135 54t-59 174zM11 1069l404 359h40l114 -359h-60l-115 152l-299 -152h-84z" />
<glyph unicode="&#xef;" horiz-adv-x="508" d="M-15 217q0 54 15 124l129 611h275l-137 -647q-8 -34 -8 -68q0 -64 78 -64q55 0 103 48.5t69 119.5h80q-123 -352 -410 -352q-76 0 -135 54t-59 174zM33 1206.5q0 48.5 33 82.5q34 34 82.5 34t83 -33.5t34.5 -82.5t-34 -83q-36 -32 -72 -32q-61 0 -94 33t-33 81.5z M376 1206.5q0 49.5 33.5 83t81.5 33.5t82.5 -33.5t34.5 -82.5t-34 -83q-36 -32 -72 -32q-59 0 -92.5 32.5t-33.5 82z" />
<glyph unicode="&#xf0;" horiz-adv-x="1024" d="M-2 285q0 75 13.5 150t40.5 149q59 165 162 262q118 116 273 116q82 0 118.5 -27.5t36.5 -69.5v-11l16 69q15 70 20 146h-147l16 76h131q-11 96 -80 189h86q68 -40 119.5 -80t83.5 -109h120l-15 -76h-80q11 -47 11 -109.5t-20 -169.5l-103 -485q-8 -34 -8 -68 q0 -64 78 -64q103 0 155 168h80q-119 -341 -383 -341q-163 0 -187 166q-113 -177 -284.5 -177t-230.5 163q-22 58 -22 133zM280 312q0 -84 27.5 -111.5t57.5 -27.5q57 0 103.5 44.5t64.5 123.5l92 430q0 42 -41 64q-15 9 -37 9q-62 0 -112 -57q-121 -139 -150 -393 q-5 -39 -5 -82z" />
<glyph unicode="&#xf1;" d="M-73 0l202 952h275l-21 -98q93 106 222 106q92 0 152 -50q60 -51 60 -149.5t-31 -222.5l-46 -185q-15 -60 -15 -98q0 -82 70 -82q64 0 98.5 41t68.5 127h80q-111 -321 -300 -348q-30 -4 -73.5 -4t-86.5 18q-119 51 -119 197q0 78 43 249t43 236q0 98 -69 98t-123 -109 q-16 -31 -26 -67l-129 -611h-275zM167 1109q92 186 318 186q74 0 138.5 -21.5t100 -31.5t93 -10t103.5 44l11 -2q-16 -69 -109.5 -130t-197.5 -61q-64 0 -135 24.5t-108 35.5t-77 11q-72 0 -125 -49z" />
<glyph unicode="&#xf2;" horiz-adv-x="824" d="M-37 280q0 69 11.5 140t36.5 146q57 171 165 277q128 126 309 126q244 0 244 -304v-2q9 -2 32 -2q51 0 131.5 32.5t150.5 82.5l17 -52q-115 -121 -337 -159q-23 -260 -150.5 -416t-304.5 -156q-220 0 -283 161q-22 57 -22 126zM246 318q0 -92 17 -116.5t35.5 -31 t49.5 -6.5q66 0 130 114t87 282q-52 13 -52 84.5t60 98.5q-4 61 -19.5 86t-59.5 25q-88 0 -168 -193t-80 -343zM340 1428h200l56 -359h-143z" />
<glyph unicode="&#xf3;" horiz-adv-x="824" d="M-37 280q0 69 11.5 140t36.5 146q57 171 165 277q128 126 309 126q244 0 244 -304v-2q9 -2 32 -2q51 0 131.5 32.5t150.5 82.5l17 -52q-115 -121 -337 -159q-23 -260 -150.5 -416t-304.5 -156q-220 0 -283 161q-22 57 -22 126zM246 318q0 -92 17 -116.5t35.5 -31 t49.5 -6.5q66 0 130 114t87 282q-52 13 -52 84.5t60 98.5q-4 61 -19.5 86t-59.5 25q-88 0 -168 -193t-80 -343zM418 1069l173 359h199l-230 -359h-142z" />
<glyph unicode="&#xf4;" horiz-adv-x="824" d="M-37 280q0 69 11.5 140t36.5 146q57 171 165 277q128 126 309 126q244 0 244 -304v-2q9 -2 32 -2q51 0 131.5 32.5t150.5 82.5l17 -52q-115 -121 -337 -159q-23 -260 -150.5 -416t-304.5 -156q-220 0 -283 161q-22 57 -22 126zM181 1069l404 359h40l114 -359h-60 l-114 152l-300 -152h-84zM246 318q0 -92 17 -116.5t35.5 -31t49.5 -6.5q66 0 130 114t87 282q-52 13 -52 84.5t60 98.5q-4 61 -19.5 86t-59.5 25q-88 0 -168 -193t-80 -343z" />
<glyph unicode="&#xf5;" horiz-adv-x="824" d="M-37 280q0 69 11.5 140t36.5 146q57 171 165 277q128 126 309 126q244 0 244 -304v-2q9 -2 32 -2q51 0 131.5 32.5t150.5 82.5l17 -52q-115 -121 -337 -159q-23 -260 -150.5 -416t-304.5 -156q-220 0 -283 161q-22 57 -22 126zM76 1109q92 186 318 186q74 0 138.5 -21.5 t100 -31.5t93 -10t103.5 44l11 -2q-16 -69 -109.5 -130t-197.5 -61q-64 0 -135 24.5t-108 35.5t-77 11q-72 0 -126 -49zM246 318q0 -92 17 -116.5t35.5 -31t49.5 -6.5q66 0 130 114t87 282q-52 13 -52 84.5t60 98.5q-4 61 -19.5 86t-59.5 25q-88 0 -168 -193t-80 -343z" />
<glyph unicode="&#xf6;" horiz-adv-x="824" d="M-37 280q0 69 11.5 140t36.5 146q57 171 165 277q128 126 309 126q244 0 244 -304v-2q9 -2 32 -2q51 0 131.5 32.5t150.5 82.5l17 -52q-115 -121 -337 -159q-23 -260 -150.5 -416t-304.5 -156q-220 0 -283 161q-22 57 -22 126zM200 1206.5q0 48.5 32 82.5q34 34 83 34 t83 -33.5t34 -82.5t-34 -83q-35 -32 -71 -32q-61 0 -94 33t-33 81.5zM246 318q0 -92 17 -116.5t35.5 -31t49.5 -6.5q66 0 130 114t87 282q-52 13 -52 84.5t60 98.5q-4 61 -19.5 86t-59.5 25q-88 0 -168 -193t-80 -343zM542 1206.5q0 49.5 33.5 83t82 33.5t83 -33.5 t34.5 -82.5t-35 -83q-35 -32 -70 -32q-61 0 -94.5 32.5t-33.5 82z" />
<glyph unicode="&#xf7;" horiz-adv-x="899" d="M98 392l34 150h667l-33 -150h-668zM280 151.5q0 62.5 43 108t106.5 45.5t108.5 -45t45 -108.5t-45.5 -106.5t-108 -43t-105.5 44q-44 43 -44 105.5zM394 790q0 63 43.5 108t106.5 45t108.5 -44.5t45.5 -108.5t-46 -107t-108 -43t-106 44q-44 43 -44 106z" />
<glyph unicode="&#xf8;" horiz-adv-x="815" d="M-27 280q0 67 10.5 137t35.5 144q55 169 167.5 284.5t285.5 121.5l39 185h98l-40 -194q158 -42 164 -278q133 6 283 114h60q-39 -59 -139 -122t-208 -89q-15 -233 -113.5 -386t-250.5 -193l-41 -200h-99l40 189q-210 6 -271 164q-21 56 -21 123zM257 329q0 -103 21 -134 t66 -31q80 0 142.5 114t84.5 287q-53 15 -53 92t60 97q-5 56 -22 78t-60 22t-88 -58q-87 -113 -132 -315q-19 -92 -19 -152z" />
<glyph unicode="&#xf9;" d="M-15 217q0 54 15 124l129 611h275l-137 -647q-6 -30 -6 -54q0 -78 57 -78q100 0 153 168l129 611h274l-137 -647q-8 -33 -8 -67q0 -65 78 -65q107 0 155 168h80q-121 -352 -383 -352q-170 0 -188 180q-112 -180 -282 -180q-86 0 -145 54t-59 174zM352 1428h200l56 -359 h-143z" />
<glyph unicode="&#xfa;" d="M-15 217q0 54 15 124l129 611h275l-137 -647q-6 -30 -6 -54q0 -78 57 -78q100 0 153 168l129 611h274l-137 -647q-8 -33 -8 -67q0 -65 78 -65q107 0 155 168h80q-121 -352 -383 -352q-170 0 -188 180q-112 -180 -282 -180q-86 0 -145 54t-59 174zM456 1069l173 359h200 l-231 -359h-142z" />
<glyph unicode="&#xfb;" d="M-15 217q0 54 15 124l129 611h275l-137 -647q-6 -30 -6 -54q0 -78 57 -78q100 0 153 168l129 611h274l-137 -647q-8 -33 -8 -67q0 -65 78 -65q107 0 155 168h80q-121 -352 -383 -352q-170 0 -188 180q-112 -180 -282 -180q-86 0 -145 54t-59 174zM240 1069l404 359h40 l114 -359h-61l-114 152l-299 -152h-84z" />
<glyph unicode="&#xfc;" d="M-15 217q0 54 15 124l129 611h275l-137 -647q-6 -30 -6 -54q0 -78 57 -78q100 0 153 168l129 611h274l-137 -647q-8 -33 -8 -67q0 -65 78 -65q107 0 155 168h80q-121 -352 -383 -352q-170 0 -188 180q-112 -180 -282 -180q-86 0 -145 54t-59 174zM259 1206.5 q0 48.5 33 82.5q34 34 82.5 34t83 -33.5t34.5 -82.5t-34 -83q-36 -32 -71 -32q-61 0 -94.5 33t-33.5 81.5zM602 1206.5q0 49.5 33.5 83t81.5 33.5t82.5 -33.5t34.5 -82.5t-34 -83q-36 -32 -71 -32q-60 0 -93.5 32.5t-33.5 82z" />
<glyph unicode="&#xfd;" d="M-15 217q0 54 15 124l129 611h275l-137 -647q-6 -24 -6 -48q0 -84 54.5 -84t92.5 45q37 45 59 111l133 623h274l-189 -883q87 29 143 88t97 184h80q-72 -245 -245 -323q-48 -22 -91 -33l-29 -138q-36 -183 -145 -264q-80 -59 -183.5 -59t-165.5 45q-62 46 -62 146 q0 174 310 278l24 102q-99 -106 -229 -106q-86 0 -145 54t-59 174zM189 -265q0 -38 36 -57q12 -5 35.5 -5t54 41t49.5 128l11 55q-186 -67 -186 -162zM454 1069l173 359h200l-231 -359h-142z" />
<glyph unicode="&#xfe;" horiz-adv-x="901" d="M-175 -476l297 1399q23 102 23 178q0 125 -82 233h86q118 -70 158 -120q82 -101 82 -247q0 -39 -8 -93q94 88 230 88q165 0 215 -158q18 -58 18 -133t-9 -150t-30.5 -149.5t-56.5 -143.5t-87 -122.5t-123 -85t-179 -31.5t-148 70l-98 -466zM242 202q16 -48 82 -48t117 54 q99 106 128 304q14 87 14 155q0 158 -96 158q-32 0 -69 -24.5t-64 -75.5z" />
<glyph unicode="&#xff;" d="M-15 217q0 54 15 124l129 611h275l-137 -647q-6 -24 -6 -48q0 -84 54.5 -84t92.5 45q37 45 59 111l133 623h274l-189 -883q87 29 143 88t97 184h80q-72 -245 -245 -323q-48 -22 -91 -33l-29 -138q-36 -183 -145 -264q-80 -59 -183.5 -59t-165.5 45q-62 46 -62 146 q0 174 310 278l24 102q-99 -106 -229 -106q-86 0 -145 54t-59 174zM189 -265q0 -38 36 -57q12 -5 35.5 -5t54 41t49.5 128l11 55q-186 -67 -186 -162zM234 1206.5q0 48.5 33 82.5t82 34t83.5 -33.5t34.5 -82.5t-35 -83q-35 -32 -71 -32q-62 0 -94.5 33t-32.5 81.5z M577 1206.5q0 49.5 33.5 83t81.5 33.5t82.5 -33.5t34.5 -82.5t-34 -83q-36 -32 -72 -32q-59 0 -92.5 32.5t-33.5 82z" />
<glyph unicode="&#x2c6;" horiz-adv-x="558" d="M0 1069l404 359h40l114 -359h-60l-115 152l-299 -152h-84z" />
<glyph unicode="&#x2da;" horiz-adv-x="296" d="M0 1170q0 120 87 170q31 18 88 18t90.5 -43.5t33.5 -104.5t-37.5 -110t-113 -49t-112.5 39q-36 39 -36 80zM76 1189q0 -71 65 -71q88 0 88 87q0 63 -28 82q-13 8 -35 8q-49 0 -69.5 -35t-20.5 -71z" />
<glyph unicode="&#x2dc;" horiz-adv-x="767" d="M73 1109q92 186 318 186q73 0 137.5 -21.5t100 -31.5t93 -10t103.5 44l11 -2q-16 -69 -109 -130q-94 -61 -198 -61q-64 0 -134.5 24.5t-108 35.5t-77.5 11q-71 0 -125 -49z" />
<glyph unicode="&#x401;" horiz-adv-x="874" d="M13 308.5q0 150.5 97.5 298.5t254.5 187q-116 85 -116 233.5t121 276.5t297 128q118 0 195 -61.5t77 -161.5t-41.5 -156.5t-96.5 -56.5t-92 51q33 13 58 63.5t25 105.5t-33 79q-35 25 -75 25q-80 0 -135.5 -82.5t-55.5 -186.5q0 -143 104 -216q37 -26 88 -39 q-145 -32 -242.5 -174t-97.5 -281q0 -80 42 -136t137.5 -56t198.5 51t155 143l44 -19q-76 -166 -230 -262t-328 -96t-262.5 96t-88.5 246.5zM453 1695q0 37 33.5 71t82.5 34t82.5 -34t33.5 -83t-34 -82t-71 -33q-89 0 -119 69q-8 21 -8 58zM796 1682.5q0 49.5 33.5 83.5 t82 34t83 -34t34.5 -83t-35 -82t-71 -33q-60 0 -93.5 32.5t-33.5 82z" />
<glyph unicode="&#x402;" horiz-adv-x="1381" d="M23 953.5q0 73.5 35.5 162.5t112.5 158q171 153 501 153q135 0 214.5 -14t138.5 -22t158 -8t198 40q-4 -127 -63.5 -184.5t-160.5 -57.5t-310 42l-93 -431q116 73 267.5 73t206.5 -151q19 -51 19 -146t-40 -262q-141 -593 -426 -685q-44 -15 -98 -15q-108 0 -152 72 q-21 35 -21 73t19 80q39 -42 100 -42q99 0 171 116q84 138 147 436q32 156 32 238t-30.5 109.5t-89.5 27.5t-132 -51l-142 -665h-274l270 1261h-23q-168 0 -255 -78q-103 -93 -103 -307q0 -75 23 -116q4 -8 4 -13q-154 0 -191 97q-13 36 -13 109.5z" />
<glyph unicode="&#x403;" horiz-adv-x="815" d="M23 939.5q0 57.5 14 119t47 116.5q70 118 217 185.5t383 67.5q66 0 151 -11.5t186 -11.5t175 23q-7 -20 -13 -44.5t-13.5 -49.5t-20 -49.5t-31 -43t-46 -30t-100 -11.5t-258.5 38l-267 -1238h-274l274 1272q-122 -3 -184.5 -89.5t-62.5 -304.5q0 -75 23 -116q4 -8 4 -13 q-154 0 -191 97q-13 36 -13 93.5zM701 1545l173 360h200l-230 -360h-143z" />
<glyph unicode="&#x404;" horiz-adv-x="946" d="M36 425q0 239 79 477q92 281 272 420q138 106 314 106q222 0 293 -138q25 -48 25 -116q0 -176 -134 -176q-67 0 -108 49q35 19 61.5 70t26.5 101.5t-26.5 85.5t-84.5 35q-104 0 -195.5 -136.5t-149.5 -345.5h364l-30 -141h-365q-26 -139 -26 -236t10 -151.5t36 -93.5 q54 -82 175 -82q238 0 379 190l44 -19q-91 -231 -347 -320q-100 -36 -197 -36h-6q-211 2 -310.5 110t-99.5 347z" />
<glyph unicode="&#x405;" horiz-adv-x="1034" d="M0 283q0 149 85 233t191 84t152 -64q17 -24 19 -62q-147 0 -201 -95q-21 -35 -21 -78q0 -82 47.5 -135t140 -53t154.5 66t62 167t-29 166.5t-72.5 122.5t-94 108.5t-94.5 104.5q-101 123 -101 239q0 147 127 244t313 97q230 0 291 -139q16 -37 16 -105.5t-42 -122.5 t-104.5 -54t-97.5 40q59 34 79 116q7 25 7 61.5t-31 75.5t-111.5 39t-127 -43t-46.5 -113t18 -112q33 -75 116 -150l80 -71q104 -93 141 -154q73 -124 73 -251q0 -238 -156.5 -361.5t-378.5 -123.5q-278 0 -371 178q-33 62 -33 145z" />
<glyph unicode="&#x406;" horiz-adv-x="712" d="M23 934q0 96 61 184q122 181 368 269q118 41 239 41q39 0 76 -3l-302 -1425h-274l276 1294q-126 -52 -196.5 -157t-70.5 -259q0 -75 23 -116q4 -8 4 -13q-154 0 -191 97q-13 36 -13 88z" />
<glyph unicode="&#x407;" horiz-adv-x="712" d="M23 934q0 96 61 184q122 181 368 269q118 41 239 41q39 0 76 -3l-302 -1425h-274l276 1294q-126 -52 -196.5 -157t-70.5 -259q0 -75 23 -116q4 -8 4 -13q-154 0 -191 97q-13 36 -13 88zM369 1682.5q0 49.5 33.5 83.5t82 34t83 -34t34.5 -83t-35 -82t-70 -33 q-61 0 -94.5 32.5t-33.5 82zM712 1682.5q0 49.5 33.5 83.5t82 34t83 -34t34.5 -83t-35 -82t-71 -33q-60 0 -93.5 32.5t-33.5 82z" />
<glyph unicode="&#x408;" horiz-adv-x="861" d="M-153 -134.5q0 111.5 62.5 187.5t157.5 76t128 -16q72 -31 72 -111q0 -36 -12 -76q-57 49 -119 49t-95 -44q-34 -44 -34 -89q0 -75 40 -108t81 -33q78 0 118 46.5t72 187.5l300 1360q-127 -52 -198 -157.5t-71 -259.5q0 -77 21 -116q5 -8 5 -13q-153 0 -191 97 q-13 36 -13 88q0 96 60 184.5t155 157.5q217 152 454 152h76l-285 -1352q-51 -232 -165 -351t-337 -119q-136 0 -209 74t-73 185.5z" />
<glyph unicode="&#x409;" horiz-adv-x="1555" d="M-57 -15q0 199 150 523t331 554q289 366 526 366q97 0 151 -26l-130 -606q99 34 189 34q166 0 248 -96.5t82 -261.5t-96 -319q-48 -79 -126 -132.5t-194.5 -53.5t-163.5 76q-23 35 -23 80.5t22 95.5q54 -68 116.5 -68t97.5 31q102 90 102 302q0 234 -182 234 q-50 0 -93 -20l-148 -698h-275l275 1294q-165 -90 -359 -487q-134 -271 -203 -528.5t-69 -357.5t27 -138q-112 0 -158 24q-97 48 -97 178z" />
<glyph unicode="&#x40a;" horiz-adv-x="1773" d="M23 934q0 96 61 184q122 181 368 269q118 41 239 41q39 0 76 -3l-122 -568h280l122 568h275l-133 -629q114 34 197 34q157 0 239 -95.5t82 -256.5q0 -73 -23 -160t-73 -166t-127 -132t-163 -53q-147 0 -194 76q-22 37 -22 81t20 95q54 -68 117.5 -68t99 31.5t68 101.5 t32.5 200q0 234 -181 234q-51 0 -94 -20l-148 -698h-274l152 716h-279l-153 -716h-274l276 1295q-127 -53 -197 -158.5t-70 -258.5q0 -75 23 -116q4 -8 4 -13q-154 0 -191 97q-13 36 -13 88z" />
<glyph unicode="&#x40b;" horiz-adv-x="1419" d="M23 953.5q0 73.5 35.5 162.5t112.5 158q171 153 501 153q135 0 214.5 -14t138.5 -22t158 -8t198 40q-4 -127 -63.5 -184.5t-160.5 -57.5t-310 42l-93 -431q114 73 267.5 73t207.5 -151q18 -51 18 -138t-37.5 -237.5t-37.5 -204.5q0 -105 73 -134q-119 -33 -200 -33 q-148 0 -148 128q0 71 55 299q5 22 10 47l8 54q9 57 9 88q0 133 -106 133q-73 0 -146 -51l-142 -665h-274l270 1261h-23q-168 0 -255 -78q-103 -93 -103 -307q0 -75 23 -116q4 -8 4 -13q-154 0 -191 97q-13 36 -13 109.5z" />
<glyph unicode="&#x40c;" horiz-adv-x="1209" d="M23 934q0 96 61 184q122 181 368 269q118 41 239 41q39 0 76 -3l-122 -569q60 171 169 326t191 200.5t146.5 45.5t93.5 -24q52 -42 52 -91q0 -81 -36.5 -113.5t-86.5 -32.5q-82 0 -113 76q-180 -107 -328 -434q23 2 43 2h37q190 0 225 -123q11 -37 11 -88 q0 -77 -46.5 -246.5t-46.5 -220.5q0 -105 74 -133q-119 -33 -176 -33q-161 0 -161 123q1 76 50.5 251t50.5 255q0 129 -114 129q-25 0 -62 -7l-153 -718h-274l276 1295q-127 -53 -197 -158.5t-70 -258.5q0 -75 23 -116q4 -8 4 -13q-154 0 -191 97q-13 36 -13 88zM804 1545 l172 360h200l-230 -360h-142z" />
<glyph unicode="&#x40e;" horiz-adv-x="1226" d="M23 934q0 96 61 184q122 181 368 269q118 41 239 41q39 0 76 -3l167 -714l300 708h126l-476 -1126q-56 -128 -104 -184q-100 -118 -221.5 -118t-155.5 83q-11 26 -11 72.5t34.5 82.5t90.5 36q109 0 125 -112q66 26 114 140l-272 1008q-134 -50 -209 -157t-75 -266 q0 -75 23 -116q4 -8 4 -13q-154 0 -191 97q-13 36 -13 88zM707 1680.5q0 68.5 34 107.5t93 39q118 0 118 -109q0 -55 -45 -86q30 -7 70 -7q91 0 163 47q90 57 136 176h80q-89 -260 -280 -310q-59 -15 -122 -15q-119 0 -183 44.5t-64 113z" />
<glyph unicode="&#x40f;" horiz-adv-x="1266" d="M23 934q0 96 61 184q122 181 368 269q118 41 239 41q39 0 76 -3l-274 -1284h280l274 1284h275l-303 -1425h-278l-83 -394h-277l86 394h-276l276 1295q-127 -53 -197 -158.5t-70 -258.5q0 -75 23 -116q4 -8 4 -13q-154 0 -191 97q-13 36 -13 88z" />
<glyph unicode="&#x410;" horiz-adv-x="1226" d="M-19 634q0 100 110 170q112 68 278 68q38 0 100 -5q246 389 493 517q86 44 173.5 44t146.5 -26l-299 -1402h-274l147 691q-129 58 -256 69q-171 -379 -229 -695q-19 -101 -19 -174t27 -108q-113 0 -159 24q-96 48 -96 178q0 197 166 554q51 112 114 221 q-90 -6 -147 -27.5t-76 -71.5q8 0 16.5 -19t8.5 -47t-31.5 -48t-78.5 -20t-81 28t-34 79zM640 842q128 -25 232 -66l111 518q-164 -90 -343 -452z" />
<glyph unicode="&#x411;" horiz-adv-x="1226" d="M23 955.5q0 73.5 35.5 162.5t112.5 158q171 152 501 152q29 0 72 -3l93 -8q138 -12 223.5 -12t156.5 23l-14 -68q-17 -91 -77 -136q-33 -24 -90 -24q-126 0 -322 38l-95 -442q115 34 196 34q158 0 239.5 -96.5t81.5 -261.5t-96 -319q-49 -79 -126.5 -132.5t-194.5 -53.5 t-164 76q-22 37 -22 81t21 95q54 -68 117 -68t99 31q100 90 100 302q0 234 -181 234q-46 0 -91 -19l-151 -699h-274l274 1272q-120 -3 -183.5 -90.5t-63.5 -303.5q0 -75 23 -116q4 -8 4 -13q-154 0 -191 97q-13 36 -13 109.5z" />
<glyph unicode="&#x412;" horiz-adv-x="1221" d="M23 923q0 101 57 190.5t152 160.5q213 154 482 154q199 0 302.5 -87.5t103.5 -215.5q0 -85 -49 -167q-48 -82 -142 -135q115 -23 170 -107t55 -200q0 -68 -19 -163q-45 -210 -198 -326q-79 -60 -202 -60t-168 70q-18 28 -18 73t24 109q64 -68 123 -68q100 0 151 117 q42 95 42 225q0 243 -180 243q-42 0 -88 -7l-156 -729h-274l258 1212l282 37l-89 -422h11q110 0 192 98.5t82 210.5q0 139 -135 188q-48 17 -110 17t-119 -12.5t-109 -37.5q-116 -57 -185 -161.5t-69 -251.5q0 -75 23 -116q4 -8 4 -13q-151 0 -190 93q-14 33 -14 81z" />
<glyph unicode="&#x413;" horiz-adv-x="815" d="M23 939.5q0 57.5 14 119t47 116.5q70 118 217 185.5t383 67.5q66 0 151 -11.5t186 -11.5t175 23q-7 -20 -13 -44.5t-13.5 -49.5t-20 -49.5t-31 -43t-46 -30t-100 -11.5t-258.5 38l-267 -1238h-274l274 1272q-122 -3 -184.5 -89.5t-62.5 -304.5q0 -75 23 -116q4 -8 4 -13 q-154 0 -191 97q-13 36 -13 93.5z" />
<glyph unicode="&#x414;" horiz-adv-x="1274" d="M-47 165.5q0 100.5 73 168.5t174 68q41 0 71 -15l178 825l282 37l-207 -977q-13 -58 -25 -89q45 -40 122 -40t143 76q129 146 187 468q26 147 26 269q0 210 -77 303q-70 82 -189 82q-231 0 -371 -125.5t-140 -337.5q0 -75 23 -116q4 -8 4 -13q-96 0 -150 40t-54 136v5 q0 126 98 242q151 179 424 238q90 18 207.5 18t213.5 -44q274 -127 274 -504q0 -166 -44 -328q-90 -339 -283 -497q-96 -80 -201 -80q-144 0 -257 120q-93 -146 -278 -146q-90 0 -157 58t-67 158.5zM57 181q0 -28 22 -45.5t53 -17.5t64 31.5t50 117.5l9 47q-33 19 -58 19 q-53 0 -96.5 -45t-43.5 -107z" />
<glyph unicode="&#x415;" horiz-adv-x="874" d="M13 308.5q0 150.5 97.5 298.5t254.5 187q-116 85 -116 233.5t121 276.5t297 128q118 0 195 -61.5t77 -161.5t-41.5 -156.5t-96.5 -56.5t-92 51q33 13 58 63.5t25 105.5t-33 79q-35 25 -75 25q-80 0 -135.5 -82.5t-55.5 -186.5q0 -143 104 -216q37 -26 88 -39 q-145 -32 -242.5 -174t-97.5 -281q0 -80 42 -136t137.5 -56t198.5 51t155 143l44 -19q-76 -166 -230 -262t-328 -96t-262.5 96t-88.5 246.5z" />
<glyph unicode="&#x416;" horiz-adv-x="1479" d="M-87 0q128 68 166 329q20 136 40 196q42 123 112 186q81 81 256 81h6q4 61 4 130.5t-9 141.5q-13 116 -84 179q-40 -76 -118.5 -76t-103.5 70q-7 21 -7 54q0 65 53.5 101t125.5 36t118.5 -33.5t75.5 -88.5q64 -122 64 -337q0 -91 -14 -184q20 0 38 -4l126 584l285 60 l-137 -644q23 4 44 4q44 204 136 375t201 229q74 39 123 39q80 0 120.5 -33t40.5 -82q0 -81 -36.5 -113.5t-86.5 -32.5q-82 0 -113 76q-128 -74 -217 -306l-55 -145h27q188 0 225 -122q11 -38 11 -90q0 -69 -47 -238l-32 -116q-15 -56 -15 -100q0 -45 20 -79t54 -47 q-119 -33 -188 -33q-148 0 -148 128q0 62 34.5 179.5t49.5 179.5t16 111q0 131 -114 131q-37 0 -69 -7l-146 -689h-274l147 693q-13 3 -24 3h-34q-72 0 -120 -49.5t-65 -110.5q-24 -89 -43 -212l-14 -95q-23 -151 -69 -206.5t-144 -55.5t-192 33z" />
<glyph unicode="&#x417;" horiz-adv-x="999" d="M-19 227q0 78 45 125q45 46 99 46t78 -13.5t39 -35.5q-71 -42 -71 -138q0 -129 166 -129q52 0 102 34.5t85 89.5q68 114 68 272q0 185 -125 225q-41 13 -94 13h-80l31 141h68q120 2 193 97t73 182q0 165 -149 165q-179 0 -292 -219l-44 19q42 159 157.5 242.5t281 83.5 t248.5 -82.5t83 -219.5q0 -173 -166 -276q-53 -32 -119 -55q245 -72 245 -298.5t-155.5 -378t-410.5 -151.5q-160 0 -258 64.5t-98 196.5z" />
<glyph unicode="&#x418;" horiz-adv-x="1342" d="M23 934q0 96 61 184q122 181 368 269q118 41 239 41q39 0 76 -3l-215 -1014l571 1014h275l-302 -1425h-275l208 979l-564 -979h-274l276 1295q-127 -53 -197 -158.5t-70 -258.5q0 -75 23 -116q4 -8 4 -13q-154 0 -191 97q-13 36 -13 88z" />
<glyph unicode="&#x419;" horiz-adv-x="1342" d="M23 934q0 96 61 184q122 181 368 269q118 41 239 41q39 0 76 -3l-215 -1014l571 1014h275l-302 -1425h-275l208 979l-564 -979h-274l276 1295q-127 -53 -197 -158.5t-70 -258.5q0 -75 23 -116q4 -8 4 -13q-154 0 -191 97q-13 36 -13 88zM696 1680.5q0 68.5 34 107.5 t93 39q118 0 118 -109q0 -55 -45 -86q29 -7 70 -7q90 0 163 47q90 57 136 176h80q-89 -260 -280 -310q-59 -15 -122 -15q-119 0 -183 44.5t-64 113z" />
<glyph unicode="&#x41a;" horiz-adv-x="1209" d="M23 934q0 96 61 184q122 181 368 269q118 41 239 41q39 0 76 -3l-122 -569q60 171 169 326t191 200.5t146.5 45.5t93.5 -24q52 -42 52 -91q0 -81 -36.5 -113.5t-86.5 -32.5q-82 0 -113 76q-180 -107 -328 -434q23 2 43 2h37q190 0 225 -123q11 -37 11 -88 q0 -77 -46.5 -246.5t-46.5 -220.5q0 -105 74 -133q-119 -33 -176 -33q-161 0 -161 123q1 76 50.5 251t50.5 255q0 129 -114 129q-25 0 -62 -7l-153 -718h-274l276 1295q-127 -53 -197 -158.5t-70 -258.5q0 -75 23 -116q4 -8 4 -13q-154 0 -191 97q-13 36 -13 88z" />
<glyph unicode="&#x41b;" horiz-adv-x="1045" d="M-57 -15q0 199 150 523t331 554q289 366 526 366q97 0 151 -26l-299 -1402h-275l275 1294q-165 -90 -359 -487q-134 -271 -203 -528.5t-69 -390.5q0 -67 27 -105q-112 0 -158 24q-97 48 -97 178z" />
<glyph unicode="&#x41c;" horiz-adv-x="1550" d="M127 0l484 1309q-142 -48 -222 -157t-80 -272q0 -82 22 -119q4 -7 4 -12q-204 0 -204 173q0 180 195 345q84 72 193.5 116.5t199.5 44.5t163 -26l-44 -1004l419 1004h275l-200 -1402h-275l122 856l-358 -856h-261l38 859l-318 -859h-153z" />
<glyph unicode="&#x41d;" horiz-adv-x="1266" d="M23 934q0 96 61 184q122 181 368 269q118 41 239 41q39 0 76 -3l-122 -568h280l122 568h275l-303 -1425h-274l152 716h-279l-153 -716h-274l276 1295q-127 -53 -197 -158.5t-70 -258.5q0 -75 23 -116q4 -8 4 -13q-154 0 -191 97q-13 36 -13 88z" />
<glyph unicode="&#x41e;" horiz-adv-x="1266" d="M31 914q0 93 63 187q135 197 416 285q139 42 288 42q451 0 451 -487q0 -328 -165 -614q-117 -205 -312 -294q-101 -44 -200.5 -44t-162.5 20q-203 69 -203 362q0 196 73 418q117 357 322 450q57 26 117.5 26t102.5 -16q-83 -49 -163 -211q-118 -232 -158 -513 q-13 -88 -13 -161q0 -221 111 -221h2q92 0 184 134t152 338t60 387t-50 261t-194 78q-228 0 -388 -135.5t-160 -354.5q0 -56 9.5 -74t9.5 -28q-93 0 -142.5 36t-49.5 129z" />
<glyph unicode="&#x41f;" horiz-adv-x="1310" d="M23 953.5q0 73.5 35.5 162.5t112.5 158q171 153 501 153q111 0 235.5 -16t201 -23t185 -7t207.5 40q-6 -237 -229 -242l-253 -1179h-274l258 1202l-272 43l-266 -1245h-274l268 1254q-259 -46 -259 -378q0 -75 23 -116q4 -8 4 -13q-154 0 -191 97q-13 36 -13 109.5z" />
<glyph unicode="&#x420;" horiz-adv-x="1091" d="M11 934q0 96 60 184.5t155 157.5q217 152 445.5 152t343 -107.5t114.5 -266.5q0 -91 -37.5 -182.5t-109.5 -164.5q-160 -164 -403 -164h-10l-116 -543h-274l259 1212l282 37l-135 -636q139 13 236 160t97 318t-129 230q-45 20 -107 20q-233 0 -363 -122t-130 -341 q0 -77 21 -116q5 -8 5 -13q-153 0 -191 97q-13 36 -13 88z" />
<glyph unicode="&#x421;" horiz-adv-x="946" d="M36 425q0 239 79 477q92 281 272 420q138 106 314 106q222 0 293 -138q25 -48 25 -116q0 -176 -134 -176q-67 0 -108 49q35 19 61.5 70t26.5 101.5t-26.5 85.5t-84.5 35t-108 -39t-94 -106q-88 -134 -144 -342t-56 -378t50 -245.5t171 -75.5q238 0 379 190l44 -19 q-91 -231 -347 -320q-100 -36 -197 -36h-6q-211 2 -310.5 110t-99.5 347z" />
<glyph unicode="&#x422;" horiz-adv-x="916" d="M11 953.5q0 73.5 35.5 162.5t113.5 158q172 153 501 153q135 0 214.5 -14t138.5 -22t158 -8t198 40q-9 -242 -238 -242q-87 0 -296 42l-263 -1223h-274l270 1261h-22q-168 0 -255 -78q-103 -93 -103 -307q0 -77 21 -116q5 -8 5 -13q-153 0 -191 97q-13 36 -13 109.5z" />
</font>
</defs>
</svg>
