<?xml version="1.0" standalone="no"?>
<!DOCTYPE svg PUBLIC "-//W3C//DTD SVG 1.1//EN" "http://www.w3.org/Graphics/SVG/1.1/DTD/svg11.dtd" >
<svg xmlns="http://www.w3.org/2000/svg">
<metadata></metadata>
<defs>
<font id="open_sanscondensed_light" horiz-adv-x="802" >
<font-face units-per-em="2048" ascent="1638" descent="-410" />
<missing-glyph horiz-adv-x="377" />
<glyph unicode="&#xfb00;" horiz-adv-x="896" d="M20 981v53l135 40v80q0 203 48 292.5t166 89.5q69 0 125 -25l-32 -86q-52 24 -94 24q-49 0 -73.5 -28t-36 -92t-11.5 -177v-89h167v-82h-167v-981h-92v981h-135zM474 981v53l135 40v80q0 203 48 292.5t166 89.5q69 0 125 -25l-32 -86q-52 24 -94 24q-49 0 -73.5 -28 t-36 -92t-11.5 -177v-89h167v-82h-167v-981h-92v981h-135z" />
<glyph unicode="&#xfb01;" horiz-adv-x="821" d="M20 981v53l135 40v80q0 203 48 292.5t166 89.5q69 0 125 -25l-32 -86q-52 24 -94 24q-49 0 -73.5 -28t-36 -92t-11.5 -177v-89h167v-82h-167v-981h-92v981h-135zM572 1358q0 44 18.5 68.5t46.5 24.5q27 0 42.5 -24.5t15.5 -68.5q0 -42 -15.5 -67t-42.5 -25 q-28 0 -46.5 25t-18.5 67zM586 0v1063h93v-1063h-93z" />
<glyph unicode="&#xfb02;" horiz-adv-x="821" d="M20 981v53l135 40v80q0 203 48 292.5t166 89.5q69 0 125 -25l-32 -86q-52 24 -94 24q-49 0 -73.5 -28t-36 -92t-11.5 -177v-89h167v-82h-167v-981h-92v981h-135zM586 0v1525h93v-1525h-93z" />
<glyph unicode="&#xfb03;" horiz-adv-x="1276" d="M20 981v53l135 40v80q0 203 48 292.5t166 89.5q69 0 125 -25l-32 -86q-52 24 -94 24q-49 0 -73.5 -28t-36 -92t-11.5 -177v-89h167v-82h-167v-981h-92v981h-135zM480 981v53l135 40v80q0 203 48 292.5t166 89.5q69 0 125 -25l-32 -86q-52 24 -94 24q-49 0 -73.5 -28 t-36 -92t-11.5 -177v-89h167v-82h-167v-981h-92v981h-135zM1028 1358q0 44 18.5 68.5t46.5 24.5q27 0 42.5 -24.5t15.5 -68.5q0 -42 -15.5 -67t-42.5 -25q-28 0 -46.5 25t-18.5 67zM1042 0v1063h93v-1063h-93z" />
<glyph unicode="&#xfb04;" horiz-adv-x="1276" d="M20 981v53l135 40v80q0 203 48 292.5t166 89.5q69 0 125 -25l-32 -86q-52 24 -94 24q-49 0 -73.5 -28t-36 -92t-11.5 -177v-89h167v-82h-167v-981h-92v981h-135zM480 981v53l135 40v80q0 203 48 292.5t166 89.5q69 0 125 -25l-32 -86q-52 24 -94 24q-49 0 -73.5 -28 t-36 -92t-11.5 -177v-89h167v-82h-167v-981h-92v981h-135zM1042 0v1525h93v-1525h-93z" />
<glyph horiz-adv-x="0" />
<glyph unicode="&#xd;" horiz-adv-x="1023" />
<glyph unicode=" "  horiz-adv-x="377" />
<glyph unicode="&#x09;" horiz-adv-x="377" />
<glyph unicode="&#xa0;" horiz-adv-x="377" />
<glyph unicode="!" horiz-adv-x="441" d="M144 88q0 105 76 105q32 0 54.5 -23.5t22.5 -81.5q0 -56 -22.5 -80t-54.5 -24q-76 0 -76 104zM159 1433h122l-34 -1073h-54z" />
<glyph unicode="&#x22;" horiz-adv-x="672" d="M130 1433h121l-29 -518h-59zM421 1433h121l-28 -518h-60z" />
<glyph unicode="#" horiz-adv-x="850" d="M36 458v88h175l44 391h-175v84h185l46 412h80l-48 -412h231l48 412h75l-46 -412h161v-84h-172l-44 -391h170v-88h-180l-52 -458h-80l54 458h-229l-53 -458h-75l50 458h-165zM289 546h228l47 391h-231z" />
<glyph unicode="$" d="M92 172v101q51 -29 124 -45.5t144 -16.5v484q-145 61 -201.5 136t-56.5 197q0 123 72 209.5t186 105.5v182h80v-178q137 -4 253 -60l-36 -85q-115 53 -217 56v-498q148 -60 210 -135.5t62 -189.5q0 -120 -74 -204t-198 -105v-243h-80v238q-172 0 -268 51zM197 1034 q0 -93 38.5 -146.5t124.5 -94.5v459q-74 -16 -118.5 -76.5t-44.5 -141.5zM440 219q80 18 128 76.5t48 133.5q0 84 -40.5 138.5t-135.5 94.5v-443z" />
<glyph unicode="%" horiz-adv-x="1183" d="M92 1005q0 217 49.5 332.5t147.5 115.5t149.5 -114t51.5 -334q0 -215 -53 -333t-148 -118q-97 0 -147 117.5t-50 333.5zM180 1007q0 -186 25 -278.5t86 -92.5q59 0 85 91.5t26 279.5q0 370 -115 370q-58 0 -82.5 -91.5t-24.5 -278.5zM316 0l465 1433h86l-465 -1433h-86z M695 431q0 225 50.5 336.5t145.5 111.5q98 0 149.5 -114t51.5 -334q0 -218 -53 -334.5t-148 -116.5q-96 0 -146 119t-50 332zM783 433q0 -186 24.5 -278.5t85.5 -92.5q59 0 85 91.5t26 279.5q0 370 -115 370q-58 0 -82 -92t-24 -278z" />
<glyph unicode="&#x26;" horiz-adv-x="817" d="M65 349q0 89 21.5 159t63.5 129.5t129 134.5q-72 134 -94 218.5t-22 189.5q0 129 51 201t139 72q89 0 140 -74t51 -209t-37.5 -230t-123.5 -181l231 -414q56 116 56 287h92q0 -92 -28 -200t-68 -177l153 -255h-107l-96 174q-71 -107 -138.5 -150.5t-156.5 -43.5 q-119 0 -187.5 97t-68.5 272zM159 347q0 -132 46.5 -203t123.5 -71q71 0 128.5 45t110.5 139l-249 446q-93 -87 -126.5 -164.5t-33.5 -191.5zM255 1170q0 -85 24 -179t62 -158q64 65 87.5 149t23.5 188q0 195 -103 195q-45 0 -69.5 -50t-24.5 -145z" />
<glyph unicode="'" horiz-adv-x="381" d="M130 1433h121l-29 -518h-59z" />
<glyph unicode="(" horiz-adv-x="553" d="M102 550q0 254 76.5 484.5t214.5 398.5h78q-131 -194 -198.5 -421t-67.5 -460q0 -238 71 -469.5t193 -400.5h-76q-140 164 -215.5 389.5t-75.5 478.5z" />
<glyph unicode=")" horiz-adv-x="553" d="M82 1433h79q140 -167 215.5 -399t75.5 -484q0 -253 -75 -479t-216 -389h-77q127 178 196 407t69 463t-67.5 460t-199.5 421z" />
<glyph unicode="*" horiz-adv-x="730" d="M92 1230l17 105l224 -54l-26 244h118l-27 -244l226 56l14 -105l-222 -8l152 -222l-95 -45l-105 233l-115 -234l-90 46l146 222z" />
<glyph unicode="+" d="M58 668v81h304v425h80v-425h303v-81h-303v-423h-80v423h-304z" />
<glyph unicode="," horiz-adv-x="413" d="M76 -259q74 250 98 460h113l14 -23q-65 -220 -163 -437h-62z" />
<glyph unicode="-" horiz-adv-x="505" d="M52 492v100h402v-100h-402z" />
<glyph unicode="." horiz-adv-x="413" d="M130 88q0 105 77 105q31 0 53.5 -23.5t22.5 -81.5q0 -56 -22.5 -80t-53.5 -24q-77 0 -77 104z" />
<glyph unicode="/" horiz-adv-x="698" d="M50 0l516 1433h95l-512 -1433h-99z" />
<glyph unicode="0" d="M86 718q0 735 314 735q163 0 238.5 -182t75.5 -553q0 -363 -78.5 -550.5t-235.5 -187.5q-166 0 -240 173t-74 565zM186 718q0 -323 51.5 -484t162.5 -161q214 0 214 645q0 643 -214 643q-111 0 -162.5 -158.5t-51.5 -484.5z" />
<glyph unicode="1" d="M147 1178l276 255h79v-1433h-94v1054q0 128 8 277q-21 -28 -97 -103l-122 -112z" />
<glyph unicode="2" d="M73 0v76l289 438q133 202 178.5 324.5t45.5 273.5q0 116 -60 184.5t-162 68.5q-68 0 -118.5 -20t-101.5 -60l-52 73q69 52 132 73.5t145 21.5q148 0 230.5 -92t82.5 -249q0 -108 -24 -203t-67.5 -186t-144.5 -237l-264 -390v-8h532v-88h-641z" />
<glyph unicode="3" d="M74 1323q73 71 144 100.5t155 29.5q141 0 225 -93t84 -246q0 -134 -58 -227.5t-174 -135.5v-8q120 -27 187.5 -120.5t67.5 -235.5q0 -186 -95 -296.5t-257 -110.5q-165 0 -271 52v106q124 -71 271 -71q119 0 186 86.5t67 237.5q0 143 -77.5 224.5t-229.5 81.5h-73v90h79 q125 0 203 87.5t78 230.5q0 123 -55.5 192.5t-155.5 69.5q-67 0 -120.5 -22.5t-120.5 -84.5z" />
<glyph unicode="4" d="M36 325v83l470 1041h118v-1035h153v-89h-153v-325h-94v325h-494zM134 414h396v691q0 120 8 234h-6l-72 -185z" />
<glyph unicode="5" d="M96 34v108q108 -75 235 -75q131 0 207 106.5t76 278.5q0 160 -68.5 240t-187.5 80q-100 0 -203 -29l-48 62l42 628h485v-92h-406l-35 -504q88 20 171 20q160 0 254 -107t94 -294q0 -217 -102.5 -346.5t-274.5 -129.5q-153 0 -239 54z" />
<glyph unicode="6" d="M98 611q0 430 105 636t311 206q75 0 124 -22v-94q-57 24 -132 24q-141 0 -221 -162t-90 -473h8q33 75 91 117t133 42q134 0 210.5 -118.5t76.5 -326.5q0 -215 -81 -337.5t-219 -122.5q-154 0 -235 162t-81 469zM197 514q0 -123 28 -228.5t76.5 -159t114.5 -53.5 q97 0 148.5 90t51.5 272q0 175 -51 267.5t-151 92.5q-98 0 -157.5 -79.5t-59.5 -201.5z" />
<glyph unicode="7" d="M56 1341v92h677v-81l-442 -1352h-100l445 1341h-580z" />
<glyph unicode="8" d="M71 343q0 123 53 220t187 184q-207 159 -207 373q0 148 83.5 240.5t216.5 92.5q135 0 218 -87.5t83 -241.5q0 -237 -236 -377q105 -71 157 -126t80.5 -120t28.5 -146q0 -164 -90.5 -269.5t-230.5 -105.5q-151 0 -247 100.5t-96 262.5zM171 341q0 -123 64.5 -197.5 t170.5 -74.5q104 0 166 77.5t62 213.5q0 174 -203 314l-48 33q-118 -77 -165 -159t-47 -207zM203 1116q0 -101 44 -176.5t155 -148.5q107 64 155.5 144t48.5 181q0 118 -53.5 183.5t-150.5 65.5q-92 0 -145.5 -65.5t-53.5 -183.5z" />
<glyph unicode="9" d="M80 994q0 213 83 336t230 123q150 0 227 -158t77 -454q0 -428 -107.5 -644.5t-314.5 -216.5q-36 0 -76.5 7t-56.5 15v94q54 -23 141 -23q142 0 224.5 164.5t92.5 469.5h-8q-33 -75 -91 -117t-133 -42q-135 0 -211.5 120.5t-76.5 325.5zM178 998q0 -175 51 -267.5 t152 -92.5q98 0 157.5 83t59.5 221q0 122 -26 220t-73 148.5t-112 50.5q-96 0 -152.5 -90.5t-56.5 -272.5z" />
<glyph unicode=":" horiz-adv-x="413" d="M130 88q0 105 77 105q31 0 53.5 -23.5t22.5 -81.5q0 -56 -22.5 -80t-53.5 -24q-77 0 -77 104zM130 961q0 104 77 104q76 0 76 -104q0 -55 -22.5 -79.5t-53.5 -24.5q-77 0 -77 104z" />
<glyph unicode=";" horiz-adv-x="413" d="M76 -259q74 250 98 460h113l14 -23q-65 -220 -163 -437h-62zM130 961q0 104 77 104q76 0 76 -104q0 -55 -22.5 -79.5t-53.5 -24.5q-77 0 -77 104z" />
<glyph unicode="&#x3c;" d="M58 676v67l689 391v-98l-588 -327l588 -328v-100z" />
<glyph unicode="=" d="M58 456v80h687v-80h-687zM58 877v80h687v-80h-687z" />
<glyph unicode="&#x3e;" d="M56 281v100l588 328l-588 327v98l689 -391v-67z" />
<glyph unicode="?" horiz-adv-x="566" d="M34 1381q97 72 221 72q127 0 195.5 -81t68.5 -236q0 -119 -30 -198.5t-125 -223.5q-58 -86 -81.5 -153.5t-23.5 -165.5v-35h-73v50q0 111 20 183t77 158q86 131 112 209t26 170q0 114 -44.5 174.5t-121.5 60.5q-56 0 -95 -15.5t-80 -43.5zM153 88q0 105 75 105 q32 0 54.5 -23.5t22.5 -81.5q0 -56 -22.5 -80t-54.5 -24q-75 0 -75 104z" />
<glyph unicode="@" horiz-adv-x="1208" d="M109 568q0 269 64.5 467t186 303.5t282.5 105.5q135 0 242.5 -91.5t165 -256.5t57.5 -376q0 -494 -220 -494q-81 0 -116.5 53t-37.5 150h-9q-16 -106 -52.5 -154.5t-101.5 -48.5q-86 0 -133.5 92t-47.5 258q0 464 257 464q86 0 161 -29l-20 -467v-60q0 -89 26 -127 t74 -38q67 0 95.5 100t28.5 307q0 186 -46.5 329.5t-131 222t-193.5 78.5q-130 0 -231 -97t-155.5 -273t-54.5 -402q0 -319 100.5 -497.5t278.5 -178.5q68 0 126 19.5t95 48.5v-93q-49 -30 -102 -44.5t-125 -14.5q-225 0 -344 190.5t-119 553.5zM486 572q0 -253 102 -253 q44 0 69 81.5t34 252.5l16 299q-27 7 -71 7q-72 0 -111 -98t-39 -289z" />
<glyph unicode="A" horiz-adv-x="796" d="M0 0l345 1433h99l353 -1433h-98l-127 519h-348l-124 -519h-100zM243 616h307l-127 535q-19 90 -30 170q-9 -85 -27 -170z" />
<glyph unicode="B" horiz-adv-x="888" d="M157 0v1433h274q169 0 259.5 -86.5t90.5 -254.5q0 -291 -213 -333v-8q123 -26 182.5 -109.5t59.5 -233.5q0 -192 -85 -300t-239 -108h-329zM253 88h220q237 0 237 322q0 143 -69.5 220t-194.5 77h-193v-619zM253 795h180q134 0 191.5 74t57.5 225q0 121 -63 186t-188 65 h-178v-550z" />
<glyph unicode="C" horiz-adv-x="842" d="M109 720q0 343 122 539t333 196q131 0 229 -60l-44 -85q-83 53 -187 53q-162 0 -257.5 -171t-95.5 -474q0 -197 44 -343t126.5 -224t190.5 -78q112 0 192 40v-89q-76 -44 -200 -44q-137 0 -239.5 88.5t-158 255.5t-55.5 396z" />
<glyph unicode="D" horiz-adv-x="975" d="M157 0v1433h260q222 0 336 -179t114 -524q0 -730 -455 -730h-255zM253 88h153q186 0 273 163t87 473q0 303 -89 462t-263 159h-161v-1257z" />
<glyph unicode="E" horiz-adv-x="772" d="M157 0v1433h519v-92h-423v-544h400v-92h-400v-613h423v-92h-519z" />
<glyph unicode="F" horiz-adv-x="714" d="M157 0v1433h521v-92h-425v-608h402v-93h-402v-640h-96z" />
<glyph unicode="G" horiz-adv-x="1053" d="M109 720q0 349 133.5 541t375.5 192q163 0 307 -92l-46 -84q-135 86 -261 86q-201 0 -304 -165t-103 -480q0 -307 104 -476t296 -169q137 0 234 36v521h-217v92h314v-678q-164 -64 -340 -64q-234 0 -363.5 196t-129.5 544z" />
<glyph unicode="H" horiz-adv-x="1005" d="M157 0v1433h96v-636h500v636h96v-1433h-96v705h-500v-705h-96z" />
<glyph unicode="I" horiz-adv-x="409" d="M157 0v1433h96v-1433h-96z" />
<glyph unicode="J" horiz-adv-x="392" d="M-88 -247q48 -20 112 -20q62 0 92.5 56.5t30.5 186.5v1457h96v-1456q0 -168 -55 -253.5t-162 -85.5q-65 0 -114 25v90z" />
<glyph unicode="K" horiz-adv-x="808" d="M157 0v1433h96v-759q50 94 423 759h105l-360 -630l387 -803h-107l-337 714l-111 -146v-568h-96z" />
<glyph unicode="L" horiz-adv-x="696" d="M157 0v1433h96v-1341h404v-92h-500z" />
<glyph unicode="M" horiz-adv-x="1367" d="M157 0v1433h142l321 -1096q43 -145 56 -247h8q10 73 61 245l318 1098h147v-1433h-96v1036q0 61 10 266h-8l-379 -1302h-109l-381 1304h-8q10 -205 10 -260v-1044h-92z" />
<glyph unicode="N" horiz-adv-x="1068" d="M157 0v1433h124l538 -1270h6q-8 160 -8 268v1002h94v-1433h-122l-542 1285h-8q12 -133 12 -257v-1028h-94z" />
<glyph unicode="O" horiz-adv-x="1043" d="M109 720q0 371 104 552t311 181q200 0 305.5 -190.5t105.5 -544.5q0 -355 -106.5 -546.5t-307.5 -191.5q-203 0 -307.5 193t-104.5 547zM209 718q0 -319 79.5 -482t232.5 -163q154 0 234 161.5t80 483.5q0 319 -78.5 481t-232.5 162q-157 0 -236 -164t-79 -479z" />
<glyph unicode="P" horiz-adv-x="823" d="M157 0v1433h196q210 0 307 -99t97 -313q0 -221 -101.5 -325t-300.5 -104h-102v-592h-96zM253 680h96q168 0 239 79.5t71 261.5q0 174 -73 249t-226 75h-107v-665z" />
<glyph unicode="Q" horiz-adv-x="1043" d="M109 720q0 371 104 552t311 181q200 0 305.5 -190.5t105.5 -544.5q0 -285 -69 -466t-200 -242l209 -351h-122l-183 325l-49 -4q-203 0 -307.5 193t-104.5 547zM209 718q0 -319 79.5 -482t232.5 -163q154 0 234 161.5t80 483.5q0 319 -78.5 481t-232.5 162 q-157 0 -236 -164t-79 -479z" />
<glyph unicode="R" horiz-adv-x="852" d="M157 0v1433h196q210 0 307 -99t97 -296q0 -149 -53 -245t-178 -144l284 -649h-107l-268 626h-182v-626h-96zM253 714h134q130 0 201 80.5t71 239.5q0 162 -72.5 233.5t-226.5 71.5h-107v-625z" />
<glyph unicode="S" horiz-adv-x="792" d="M84 30v104q51 -28 126.5 -44.5t149.5 -16.5q109 0 180 83t71 212q0 118 -50 187.5t-192 139.5q-110 56 -165 108.5t-81.5 122t-26.5 166.5q0 106 43 188t120.5 127.5t169.5 45.5q84 0 152 -18.5t107 -39.5l-37 -93q-109 56 -222 56q-106 0 -172 -72t-66 -190 q0 -121 48 -187.5t188 -138.5q145 -70 212.5 -164.5t67.5 -230.5q0 -176 -98 -285.5t-249 -109.5q-172 0 -276 50z" />
<glyph unicode="T" horiz-adv-x="696" d="M14 1341v92h666v-92h-285v-1341h-96v1341h-285z" />
<glyph unicode="U" horiz-adv-x="991" d="M144 466v967h97v-979q0 -186 67 -283.5t192 -97.5q123 0 187 97.5t64 287.5v975h96v-967q0 -486 -347 -486q-174 0 -265 125.5t-91 360.5z" />
<glyph unicode="V" horiz-adv-x="783" d="M0 1433h100l233 -1008q28 -115 36.5 -169.5t17.5 -136.5q8 56 17 111t17 93t263 1110h99l-339 -1433h-107z" />
<glyph unicode="W" horiz-adv-x="1367" d="M10 1433h101l202 -987q47 -241 60 -337q22 157 56 333l201 991h109l200 -987q31 -161 45 -265l10 -72q28 207 56 337l208 987h98l-304 -1433h-117l-219 1072q-6 27 -34 234l-14 -93l-22 -139l-215 -1074h-113z" />
<glyph unicode="X" horiz-adv-x="700" d="M20 0l299 760l-257 673h101l212 -596l207 596h98l-253 -694l253 -739h-100l-214 659l-249 -659h-97z" />
<glyph unicode="Y" horiz-adv-x="672" d="M0 1433h102l235 -740l233 740h102l-289 -873v-560h-96v560z" />
<glyph unicode="Z" horiz-adv-x="630" d="M56 0v86l415 1253h-409v94h516v-88l-421 -1253h433v-92h-534z" />
<glyph unicode="[" horiz-adv-x="632" d="M171 -318v1751h389v-88h-297v-1573h297v-90h-389z" />
<glyph unicode="\" horiz-adv-x="698" d="M50 1433h94l517 -1433h-99z" />
<glyph unicode="]" horiz-adv-x="632" d="M73 -228h296v1573h-296v88h389v-1751h-389v90z" />
<glyph unicode="^" d="M36 743l332 688h65l333 -688h-100l-264 578l-268 -578h-98z" />
<glyph unicode="_" horiz-adv-x="825" d="M-4 -180h833v-81h-833v81z" />
<glyph unicode="`" horiz-adv-x="1103" d="M425 1521v17h123q26 -62 80.5 -149.5t106.5 -151.5v-21h-47q-64 52 -145.5 145t-117.5 160z" />
<glyph unicode="a" horiz-adv-x="768" d="M76 285q0 152 91.5 240.5t255.5 96.5l115 6v88q0 149 -37 217.5t-124 68.5q-91 0 -186 -60l-40 73q111 69 232 69q131 0 189 -83t58 -277v-724h-76l-12 149h-4q-76 -169 -231 -169q-104 0 -167.5 83t-63.5 222zM174 283q0 -115 41.5 -169t111.5 -54q100 0 155.5 98.5 t55.5 278.5v111l-111 -6q-128 -7 -190.5 -71t-62.5 -188z" />
<glyph unicode="b" horiz-adv-x="875" d="M142 0v1525h93v-473l-4 -129h8q84 159 232 159q312 0 312 -548q0 -270 -77.5 -412t-223.5 -142q-76 0 -139 42.5t-104 124.5h-8l-12 -147h-77zM235 510q0 -445 236 -445q108 0 161.5 114.5t53.5 354.5q0 230 -52 346t-167 116q-122 0 -177 -108t-55 -354v-24z" />
<glyph unicode="c" horiz-adv-x="622" d="M94 526q0 273 82 415.5t241 142.5q99 0 165 -36l-36 -83q-66 31 -121 31q-234 0 -234 -468q0 -463 234 -463q70 0 151 31v-78q-32 -18 -79 -28t-81 -10q-160 0 -241 139t-81 407z" />
<glyph unicode="d" horiz-adv-x="875" d="M92 530q0 271 77.5 412.5t228.5 141.5q71 0 135.5 -41t102.5 -114h8l-4 119v477h93v-1525h-76l-8 149h-9q-38 -81 -99 -125t-139 -44q-310 0 -310 550zM189 528q0 -229 52 -347.5t167 -118.5q111 0 171.5 103.5t60.5 303.5v61q0 241 -58.5 353.5t-177.5 112.5 q-115 0 -165 -120t-50 -348z" />
<glyph unicode="e" horiz-adv-x="786" d="M94 524q0 273 81 416.5t233 143.5q132 0 208.5 -126t76.5 -340v-86h-504q2 -232 65.5 -347.5t193.5 -115.5q100 0 211 65v-90q-102 -64 -215 -64q-169 0 -259.5 144t-90.5 400zM191 616h409q0 176 -53.5 280t-144.5 104q-192 0 -211 -384z" />
<glyph unicode="f" horiz-adv-x="443" d="M20 981v53l135 40v80q0 203 48 292.5t166 89.5q69 0 125 -25l-32 -86q-52 24 -94 24q-49 0 -73.5 -28t-36 -92t-11.5 -177v-89h167v-82h-167v-981h-92v981h-135z" />
<glyph unicode="g" horiz-adv-x="726" d="M34 -199q0 100 51 171t160 112q-49 22 -79 60t-30 91q0 48 32 86t91 81q-82 37 -123.5 120.5t-41.5 195.5q0 170 71.5 268t196.5 98q66 0 111 -21h226v-65l-145 -17q29 -38 47.5 -109t18.5 -146q0 -155 -70 -251t-184 -96h-24l-21 2q-47 -33 -74 -66.5t-27 -77.5 q0 -45 35.5 -70t95.5 -25h66q143 0 221 -73.5t78 -212.5q0 -156 -105 -247t-278 -91q-144 0 -221.5 73t-77.5 210zM126 -191q0 -101 52.5 -158t158.5 -57q131 0 208 68.5t77 188.5q0 96 -52.5 148.5t-152.5 52.5h-68q-96 0 -159.5 -67t-63.5 -176zM184 716q0 -130 48 -197 t128 -67q170 0 170 274q0 132 -43.5 206.5t-126.5 74.5q-86 0 -131 -76t-45 -215z" />
<glyph unicode="h" horiz-adv-x="852" d="M142 0v1525h93v-495q0 -68 -4 -113h8q31 80 94.5 123.5t132.5 43.5q135 0 191.5 -88.5t56.5 -262.5v-733h-92v733q0 144 -37.5 204.5t-122.5 60.5q-113 0 -170 -100t-57 -316v-582h-93z" />
<glyph unicode="i" horiz-adv-x="377" d="M128 1358q0 44 18.5 68.5t46.5 24.5q27 0 42.5 -24.5t15.5 -68.5q0 -42 -15.5 -67t-42.5 -25q-28 0 -46.5 25t-18.5 67zM142 0v1063h93v-1063h-93z" />
<glyph unicode="j" horiz-adv-x="377" d="M-4 -377q31 -16 62 -16q46 0 65 44.5t19 137.5v1274h93v-1260q0 -146 -42 -215.5t-131 -69.5q-41 0 -66 16v89zM128 1358q0 44 18.5 68.5t46.5 24.5q27 0 42.5 -24.5t15.5 -68.5q0 -42 -15.5 -67t-42.5 -25q-28 0 -46.5 25t-18.5 67z" />
<glyph unicode="k" horiz-adv-x="696" d="M142 0v1525h93v-820l-7 -179h9l60 108l263 429h101l-245 -391l266 -672h-98l-231 586l-118 -155v-431h-93z" />
<glyph unicode="l" horiz-adv-x="377" d="M142 0v1525h93v-1525h-93z" />
<glyph unicode="m" horiz-adv-x="1276" d="M142 0v1063h78l8 -148h9q64 169 217 169q88 0 139 -47t73 -137q39 98 94.5 141t145.5 43q120 0 176 -92.5t56 -296.5v-695h-92v724q0 268 -157 268q-108 0 -155.5 -93.5t-47.5 -276.5v-622h-92v724q0 135 -38.5 201.5t-118.5 66.5q-106 0 -154 -96t-48 -312v-584h-93z " />
<glyph unicode="n" horiz-adv-x="852" d="M142 0v1063h78l8 -148h9q33 81 96 125t134 44q124 0 185.5 -83t61.5 -266v-735h-92v733q0 265 -156 265q-120 0 -175.5 -99t-55.5 -315v-584h-93z" />
<glyph unicode="o" horiz-adv-x="833" d="M92 534q0 550 325 550q153 0 238.5 -144t85.5 -406q0 -268 -85 -411t-242 -143q-156 0 -239 143t-83 411zM189 534q0 -230 55 -347.5t172 -117.5q228 0 228 465q0 462 -228 462q-120 0 -173.5 -116t-53.5 -346z" />
<glyph unicode="p" horiz-adv-x="875" d="M142 -482v1545h77l9 -146h9q39 81 100.5 124t133.5 43q312 0 312 -550q0 -265 -76.5 -409.5t-222.5 -144.5q-80 0 -146.5 45t-100.5 122h-9l7 -117v-512h-93zM235 540q0 -245 58 -360t176 -115q110 0 163.5 114t53.5 355q0 230 -50 346t-170 116q-117 0 -174 -103 t-57 -323v-30z" />
<glyph unicode="q" horiz-adv-x="875" d="M92 530q0 281 82.5 417.5t227.5 136.5q153 0 234 -163h8l15 142h74v-1545h-93v459q0 66 9 178h-9q-84 -175 -242 -175q-148 0 -227 136t-79 414zM189 528q0 -244 53.5 -353.5t169.5 -109.5q108 0 168 106t60 311v48q0 241 -58.5 353.5t-177.5 112.5q-115 0 -165 -120 t-50 -348z" />
<glyph unicode="r" horiz-adv-x="547" d="M142 0v1063h77l9 -186h7q75 207 202 207q50 0 93 -14l-22 -93q-36 15 -73 15q-54 0 -100.5 -55.5t-73 -154.5t-26.5 -218v-564h-93z" />
<glyph unicode="s" horiz-adv-x="632" d="M73 40v109q36 -36 95.5 -58t122.5 -22q82 0 129 53.5t47 144.5q0 70 -33.5 118.5t-128.5 110.5q-109 68 -148.5 109.5t-61.5 92.5t-22 121q0 115 77 190t197 75q128 0 215 -61l-48 -81q-81 54 -171 54q-82 0 -131 -48.5t-49 -128.5q0 -70 33 -117.5t141 -115.5 q106 -70 145 -111.5t58.5 -92t19.5 -115.5q0 -135 -71 -211t-204 -76q-72 0 -127 19t-85 41z" />
<glyph unicode="t" horiz-adv-x="440" d="M42 981v55l94 27l31 253h64v-253h169v-82h-169v-728q0 -108 23.5 -147t82.5 -39q43 0 77 11v-78q-44 -20 -111 -20q-165 0 -165 246v755h-96z" />
<glyph unicode="u" horiz-adv-x="852" d="M138 369v694h93v-694q0 -157 38 -229.5t116 -72.5q121 0 177 97.5t56 314.5v584h92v-1063h-78l-12 149h-8q-34 -81 -94.5 -125t-132.5 -44q-128 0 -187.5 91.5t-59.5 297.5z" />
<glyph unicode="v" horiz-adv-x="639" d="M10 1063h94l159 -684q27 -118 53 -258h7q7 51 20 113.5t193 828.5h94l-259 -1063h-110z" />
<glyph unicode="w" horiz-adv-x="1101" d="M20 1063h93l132 -619l62 -323h6q17 140 56 325l133 617h98l133 -619q16 -70 56 -323h6q3 32 29 162.5t166 779.5h92l-239 -1063h-110l-147 720q-2 8 -3.5 17t-30.5 188h-2l-14 -83l-22 -122l-152 -720h-111z" />
<glyph unicode="x" horiz-adv-x="662" d="M34 0l253 552l-233 511h101l178 -431l186 431h97l-237 -523l249 -540h-98l-199 460l-201 -460h-96z" />
<glyph unicode="y" horiz-adv-x="639" d="M-2 -381q39 -14 76 -14q59 0 93.5 50.5t60.5 162.5l47 184l-265 1061h94l161 -663q28 -120 54 -270h8q19 131 52 272l157 661h94l-311 -1264q-34 -140 -89.5 -210.5t-147.5 -70.5q-37 0 -84 16v85z" />
<glyph unicode="z" horiz-adv-x="530" d="M58 0v74l313 907h-293v82h391v-75l-312 -906h327v-82h-426z" />
<glyph unicode="{" horiz-adv-x="722" d="M107 524v68q75 0 119 19.5t63.5 61t19.5 130.5v317q0 145 82 227t229 86v-79q-109 -2 -161.5 -57.5t-52.5 -172.5v-310q0 -118 -44.5 -175.5t-146.5 -76.5v-8q103 -20 147 -77.5t44 -175.5v-309q0 -116 52.5 -172.5t161.5 -58.5v-79q-149 4 -230 87.5t-81 226.5v317 q0 87 -19.5 129t-62.5 62t-120 20z" />
<glyph unicode="|" d="M355 -482v2007h93v-2007h-93z" />
<glyph unicode="}" horiz-adv-x="722" d="M102 -239q110 2 163 58.5t53 172.5v309q0 118 43.5 175.5t146.5 77.5v8q-101 19 -145.5 76.5t-44.5 175.5v310q0 117 -53 172.5t-163 57.5v79q147 -4 229.5 -86.5t82.5 -226.5v-317q0 -89 19.5 -130t63 -61t119.5 -20v-68q-76 0 -119.5 -20t-63 -61t-19.5 -130v-317 q0 -144 -82 -227t-230 -87v79z" />
<glyph unicode="~" d="M58 606v97q73 104 181 104q38 0 73.5 -9.5t106.5 -48.5q48 -28 81.5 -40t67.5 -12q48 0 94.5 31.5t82.5 81.5v-96q-72 -102 -177 -102q-48 0 -81.5 10.5t-101.5 47.5q-58 33 -87 43.5t-61 10.5q-40 0 -88.5 -31.5t-90.5 -86.5z" />
<glyph unicode="&#xa1;" horiz-adv-x="441" d="M144 961q0 104 76 104q32 0 54.5 -24t22.5 -80q0 -57 -22.5 -80.5t-54.5 -23.5q-76 0 -76 104zM159 -383l34 1074h54l34 -1074h-122z" />
<glyph unicode="&#xa2;" d="M165 730q0 244 65.5 384.5t198.5 168.5v170h81v-164q86 -6 143 -37l-37 -84q-68 29 -120 29q-124 0 -178.5 -120t-54.5 -344q0 -460 233 -460q68 0 150 32v-83q-50 -29 -136 -38v-204h-81v209q-132 23 -198 161t-66 380z" />
<glyph unicode="&#xa3;" d="M78 668v85h155v347q0 179 63.5 266t199.5 87q131 0 230 -86l-54 -74q-52 42 -91 57t-87 15q-88 0 -126.5 -64t-38.5 -203v-345h245v-85h-245v-281q0 -210 -118 -295h511v-92h-632v80q67 29 105 109t38 196v283h-155z" />
<glyph unicode="&#xa4;" horiz-adv-x="1112" d="M122 1084l56 56l133 -135q106 89 245 89q136 0 241 -87l132 133l59 -56l-133 -132q87 -106 87 -243q0 -138 -87 -243l133 -135l-57 -56l-134 133q-105 -85 -241 -85q-140 0 -245 87l-131 -133l-56 58l131 131q-84 107 -84 243q0 133 84 241zM247 709q0 -130 89 -219.5 t220 -89.5q130 0 220.5 90t90.5 219q0 83 -41 154.5t-114 113.5t-156 42q-84 0 -156 -41.5t-112.5 -113t-40.5 -155.5z" />
<glyph unicode="&#xa5;" d="M104 1433h95l203 -751l198 751h97l-224 -791h193v-80h-216v-196h216v-81h-216v-285h-101v285h-211v81h211v194l-2 2h-209v80h187z" />
<glyph unicode="&#xa6;" d="M355 301h93v-783h-93v783zM355 743v782h93v-782h-93z" />
<glyph unicode="&#xa7;" horiz-adv-x="684" d="M80 151v98q40 -34 97.5 -53.5t121.5 -19.5q88 0 142.5 51t54.5 128q0 62 -32.5 105t-130.5 102l-92 53q-80 47 -120.5 101.5t-40.5 124.5q0 79 39 136.5t105 85.5q-124 88 -124 214q0 111 76.5 179.5t192.5 68.5q58 0 99 -10t102 -44l-38 -73q-49 30 -85.5 39.5 t-80.5 9.5q-80 0 -127.5 -44t-47.5 -114q0 -63 33.5 -105.5t141.5 -105.5q106 -62 144.5 -98t58 -79.5t19.5 -103.5q0 -70 -32.5 -131.5t-84.5 -93.5q64 -49 90.5 -99.5t26.5 -110.5q0 -121 -78 -193.5t-209 -72.5q-135 0 -221 55zM171 853q0 -64 51.5 -116t183.5 -115 q90 52 90 169q0 49 -16.5 83t-53.5 63.5t-133 81.5q-62 -19 -92 -64t-30 -102z" />
<glyph unicode="&#xa8;" horiz-adv-x="1103" d="M341 1361q0 42 19 61t44 19q22 0 41 -19t19 -61q0 -43 -19 -62.5t-41 -19.5q-25 0 -44 19.5t-19 62.5zM640 1361q0 42 19 61t42 19q24 0 42.5 -19t18.5 -61q0 -43 -18.5 -62.5t-42.5 -19.5q-23 0 -42 19.5t-19 62.5z" />
<glyph unicode="&#xa9;" horiz-adv-x="1669" d="M98 716q0 196 98 367.5t269.5 270.5t369.5 99q196 0 367.5 -98t270.5 -269.5t99 -369.5q0 -193 -95 -362.5t-266.5 -271.5t-375.5 -102q-203 0 -374.5 101.5t-267 271t-95.5 363.5zM189 716q0 -174 87 -322.5t236 -235.5t323 -87t322.5 86.5t236 235.5t87.5 323 q0 171 -84 319t-234.5 238t-327.5 90q-173 0 -322 -86.5t-236.5 -237.5t-87.5 -323zM479 710q0 204 109 326t291 122q117 0 223 -51l-37 -81q-96 44 -186 44q-139 0 -218 -92.5t-79 -259.5q0 -182 73 -269t216 -87q83 0 194 42v-86q-100 -45 -204 -45q-183 0 -282.5 113 t-99.5 324z" />
<glyph unicode="&#xaa;" horiz-adv-x="566" d="M56 969q0 89 54 137.5t173 59.5l90 8v71q0 72 -23.5 104t-79.5 32q-60 0 -130 -38l-27 62q79 44 166 44q94 0 134.5 -49t40.5 -153v-446h-56l-15 82h-8q-67 -94 -168 -94q-66 0 -108.5 48.5t-42.5 131.5zM140 967q0 -110 93 -110q67 0 103.5 50t36.5 141v64l-60 -7 q-93 -8 -133 -39t-40 -99z" />
<glyph unicode="&#xab;" horiz-adv-x="838" d="M80 504v26l282 359l59 -34l-214 -338l214 -337l-59 -36zM417 504v26l284 359l58 -34l-213 -338l213 -337l-58 -36z" />
<glyph unicode="&#xac;" d="M58 668v81h666v-504h-80v423h-586z" />
<glyph unicode="&#xad;" horiz-adv-x="505" d="M52 492v100h402v-100h-402z" />
<glyph unicode="&#xae;" horiz-adv-x="1669" d="M98 716q0 196 98 367.5t269.5 270.5t369.5 99q196 0 367.5 -98t270.5 -269.5t99 -369.5q0 -193 -95 -362.5t-266.5 -271.5t-375.5 -102q-203 0 -374.5 101.5t-267 271t-95.5 363.5zM189 716q0 -174 87 -322.5t236 -235.5t323 -87t322.5 86.5t236 235.5t87.5 323 q0 171 -84 319t-234.5 238t-327.5 90q-173 0 -322 -86.5t-236.5 -237.5t-87.5 -323zM596 285v863h207q140 0 217.5 -61t77.5 -187q0 -172 -144 -236l194 -379h-112l-171 353h-170v-353h-99zM695 716h110q89 0 140 46t51 133q0 168 -193 168h-108v-347z" />
<glyph unicode="&#xaf;" horiz-adv-x="825" d="M-8 1525v80h841v-80h-841z" />
<glyph unicode="&#xb0;" horiz-adv-x="859" d="M136 1160q0 130 85 211.5t208 81.5q124 0 208.5 -81.5t84.5 -211.5q0 -129 -84.5 -211t-208.5 -82q-127 0 -210 81.5t-83 211.5zM224 1160q0 -89 60 -150.5t145 -61.5t145 60.5t60 151.5q0 90 -59 151.5t-146 61.5q-88 0 -146.5 -62.5t-58.5 -150.5z" />
<glyph unicode="&#xb1;" d="M58 0v80h687v-80h-687zM58 668v81h304v425h80v-425h303v-81h-303v-423h-80v423h-304z" />
<glyph unicode="&#xb2;" horiz-adv-x="601" d="M48 574v77l174 218q78 96 114.5 151.5t52 99t15.5 106.5q0 65 -37 104t-102 39q-87 0 -161 -80l-54 59q92 105 217 105q107 0 168 -61t61 -166q0 -85 -37.5 -161t-169.5 -238l-142 -172h363v-81h-462z" />
<glyph unicode="&#xb3;" horiz-adv-x="601" d="M46 1367q97 88 215 88q108 0 167.5 -60t59.5 -165q0 -71 -36 -123t-99 -75v-9q162 -45 162 -220q0 -108 -73.5 -176.5t-196.5 -68.5q-97 0 -193 42v93q93 -51 195 -51q92 0 134 44t42 117q0 88 -50.5 134.5t-150.5 46.5h-59v79h63q84 0 129 47t45 125q0 64 -39 100 t-108 36q-82 0 -155 -71z" />
<glyph unicode="&#xb4;" horiz-adv-x="1103" d="M425 1216v21q125 162 187 301h123v-17q-38 -69 -116 -158t-148 -147h-46z" />
<glyph unicode="&#xb5;" horiz-adv-x="856" d="M142 -482v1545h93v-718q0 -278 154 -278q121 0 177 97.5t56 314.5v584h92v-1063h-78l-12 149h-8q-33 -79 -92.5 -124t-125.5 -45q-116 0 -163 104h-9q9 -117 9 -179v-387h-93z" />
<glyph unicode="&#xb6;" horiz-adv-x="947" d="M147 1021q0 250 61.5 377t197.5 127h347v-1780h-92v1686h-144v-1686h-92v803q-29 -18 -67 -18q-109 0 -160 120.5t-51 370.5z" />
<glyph unicode="&#xb7;" horiz-adv-x="413" d="M130 707q0 103 77 103q76 0 76 -103q0 -56 -22.5 -80.5t-53.5 -24.5q-77 0 -77 105z" />
<glyph unicode="&#xb8;" horiz-adv-x="455" d="M58 -395q30 -11 76 -11q77 0 113 33t36 86q0 59 -43 88.5t-119 41.5l70 157h74l-50 -113q156 -38 156 -172q0 -98 -61 -147.5t-168 -49.5q-61 0 -84 11v76z" />
<glyph unicode="&#xb9;" horiz-adv-x="601" d="M80 1264l233 169h76v-859h-84v602q0 84 6 167q-33 -31 -54.5 -48.5t-128.5 -94.5z" />
<glyph unicode="&#xba;" horiz-adv-x="605" d="M69 1120q0 157 62 243t174 86q111 0 172 -80.5t61 -248.5q0 -162 -60 -246.5t-173 -84.5q-117 0 -176.5 84.5t-59.5 246.5zM157 1120q0 -136 35 -197.5t111 -61.5q80 0 113.5 61.5t33.5 197.5t-35 196.5t-112 60.5q-68 0 -107 -61.5t-39 -195.5z" />
<glyph unicode="&#xbb;" horiz-adv-x="838" d="M80 180l213 337l-213 338l58 34l283 -359v-26l-283 -360zM417 180l215 337l-215 338l60 34l282 -359v-26l-282 -360z" />
<glyph unicode="&#xbc;" horiz-adv-x="1401" d="M51 1264l233 169h76v-859h-84v602q0 84 6 167q-33 -31 -54.5 -48.5t-128.5 -94.5zM271 0l753 1433h90l-753 -1433h-90zM768 206v64l333 596h79v-580h98v-80h-98v-205h-85v205h-327zM867 286h228v277q0 119 4 166q-5 -11 -40.5 -84.5t-191.5 -358.5z" />
<glyph unicode="&#xbd;" horiz-adv-x="1401" d="M51 1264l233 169h76v-859h-84v602q0 84 6 167q-33 -31 -54.5 -48.5t-128.5 -94.5zM247 0l753 1433h90l-753 -1433h-90zM847 1v77l174 218q78 96 114.5 151.5t52 99t15.5 106.5q0 65 -37 104t-102 39q-87 0 -161 -80l-54 59q92 105 217 105q107 0 168 -61t61 -166 q0 -85 -37.5 -161t-169.5 -238l-142 -172h363v-81h-462z" />
<glyph unicode="&#xbe;" horiz-adv-x="1401" d="M46 1367q97 88 215 88q108 0 167.5 -60t59.5 -165q0 -71 -36 -123t-99 -75v-9q162 -45 162 -220q0 -108 -73.5 -176.5t-196.5 -68.5q-97 0 -193 42v93q93 -51 195 -51q92 0 134 44t42 117q0 88 -50.5 134.5t-150.5 46.5h-59v79h63q84 0 129 47t45 125q0 64 -39 100 t-108 36q-82 0 -155 -71zM311 0l753 1433h90l-753 -1433h-90zM807 206v64l333 596h79v-580h98v-80h-98v-205h-85v205h-327zM906 286h228v277q0 119 4 166q-5 -11 -40.5 -84.5t-191.5 -358.5z" />
<glyph unicode="&#xbf;" horiz-adv-x="566" d="M46 -86q0 74 11.5 129t37 110.5t108.5 181.5q58 90 80 155t22 163v38h74v-51q0 -113 -20.5 -185.5t-75.5 -155.5q-66 -101 -89.5 -152t-36.5 -105.5t-13 -121.5q0 -114 45 -175t122 -61q56 0 95 16t80 43l46 -74q-100 -73 -221 -73q-130 0 -197.5 83.5t-67.5 234.5z M261 961q0 56 22.5 80t53.5 24q77 0 77 -104t-77 -104q-31 0 -53.5 23.5t-22.5 80.5z" />
<glyph unicode="&#xc0;" horiz-adv-x="796" d="M0 0l345 1433h99l353 -1433h-98l-127 519h-348l-124 -519h-100zM143 1852v17h123q26 -62 80.5 -149.5t106.5 -151.5v-21h-47q-64 52 -145.5 145t-117.5 160zM243 616h307l-127 535q-19 90 -30 170q-9 -85 -27 -170z" />
<glyph unicode="&#xc1;" horiz-adv-x="796" d="M0 0l345 1433h99l353 -1433h-98l-127 519h-348l-124 -519h-100zM243 616h307l-127 535q-19 90 -30 170q-9 -85 -27 -170zM332 1547v21q125 162 187 301h123v-17q-38 -69 -116 -158t-148 -147h-46z" />
<glyph unicode="&#xc2;" horiz-adv-x="796" d="M0 0l345 1433h99l353 -1433h-98l-127 519h-348l-124 -519h-100zM163 1547v19q119 164 182 303h94q23 -54 76.5 -142t109.5 -161v-19h-46q-32 31 -89 99l-96 110q-49 -55 -98.5 -112.5t-90.5 -96.5h-42zM243 616h307l-127 535q-19 90 -30 170q-9 -85 -27 -170z" />
<glyph unicode="&#xc3;" horiz-adv-x="796" d="M0 0l345 1433h99l353 -1433h-98l-127 519h-348l-124 -519h-100zM123 1547q12 95 52 151t111 56q34 0 66.5 -19.5t62 -42.5t56.5 -43t52 -20q34 0 51.5 35.5t25.5 91.5h73q-9 -99 -50 -153t-107 -54q-34 0 -67.5 19.5t-64 42.5t-57.5 43t-49 20q-31 0 -52.5 -35.5 t-29.5 -91.5h-73zM243 616h307l-127 535q-19 90 -30 170q-9 -85 -27 -170z" />
<glyph unicode="&#xc4;" horiz-adv-x="796" d="M0 0l345 1433h99l353 -1433h-98l-127 519h-348l-124 -519h-100zM187 1692q0 42 19 61t44 19q22 0 41 -19t19 -61q0 -43 -19 -62.5t-41 -19.5q-25 0 -44 19.5t-19 62.5zM243 616h307l-127 535q-19 90 -30 170q-9 -85 -27 -170zM486 1692q0 42 19 61t42 19q24 0 42.5 -19 t18.5 -61q0 -43 -18.5 -62.5t-42.5 -19.5q-23 0 -42 19.5t-19 62.5z" />
<glyph unicode="&#xc5;" horiz-adv-x="796" d="M0 0l345 1433h99l353 -1433h-98l-127 519h-348l-124 -519h-100zM202 1553q0 84 52.5 133.5t142.5 49.5q85 0 140 -49t55 -130q0 -87 -53 -137t-142 -50q-91 0 -143 49.5t-52 133.5zM243 616h307l-127 535q-19 90 -30 170q-9 -85 -27 -170zM279 1553q0 -52 29.5 -83 t88.5 -31q53 0 86 31t33 83q0 50 -30.5 82t-88.5 32q-53 0 -85.5 -32t-32.5 -82z" />
<glyph unicode="&#xc6;" horiz-adv-x="1129" d="M0 0l425 1433h609v-94h-423v-542h398v-92h-398v-613h423v-92h-520v519h-263l-149 -519h-102zM277 616h237v721h-28z" />
<glyph unicode="&#xc7;" horiz-adv-x="842" d="M109 720q0 343 122 539t333 196q131 0 229 -60l-44 -85q-83 53 -187 53q-162 0 -257.5 -171t-95.5 -474q0 -197 44 -343t126.5 -224t190.5 -78q112 0 192 40v-89q-76 -44 -200 -44q-137 0 -239.5 88.5t-158 255.5t-55.5 396zM365 -395q30 -11 76 -11q77 0 113 33t36 86 q0 59 -43 88.5t-119 41.5l70 157h74l-50 -113q156 -38 156 -172q0 -98 -61 -147.5t-168 -49.5q-61 0 -84 11v76z" />
<glyph unicode="&#xc8;" horiz-adv-x="772" d="M157 0v1433h519v-92h-423v-544h400v-92h-400v-613h423v-92h-519zM195 1852v17h123q26 -62 80.5 -149.5t106.5 -151.5v-21h-47q-64 52 -145.5 145t-117.5 160z" />
<glyph unicode="&#xc9;" horiz-adv-x="772" d="M157 0v1433h519v-92h-423v-544h400v-92h-400v-613h423v-92h-519zM317 1547v21q125 162 187 301h123v-17q-38 -69 -116 -158t-148 -147h-46z" />
<glyph unicode="&#xca;" horiz-adv-x="772" d="M157 0v1433h519v-92h-423v-544h400v-92h-400v-613h423v-92h-519zM177 1547v19q119 164 182 303h94q23 -54 76.5 -142t109.5 -161v-19h-46q-32 31 -89 99l-96 110q-49 -55 -98.5 -112.5t-90.5 -96.5h-42z" />
<glyph unicode="&#xcb;" horiz-adv-x="772" d="M157 0v1433h519v-92h-423v-544h400v-92h-400v-613h423v-92h-519zM198 1692q0 42 19 61t44 19q22 0 41 -19t19 -61q0 -43 -19 -62.5t-41 -19.5q-25 0 -44 19.5t-19 62.5zM497 1692q0 42 19 61t42 19q24 0 42.5 -19t18.5 -61q0 -43 -18.5 -62.5t-42.5 -19.5q-23 0 -42 19.5 t-19 62.5z" />
<glyph unicode="&#xcc;" horiz-adv-x="409" d="M-34 1852v17h123q26 -62 80.5 -149.5t106.5 -151.5v-21h-47q-64 52 -145.5 145t-117.5 160zM157 0v1433h96v-1433h-96z" />
<glyph unicode="&#xcd;" horiz-adv-x="409" d="M151 1547v21q125 162 187 301h123v-17q-38 -69 -116 -158t-148 -147h-46zM157 0v1433h96v-1433h-96z" />
<glyph unicode="&#xce;" horiz-adv-x="409" d="M-26 1547v19q119 164 182 303h94q23 -54 76.5 -142t109.5 -161v-19h-46q-32 31 -89 99l-96 110q-49 -55 -98.5 -112.5t-90.5 -96.5h-42zM157 0v1433h96v-1433h-96z" />
<glyph unicode="&#xcf;" horiz-adv-x="409" d="M-5 1692q0 42 19 61t44 19q22 0 41 -19t19 -61q0 -43 -19 -62.5t-41 -19.5q-25 0 -44 19.5t-19 62.5zM157 0v1433h96v-1433h-96zM294 1692q0 42 19 61t42 19q24 0 42.5 -19t18.5 -61q0 -43 -18.5 -62.5t-42.5 -19.5q-23 0 -42 19.5t-19 62.5z" />
<glyph unicode="&#xd0;" horiz-adv-x="975" d="M60 686v89h97v658h260q222 0 336 -179t114 -524q0 -730 -455 -730h-255v686h-97zM253 88h153q186 0 273 163t87 473q0 303 -89 462t-263 159h-161v-570h220v-89h-220v-598z" />
<glyph unicode="&#xd1;" horiz-adv-x="1068" d="M157 0v1433h124l538 -1270h6q-8 160 -8 268v1002h94v-1433h-122l-542 1285h-8q12 -133 12 -257v-1028h-94zM278 1547q12 95 52 151t111 56q34 0 66.5 -19.5t62 -42.5t56.5 -43t52 -20q34 0 51.5 35.5t25.5 91.5h73q-9 -99 -50 -153t-107 -54q-34 0 -67.5 19.5t-64 42.5 t-57.5 43t-49 20q-31 0 -52.5 -35.5t-29.5 -91.5h-73z" />
<glyph unicode="&#xd2;" horiz-adv-x="1043" d="M109 720q0 371 104 552t311 181q200 0 305.5 -190.5t105.5 -544.5q0 -355 -106.5 -546.5t-307.5 -191.5q-203 0 -307.5 193t-104.5 547zM209 718q0 -319 79.5 -482t232.5 -163q154 0 234 161.5t80 483.5q0 319 -78.5 481t-232.5 162q-157 0 -236 -164t-79 -479zM277 1852 v17h123q26 -62 80.5 -149.5t106.5 -151.5v-21h-47q-64 52 -145.5 145t-117.5 160z" />
<glyph unicode="&#xd3;" horiz-adv-x="1043" d="M109 720q0 371 104 552t311 181q200 0 305.5 -190.5t105.5 -544.5q0 -355 -106.5 -546.5t-307.5 -191.5q-203 0 -307.5 193t-104.5 547zM209 718q0 -319 79.5 -482t232.5 -163q154 0 234 161.5t80 483.5q0 319 -78.5 481t-232.5 162q-157 0 -236 -164t-79 -479zM449 1547 v21q125 162 187 301h123v-17q-38 -69 -116 -158t-148 -147h-46z" />
<glyph unicode="&#xd4;" horiz-adv-x="1043" d="M109 720q0 371 104 552t311 181q200 0 305.5 -190.5t105.5 -544.5q0 -355 -106.5 -546.5t-307.5 -191.5q-203 0 -307.5 193t-104.5 547zM209 718q0 -319 79.5 -482t232.5 -163q154 0 234 161.5t80 483.5q0 319 -78.5 481t-232.5 162q-157 0 -236 -164t-79 -479zM290 1547 v19q119 164 182 303h94q23 -54 76.5 -142t109.5 -161v-19h-46q-32 31 -89 99l-96 110q-49 -55 -98.5 -112.5t-90.5 -96.5h-42z" />
<glyph unicode="&#xd5;" horiz-adv-x="1043" d="M109 720q0 371 104 552t311 181q200 0 305.5 -190.5t105.5 -544.5q0 -355 -106.5 -546.5t-307.5 -191.5q-203 0 -307.5 193t-104.5 547zM209 718q0 -319 79.5 -482t232.5 -163q154 0 234 161.5t80 483.5q0 319 -78.5 481t-232.5 162q-157 0 -236 -164t-79 -479zM256 1547 q12 95 52 151t111 56q34 0 66.5 -19.5t62 -42.5t56.5 -43t52 -20q34 0 51.5 35.5t25.5 91.5h73q-9 -99 -50 -153t-107 -54q-34 0 -67.5 19.5t-64 42.5t-57.5 43t-49 20q-31 0 -52.5 -35.5t-29.5 -91.5h-73z" />
<glyph unicode="&#xd6;" horiz-adv-x="1043" d="M109 720q0 371 104 552t311 181q200 0 305.5 -190.5t105.5 -544.5q0 -355 -106.5 -546.5t-307.5 -191.5q-203 0 -307.5 193t-104.5 547zM209 718q0 -319 79.5 -482t232.5 -163q154 0 234 161.5t80 483.5q0 319 -78.5 481t-232.5 162q-157 0 -236 -164t-79 -479zM319 1692 q0 42 19 61t44 19q22 0 41 -19t19 -61q0 -43 -19 -62.5t-41 -19.5q-25 0 -44 19.5t-19 62.5zM618 1692q0 42 19 61t42 19q24 0 42.5 -19t18.5 -61q0 -43 -18.5 -62.5t-42.5 -19.5q-23 0 -42 19.5t-19 62.5z" />
<glyph unicode="&#xd7;" d="M58 423l285 286l-283 283l57 56l283 -284l286 288l59 -56l-287 -287l281 -284l-57 -56l-282 284l-285 -287z" />
<glyph unicode="&#xd8;" horiz-adv-x="1043" d="M94 -56l117 232q-102 191 -102 544q0 371 104 552t311 181q161 0 265 -128l94 186l80 -40l-120 -234q92 -186 92 -519q0 -355 -106.5 -546.5t-307.5 -191.5q-154 0 -254 112l-93 -184zM209 718q0 -276 58 -431l474 939q-78 135 -217 135q-157 0 -236 -164t-79 -479z M316 186q75 -113 205 -113q154 0 234 161.5t80 483.5q0 246 -48 404z" />
<glyph unicode="&#xd9;" horiz-adv-x="991" d="M144 466v967h97v-979q0 -186 67 -283.5t192 -97.5q123 0 187 97.5t64 287.5v975h96v-967q0 -486 -347 -486q-174 0 -265 125.5t-91 360.5zM271 1852v17h123q26 -62 80.5 -149.5t106.5 -151.5v-21h-47q-64 52 -145.5 145t-117.5 160z" />
<glyph unicode="&#xda;" horiz-adv-x="991" d="M144 466v967h97v-979q0 -186 67 -283.5t192 -97.5q123 0 187 97.5t64 287.5v975h96v-967q0 -486 -347 -486q-174 0 -265 125.5t-91 360.5zM414 1547v21q125 162 187 301h123v-17q-38 -69 -116 -158t-148 -147h-46z" />
<glyph unicode="&#xdb;" horiz-adv-x="991" d="M144 466v967h97v-979q0 -186 67 -283.5t192 -97.5q123 0 187 97.5t64 287.5v975h96v-967q0 -486 -347 -486q-174 0 -265 125.5t-91 360.5zM265 1547v19q119 164 182 303h94q23 -54 76.5 -142t109.5 -161v-19h-46q-32 31 -89 99l-96 110q-49 -55 -98.5 -112.5t-90.5 -96.5 h-42z" />
<glyph unicode="&#xdc;" horiz-adv-x="991" d="M144 466v967h97v-979q0 -186 67 -283.5t192 -97.5q123 0 187 97.5t64 287.5v975h96v-967q0 -486 -347 -486q-174 0 -265 125.5t-91 360.5zM286 1692q0 42 19 61t44 19q22 0 41 -19t19 -61q0 -43 -19 -62.5t-41 -19.5q-25 0 -44 19.5t-19 62.5zM585 1692q0 42 19 61t42 19 q24 0 42.5 -19t18.5 -61q0 -43 -18.5 -62.5t-42.5 -19.5q-23 0 -42 19.5t-19 62.5z" />
<glyph unicode="&#xdd;" horiz-adv-x="672" d="M0 1433h102l235 -740l233 740h102l-289 -873v-560h-96v560zM265 1547v21q125 162 187 301h123v-17q-38 -69 -116 -158t-148 -147h-46z" />
<glyph unicode="&#xde;" horiz-adv-x="823" d="M157 0v1433h96v-265h100q210 0 307 -97t97 -303q0 -441 -399 -441h-105v-327h-96zM253 419h96q166 0 238 76t72 262q0 169 -70.5 243t-228.5 74h-107v-655z" />
<glyph unicode="&#xdf;" horiz-adv-x="806" d="M142 0v1180q0 168 71.5 262t200.5 94q114 0 173 -70t59 -202q0 -117 -89 -233q-46 -60 -68 -103t-22 -83q0 -55 22 -98.5t87 -126.5l58 -68q52 -60 77.5 -123t25.5 -138q0 -147 -69 -229t-186 -82q-47 0 -94 13.5t-77 38.5v98q35 -24 75 -42.5t96 -18.5q77 0 118.5 57 t41.5 159q0 61 -22.5 115.5t-104.5 151.5q-75 92 -106.5 160t-31.5 133q0 50 19.5 94t68.5 104q45 57 66 110t21 115q0 179 -144 179q-84 0 -128.5 -66t-44.5 -191v-1190h-93z" />
<glyph unicode="&#xe0;" horiz-adv-x="768" d="M76 285q0 152 91.5 240.5t255.5 96.5l115 6v88q0 149 -37 217.5t-124 68.5q-91 0 -186 -60l-40 73q111 69 232 69q131 0 189 -83t58 -277v-724h-76l-12 149h-4q-76 -169 -231 -169q-104 0 -167.5 83t-63.5 222zM159 1521v17h123q26 -62 80.5 -149.5t106.5 -151.5v-21h-47 q-64 52 -145.5 145t-117.5 160zM174 283q0 -115 41.5 -169t111.5 -54q100 0 155.5 98.5t55.5 278.5v111l-111 -6q-128 -7 -190.5 -71t-62.5 -188z" />
<glyph unicode="&#xe1;" horiz-adv-x="768" d="M76 285q0 152 91.5 240.5t255.5 96.5l115 6v88q0 149 -37 217.5t-124 68.5q-91 0 -186 -60l-40 73q111 69 232 69q131 0 189 -83t58 -277v-724h-76l-12 149h-4q-76 -169 -231 -169q-104 0 -167.5 83t-63.5 222zM174 283q0 -115 41.5 -169t111.5 -54q100 0 155.5 98.5 t55.5 278.5v111l-111 -6q-128 -7 -190.5 -71t-62.5 -188zM284 1216v21q125 162 187 301h123v-17q-38 -69 -116 -158t-148 -147h-46z" />
<glyph unicode="&#xe2;" horiz-adv-x="768" d="M76 285q0 152 91.5 240.5t255.5 96.5l115 6v88q0 149 -37 217.5t-124 68.5q-91 0 -186 -60l-40 73q111 69 232 69q131 0 189 -83t58 -277v-724h-76l-12 149h-4q-76 -169 -231 -169q-104 0 -167.5 83t-63.5 222zM147 1218v19q119 164 182 303h94q23 -54 76.5 -142 t109.5 -161v-19h-46q-32 31 -89 99l-96 110q-49 -55 -98.5 -112.5t-90.5 -96.5h-42zM174 283q0 -115 41.5 -169t111.5 -54q100 0 155.5 98.5t55.5 278.5v111l-111 -6q-128 -7 -190.5 -71t-62.5 -188z" />
<glyph unicode="&#xe3;" horiz-adv-x="768" d="M76 285q0 152 91.5 240.5t255.5 96.5l115 6v88q0 149 -37 217.5t-124 68.5q-91 0 -186 -60l-40 73q111 69 232 69q131 0 189 -83t58 -277v-724h-76l-12 149h-4q-76 -169 -231 -169q-104 0 -167.5 83t-63.5 222zM114 1216q12 95 52 151t111 56q34 0 66.5 -19.5t62 -42.5 t56.5 -43t52 -20q34 0 51.5 35.5t25.5 91.5h73q-9 -99 -50 -153t-107 -54q-34 0 -67.5 19.5t-64 42.5t-57.5 43t-49 20q-31 0 -52.5 -35.5t-29.5 -91.5h-73zM174 283q0 -115 41.5 -169t111.5 -54q100 0 155.5 98.5t55.5 278.5v111l-111 -6q-128 -7 -190.5 -71t-62.5 -188z " />
<glyph unicode="&#xe4;" horiz-adv-x="768" d="M76 285q0 152 91.5 240.5t255.5 96.5l115 6v88q0 149 -37 217.5t-124 68.5q-91 0 -186 -60l-40 73q111 69 232 69q131 0 189 -83t58 -277v-724h-76l-12 149h-4q-76 -169 -231 -169q-104 0 -167.5 83t-63.5 222zM162 1361q0 42 19 61t44 19q22 0 41 -19t19 -61 q0 -43 -19 -62.5t-41 -19.5q-25 0 -44 19.5t-19 62.5zM174 283q0 -115 41.5 -169t111.5 -54q100 0 155.5 98.5t55.5 278.5v111l-111 -6q-128 -7 -190.5 -71t-62.5 -188zM461 1361q0 42 19 61t42 19q24 0 42.5 -19t18.5 -61q0 -43 -18.5 -62.5t-42.5 -19.5q-23 0 -42 19.5 t-19 62.5z" />
<glyph unicode="&#xe5;" horiz-adv-x="768" d="M76 285q0 152 91.5 240.5t255.5 96.5l115 6v88q0 149 -37 217.5t-124 68.5q-91 0 -186 -60l-40 73q111 69 232 69q131 0 189 -83t58 -277v-724h-76l-12 149h-4q-76 -169 -231 -169q-104 0 -167.5 83t-63.5 222zM174 283q0 -115 41.5 -169t111.5 -54q100 0 155.5 98.5 t55.5 278.5v111l-111 -6q-128 -7 -190.5 -71t-62.5 -188zM181 1409q0 84 52.5 133.5t142.5 49.5q85 0 140 -49t55 -130q0 -87 -53 -137t-142 -50q-91 0 -143 49.5t-52 133.5zM258 1409q0 -52 29.5 -83t88.5 -31q53 0 86 31t33 83q0 50 -30.5 82t-88.5 32q-53 0 -85.5 -32 t-32.5 -82z" />
<glyph unicode="&#xe6;" horiz-adv-x="1234" d="M76 285q0 152 91.5 240.5t255.5 96.5l115 6v88q0 143 -38.5 214.5t-122.5 71.5q-91 0 -186 -60l-40 73q46 29 100.5 49t129.5 20q175 0 225 -169q82 169 245 169q134 0 211.5 -125t77.5 -341v-86h-504q9 -467 253 -467q49 0 107 17t109 48v-86q-98 -64 -218 -64 q-103 0 -182 62t-117 175q-45 -127 -114.5 -182t-166.5 -55q-104 0 -167.5 83t-63.5 222zM174 283q0 -115 41.5 -169t111.5 -54q100 0 155.5 98.5t55.5 278.5v111l-111 -6q-129 -7 -191 -68t-62 -191zM638 616h410v12q0 169 -54 269.5t-145 100.5q-190 0 -211 -382z" />
<glyph unicode="&#xe7;" horiz-adv-x="622" d="M94 526q0 273 82 415.5t241 142.5q99 0 165 -36l-36 -83q-66 31 -121 31q-234 0 -234 -468q0 -463 234 -463q70 0 151 31v-78q-32 -18 -79 -28t-81 -10q-160 0 -241 139t-81 407zM215 -395q30 -11 76 -11q77 0 113 33t36 86q0 59 -43 88.5t-119 41.5l70 157h74l-50 -113 q156 -38 156 -172q0 -98 -61 -147.5t-168 -49.5q-61 0 -84 11v76z" />
<glyph unicode="&#xe8;" horiz-adv-x="786" d="M94 524q0 273 81 416.5t233 143.5q132 0 208.5 -126t76.5 -340v-86h-504q2 -232 65.5 -347.5t193.5 -115.5q100 0 211 65v-90q-102 -64 -215 -64q-169 0 -259.5 144t-90.5 400zM191 616h409q0 176 -53.5 280t-144.5 104q-192 0 -211 -384zM193 1521v17h123 q26 -62 80.5 -149.5t106.5 -151.5v-21h-47q-64 52 -145.5 145t-117.5 160z" />
<glyph unicode="&#xe9;" horiz-adv-x="786" d="M94 524q0 273 81 416.5t233 143.5q132 0 208.5 -126t76.5 -340v-86h-504q2 -232 65.5 -347.5t193.5 -115.5q100 0 211 65v-90q-102 -64 -215 -64q-169 0 -259.5 144t-90.5 400zM191 616h409q0 176 -53.5 280t-144.5 104q-192 0 -211 -384zM336 1216v21q125 162 187 301 h123v-17q-38 -69 -116 -158t-148 -147h-46z" />
<glyph unicode="&#xea;" horiz-adv-x="786" d="M94 524q0 273 81 416.5t233 143.5q132 0 208.5 -126t76.5 -340v-86h-504q2 -232 65.5 -347.5t193.5 -115.5q100 0 211 65v-90q-102 -64 -215 -64q-169 0 -259.5 144t-90.5 400zM173 1216v19q119 164 182 303h94q23 -54 76.5 -142t109.5 -161v-19h-46q-32 31 -89 99 l-96 110q-49 -55 -98.5 -112.5t-90.5 -96.5h-42zM191 616h409q0 176 -53.5 280t-144.5 104q-192 0 -211 -384z" />
<glyph unicode="&#xeb;" horiz-adv-x="786" d="M94 524q0 273 81 416.5t233 143.5q132 0 208.5 -126t76.5 -340v-86h-504q2 -232 65.5 -347.5t193.5 -115.5q100 0 211 65v-90q-102 -64 -215 -64q-169 0 -259.5 144t-90.5 400zM191 616h409q0 176 -53.5 280t-144.5 104q-192 0 -211 -384zM191 1361q0 42 19 61t44 19 q22 0 41 -19t19 -61q0 -43 -19 -62.5t-41 -19.5q-25 0 -44 19.5t-19 62.5zM490 1361q0 42 19 61t42 19q24 0 42.5 -19t18.5 -61q0 -43 -18.5 -62.5t-42.5 -19.5q-23 0 -42 19.5t-19 62.5z" />
<glyph unicode="&#xec;" horiz-adv-x="377" d="M-32 1521v17h123q26 -62 80.5 -149.5t106.5 -151.5v-21h-47q-64 52 -145.5 145t-117.5 160zM142 0v1063h93v-1063h-93z" />
<glyph unicode="&#xed;" horiz-adv-x="377" d="M110 1216v21q125 162 187 301h123v-17q-38 -69 -116 -158t-148 -147h-46zM142 0v1063h93v-1063h-93z" />
<glyph unicode="&#xee;" horiz-adv-x="377" d="M-41 1216v19q119 164 182 303h94q23 -54 76.5 -142t109.5 -161v-19h-46q-32 31 -89 99l-96 110q-49 -55 -98.5 -112.5t-90.5 -96.5h-42zM142 0v1063h93v-1063h-93z" />
<glyph unicode="&#xef;" horiz-adv-x="377" d="M-20 1361q0 42 19 61t44 19q22 0 41 -19t19 -61q0 -43 -19 -62.5t-41 -19.5q-25 0 -44 19.5t-19 62.5zM142 0v1063h93v-1063h-93zM279 1361q0 42 19 61t42 19q24 0 42.5 -19t18.5 -61q0 -43 -18.5 -62.5t-42.5 -19.5q-23 0 -42 19.5t-19 62.5z" />
<glyph unicode="&#xf0;" horiz-adv-x="838" d="M92 460q0 228 79 351.5t227 123.5q150 0 222 -121h8q-52 289 -233 500l-171 -100l-38 65l157 92q-58 55 -110 94l46 60q72 -45 138 -110l185 108l38 -64l-171 -101q278 -318 278 -854q0 -524 -331 -524q-146 0 -235 133t-89 347zM186 452q0 -178 63.5 -282.5 t171.5 -104.5q120 0 176 101t56 307q0 163 -63.5 268.5t-166.5 105.5q-114 0 -175.5 -100t-61.5 -295z" />
<glyph unicode="&#xf1;" horiz-adv-x="852" d="M142 0v1063h78l8 -148h9q33 81 96 125t134 44q124 0 185.5 -83t61.5 -266v-735h-92v733q0 265 -156 265q-120 0 -175.5 -99t-55.5 -315v-584h-93zM162 1216q12 95 52 151t111 56q34 0 66.5 -19.5t62 -42.5t56.5 -43t52 -20q34 0 51.5 35.5t25.5 91.5h73q-9 -99 -50 -153 t-107 -54q-34 0 -67.5 19.5t-64 42.5t-57.5 43t-49 20q-31 0 -52.5 -35.5t-29.5 -91.5h-73z" />
<glyph unicode="&#xf2;" horiz-adv-x="833" d="M92 534q0 550 325 550q153 0 238.5 -144t85.5 -406q0 -268 -85 -411t-242 -143q-156 0 -239 143t-83 411zM189 534q0 -230 55 -347.5t172 -117.5q228 0 228 465q0 462 -228 462q-120 0 -173.5 -116t-53.5 -346zM202 1521v17h123q26 -62 80.5 -149.5t106.5 -151.5v-21h-47 q-64 52 -145.5 145t-117.5 160z" />
<glyph unicode="&#xf3;" horiz-adv-x="833" d="M92 534q0 550 325 550q153 0 238.5 -144t85.5 -406q0 -268 -85 -411t-242 -143q-156 0 -239 143t-83 411zM189 534q0 -230 55 -347.5t172 -117.5q228 0 228 465q0 462 -228 462q-120 0 -173.5 -116t-53.5 -346zM334 1216v21q125 162 187 301h123v-17q-38 -69 -116 -158 t-148 -147h-46z" />
<glyph unicode="&#xf4;" horiz-adv-x="833" d="M92 534q0 550 325 550q153 0 238.5 -144t85.5 -406q0 -268 -85 -411t-242 -143q-156 0 -239 143t-83 411zM187 1216v19q119 164 182 303h94q23 -54 76.5 -142t109.5 -161v-19h-46q-32 31 -89 99l-96 110q-49 -55 -98.5 -112.5t-90.5 -96.5h-42zM189 534q0 -230 55 -347.5 t172 -117.5q228 0 228 465q0 462 -228 462q-120 0 -173.5 -116t-53.5 -346z" />
<glyph unicode="&#xf5;" horiz-adv-x="833" d="M92 534q0 550 325 550q153 0 238.5 -144t85.5 -406q0 -268 -85 -411t-242 -143q-156 0 -239 143t-83 411zM141 1216q12 95 52 151t111 56q34 0 66.5 -19.5t62 -42.5t56.5 -43t52 -20q34 0 51.5 35.5t25.5 91.5h73q-9 -99 -50 -153t-107 -54q-34 0 -67.5 19.5t-64 42.5 t-57.5 43t-49 20q-31 0 -52.5 -35.5t-29.5 -91.5h-73zM189 534q0 -230 55 -347.5t172 -117.5q228 0 228 465q0 462 -228 462q-120 0 -173.5 -116t-53.5 -346z" />
<glyph unicode="&#xf6;" horiz-adv-x="833" d="M92 534q0 550 325 550q153 0 238.5 -144t85.5 -406q0 -268 -85 -411t-242 -143q-156 0 -239 143t-83 411zM189 534q0 -230 55 -347.5t172 -117.5q228 0 228 465q0 462 -228 462q-120 0 -173.5 -116t-53.5 -346zM206 1361q0 42 19 61t44 19q22 0 41 -19t19 -61 q0 -43 -19 -62.5t-41 -19.5q-25 0 -44 19.5t-19 62.5zM505 1361q0 42 19 61t42 19q24 0 42.5 -19t18.5 -61q0 -43 -18.5 -62.5t-42.5 -19.5q-23 0 -42 19.5t-19 62.5z" />
<glyph unicode="&#xf7;" d="M58 668v81h687v-81h-687zM325 366q0 103 77 103q75 0 75 -103q0 -56 -22 -80.5t-53 -24.5q-77 0 -77 105zM325 1050q0 104 77 104q75 0 75 -104q0 -56 -22 -80t-53 -24q-77 0 -77 104z" />
<glyph unicode="&#xf8;" horiz-adv-x="833" d="M67 -100l109 222q-84 144 -84 412q0 550 325 550q115 0 194 -84l82 166l73 -40l-100 -205q75 -145 75 -387q0 -268 -85 -411t-242 -143q-111 0 -181 68l-93 -188zM189 534q0 -198 37 -308l340 685q-54 85 -150 85q-120 0 -173.5 -116t-53.5 -346zM277 134q50 -65 139 -65 q228 0 228 465q0 176 -32 278z" />
<glyph unicode="&#xf9;" horiz-adv-x="852" d="M138 369v694h93v-694q0 -157 38 -229.5t116 -72.5q121 0 177 97.5t56 314.5v584h92v-1063h-78l-12 149h-8q-34 -81 -94.5 -125t-132.5 -44q-128 0 -187.5 91.5t-59.5 297.5zM191 1521v17h123q26 -62 80.5 -149.5t106.5 -151.5v-21h-47q-64 52 -145.5 145t-117.5 160z" />
<glyph unicode="&#xfa;" horiz-adv-x="852" d="M138 369v694h93v-694q0 -157 38 -229.5t116 -72.5q121 0 177 97.5t56 314.5v584h92v-1063h-78l-12 149h-8q-34 -81 -94.5 -125t-132.5 -44q-128 0 -187.5 91.5t-59.5 297.5zM344 1216v21q125 162 187 301h123v-17q-38 -69 -116 -158t-148 -147h-46z" />
<glyph unicode="&#xfb;" horiz-adv-x="852" d="M138 369v694h93v-694q0 -157 38 -229.5t116 -72.5q121 0 177 97.5t56 314.5v584h92v-1063h-78l-12 149h-8q-34 -81 -94.5 -125t-132.5 -44q-128 0 -187.5 91.5t-59.5 297.5zM187 1216v19q119 164 182 303h94q23 -54 76.5 -142t109.5 -161v-19h-46q-32 31 -89 99l-96 110 q-49 -55 -98.5 -112.5t-90.5 -96.5h-42z" />
<glyph unicode="&#xfc;" horiz-adv-x="852" d="M138 369v694h93v-694q0 -157 38 -229.5t116 -72.5q121 0 177 97.5t56 314.5v584h92v-1063h-78l-12 149h-8q-34 -81 -94.5 -125t-132.5 -44q-128 0 -187.5 91.5t-59.5 297.5zM214 1361q0 42 19 61t44 19q22 0 41 -19t19 -61q0 -43 -19 -62.5t-41 -19.5q-25 0 -44 19.5 t-19 62.5zM513 1361q0 42 19 61t42 19q24 0 42.5 -19t18.5 -61q0 -43 -18.5 -62.5t-42.5 -19.5q-23 0 -42 19.5t-19 62.5z" />
<glyph unicode="&#xfd;" horiz-adv-x="639" d="M-2 -381q39 -14 76 -14q59 0 93.5 50.5t60.5 162.5l47 184l-265 1061h94l161 -663q28 -120 54 -270h8q19 131 52 272l157 661h94l-311 -1264q-34 -140 -89.5 -210.5t-147.5 -70.5q-37 0 -84 16v85zM248 1216v21q125 162 187 301h123v-17q-38 -69 -116 -158t-148 -147h-46 z" />
<glyph unicode="&#xfe;" horiz-adv-x="875" d="M142 -482v2007h93v-474l-4 -134h4q38 80 101 123.5t135 43.5q312 0 312 -550q0 -265 -76.5 -409.5t-222.5 -144.5q-82 0 -148.5 46t-100.5 121h-7l11 -117v-512h-97zM235 540q0 -245 58 -360t176 -115q108 0 161.5 110.5t53.5 358.5q0 240 -51 351t-167 111 q-117 0 -174 -103t-57 -323v-30z" />
<glyph unicode="&#xff;" horiz-adv-x="639" d="M-2 -381q39 -14 76 -14q59 0 93.5 50.5t60.5 162.5l47 184l-265 1061h94l161 -663q28 -120 54 -270h8q19 131 52 272l157 661h94l-311 -1264q-34 -140 -89.5 -210.5t-147.5 -70.5q-37 0 -84 16v85zM114 1361q0 42 19 61t44 19q22 0 41 -19t19 -61q0 -43 -19 -62.5 t-41 -19.5q-25 0 -44 19.5t-19 62.5zM413 1361q0 42 19 61t42 19q24 0 42.5 -19t18.5 -61q0 -43 -18.5 -62.5t-42.5 -19.5q-23 0 -42 19.5t-19 62.5z" />
<glyph unicode="&#x2c6;" horiz-adv-x="1133" d="M335 1216v19q119 164 182 303h94q23 -54 76.5 -142t109.5 -161v-19h-46q-32 31 -89 99l-96 110q-49 -55 -98.5 -112.5t-90.5 -96.5h-42z" />
<glyph unicode="&#x2da;" horiz-adv-x="1158" d="M385 1409q0 84 52.5 133.5t142.5 49.5q85 0 140 -49t55 -130q0 -87 -53 -137t-142 -50q-91 0 -143 49.5t-52 133.5zM462 1409q0 -52 29.5 -83t88.5 -31q53 0 86 31t33 83q0 50 -30.5 82t-88.5 32q-53 0 -85.5 -32t-32.5 -82z" />
<glyph unicode="&#x2dc;" horiz-adv-x="1133" d="M291 1216q12 95 52 151t111 56q34 0 66.5 -19.5t62 -42.5t56.5 -43t52 -20q34 0 51.5 35.5t25.5 91.5h73q-9 -99 -50 -153t-107 -54q-34 0 -67.5 19.5t-64 42.5t-57.5 43t-49 20q-31 0 -52.5 -35.5t-29.5 -91.5h-73z" />
<glyph unicode="&#x400;" horiz-adv-x="772" d="M157 0v1433h519v-92h-423v-544h400v-92h-400v-613h423v-92h-519zM195 1852v17h123q26 -62 80.5 -149.5t106.5 -151.5v-21h-47q-64 52 -145.5 145t-117.5 160z" />
<glyph unicode="&#x401;" horiz-adv-x="772" d="M157 0v1433h519v-92h-423v-544h400v-92h-400v-613h423v-92h-519zM198 1692q0 42 19 61t44 19q22 0 41 -19t19 -61q0 -43 -19 -62.5t-41 -19.5q-25 0 -44 19.5t-19 62.5zM497 1692q0 42 19 61t42 19q24 0 42.5 -19t18.5 -61q0 -43 -18.5 -62.5t-42.5 -19.5q-23 0 -42 19.5 t-19 62.5z" />
<glyph unicode="&#x402;" horiz-adv-x="911" d="M14 1341v92h604v-92h-273v-482h128q166 0 246 -78.5t80 -248.5v-239q0 -150 -60 -231.5t-169 -81.5q-54 0 -95 20v92q48 -19 93 -19q68 0 101.5 54t33.5 170v235q0 123 -53 178.5t-173 55.5h-132v-766h-96v1341h-235z" />
<glyph unicode="&#x403;" horiz-adv-x="672" d="M157 0v1433h500v-92h-404v-1341h-96zM317 1547v21q125 162 187 301h123v-17q-38 -69 -116 -158t-148 -147h-46z" />
<glyph unicode="&#x404;" horiz-adv-x="842" d="M109 720q0 342 117.5 538.5t323.5 196.5q140 0 245 -72l-46 -83q-93 63 -201 63q-147 0 -236.5 -150.5t-100.5 -415.5h448v-92h-450q2 -295 95 -463.5t250 -168.5q74 0 120 15t83 36v-88q-84 -56 -211 -56q-131 0 -230.5 89t-153 257.5t-53.5 393.5z" />
<glyph unicode="&#x405;" horiz-adv-x="792" d="M84 30v104q51 -28 126.5 -44.5t149.5 -16.5q109 0 180 83t71 212q0 118 -50 187.5t-192 139.5q-110 56 -165 108.5t-81.5 122t-26.5 166.5q0 106 43 188t120.5 127.5t169.5 45.5q84 0 152 -18.5t107 -39.5l-37 -93q-109 56 -222 56q-106 0 -172 -72t-66 -190 q0 -121 48 -187.5t188 -138.5q145 -70 212.5 -164.5t67.5 -230.5q0 -176 -98 -285.5t-249 -109.5q-172 0 -276 50z" />
<glyph unicode="&#x406;" horiz-adv-x="409" d="M157 0v1433h96v-1433h-96z" />
<glyph unicode="&#x407;" horiz-adv-x="409" d="M-5 1692q0 42 19 61t44 19q22 0 41 -19t19 -61q0 -43 -19 -62.5t-41 -19.5q-25 0 -44 19.5t-19 62.5zM157 0v1433h96v-1433h-96zM294 1692q0 42 19 61t42 19q24 0 42.5 -19t18.5 -61q0 -43 -18.5 -62.5t-42.5 -19.5q-23 0 -42 19.5t-19 62.5z" />
<glyph unicode="&#x408;" horiz-adv-x="392" d="M-88 -247q48 -20 112 -20q62 0 92.5 56.5t30.5 186.5v1457h96v-1456q0 -168 -55 -253.5t-162 -85.5q-65 0 -114 25v90z" />
<glyph unicode="&#x409;" horiz-adv-x="1258" d="M-20 4v90q23 -16 68 -16q32 0 54 13t40.5 49.5t32.5 105.5t27.5 180.5t90.5 1006.5h402v-636h112q190 0 282.5 -94t92.5 -301q0 -187 -98.5 -294.5t-275.5 -107.5h-210v1341h-221l-38 -467q-42 -509 -69.5 -641.5t-75 -189.5t-140.5 -57q-45 0 -74 18zM695 88h117 q133 0 202.5 81t69.5 233q0 158 -66.5 232.5t-207.5 74.5h-115v-621z" />
<glyph unicode="&#x40a;" horiz-adv-x="1314" d="M157 0v1433h96v-636h406v636h96v-636h112q192 0 284 -95.5t92 -299.5q0 -188 -99.5 -295t-274.5 -107h-210v709h-406v-709h-96zM755 88h118q131 0 201 81t70 233q0 158 -66 232.5t-207 74.5h-116v-621z" />
<glyph unicode="&#x40b;" horiz-adv-x="931" d="M14 1341v92h604v-92h-273v-482h132q163 0 242.5 -78.5t79.5 -248.5v-532h-96v532q0 123 -53 178.5t-173 55.5h-132v-766h-96v1341h-235z" />
<glyph unicode="&#x40c;" horiz-adv-x="794" d="M157 0v1433h96v-692l406 692h103l-409 -692l442 -741h-111l-431 733v-733h-96zM351 1547v21q125 162 187 301h123v-17q-38 -69 -116 -158t-148 -147h-46z" />
<glyph unicode="&#x40d;" horiz-adv-x="1068" d="M157 0v1433h94v-1002q0 -33 -0.5 -66t-9.5 -202h8l538 1270h124v-1433h-94v1028q0 124 12 257h-8l-542 -1285h-122zM328 1852v17h123q26 -62 80.5 -149.5t106.5 -151.5v-21h-47q-64 52 -145.5 145t-117.5 160z" />
<glyph unicode="&#x40e;" horiz-adv-x="672" d="M0 1433h100l218 -734q10 -38 33 -141h9q11 83 27 141l185 734h100l-319 -1196q-36 -136 -90 -196.5t-141 -60.5q-47 0 -86 20v90q43 -17 85 -17q49 0 82 43.5t62 144.5l42 158zM87 1823h91q10 -111 48 -157t116 -46q83 0 120.5 49t46.5 154h90q-17 -276 -257 -276 q-119 0 -182 65.5t-73 210.5z" />
<glyph unicode="&#x40f;" horiz-adv-x="1005" d="M157 0v1433h96v-1341h500v1341h96v-1433h-299v-362h-92v362h-301z" />
<glyph unicode="&#x410;" horiz-adv-x="796" d="M0 0l345 1433h99l353 -1433h-98l-127 519h-348l-124 -519h-100zM243 616h307l-127 535q-19 90 -30 170q-9 -85 -27 -170z" />
<glyph unicode="&#x411;" horiz-adv-x="846" d="M157 0v1433h559v-92h-463v-544h153q192 0 283.5 -95.5t91.5 -299.5q0 -188 -99.5 -295t-273.5 -107h-251zM253 88h159q131 0 200.5 81t69.5 233q0 158 -65.5 232.5t-206.5 74.5h-157v-621z" />
<glyph unicode="&#x412;" horiz-adv-x="888" d="M157 0v1433h274q169 0 259.5 -86.5t90.5 -254.5q0 -291 -213 -333v-8q123 -26 182.5 -109.5t59.5 -233.5q0 -192 -85 -300t-239 -108h-329zM253 88h220q237 0 237 322q0 143 -69.5 220t-194.5 77h-193v-619zM253 795h180q134 0 191.5 74t57.5 225q0 121 -63 186t-188 65 h-178v-550z" />
<glyph unicode="&#x413;" horiz-adv-x="672" d="M157 0v1433h500v-92h-404v-1341h-96z" />
<glyph unicode="&#x414;" horiz-adv-x="919" d="M10 92h86q116 352 164.5 657t48.5 684h448v-1341h122v-454h-92v362h-685v-362h-92v454zM195 92h466v1249h-255q-22 -691 -211 -1249z" />
<glyph unicode="&#x415;" horiz-adv-x="772" d="M157 0v1433h519v-92h-423v-544h400v-92h-400v-613h423v-92h-519z" />
<glyph unicode="&#x416;" horiz-adv-x="1099" d="M0 0l404 741l-392 692h105l385 -692v692h96v-692l386 692h104l-391 -692l403 -741h-108l-394 733v-733h-96v733l-393 -733h-109z" />
<glyph unicode="&#x417;" horiz-adv-x="796" d="M56 34v106q50 -31 116.5 -49t134.5 -18q265 0 265 308q0 163 -76.5 239.5t-236.5 76.5h-98v92h104q138 0 213.5 80.5t75.5 235.5q0 130 -57.5 193t-161.5 63q-58 0 -106.5 -25.5t-81.5 -65.5l-65 67q108 116 261 116q146 0 228 -92.5t82 -255.5q0 -140 -66.5 -234.5 t-178.5 -123.5v-8q130 -17 197 -109t67 -247q0 -191 -96 -297t-269 -106q-137 0 -251 54z" />
<glyph unicode="&#x418;" horiz-adv-x="1068" d="M157 0v1433h94v-1002q0 -33 -0.5 -66t-9.5 -202h8l538 1270h124v-1433h-94v1028q0 124 12 257h-8l-542 -1285h-122z" />
<glyph unicode="&#x419;" horiz-adv-x="1068" d="M157 0v1433h94v-1002q0 -33 -0.5 -66t-9.5 -202h8l538 1270h124v-1433h-94v1028q0 124 12 257h-8l-542 -1285h-122zM278 1823h91q10 -111 48 -157t116 -46q83 0 120.5 49t46.5 154h90q-17 -276 -257 -276q-119 0 -182 65.5t-73 210.5z" />
<glyph unicode="&#x41a;" horiz-adv-x="794" d="M157 0v1433h96v-692l406 692h103l-409 -692l442 -741h-111l-431 733v-733h-96z" />
<glyph unicode="&#x41b;" horiz-adv-x="911" d="M-20 4v90q23 -16 68 -16q32 0 54 13t40.5 49.5t32.5 105.5t27.5 180.5t90.5 1006.5h462v-1433h-96v1341h-282l-38 -467q-42 -509 -69.5 -641.5t-75 -189.5t-140.5 -57q-45 0 -74 18z" />
<glyph unicode="&#x41c;" horiz-adv-x="1367" d="M157 0v1433h142l321 -1096q43 -145 56 -247h8q10 73 61 245l318 1098h147v-1433h-96v1036q0 61 10 266h-8l-379 -1302h-109l-381 1304h-8q10 -205 10 -260v-1044h-92z" />
<glyph unicode="&#x41d;" horiz-adv-x="1005" d="M157 0v1433h96v-636h500v636h96v-1433h-96v705h-500v-705h-96z" />
<glyph unicode="&#x41e;" horiz-adv-x="1043" d="M109 720q0 371 104 552t311 181q200 0 305.5 -190.5t105.5 -544.5q0 -355 -106.5 -546.5t-307.5 -191.5q-203 0 -307.5 193t-104.5 547zM209 718q0 -319 79.5 -482t232.5 -163q154 0 234 161.5t80 483.5q0 319 -78.5 481t-232.5 162q-157 0 -236 -164t-79 -479z" />
<glyph unicode="&#x41f;" horiz-adv-x="1005" d="M157 0v1433h692v-1433h-96v1341h-500v-1341h-96z" />
<glyph unicode="&#x420;" horiz-adv-x="823" d="M157 0v1433h196q210 0 307 -99t97 -313q0 -221 -101.5 -325t-300.5 -104h-102v-592h-96zM253 680h96q168 0 239 79.5t71 261.5q0 174 -73 249t-226 75h-107v-665z" />
<glyph unicode="&#x421;" horiz-adv-x="842" d="M109 720q0 343 122 539t333 196q131 0 229 -60l-44 -85q-83 53 -187 53q-162 0 -257.5 -171t-95.5 -474q0 -197 44 -343t126.5 -224t190.5 -78q112 0 192 40v-89q-76 -44 -200 -44q-137 0 -239.5 88.5t-158 255.5t-55.5 396z" />
<glyph unicode="&#x422;" horiz-adv-x="696" d="M14 1341v92h666v-92h-285v-1341h-96v1341h-285z" />
<glyph unicode="&#x423;" horiz-adv-x="672" d="M0 1433h100l218 -734q10 -38 33 -141h9q11 83 27 141l185 734h100l-319 -1196q-36 -136 -90 -196.5t-141 -60.5q-47 0 -86 20v90q43 -17 85 -17q49 0 82 43.5t62 144.5l42 158z" />
<glyph unicode="&#x424;" horiz-adv-x="1179" d="M104 751q0 150 53.5 270.5t153 188t231.5 67.5v176h96v-176q206 0 322 -141t116 -385q0 -254 -116.5 -402t-321.5 -148v-221h-96v221q-135 0 -234 69t-151.5 194.5t-52.5 286.5zM205 751q0 -222 86 -342t251 -120v899q-164 0 -250.5 -115t-86.5 -322zM638 289 q165 0 251 120t86 342q0 437 -337 437v-899z" />
<glyph unicode="&#x425;" horiz-adv-x="700" d="M20 0l299 760l-257 673h101l212 -596l207 596h98l-253 -694l253 -739h-100l-214 659l-249 -659h-97z" />
<glyph unicode="&#x426;" horiz-adv-x="1011" d="M157 0v1433h96v-1341h500v1341h96v-1341h108v-454h-92v362h-708z" />
<glyph unicode="&#x427;" horiz-adv-x="980" d="M132 881v552h96v-556q0 -132 47.5 -197.5t147.5 -65.5q76 0 142 16.5t163 68.5v734h97v-1433h-97v614q-164 -93 -312 -93q-284 0 -284 360z" />
<glyph unicode="&#x428;" horiz-adv-x="1378" d="M157 0v1433h96v-1341h387v1341h97v-1341h389v1341h96v-1433h-1065z" />
<glyph unicode="&#x429;" horiz-adv-x="1384" d="M157 0v1433h96v-1341h387v1341h97v-1341h389v1341h96v-1341h109v-454h-92v362h-1082z" />
<glyph unicode="&#x42a;" horiz-adv-x="1009" d="M24 1339v94h382v-636h152q190 0 282.5 -94t92.5 -301q0 -187 -98.5 -294.5t-274.5 -107.5h-251v1339h-285zM406 88h158q132 0 201.5 81t69.5 233q0 158 -66.5 232.5t-206.5 74.5h-156v-621z" />
<glyph unicode="&#x42b;" horiz-adv-x="1258" d="M157 0v1433h96v-636h153q192 0 283.5 -95.5t91.5 -299.5q0 -188 -99.5 -295t-273.5 -107h-251zM253 88h159q131 0 200.5 81t69.5 233q0 158 -65.5 232.5t-206.5 74.5h-157v-621zM1005 0v1433h97v-1433h-97z" />
<glyph unicode="&#x42c;" horiz-adv-x="856" d="M157 0v1433h96v-636h153q192 0 283.5 -95.5t91.5 -299.5q0 -188 -99.5 -295t-273.5 -107h-251zM253 88h159q131 0 200.5 81t69.5 233q0 158 -65.5 232.5t-206.5 74.5h-157v-621z" />
<glyph unicode="&#x42d;" horiz-adv-x="842" d="M50 1393q101 62 227 62q139 0 243 -89t159.5 -257t55.5 -395q0 -339 -122 -536.5t-334 -197.5q-59 0 -113.5 11t-85.5 29v93q83 -40 201 -40q161 0 255 167t98 465h-452v92h450q-14 266 -108.5 416t-246.5 150q-101 0 -183 -53z" />
<glyph unicode="&#x42e;" horiz-adv-x="1356" d="M157 0v1433h96v-636h237q17 656 381 656q183 0 280.5 -189t97.5 -546q0 -353 -97.5 -545.5t-282.5 -192.5q-181 0 -279 185.5t-100 539.5h-237v-705h-96zM590 718q0 -319 71.5 -482t207.5 -163q137 0 208 164t71 481q0 321 -70.5 482t-206.5 161q-139 0 -210 -163 t-71 -480z" />
<glyph unicode="&#x42f;" horiz-adv-x="859" d="M42 0l285 640q-107 28 -168 129.5t-61 251.5q0 412 371 412h234v-1433h-97v624l-189 2l-266 -626h-109zM199 1026q0 -163 61.5 -239.5t197.5 -76.5h148v635h-122q-153 0 -219 -75.5t-66 -243.5z" />
<glyph unicode="&#x430;" horiz-adv-x="768" d="M76 285q0 152 91.5 240.5t255.5 96.5l115 6v88q0 149 -37 217.5t-124 68.5q-91 0 -186 -60l-40 73q111 69 232 69q131 0 189 -83t58 -277v-724h-76l-12 149h-4q-76 -169 -231 -169q-104 0 -167.5 83t-63.5 222zM174 283q0 -115 41.5 -169t111.5 -54q100 0 155.5 98.5 t55.5 278.5v111l-111 -6q-128 -7 -190.5 -71t-62.5 -188z" />
<glyph unicode="&#x431;" horiz-adv-x="846" d="M104 697q0 300 53.5 471t180.5 254.5t392 109.5l15 -85q-218 -16 -326.5 -76t-159 -184.5t-58.5 -361.5h8q36 77 98 119t135 42q147 0 230 -130t83 -372t-87.5 -373t-253.5 -131q-161 0 -235.5 176t-74.5 541zM201 676q4 -313 55.5 -462t159.5 -149q243 0 243 419 q0 413 -234 413q-71 0 -134 -63t-90 -158z" />
<glyph unicode="&#x432;" horiz-adv-x="768" d="M142 0v1063h226q140 0 213.5 -66t73.5 -189q0 -97 -35.5 -155t-111.5 -83v-8q86 -15 131 -80t45 -163q0 -150 -77.5 -234.5t-219.5 -84.5h-245zM235 84h154q104 0 151.5 56.5t47.5 180.5q0 108 -49.5 154t-145.5 46h-158v-437zM235 602h154q91 0 130 49t39 157 q0 171 -189 171h-134v-377z" />
<glyph unicode="&#x433;" horiz-adv-x="580" d="M142 0v1063h422v-88h-329v-975h-93z" />
<glyph unicode="&#x434;" horiz-adv-x="772" d="M10 88h82q82 191 124.5 442t42.5 533h361v-975h108v-450h-92v362h-534v-362h-92v450zM182 88h346v891h-183q-3 -235 -49.5 -492.5t-113.5 -398.5z" />
<glyph unicode="&#x435;" horiz-adv-x="786" d="M94 524q0 273 81 416.5t233 143.5q132 0 208.5 -126t76.5 -340v-86h-504q2 -232 65.5 -347.5t193.5 -115.5q100 0 211 65v-90q-102 -64 -215 -64q-169 0 -259.5 144t-90.5 400zM191 616h409q0 176 -53.5 280t-144.5 104q-192 0 -211 -384z" />
<glyph unicode="&#x436;" horiz-adv-x="938" d="M10 0l321 564l-295 499h104l283 -499v499h92v-499l284 499h105l-295 -499l320 -564h-108l-306 556v-556h-92v556l-304 -556h-109z" />
<glyph unicode="&#x437;" horiz-adv-x="630" d="M50 50v97q41 -32 92 -57t121 -25q88 0 136.5 59.5t48.5 174.5q0 101 -54 161.5t-147 60.5h-48v85h54q45 0 83.5 25.5t60.5 73t22 109.5q0 94 -42.5 141t-113.5 47q-75 0 -150 -48l-44 72q92 58 204 58q115 0 178.5 -69.5t63.5 -195.5q0 -87 -40.5 -152t-103.5 -91v-8 q84 -27 128.5 -95.5t44.5 -173.5q0 -146 -78 -232.5t-203 -86.5q-138 0 -213 70z" />
<glyph unicode="&#x438;" horiz-adv-x="865" d="M142 0v1063h93v-718l-7 -201l378 919h116v-1063h-92v688l4 231l-377 -919h-115z" />
<glyph unicode="&#x439;" horiz-adv-x="865" d="M142 0v1063h93v-718l-7 -201l378 919h116v-1063h-92v688l4 231l-377 -919h-115zM182 1492h91q10 -111 48 -157t116 -46q83 0 120.5 49t46.5 154h90q-17 -276 -257 -276q-119 0 -182 65.5t-73 210.5z" />
<glyph unicode="&#x43a;" horiz-adv-x="678" d="M142 0v1063h93v-499l301 499h106l-313 -499l339 -564h-110l-323 556v-556h-93z" />
<glyph unicode="&#x43b;" horiz-adv-x="760" d="M-10 -2v86q12 -6 34 -6q58 0 93 98t57.5 308t36.5 579h407v-1063h-92v975h-229q-11 -271 -30.5 -463t-47 -305t-69 -165t-116.5 -52q-23 0 -44 8z" />
<glyph unicode="&#x43c;" horiz-adv-x="1033" d="M142 0v1063h135l177 -694q38 -157 56 -265h7q1 15 18.5 90t221.5 869h134v-1063h-92v640q0 73 9 279h-7l-233 -919h-108l-232 919h-8q11 -226 11 -273v-646h-89z" />
<glyph unicode="&#x43d;" horiz-adv-x="865" d="M142 0v1063h93v-465h395v465h92v-1063h-92v514h-395v-514h-93z" />
<glyph unicode="&#x43e;" horiz-adv-x="833" d="M92 534q0 550 325 550q153 0 238.5 -144t85.5 -406q0 -268 -85 -411t-242 -143q-156 0 -239 143t-83 411zM189 534q0 -230 55 -347.5t172 -117.5q228 0 228 465q0 462 -228 462q-120 0 -173.5 -116t-53.5 -346z" />
<glyph unicode="&#x43f;" horiz-adv-x="865" d="M142 0v1063h580v-1063h-92v979h-395v-979h-93z" />
<glyph unicode="&#x440;" horiz-adv-x="875" d="M142 -482v1545h77l9 -146h9q39 81 100.5 124t133.5 43q312 0 312 -550q0 -265 -76.5 -409.5t-222.5 -144.5q-80 0 -146.5 45t-100.5 122h-9l7 -117v-512h-93zM235 540q0 -245 58 -360t176 -115q110 0 163.5 114t53.5 355q0 230 -50 346t-170 116q-117 0 -174 -103 t-57 -323v-30z" />
<glyph unicode="&#x441;" horiz-adv-x="622" d="M94 526q0 273 82 415.5t241 142.5q99 0 165 -36l-36 -83q-66 31 -121 31q-234 0 -234 -468q0 -463 234 -463q70 0 151 31v-78q-32 -18 -79 -28t-81 -10q-160 0 -241 139t-81 407z" />
<glyph unicode="&#x442;" horiz-adv-x="501" d="M16 979v84h470v-84h-189v-979h-92v979h-189z" />
<glyph unicode="&#x443;" horiz-adv-x="639" d="M-2 -381q39 -14 76 -14q59 0 93.5 50.5t60.5 162.5l47 184l-265 1061h94l161 -663q28 -120 54 -270h8q19 131 52 272l157 661h94l-311 -1264q-34 -140 -89.5 -210.5t-147.5 -70.5q-37 0 -84 16v85z" />
<glyph unicode="&#x444;" horiz-adv-x="977" d="M94 534q0 244 90 388t260 162v441h92v-441q169 -18 259 -162t90 -388q0 -245 -90.5 -390t-258.5 -164v-462h-92v462q-169 15 -259.5 156.5t-90.5 397.5zM191 534q0 -209 67 -332t186 -137v935q-125 -17 -189 -137t-64 -329zM536 65q120 16 186.5 140t66.5 329 q0 206 -66 327t-187 139v-935z" />
<glyph unicode="&#x445;" horiz-adv-x="662" d="M34 0l253 552l-233 511h101l178 -431l186 431h97l-237 -523l249 -540h-98l-199 460l-201 -460h-96z" />
<glyph unicode="&#x446;" horiz-adv-x="875" d="M142 0v1063h93v-975h395v975h92v-975h109v-450h-92v362h-597z" />
<glyph unicode="&#x447;" horiz-adv-x="844" d="M121 646v417h92v-439q0 -90 38 -131t102 -41q74 0 141 38.5t117 97.5v475h92v-1063h-92v488q-50 -58 -121.5 -90t-150.5 -32q-218 0 -218 280z" />
<glyph unicode="&#x448;" horiz-adv-x="1156" d="M142 0v1063h93v-975h297v975h92v-975h297v975h92v-1063h-871z" />
<glyph unicode="&#x449;" horiz-adv-x="1166" d="M142 0v1063h93v-975h297v975h92v-975h297v975h92v-975h109v-450h-92v362h-888z" />
<glyph unicode="&#x44a;" horiz-adv-x="871" d="M16 979v84h321v-465h138q155 0 237.5 -78t82.5 -221q0 -142 -84.5 -220.5t-237.5 -78.5h-228v979h-229zM337 84h136q226 0 226 215t-224 215h-138v-430z" />
<glyph unicode="&#x44b;" horiz-adv-x="1091" d="M142 0v1063h93v-465h138q155 0 237.5 -78t82.5 -221q0 -142 -84.5 -220.5t-237.5 -78.5h-229zM235 84h136q225 0 225 215t-223 215h-138v-430zM857 0v1063h93v-1063h-93z" />
<glyph unicode="&#x44c;" horiz-adv-x="768" d="M142 0v1063h93v-465h138q155 0 237.5 -78t82.5 -221q0 -142 -84.5 -220.5t-237.5 -78.5h-229zM235 84h136q225 0 225 215t-223 215h-138v-430z" />
<glyph unicode="&#x44d;" horiz-adv-x="668" d="M50 18v89q83 -38 165 -38q128 0 192.5 106t69.5 339h-288v84h286q-16 398 -247 398q-31 0 -69 -11.5t-57 -23.5l-35 85q79 38 172 38q164 0 249.5 -138t85.5 -408q0 -274 -88.5 -416t-265.5 -142q-45 0 -92 10.5t-78 27.5z" />
<glyph unicode="&#x44e;" horiz-adv-x="1150" d="M142 0v1063h93v-465h207q15 486 309 486q146 0 226 -143.5t80 -406.5q0 -265 -79.5 -409.5t-230.5 -144.5q-147 0 -225 140.5t-80 393.5h-207v-514h-93zM538 534q0 -469 211 -469q212 0 212 469q0 462 -212 462q-111 0 -161 -116t-50 -346z" />
<glyph unicode="&#x44f;" horiz-adv-x="781" d="M48 0l283 475q-119 22 -181 96t-62 195q0 143 88.5 220t244.5 77h217v-1063h-92v469h-123l-266 -469h-109zM184 766q0 -212 235 -212h127v425h-125q-237 0 -237 -213z" />
<glyph unicode="&#x450;" horiz-adv-x="786" d="M94 524q0 273 81 416.5t233 143.5q132 0 208.5 -126t76.5 -340v-86h-504q2 -232 65.5 -347.5t193.5 -115.5q100 0 211 65v-90q-102 -64 -215 -64q-169 0 -259.5 144t-90.5 400zM191 616h409q0 176 -53.5 280t-144.5 104q-192 0 -211 -384zM193 1521v17h123 q26 -62 80.5 -149.5t106.5 -151.5v-21h-47q-64 52 -145.5 145t-117.5 160z" />
<glyph unicode="&#x451;" horiz-adv-x="786" d="M94 524q0 273 81 416.5t233 143.5q132 0 208.5 -126t76.5 -340v-86h-504q2 -232 65.5 -347.5t193.5 -115.5q100 0 211 65v-90q-102 -64 -215 -64q-169 0 -259.5 144t-90.5 400zM191 616h409q0 176 -53.5 280t-144.5 104q-192 0 -211 -384zM191 1361q0 42 19 61t44 19 q22 0 41 -19t19 -61q0 -43 -19 -62.5t-41 -19.5q-25 0 -44 19.5t-19 62.5zM490 1361q0 42 19 61t42 19q24 0 42.5 -19t18.5 -61q0 -43 -18.5 -62.5t-42.5 -19.5q-23 0 -42 19.5t-19 62.5z" />
<glyph unicode="&#x452;" horiz-adv-x="852" d="M26 1245v82h116v198h93v-198h257v-82h-257v-215q0 -68 -4 -113h8q31 80 94.5 123.5t132.5 43.5q135 0 191.5 -88.5t56.5 -262.5v-930q0 -285 -172 -285q-39 0 -67 16v89q35 -16 63 -16q84 0 84 182v944q0 144 -37.5 204.5t-122.5 60.5q-113 0 -170 -100t-57 -316v-582 h-93v1245h-116z" />
<glyph unicode="&#x453;" horiz-adv-x="580" d="M142 0v1063h422v-88h-329v-975h-93zM269 1216v21q125 162 187 301h123v-17q-38 -69 -116 -158t-148 -147h-46z" />
<glyph unicode="&#x454;" horiz-adv-x="668" d="M94 526q0 273 87 415.5t256 142.5q96 0 175 -38l-34 -85q-21 13 -59 24t-73 11q-236 0 -255 -398h288v-84h-288q4 -445 253 -445q80 0 162 38v-89q-32 -17 -81 -27.5t-90 -10.5q-169 0 -255 138.5t-86 407.5z" />
<glyph unicode="&#x455;" horiz-adv-x="632" d="M73 40v109q36 -36 95.5 -58t122.5 -22q82 0 129 53.5t47 144.5q0 70 -33.5 118.5t-128.5 110.5q-109 68 -148.5 109.5t-61.5 92.5t-22 121q0 115 77 190t197 75q128 0 215 -61l-48 -81q-81 54 -171 54q-82 0 -131 -48.5t-49 -128.5q0 -70 33 -117.5t141 -115.5 q106 -70 145 -111.5t58.5 -92t19.5 -115.5q0 -135 -71 -211t-204 -76q-72 0 -127 19t-85 41z" />
<glyph unicode="&#x456;" horiz-adv-x="377" d="M128 1358q0 44 18.5 68.5t46.5 24.5q27 0 42.5 -24.5t15.5 -68.5q0 -42 -15.5 -67t-42.5 -25q-28 0 -46.5 25t-18.5 67zM142 0v1063h93v-1063h-93z" />
<glyph unicode="&#x457;" horiz-adv-x="377" d="M-20 1361q0 42 19 61t44 19q22 0 41 -19t19 -61q0 -43 -19 -62.5t-41 -19.5q-25 0 -44 19.5t-19 62.5zM142 0v1063h93v-1063h-93zM279 1361q0 42 19 61t42 19q24 0 42.5 -19t18.5 -61q0 -43 -18.5 -62.5t-42.5 -19.5q-23 0 -42 19.5t-19 62.5z" />
<glyph unicode="&#x458;" horiz-adv-x="377" d="M-4 -377q31 -16 62 -16q46 0 65 44.5t19 137.5v1274h93v-1260q0 -146 -42 -215.5t-131 -69.5q-41 0 -66 16v89zM128 1358q0 44 18.5 68.5t46.5 24.5q27 0 42.5 -24.5t15.5 -68.5q0 -42 -15.5 -67t-42.5 -25q-28 0 -46.5 25t-18.5 67z" />
<glyph unicode="&#x459;" horiz-adv-x="1120" d="M-10 -2v86q12 -6 34 -6q58 0 93 98t57.5 308t36.5 579h375v-465h138q155 0 237.5 -78t82.5 -221q0 -142 -84.5 -220.5t-237.5 -78.5h-228v975h-197q-11 -271 -30.5 -463t-47 -305t-69 -165t-116.5 -52q-23 0 -44 8zM586 84h136q226 0 226 215t-224 215h-138v-430z" />
<glyph unicode="&#x45a;" horiz-adv-x="1231" d="M142 0v1063h93v-465h371v465h93v-465h138q155 0 237 -78t82 -221q0 -142 -84 -220.5t-237 -78.5h-229v514h-371v-514h-93zM699 84h136q224 0 224 215t-222 215h-138v-430z" />
<glyph unicode="&#x45b;" horiz-adv-x="852" d="M26 1245v82h116v198h93v-198h257v-82h-257v-215q0 -68 -4 -113h8q31 80 94.5 123.5t132.5 43.5q135 0 191.5 -88.5t56.5 -262.5v-733h-92v733q0 144 -37.5 204.5t-122.5 60.5q-113 0 -170 -100t-57 -316v-582h-93v1245h-116z" />
<glyph unicode="&#x45c;" horiz-adv-x="678" d="M142 0v1063h93v-499l301 499h106l-313 -499l339 -564h-110l-323 556v-556h-93zM344 1216v21q125 162 187 301h123v-17q-38 -69 -116 -158t-148 -147h-46z" />
<glyph unicode="&#x45d;" horiz-adv-x="865" d="M142 0v1063h93v-718l-7 -201l378 919h116v-1063h-92v688l4 231l-377 -919h-115zM217 1521v17h123q26 -62 80.5 -149.5t106.5 -151.5v-21h-47q-64 52 -145.5 145t-117.5 160z" />
<glyph unicode="&#x45e;" horiz-adv-x="639" d="M-2 -381q39 -14 76 -14q59 0 93.5 50.5t60.5 162.5l47 184l-265 1061h94l161 -663q28 -120 54 -270h8q19 131 52 272l157 661h94l-311 -1264q-34 -140 -89.5 -210.5t-147.5 -70.5q-37 0 -84 16v85zM67 1492h91q10 -111 48 -157t116 -46q83 0 120.5 49t46.5 154h90 q-17 -276 -257 -276q-119 0 -182 65.5t-73 210.5z" />
<glyph unicode="&#x45f;" horiz-adv-x="865" d="M142 0v1063h93v-975h395v975h92v-1063h-245v-362h-92v362h-243z" />
<glyph unicode="&#x460;" horiz-adv-x="1352" d="M109 720q0 340 91.5 537.5t251.5 197.5q93 0 182 -60l-46 -81q-54 49 -128 49q-116 0 -183.5 -171t-67.5 -474q0 -200 32.5 -346t92 -222.5t137.5 -76.5q86 0 157 80v461h96v-461q68 -80 159 -80q75 0 134.5 77.5t93 224.5t33.5 343q0 304 -68 474.5t-183 170.5 q-75 0 -129 -49l-46 81q90 60 184 60q159 0 251 -196.5t92 -538.5q0 -227 -44.5 -395t-126.5 -256.5t-189 -88.5q-60 0 -110 22t-99 72q-51 -52 -100 -73t-110 -21q-106 0 -187.5 89t-125.5 256t-44 395z" />
<glyph unicode="&#x461;" horiz-adv-x="1137" d="M30 1063h94l123 -559q36 -161 76 -383h8l219 515l-90 427h90l140 -678q42 -189 53 -278h8q239 388 239 956h92q0 -318 -75 -572t-237 -491h-86l-108 508l-218 -508h-88z" />
<glyph unicode="&#x462;" horiz-adv-x="917" d="M10 1132v80h207v313h96v-313h257v-80h-257v-335h153q190 0 282.5 -94t92.5 -301q0 -187 -98.5 -294.5t-275.5 -107.5h-250v1132h-207zM313 88h158q132 0 202 81t70 233q0 158 -66.5 232.5t-207.5 74.5h-156v-621z" />
<glyph unicode="&#x463;" horiz-adv-x="768" d="M10 984v79h132v230h93v-230h169v-79h-169v-386h138q155 0 237.5 -78t82.5 -221q0 -142 -84.5 -220.5t-237.5 -78.5h-229v984h-132zM235 84h136q225 0 225 215t-223 215h-138v-430z" />
<glyph unicode="&#x464;" horiz-adv-x="1224" d="M157 0v1433h96v-636h239q14 308 130 483t309 175q138 0 243 -72l-44 -83q-93 63 -201 63q-147 0 -236 -150.5t-101 -415.5h448v-92h-450q2 -292 95.5 -462t249.5 -170q112 0 203 55v-92q-84 -56 -211 -56q-199 0 -317 194t-120 531h-237v-705h-96z" />
<glyph unicode="&#x465;" horiz-adv-x="1013" d="M142 0v1063h93v-465h205q11 239 98 362.5t245 123.5q95 0 174 -38l-34 -85q-21 13 -59 24t-73 11q-236 0 -255 -398h289v-84h-289q4 -445 253 -445q81 0 163 38v-89q-31 -17 -80.5 -27.5t-90.5 -10.5q-337 0 -341 534h-205v-514h-93z" />
<glyph unicode="&#x466;" horiz-adv-x="877" d="M0 0l389 1433h90l398 -1433h-98l-191 705h-102v-705h-93v705h-108l-185 -705h-100zM309 797h253l-93 347q-22 80 -36 170q-9 -85 -33 -170z" />
<glyph unicode="&#x467;" horiz-adv-x="762" d="M10 0l325 1063h96l322 -1063h-94l-153 514h-83v-514h-88v514h-80l-151 -514h-94zM281 598h198l-46 159q-17 58 -32 124.5t-16 83.5h-8q-4 -32 -13.5 -75t-82.5 -292z" />
<glyph unicode="&#x468;" horiz-adv-x="1258" d="M157 0v1433h96v-636h345l172 636h91l397 -1433h-98l-191 705h-102v-705h-92v705h-109l-184 -705h-101l191 705h-319v-705h-96zM691 797h253l-93 347q-23 80 -37 170q-8 -85 -33 -170z" />
<glyph unicode="&#x469;" horiz-adv-x="1103" d="M142 0v1063h93v-465h299l142 465h96l322 -1063h-94l-153 514h-83v-514h-88v514h-80l-150 -514h-95l157 514h-273v-514h-93zM622 598h199l-46 159q-15 51 -31.5 118.5t-17.5 89.5h-8q-10 -87 -50 -208z" />
<glyph unicode="&#x46a;" horiz-adv-x="989" d="M10 0l99 448q41 199 109 280t186 86l-291 534v85h764v-85l-293 -534q117 -5 187 -88t110 -278l98 -448h-102l-100 473q-30 146 -77 200.5t-150 54.5h-8v-728h-96v728h-9q-69 0 -108.5 -22t-66.5 -74.5t-49 -158.5l-100 -473h-103zM226 1341l268 -510l268 510h-536z" />
<glyph unicode="&#x46b;" horiz-adv-x="941" d="M16 0l97 321q39 133 71 185t78 79t115 33l-253 376v69h690v-69l-250 -376q70 -6 116 -34t78 -79.5t71 -183.5l96 -321h-102l-93 337q-32 119 -74 158t-118 39h-23v-534h-92v534h-19q-53 0 -86.5 -16t-56.5 -53.5t-48 -125.5l-94 -339h-103zM241 979l228 -347l230 347 h-458z" />
<glyph unicode="&#x46c;" horiz-adv-x="1401" d="M157 0v1433h96v-636h559l-288 551v85h765v-85l-293 -557q78 -4 133.5 -41.5t92.5 -110t71 -216.5l98 -423h-102l-101 450q-34 148 -80 201.5t-147 53.5h-7v-705h-97v705h-8q-70 0 -108.5 -22.5t-65.5 -74.5t-51 -158l-100 -450h-103l98 423q47 203 113 282h-379v-705h-96 zM636 1341l270 -534l268 534h-538z" />
<glyph unicode="&#x46d;" horiz-adv-x="1302" d="M142 0v1063h93v-465h504l-253 396v69h690v-69l-253 -396q70 -5 116 -32t78.5 -77t72.5 -178l97 -311h-103l-96 327q-33 111 -71 149t-117 38h-23v-514h-92v514h-21q-79 0 -116 -35t-70 -150l-99 -329h-102l96 311q45 146 89 203h-327v-514h-93zM602 979l229 -359l228 359 h-457z" />
<glyph unicode="&#x46e;" horiz-adv-x="796" d="M60 -136q0 104 62 163.5t185 64.5q134 5 199.5 76.5t65.5 222.5q0 159 -74.5 232.5t-238.5 73.5h-98v92h104q138 0 213.5 80.5t75.5 235.5q0 130 -57.5 193t-161.5 63q-58 0 -107.5 -25.5t-80.5 -65.5l-65 67q76 84 185 109q-21 45 -61 117t-74 117v16h71 q67 -78 150 -217q61 121 104 166.5t85 45.5q26 0 50 -11v-83q-16 10 -32 10q-27 0 -54.5 -31.5t-74.5 -131.5q107 -26 164.5 -114t57.5 -225q0 -140 -66.5 -234.5t-178.5 -123.5v-8q135 -17 199.5 -107.5t64.5 -238.5q0 -188 -94 -287.5t-271 -105.5q-73 -3 -111.5 -38.5 t-38.5 -97.5q0 -69 39.5 -106t116.5 -37q47 0 85 7t81 7q54 0 105 -12v-96q-43 15 -102 15q-35 0 -76 -6.5t-88 -6.5q-129 0 -193.5 62.5t-64.5 172.5z" />
<glyph unicode="&#x46f;" horiz-adv-x="630" d="M40 1308v17h71q66 -78 150 -218q59 121 102.5 167.5t86.5 46.5q24 0 50 -13v-82q-18 11 -33 11q-57 0 -134 -163q85 -21 132 -88.5t47 -171.5q0 -83 -40 -146t-108 -92v-8q96 -36 138 -101t42 -158q0 -137 -67.5 -217t-203.5 -92q-71 -7 -104 -36t-33 -86q0 -53 28 -81 t95 -28q39 0 72 5.5t71 5.5q52 0 90 -11v-92q-35 14 -90 14q-32 0 -68.5 -5t-78.5 -5q-102 0 -156.5 51t-54.5 146q0 91 55 145.5t158 64.5q105 9 148 64t43 164q0 94 -54.5 149.5t-134.5 55.5h-68v85h54q45 0 85 25.5t63 72.5t23 108q0 190 -169 190q-86 0 -143 -45l-44 73 q45 32 118 46q-55 116 -138 232z" />
<glyph unicode="&#x470;" horiz-adv-x="1156" d="M140 984v449h97v-447q0 -164 29.5 -262.5t90 -144t173.5 -45.5v899h96v-899q111 0 172.5 44.5t91 142.5t29.5 265v447h96v-449q0 -282 -92 -412t-297 -130v-442h-96v442q-206 0 -298 130t-92 412z" />
<glyph unicode="&#x471;" horiz-adv-x="957" d="M130 502v561h92v-553q0 -212 54.5 -323t167.5 -120v1458h92v-1458q118 7 173 135.5t55 379.5q0 236 -61 481h94q64 -253 64 -485q0 -284 -83 -437t-242 -161v-462h-92v462q-153 4 -233.5 138.5t-80.5 383.5z" />
<glyph unicode="&#x472;" horiz-adv-x="1043" d="M109 720q0 371 104 552t311 181q200 0 305.5 -190.5t105.5 -544.5q0 -355 -106.5 -546.5t-307.5 -191.5q-203 0 -307.5 193t-104.5 547zM209 684q2 -294 80.5 -452.5t231.5 -158.5q151 0 230.5 154t83.5 457h-626zM209 777h624q-6 289 -84.5 436.5t-224.5 147.5 q-299 0 -315 -584z" />
<glyph unicode="&#x473;" horiz-adv-x="834" d="M92 534q0 550 325 550q153 0 238.5 -144t85.5 -406q0 -268 -85 -411t-242 -143q-156 0 -239 143t-83 411zM189 514q2 -449 227 -449q222 0 228 449h-455zM189 598h453q-16 398 -226 398q-112 0 -166 -100t-61 -298z" />
<glyph unicode="&#x474;" horiz-adv-x="869" d="M0 1433h100l235 -1008q35 -148 54 -306q18 118 48 244l179 767q29 124 58.5 192t67 96.5t99.5 28.5q37 0 68 -14v-88q-29 13 -60 13q-49 0 -77 -46t-62 -184l-266 -1128h-107z" />
<glyph unicode="&#x475;" horiz-adv-x="718" d="M10 1063h94l159 -684q27 -118 53 -258h7q16 108 52 260l91 385q27 121 57 188.5t67.5 96.5t100.5 29q32 0 64 -15v-84q-32 15 -60 15q-36 0 -58 -21t-40.5 -69.5t-40.5 -141.5l-185 -764h-110z" />
<glyph unicode="&#x476;" horiz-adv-x="869" d="M0 1433h100l235 -1008q35 -148 54 -306q18 118 48 244l179 767q29 124 58.5 192t67 96.5t99.5 28.5q37 0 68 -14v-88q-29 13 -60 13q-49 0 -77 -46t-62 -184l-266 -1128h-107zM80 1852v17h116q91 -201 166 -301v-21h-46q-56 50 -127 141t-109 164zM341 1852v17h116 q38 -89 85.5 -173.5t81.5 -127.5v-21h-46q-54 46 -125.5 138t-111.5 167z" />
<glyph unicode="&#x477;" horiz-adv-x="718" d="M6 1521v17h116q91 -201 166 -301v-21h-46q-56 50 -127 141t-109 164zM10 1063h94l159 -684q27 -118 53 -258h7q16 108 52 260l91 385q27 121 57 188.5t67.5 96.5t100.5 29q32 0 64 -15v-84q-32 15 -60 15q-36 0 -58 -21t-40.5 -69.5t-40.5 -141.5l-185 -764h-110z M267 1521v17h116q38 -89 85.5 -173.5t81.5 -127.5v-21h-46q-54 46 -125.5 138t-111.5 167z" />
<glyph unicode="&#x478;" horiz-adv-x="1683" d="M109 720q0 371 104 552t311 181q200 0 305.5 -190.5t105.5 -544.5q0 -355 -106.5 -546.5t-307.5 -191.5q-203 0 -307.5 193t-104.5 547zM209 718q0 -319 79.5 -482t232.5 -163q154 0 234 161.5t80 483.5q0 319 -78.5 481t-232.5 162q-157 0 -236 -164t-79 -479z M1042 -381q39 -14 76 -14q59 0 93.5 50.5t60.5 162.5l47 184l-265 1061h94l161 -663q28 -120 54 -270h8q19 131 52 272l157 661h94l-311 -1264q-34 -140 -89.5 -210.5t-147.5 -70.5q-37 0 -84 16v85z" />
<glyph unicode="&#x479;" horiz-adv-x="1472" d="M92 534q0 550 325 550q153 0 238.5 -144t85.5 -406q0 -268 -85 -411t-242 -143q-156 0 -239 143t-83 411zM189 534q0 -230 55 -347.5t172 -117.5q228 0 228 465q0 462 -228 462q-120 0 -173.5 -116t-53.5 -346zM831 -381q39 -14 76 -14q59 0 93.5 50.5t60.5 162.5l47 184 l-265 1061h94l161 -663q28 -120 54 -270h8q19 131 52 272l157 661h94l-311 -1264q-34 -140 -89.5 -210.5t-147.5 -70.5q-37 0 -84 16v85z" />
<glyph unicode="&#x47a;" horiz-adv-x="1143" d="M109 720q0 342 98.5 521.5t292.5 205.5q14 78 72 78q57 0 72 -78q190 -28 291 -214t101 -515q0 -324 -101.5 -512.5t-290.5 -219.5q-15 -78 -72 -78q-58 0 -72 78q-189 28 -290 216.5t-101 517.5zM209 718q0 -280 73 -443t216 -195q15 83 74 83q61 0 72 -85 q291 68 291 640q0 575 -291 634q-11 -82 -72 -82q-59 0 -74 82q-143 -33 -216 -193.5t-73 -440.5z" />
<glyph unicode="&#x47b;" horiz-adv-x="921" d="M92 534q0 494 297 544q14 74 73 74q55 0 70 -76q143 -29 220 -168.5t77 -373.5q0 -241 -77.5 -380t-219.5 -166q-15 -80 -70 -80q-60 0 -73 78q-145 26 -221 167.5t-76 380.5zM189 534q0 -404 198 -460q11 87 75 87q59 0 70 -87q201 61 201 460q0 391 -201 452 q-11 -86 -70 -86q-64 0 -75 86q-104 -28 -151 -141t-47 -311z" />
<glyph unicode="&#x47c;" horiz-adv-x="1459" d="M109 720q0 346 92.5 540.5t258.5 194.5q85 0 174 -60l-48 -81q-54 49 -126 49q-116 0 -183.5 -171t-67.5 -474q0 -195 34 -342t94.5 -225t133.5 -78q61 0 110.5 33.5t94.5 94.5q46 -61 94 -94.5t113 -33.5q75 0 135 78.5t93 225t33 341.5q0 304 -68 474.5t-183 170.5 q-73 0 -127 -49l-48 81q90 60 177 60q164 0 257 -194t93 -541q0 -224 -45 -391.5t-127 -258t-188 -90.5q-131 0 -209 98q-88 -98 -210 -98q-105 0 -186.5 90.5t-126 258t-44.5 391.5zM419 1854q0 195 161 195q81 0 180 -50q84 -42 129.5 -55t91.5 -13v-77h-10q-89 0 -184 48 q-95 47 -128 59t-63 12q-52 0 -72 -28t-20 -91h-85zM580 1523v55q111 35 111 104q0 23 -13 34t-28.5 19.5t-28 20t-12.5 36.5q0 31 17.5 48.5t47.5 17.5q42 0 67 -34.5t25 -89.5q0 -82 -45.5 -132.5t-140.5 -78.5z" />
<glyph unicode="&#x47d;" horiz-adv-x="1103" d="M92 526q0 272 68 415t204 143q72 0 138 -42l-31 -81q-46 35 -96 35q-186 0 -186 -468q0 -218 45 -340.5t126 -122.5q100 0 192 126q94 -126 187 -126q84 0 130 120.5t46 342.5q0 468 -187 468q-50 0 -96 -35l-30 81q65 42 139 42q134 0 202 -143t68 -415 q0 -263 -66.5 -404.5t-193.5 -141.5q-112 0 -199 93q-86 -93 -203 -93q-126 0 -191.5 143t-65.5 403zM299 1534q0 194 161 194q80 0 180 -50q83 -42 129 -55.5t92 -13.5v-75h-10q-87 0 -185 47l-50 24q-59 29 -88 38t-53 9q-50 0 -71 -27.5t-21 -90.5h-84zM460 1202v54 q110 36 110 105q0 24 -12.5 34.5t-28 19t-28.5 20t-13 36.5q0 30 17.5 48.5t48.5 18.5q43 0 67.5 -34.5t24.5 -90.5q0 -82 -45.5 -132t-140.5 -79z" />
<glyph unicode="&#x47e;" horiz-adv-x="1352" d="M109 720q0 340 91.5 537.5t251.5 197.5q93 0 182 -60l-46 -81q-54 49 -128 49q-116 0 -183.5 -171t-67.5 -474q0 -200 32.5 -346t92 -222.5t137.5 -76.5q86 0 157 80v461h96v-461q68 -80 159 -80q75 0 134.5 77.5t93 224.5t33.5 343q0 304 -68 474.5t-183 170.5 q-75 0 -129 -49l-46 81q90 60 184 60q159 0 251 -196.5t92 -538.5q0 -227 -44.5 -395t-126.5 -256.5t-189 -88.5q-60 0 -110 22t-99 72q-51 -52 -100 -73t-110 -21q-106 0 -187.5 89t-125.5 256t-44 395zM383 1714v26h578v-26l-57 -149h-13l-36 95h-139l-38 -95h-12l-38 95 h-138l-36 -95h-12z" />
<glyph unicode="&#x47f;" horiz-adv-x="1137" d="M30 1063h94l123 -559q36 -161 76 -383h8l219 515l-90 427h90l140 -678q42 -189 53 -278h8q239 388 239 956h92q0 -318 -75 -572t-237 -491h-86l-108 508l-218 -508h-88zM267 1367v26h578v-26l-58 -149h-12l-36 94h-139l-38 -94h-12l-38 94h-139l-36 -94h-12z" />
<glyph unicode="&#x480;" horiz-adv-x="827" d="M109 720q0 342 117.5 538.5t321.5 196.5q129 0 222 -60l-40 -85q-28 20 -77 36.5t-105 16.5q-155 0 -247 -170t-92 -475q0 -300 85 -472.5t230 -172.5q98 0 167 40v-595h-97v470q-31 -8 -82 -8q-122 0 -213.5 89.5t-140.5 258.5t-49 392z" />
<glyph unicode="&#x481;" horiz-adv-x="637" d="M94 526q0 273 82 415.5t241 142.5q99 0 165 -36l-34 -83q-24 12 -59.5 21.5t-63.5 9.5q-234 0 -234 -468q0 -463 215 -463q64 0 138 31v-578h-92v468q-32 -6 -59 -6q-147 0 -223 138.5t-76 407.5z" />
<glyph unicode="&#x482;" horiz-adv-x="905" d="M69 431l25 81l237 -85l153 436l-241 85l26 78l241 -84l106 312l87 -28l-111 -315l245 -80l-29 -80l-242 84l-147 -435l242 -84l-23 -79l-245 86l-106 -317l-86 28l106 315z" />
<glyph unicode="&#x483;" horiz-adv-x="1089" d="M321 1247q0 72 62 72h278q0 42 19 62t42 20t42 -20t19 -62q0 -72 -61 -72h-278q0 -44 -19 -63.5t-42 -19.5q-24 0 -43 19.5t-19 63.5z" />
<glyph unicode="&#x484;" horiz-adv-x="1103" d="M261 1232v76q45 0 90 13t131 56q100 50 180 50q161 0 161 -195h-84q0 63 -20.5 90.5t-72.5 27.5q-31 0 -64.5 -12t-125.5 -58q-95 -48 -186 -48h-9z" />
<glyph unicode="&#x485;" horiz-adv-x="1158" d="M492 1433q0 56 25 90t67 34q30 0 48.5 -17.5t18.5 -47.5q0 -26 -13 -37t-28.5 -20t-28.5 -20t-13 -34q0 -68 110 -104v-55q-95 28 -140.5 78.5t-45.5 132.5z" />
<glyph unicode="&#x486;" horiz-adv-x="1158" d="M486 1222v55q110 36 110 104q0 23 -13 34t-28.5 20t-28 20t-12.5 37q0 30 18 47.5t48 17.5q42 0 67 -34t25 -90q0 -82 -45.5 -132.5t-140.5 -78.5z" />
<glyph unicode="&#x488;" horiz-adv-x="1888" d="M40 448q3 87 55 138.5t146 51.5q183 0 192 -190h-65q-15 108 -131 108q-58 0 -89.5 -25t-40.5 -83h-67zM224 -40q3 88 55 139.5t146 51.5q185 0 193 -191h-66q-15 109 -131 109q-57 0 -89 -25.5t-41 -83.5h-67zM224 927q3 88 55 139.5t146 51.5q185 0 193 -191h-66 q-15 109 -131 109q-57 0 -89 -25.5t-41 -83.5h-67zM739 -313q3 88 54.5 139.5t145.5 51.5q184 0 193 -191h-67q-14 108 -130 108q-57 0 -89 -25.5t-41 -82.5h-66zM739 1206q3 89 54.5 139.5t145.5 50.5q184 0 193 -190h-67q-14 108 -130 108q-57 0 -89 -25t-41 -83h-66z M1268 -40q3 88 55 139.5t146 51.5q184 0 193 -191h-67q-14 109 -130 109q-58 0 -89.5 -25.5t-40.5 -83.5h-67zM1268 927q3 88 55 139.5t146 51.5q184 0 193 -191h-67q-14 109 -130 109q-58 0 -89.5 -25.5t-40.5 -83.5h-67zM1455 448q3 87 55 138.5t146 51.5q183 0 192 -190 h-65q-15 108 -131 108q-58 0 -89.5 -25t-41.5 -83h-66z" />
<glyph unicode="&#x489;" horiz-adv-x="1918" d="M65 576v36h19q152 -35 301 -48v-110h-19q-58 10 -151 47.5t-150 74.5zM275 -42l14 14q52 32 127 86.5t120 92.5l78 -78l-14 -15q-47 -34 -139 -73t-160 -54zM349 1200l26 26l14 -14q33 -54 91 -133t88 -114l-78 -78l-15 15q-33 47 -72 138.5t-54 159.5zM873 1118v20 q10 58 47.5 150.5t75.5 150.5h36v-20q-34 -145 -48 -301h-111zM889 -335q34 145 48 301h111v-20q-10 -58 -48 -150.5t-75 -150.5h-36v20zM1306 1009l15 14q47 35 138 74t161 54l25 -25l-15 -14q-40 -26 -122 -85.5t-125 -95.5zM1348 119l79 76l14 -15q35 -48 75 -142.5 t54 -154.5l-26 -25l-14 14q-74 119 -182 247zM1534 517v111h19q61 -11 158 -50.5t143 -69.5v-37h-19q-66 16 -153.5 29.5t-147.5 16.5z" />
<glyph unicode="&#x48a;" horiz-adv-x="1068" d="M157 0v1433h94v-1002q0 -33 -0.5 -66t-9.5 -202h8l538 1270h124v-1341h104l-113 -454h-105l114 362h-94v1028q0 124 12 257h-8l-542 -1285h-122zM277 1823h87q9 -107 47 -153t121 -46q82 0 122 47t49 152h86q-17 -276 -257 -276q-119 0 -182 65.5t-73 210.5z" />
<glyph unicode="&#x48b;" horiz-adv-x="865" d="M142 0v1063h93v-718l-7 -201l378 919h116v-971h105l-115 -454h-103l113 362h-92v688l4 231l-377 -919h-115zM180 1492h87q12 -111 50 -155t118 -44q83 0 122.5 47t48.5 152h87q-19 -276 -258 -276q-118 0 -181 65.5t-74 210.5z" />
<glyph unicode="&#x48c;" horiz-adv-x="856" d="M0 1132v80h157v221h96v-221h237v-80h-237v-335h153q192 0 283.5 -95.5t91.5 -299.5q0 -188 -99.5 -295t-273.5 -107h-251v1132h-157zM253 88h159q131 0 200.5 81t69.5 233q0 158 -65.5 232.5t-206.5 74.5h-157v-621z" />
<glyph unicode="&#x48d;" horiz-adv-x="768" d="M10 1184v80h132v261h93v-261h169v-80h-169v-586h138q155 0 237.5 -78t82.5 -221q0 -142 -84.5 -220.5t-237.5 -78.5h-229v1184h-132zM235 84h136q225 0 225 215t-223 215h-138v-430z" />
<glyph unicode="&#x48e;" horiz-adv-x="823" d="M157 0v1433h196q210 0 307 -99t97 -313q0 -261 -146 -364l117 -165l-67 -52l-129 178q-71 -26 -177 -26h-102v-592h-96zM253 680h96q78 0 128 15l-115 164l67 50l127 -179q53 40 78 110.5t25 180.5q0 174 -73 249t-226 75h-107v-665z" />
<glyph unicode="&#x48f;" horiz-adv-x="875" d="M142 -482v1545h77l9 -146h9q39 81 100.5 124t133.5 43q312 0 312 -550q0 -190 -38.5 -313t-104.5 -183l72 -157l-76 -38l-68 151q-34 -14 -84 -14q-80 0 -146.5 45t-100.5 122h-9l11 -117v-512h-97zM235 540q0 -245 58 -360t176 -115q37 0 63 9l-109 239l79 36l100 -223 q82 108 82 408q0 240 -51 351t-167 111q-117 0 -174 -103t-57 -323v-30z" />
<glyph unicode="&#x490;" horiz-adv-x="672" d="M157 0v1433h375v295h92v-387h-371v-1341h-96z" />
<glyph unicode="&#x491;" horiz-adv-x="580" d="M142 0v1063h302v320h88v-408h-297v-975h-93z" />
<glyph unicode="&#x492;" horiz-adv-x="672" d="M60 666v89h97v678h500v-92h-404v-586h220v-89h-220v-666h-96v666h-97z" />
<glyph unicode="&#x493;" horiz-adv-x="580" d="M10 502v80h132v481h422v-88h-329v-393h169v-80h-169v-502h-93v502h-132z" />
<glyph unicode="&#x494;" horiz-adv-x="890" d="M157 0v1433h500v-92h-404v-577q69 23 142 23q188 0 294 -171.5t106 -464.5q0 -311 -91.5 -482t-261.5 -171q-101 0 -177 48v99q86 -55 164 -55q124 0 195 146t71 417q0 260 -81 403t-223 143q-68 0 -138 -25v-674h-96z" />
<glyph unicode="&#x495;" horiz-adv-x="788" d="M142 0v1063h422v-88h-329v-377q65 26 123 26q177 0 265.5 -144.5t88.5 -423.5q0 -262 -74 -405t-215 -143q-107 0 -176 57v98q83 -67 165 -67q100 0 152 121t52 341q0 232 -65.5 356t-192.5 124q-70 0 -123 -28v-510h-93z" />
<glyph unicode="&#x496;" horiz-adv-x="1147" d="M0 0l404 741l-392 692h105l385 -692v692h96v-692l386 692h104l-391 -692l353 -649h82v-454h-92v362h-48l-394 733v-733h-96v733l-393 -733h-109z" />
<glyph unicode="&#x497;" horiz-adv-x="971" d="M10 0l321 564l-295 499h104l283 -499v499h92v-499l284 499h105l-295 -499l270 -476h77v-450h-93v362h-42l-306 556v-556h-92v556l-304 -556h-109z" />
<glyph unicode="&#x498;" horiz-adv-x="796" d="M56 34v106q50 -31 116.5 -49t134.5 -18q265 0 265 308q0 163 -76.5 239.5t-236.5 76.5h-98v92h104q138 0 213.5 80.5t75.5 235.5q0 130 -57.5 193t-161.5 63q-58 0 -106.5 -25.5t-81.5 -65.5l-65 67q108 116 261 116q146 0 228 -92.5t82 -255.5q0 -140 -66.5 -234.5 t-178.5 -123.5v-8q130 -17 197 -109t67 -247q0 -191 -96 -297t-269 -106q-137 0 -251 54zM197 -353q18 -9 56 -9q95 0 95 107q0 63 -29.5 124t-99.5 131h76q62 -47 101.5 -122t39.5 -143q0 -172 -164 -172q-45 0 -75 12v72z" />
<glyph unicode="&#x499;" horiz-adv-x="630" d="M50 50v97q41 -32 92 -57t121 -25q88 0 136.5 59.5t48.5 174.5q0 101 -54 161.5t-147 60.5h-48v85h54q45 0 83.5 25.5t60.5 73t22 109.5q0 94 -42.5 141t-113.5 47q-75 0 -150 -48l-44 72q92 58 204 58q115 0 178.5 -69.5t63.5 -195.5q0 -87 -40.5 -152t-103.5 -91v-8 q84 -27 128.5 -95.5t44.5 -173.5q0 -146 -78 -232.5t-203 -86.5q-138 0 -213 70zM154 -353q18 -9 56 -9q95 0 95 107q0 63 -29.5 124t-99.5 131h76q62 -47 101.5 -122t39.5 -143q0 -172 -164 -172q-45 0 -75 12v72z" />
<glyph unicode="&#x49a;" horiz-adv-x="859" d="M157 0v1433h96v-759q50 94 423 759h105l-360 -630l341 -711h77v-454h-92v362h-46l-337 714l-111 -146v-568h-96z" />
<glyph unicode="&#x49b;" horiz-adv-x="706" d="M142 0v1063h93v-499l301 499h106l-313 -499l285 -476h77v-450h-93v362h-40l-323 556v-556h-93z" />
<glyph unicode="&#x49c;" horiz-adv-x="808" d="M157 0v1433h96v-759l100 183v357h84v-207l239 426h105l-344 -602v-63l371 -768h-107l-264 556v-271h-84v416l-100 -133v-568h-96z" />
<glyph unicode="&#x49d;" horiz-adv-x="779" d="M142 0v1063h93v-499l100 127v303h81v-203l216 272h111l-327 -401v-202l352 -460h-113l-239 316v-212h-81v317l-100 135v-556h-93z" />
<glyph unicode="&#x49e;" horiz-adv-x="808" d="M26 1158v89h131v186h96v-186h189v-89h-189v-484q50 94 423 759h105l-360 -630l387 -803h-107l-337 714l-111 -146v-568h-96v1158h-131z" />
<glyph unicode="&#x49f;" horiz-adv-x="696" d="M26 1245v82h116v198h93v-198h257v-82h-257v-540l-7 -179h9q29 57 90 160l233 377h101l-245 -391l266 -672h-98l-231 586l-118 -155v-431h-93v1245h-116z" />
<glyph unicode="&#x4a0;" horiz-adv-x="951" d="M14 1341v92h381v-759l95 173l329 586h104l-359 -630l388 -803h-109l-337 714l-111 -146v-568h-96v1341h-285z" />
<glyph unicode="&#x4a1;" horiz-adv-x="740" d="M16 979v84h281v-499l301 499h107l-314 -499l339 -564h-110l-323 556v-556h-92v979h-189z" />
<glyph unicode="&#x4a2;" horiz-adv-x="1015" d="M157 0v1433h96v-636h500v636h96v-1341h108v-454h-92v362h-112v705h-500v-705h-96z" />
<glyph unicode="&#x4a3;" horiz-adv-x="875" d="M142 0v1063h93v-465h395v465h92v-975h109v-450h-92v362h-109v514h-395v-514h-93z" />
<glyph unicode="&#x4a4;" horiz-adv-x="1150" d="M157 0v1433h96v-636h500v636h381v-92h-285v-1341h-96v705h-500v-705h-96z" />
<glyph unicode="&#x4a5;" horiz-adv-x="927" d="M142 0v1063h93v-465h395v465h281v-84h-189v-979h-92v514h-395v-514h-93z" />
<glyph unicode="&#x4a6;" horiz-adv-x="1432" d="M157 0v1433h642v-669q69 23 143 23q188 0 293.5 -171.5t105.5 -464.5q0 -311 -92 -482t-261 -171q-101 0 -178 48v99q87 -55 165 -55q124 0 195 146t71 417q0 260 -81 403t-223 143q-68 0 -138 -25v-674h-96v1341h-450v-1341h-96z" />
<glyph unicode="&#x4a7;" horiz-adv-x="1262" d="M142 0v1063h567v-465q67 26 122 26q177 0 266 -144.5t89 -423.5q0 -262 -74.5 -405t-214.5 -143q-108 0 -177 57v98q84 -67 165 -67q100 0 152.5 121t52.5 341q0 232 -66 356t-193 124q-68 0 -122 -28v-510h-93v975h-381v-975h-93z" />
<glyph unicode="&#x4a8;" horiz-adv-x="1122" d="M109 710q0 227 53.5 396t152.5 259t229 90q105 0 180 -40l-36 -86q-56 34 -144 34q-154 0 -244.5 -176t-90.5 -478q0 -195 44 -340.5t122 -220.5t177 -75q61 0 116 21q-76 94 -118 244.5t-42 325.5q0 240 68.5 373t187.5 133q128 0 195 -131t67 -375q0 -179 -57.5 -340 t-156.5 -248q67 -66 145 -66q48 0 100 20v-90q-41 -22 -107 -22q-117 0 -222 105q-29 -17 -81.5 -30t-100.5 -13q-199 0 -318 197.5t-119 532.5zM606 664q0 -329 143 -524q83 72 129.5 210.5t46.5 315.5q0 203 -40.5 307.5t-120.5 104.5q-73 0 -115.5 -110t-42.5 -304z" />
<glyph unicode="&#x4a9;" horiz-adv-x="963" d="M92 524q0 264 91.5 412t258.5 148q66 0 114 -19l-20 -88q-51 19 -96 19q-120 0 -185.5 -121t-65.5 -351q0 -208 71.5 -331.5t199.5 -123.5q72 0 110 21q-133 151 -133 398q0 179 59 276t161 97q104 0 157 -97t53 -272q0 -124 -44 -235.5t-120 -176.5q17 -17 55 -30.5 t75 -13.5q52 0 84 12v-86q-37 -14 -86 -14q-112 0 -197 76q-69 -44 -176 -44q-173 0 -269.5 144.5t-96.5 399.5zM534 486q0 -119 27.5 -202.5t78.5 -147.5q59 50 94.5 141t35.5 215q0 136 -26.5 208t-86.5 72q-59 0 -91 -72t-32 -214z" />
<glyph unicode="&#x4aa;" horiz-adv-x="842" d="M109 720q0 343 122 539t333 196q131 0 229 -60l-44 -85q-83 53 -187 53q-162 0 -257.5 -171t-95.5 -474q0 -197 44 -343t126.5 -224t190.5 -78q112 0 192 40v-89q-76 -44 -200 -44q-137 0 -239.5 88.5t-158 255.5t-55.5 396zM425 -353q18 -9 56 -9q95 0 95 107 q0 63 -29.5 124t-99.5 131h76q62 -47 101.5 -122t39.5 -143q0 -172 -164 -172q-45 0 -75 12v72z" />
<glyph unicode="&#x4ab;" horiz-adv-x="622" d="M94 526q0 273 82 415.5t241 142.5q99 0 165 -36l-36 -83q-66 31 -121 31q-234 0 -234 -468q0 -463 234 -463q70 0 151 31v-78q-32 -18 -79 -28t-81 -10q-160 0 -241 139t-81 407zM271 -343q18 -9 56 -9q95 0 95 107q0 63 -29.5 124t-99.5 131h76q62 -47 101.5 -122 t39.5 -143q0 -172 -164 -172q-45 0 -75 12v72z" />
<glyph unicode="&#x4ac;" horiz-adv-x="696" d="M14 1341v92h666v-92h-285v-1249h109v-454h-92v362h-113v1341h-285z" />
<glyph unicode="&#x4ad;" horiz-adv-x="501" d="M16 979v84h470v-84h-189v-891h109v-450h-93v362h-108v979h-189z" />
<glyph unicode="&#x4ae;" horiz-adv-x="672" d="M0 1433h102l235 -740l233 740h102l-289 -873v-560h-96v560z" />
<glyph unicode="&#x4af;" horiz-adv-x="639" d="M10 1063h94q96 -405 148.5 -627t63.5 -296h7q15 106 52 262l161 661h94l-268 -1063v-482h-93v482z" />
<glyph unicode="&#x4b0;" horiz-adv-x="672" d="M0 1433h102l235 -740l233 740h102l-289 -873v-74h171v-88h-171v-398h-96v398h-170v88h170v74z" />
<glyph unicode="&#x4b1;" horiz-adv-x="639" d="M10 1063h94q96 -405 148.5 -627t63.5 -296h7q15 106 52 262l161 661h94l-268 -1063h159v-80h-159v-402h-93v402h-160v80h160z" />
<glyph unicode="&#x4b2;" horiz-adv-x="746" d="M20 0l299 760l-257 673h101l212 -596l207 596h98l-253 -694l222 -647h81v-454h-92v362h-58l-214 659l-249 -659h-97z" />
<glyph unicode="&#x4b3;" horiz-adv-x="680" d="M34 0l253 552l-233 511h101l178 -431l186 431h97l-237 -523l209 -452h76v-450h-92v362h-42l-199 460l-201 -460h-96z" />
<glyph unicode="&#x4b4;" horiz-adv-x="1154" d="M14 1341v92h666v-92h-285v-1249h500v1341h97v-1341h108v-454h-93v362h-708v1341h-285z" />
<glyph unicode="&#x4b5;" horiz-adv-x="936" d="M16 979v84h470v-84h-189v-891h396v975h92v-975h108v-450h-92v362h-596v979h-189z" />
<glyph unicode="&#x4b6;" horiz-adv-x="991" d="M132 881v552h96v-556q0 -132 47.5 -197.5t147.5 -65.5q76 0 142 16.5t163 68.5v734h97v-1341h108v-454h-92v362h-113v614q-82 -47 -160.5 -70t-151.5 -23q-143 0 -213.5 90t-70.5 270z" />
<glyph unicode="&#x4b7;" horiz-adv-x="854" d="M121 646v417h92v-439q0 -90 38 -131t102 -41q74 0 141 38.5t117 97.5v475h92v-975h107v-450h-92v362h-107v488q-50 -58 -121.5 -90t-150.5 -32q-218 0 -218 280z" />
<glyph unicode="&#x4b8;" horiz-adv-x="980" d="M132 881v552h96v-556q0 -132 47.5 -197.5t147.5 -65.5h12v365h84v-359q97 18 209 79v734h97v-1433h-97v614q-99 -57 -209 -82v-323h-84v312h-19q-284 0 -284 360z" />
<glyph unicode="&#x4b9;" horiz-adv-x="844" d="M121 646v417h92v-439q0 -90 38 -131t102 -41h18v307h81v-290q89 38 159 119v475h92v-1063h-92v488q-62 -71 -159 -105v-257h-81v240h-32q-218 0 -218 280z" />
<glyph unicode="&#x4ba;" horiz-adv-x="980" d="M157 0v1433h96v-614q76 43 159 67.5t154 24.5q283 0 283 -359v-552h-96v556q0 132 -47.5 197.5t-147.5 65.5q-76 0 -142 -16t-163 -68v-735h-96z" />
<glyph unicode="&#x4bb;" horiz-adv-x="844" d="M142 0v1063h93v-487q50 58 121 90.5t150 32.5q218 0 218 -282v-417h-92v440q0 90 -38 131t-102 41q-75 0 -141 -39t-116 -98v-475h-93z" />
<glyph unicode="&#x4bc;" horiz-adv-x="1162" d="M20 861q0 31 6 68t14 52h96q-19 -44 -19 -112q0 -55 32.5 -79t95.5 -24q9 321 121.5 505t305.5 184q189 0 285.5 -180t96.5 -540v-61h-707q25 -600 356 -600q70 0 131 19t131 54v-97q-134 -70 -277 -70q-210 0 -323.5 178.5t-119.5 515.5q-109 0 -167 47t-58 140z M347 766h605q0 291 -72.5 444t-211.5 153q-143 0 -227 -155.5t-94 -441.5z" />
<glyph unicode="&#x4bd;" horiz-adv-x="925" d="M20 718q0 69 20 113h88q-19 -46 -19 -113q0 -102 126 -102q13 228 93 348t218 120q132 0 208.5 -126t76.5 -340v-86h-504q4 -467 259 -467q100 0 211 65v-86q-102 -64 -215 -64q-166 0 -257.5 142.5t-91.5 401.5v8q-105 2 -159 46.5t-54 139.5zM329 616h410 q0 178 -54 280t-145 102q-192 0 -211 -382z" />
<glyph unicode="&#x4be;" horiz-adv-x="1162" d="M20 861q0 31 6 68t14 52h96q-19 -44 -19 -112q0 -55 32.5 -79t95.5 -24q9 321 121.5 505t305.5 184q189 0 285.5 -180t96.5 -540v-61h-707q25 -600 356 -600q70 0 131 19t131 54v-97q-111 -59 -235 -68v-344h-92v346q-186 19 -286.5 196.5t-106.5 493.5q-109 0 -167 47 t-58 140zM347 766h605q0 291 -72.5 444t-211.5 153q-143 0 -227 -155.5t-94 -441.5z" />
<glyph unicode="&#x4bf;" horiz-adv-x="925" d="M20 718q0 69 20 113h88q-19 -46 -19 -113q0 -102 126 -102q13 228 93 348t218 120q132 0 208.5 -126t76.5 -340v-86h-504q4 -467 259 -467q100 0 211 65v-86q-87 -56 -183 -62v-344h-93v348q-137 24 -212.5 163t-75.5 375v8q-105 2 -159 46.5t-54 139.5zM329 616h410 q0 178 -54 280t-145 102q-192 0 -211 -382z" />
<glyph unicode="&#x4c0;" horiz-adv-x="409" d="M157 0v1433h96v-1433h-96z" />
<glyph unicode="&#x4c1;" horiz-adv-x="1099" d="M0 0l404 741l-392 692h105l385 -692v692h96v-692l386 692h104l-391 -692l403 -741h-108l-394 733v-733h-96v733l-393 -733h-109zM298 1823h91q10 -111 48 -157t116 -46q83 0 120.5 49t46.5 154h90q-17 -276 -257 -276q-119 0 -182 65.5t-73 210.5z" />
<glyph unicode="&#x4c2;" horiz-adv-x="938" d="M10 0l321 564l-295 499h104l283 -499v499h92v-499l284 499h105l-295 -499l320 -564h-108l-306 556v-556h-92v556l-304 -556h-109zM213 1492h91q10 -111 48 -157t116 -46q83 0 120.5 49t46.5 154h90q-17 -276 -257 -276q-119 0 -182 65.5t-73 210.5z" />
<glyph unicode="&#x4c3;" horiz-adv-x="886" d="M157 0v1433h96v-669l406 669h103l-396 -648l14 2h15q188 0 294 -171.5t106 -464.5q0 -311 -91.5 -482t-261.5 -171q-101 0 -177 48v99q86 -55 164 -55q124 0 195 146t71 417q0 260 -81 403t-223 143q-68 0 -138 -25v-674h-96z" />
<glyph unicode="&#x4c4;" horiz-adv-x="792" d="M142 0v1063h93v-499l301 499h106l-274 -439q348 -9 348 -568q0 -262 -74.5 -405t-214.5 -143q-108 0 -176 57v98q83 -67 165 -67q99 0 151.5 121t52.5 341q0 232 -65.5 356t-192.5 124q-83 0 -127 -28v-510h-93z" />
<glyph unicode="&#x4c5;" horiz-adv-x="911" d="M-20 4v90q23 -16 68 -16q32 0 54 13t40.5 49.5t32.5 105.5t27.5 180.5t90.5 1006.5h462v-1341h102l-114 -454h-105l115 362h-94v1341h-282l-38 -467q-42 -509 -69.5 -641.5t-75 -189.5t-140.5 -57q-45 0 -74 18z" />
<glyph unicode="&#x4c6;" horiz-adv-x="760" d="M-10 -2v86q12 -6 34 -6q58 0 93 98t57.5 308t36.5 579h407v-971h104l-113 -454h-105l114 362h-92v975h-229q-11 -271 -30.5 -463t-47 -305t-69 -165t-116.5 -52q-23 0 -44 8z" />
<glyph unicode="&#x4c7;" horiz-adv-x="1005" d="M157 0v1433h96v-636h500v636h96v-1409q0 -244 -90.5 -385t-248.5 -141q-110 0 -187 48v99q40 -25 84 -40t108 -15q70 0 123.5 52.5t84 152.5t30.5 237v673h-500v-705h-96z" />
<glyph unicode="&#x4c8;" horiz-adv-x="865" d="M142 0v1063h93v-465h395v465h92v-1007q0 -277 -66.5 -412.5t-207.5 -135.5q-123 0 -191 57v98q83 -67 183 -67t145 113.5t45 348.5v456h-395v-514h-93z" />
<glyph unicode="&#x4c9;" horiz-adv-x="1005" d="M157 0v1433h96v-636h500v636h96v-1341h103l-115 -454h-104l114 362h-94v705h-500v-705h-96z" />
<glyph unicode="&#x4ca;" horiz-adv-x="865" d="M142 0v1063h93v-465h395v465h92v-971h105l-115 -454h-103l113 362h-92v514h-395v-514h-93z" />
<glyph unicode="&#x4cb;" horiz-adv-x="980" d="M132 881v552h96v-556q0 -132 47.5 -197.5t147.5 -65.5q76 0 142 16.5t163 68.5v734h97v-1433h-113v-362h-92v454h108v522q-164 -93 -312 -93q-284 0 -284 360z" />
<glyph unicode="&#x4cc;" horiz-adv-x="844" d="M121 646v417h92v-439q0 -90 38 -131t102 -41q74 0 141 38.5t117 97.5v475h92v-1063h-109v-362h-92v450h109v400q-50 -58 -121.5 -90t-150.5 -32q-218 0 -218 280z" />
<glyph unicode="&#x4cd;" horiz-adv-x="1367" d="M157 0v1433h142l321 -1096q43 -145 56 -247h8q10 73 61 245l318 1098h147v-1341h102l-113 -454h-105l114 362h-94v1036q0 61 10 266h-8l-379 -1302h-109l-381 1304h-8q10 -205 10 -260v-1044h-92z" />
<glyph unicode="&#x4ce;" horiz-adv-x="1033" d="M142 0v1063h137l175 -686q12 -50 22.5 -94t33.5 -170h7q1 13 17 84t221 866h136v-971h105l-115 -454h-104l114 362h-92v638q0 101 9 268h-7l-233 -906h-108l-232 906h-8l7 -134l4 -128v-644h-89z" />
<glyph unicode="&#x4cf;" horiz-adv-x="409" d="M157 0v1433h96v-1433h-96z" />
<glyph unicode="&#x4d0;" horiz-adv-x="796" d="M0 0l345 1433h99l353 -1433h-98l-127 519h-348l-124 -519h-100zM144 1823h91q10 -111 48 -157t116 -46q83 0 120.5 49t46.5 154h90q-17 -276 -257 -276q-119 0 -182 65.5t-73 210.5zM243 616h307l-127 535q-19 90 -30 170q-9 -85 -27 -170z" />
<glyph unicode="&#x4d1;" horiz-adv-x="768" d="M76 285q0 152 91.5 240.5t255.5 96.5l115 6v88q0 149 -37 217.5t-124 68.5q-91 0 -186 -60l-40 73q111 69 232 69q131 0 189 -83t58 -277v-724h-76l-12 149h-4q-76 -169 -231 -169q-104 0 -167.5 83t-63.5 222zM107 1492h91q10 -111 48 -157t116 -46q83 0 120.5 49 t46.5 154h90q-17 -276 -257 -276q-119 0 -182 65.5t-73 210.5zM174 283q0 -115 41.5 -169t111.5 -54q100 0 155.5 98.5t55.5 278.5v111l-111 -6q-128 -7 -190.5 -71t-62.5 -188z" />
<glyph unicode="&#x4d2;" horiz-adv-x="796" d="M0 0l345 1433h99l353 -1433h-98l-127 519h-348l-124 -519h-100zM189 1692q0 42 19 61t44 19q22 0 41 -19t19 -61q0 -43 -19 -62.5t-41 -19.5q-25 0 -44 19.5t-19 62.5zM243 616h307l-127 535q-19 90 -30 170q-9 -85 -27 -170zM488 1692q0 42 19 61t42 19q24 0 42.5 -19 t18.5 -61q0 -43 -18.5 -62.5t-42.5 -19.5q-23 0 -42 19.5t-19 62.5z" />
<glyph unicode="&#x4d3;" horiz-adv-x="768" d="M76 285q0 152 91.5 240.5t255.5 96.5l115 6v88q0 149 -37 217.5t-124 68.5q-91 0 -186 -60l-40 73q111 69 232 69q131 0 189 -83t58 -277v-724h-76l-12 149h-4q-76 -169 -231 -169q-104 0 -167.5 83t-63.5 222zM174 283q0 -115 41.5 -169t111.5 -54q100 0 155.5 98.5 t55.5 278.5v111l-111 -6q-128 -7 -190.5 -71t-62.5 -188zM175 1361q0 42 19 61t44 19q22 0 41 -19t19 -61q0 -43 -19 -62.5t-41 -19.5q-25 0 -44 19.5t-19 62.5zM474 1361q0 42 19 61t42 19q24 0 42.5 -19t18.5 -61q0 -43 -18.5 -62.5t-42.5 -19.5q-23 0 -42 19.5t-19 62.5z " />
<glyph unicode="&#x4d4;" horiz-adv-x="1129" d="M0 0l425 1433h609v-94h-423v-542h398v-92h-398v-613h423v-92h-520v519h-263l-149 -519h-102zM277 616h237v721h-28z" />
<glyph unicode="&#x4d5;" horiz-adv-x="1234" d="M76 285q0 152 91.5 240.5t255.5 96.5l115 6v88q0 143 -38.5 214.5t-122.5 71.5q-91 0 -186 -60l-40 73q46 29 100.5 49t129.5 20q175 0 225 -169q82 169 245 169q134 0 211.5 -125t77.5 -341v-86h-504q9 -467 253 -467q49 0 107 17t109 48v-86q-98 -64 -218 -64 q-103 0 -182 62t-117 175q-45 -127 -114.5 -182t-166.5 -55q-104 0 -167.5 83t-63.5 222zM174 283q0 -115 41.5 -169t111.5 -54q100 0 155.5 98.5t55.5 278.5v111l-111 -6q-129 -7 -191 -68t-62 -191zM638 616h410v12q0 169 -54 269.5t-145 100.5q-190 0 -211 -382z" />
<glyph unicode="&#x4d6;" horiz-adv-x="772" d="M157 0v1433h519v-92h-423v-544h400v-92h-400v-613h423v-92h-519zM167 1823h91q10 -111 48 -157t116 -46q83 0 120.5 49t46.5 154h90q-17 -276 -257 -276q-119 0 -182 65.5t-73 210.5z" />
<glyph unicode="&#x4d7;" horiz-adv-x="786" d="M94 524q0 273 81 416.5t233 143.5q132 0 208.5 -126t76.5 -340v-86h-504q2 -232 65.5 -347.5t193.5 -115.5q100 0 211 65v-90q-102 -64 -215 -64q-169 0 -259.5 144t-90.5 400zM157 1492h91q10 -111 48 -157t116 -46q83 0 120.5 49t46.5 154h90q-17 -276 -257 -276 q-119 0 -182 65.5t-73 210.5zM191 616h409q0 176 -53.5 280t-144.5 104q-192 0 -211 -384z" />
<glyph unicode="&#x4d8;" horiz-adv-x="1026" d="M109 701v59h705q-20 601 -354 601q-71 0 -131.5 -19t-131.5 -53v96q84 42 147.5 56t128.5 14q217 0 330.5 -189t113.5 -552q0 -342 -114.5 -538t-312.5 -196q-189 0 -285 180.5t-96 540.5zM211 668q0 -290 72 -442.5t211 -152.5q141 0 225.5 152.5t94.5 442.5h-603z" />
<glyph unicode="&#x4d9;" horiz-adv-x="786" d="M94 446v86h504q-5 243 -69 355.5t-190 112.5q-98 0 -211 -67v86q104 65 215 65q167 0 258.5 -143.5t91.5 -400.5q0 -271 -81.5 -415.5t-232.5 -144.5q-132 0 -208.5 126t-76.5 340zM186 448q0 -178 54 -279.5t145 -101.5q192 0 211 381h-410z" />
<glyph unicode="&#x4da;" horiz-adv-x="1026" d="M109 701v59h705q-20 601 -354 601q-71 0 -131.5 -19t-131.5 -53v96q84 42 147.5 56t128.5 14q217 0 330.5 -189t113.5 -552q0 -342 -114.5 -538t-312.5 -196q-189 0 -285 180.5t-96 540.5zM211 668q0 -290 72 -442.5t211 -152.5q141 0 225.5 152.5t94.5 442.5h-603z M280 1692q0 42 19 61t44 19q22 0 41 -19t19 -61q0 -43 -19 -62.5t-41 -19.5q-25 0 -44 19.5t-19 62.5zM579 1692q0 42 19 61t42 19q24 0 42.5 -19t18.5 -61q0 -43 -18.5 -62.5t-42.5 -19.5q-23 0 -42 19.5t-19 62.5z" />
<glyph unicode="&#x4db;" horiz-adv-x="786" d="M94 446v86h504q-5 243 -69 355.5t-190 112.5q-98 0 -211 -67v86q104 65 215 65q167 0 258.5 -143.5t91.5 -400.5q0 -271 -81.5 -415.5t-232.5 -144.5q-132 0 -208.5 126t-76.5 340zM153 1361q0 42 19 61t44 19q22 0 41 -19t19 -61q0 -43 -19 -62.5t-41 -19.5 q-25 0 -44 19.5t-19 62.5zM186 448q0 -178 54 -279.5t145 -101.5q192 0 211 381h-410zM452 1361q0 42 19 61t42 19q24 0 42.5 -19t18.5 -61q0 -43 -18.5 -62.5t-42.5 -19.5q-23 0 -42 19.5t-19 62.5z" />
<glyph unicode="&#x4dc;" horiz-adv-x="1099" d="M0 0l404 741l-392 692h105l385 -692v692h96v-692l386 692h104l-391 -692l403 -741h-108l-394 733v-733h-96v733l-393 -733h-109zM340 1692q0 42 19 61t44 19q22 0 41 -19t19 -61q0 -43 -19 -62.5t-41 -19.5q-25 0 -44 19.5t-19 62.5zM639 1692q0 42 19 61t42 19 q24 0 42.5 -19t18.5 -61q0 -43 -18.5 -62.5t-42.5 -19.5q-23 0 -42 19.5t-19 62.5z" />
<glyph unicode="&#x4dd;" horiz-adv-x="938" d="M10 0l321 564l-295 499h104l283 -499v499h92v-499l284 499h105l-295 -499l320 -564h-108l-306 556v-556h-92v556l-304 -556h-109zM260 1361q0 42 19 61t44 19q22 0 41 -19t19 -61q0 -43 -19 -62.5t-41 -19.5q-25 0 -44 19.5t-19 62.5zM559 1361q0 42 19 61t42 19 q24 0 42.5 -19t18.5 -61q0 -43 -18.5 -62.5t-42.5 -19.5q-23 0 -42 19.5t-19 62.5z" />
<glyph unicode="&#x4de;" horiz-adv-x="796" d="M56 34v106q50 -31 116.5 -49t134.5 -18q265 0 265 308q0 163 -76.5 239.5t-236.5 76.5h-98v92h104q138 0 213.5 80.5t75.5 235.5q0 130 -57.5 193t-161.5 63q-58 0 -106.5 -25.5t-81.5 -65.5l-65 67q108 116 261 116q146 0 228 -92.5t82 -255.5q0 -140 -66.5 -234.5 t-178.5 -123.5v-8q130 -17 197 -109t67 -247q0 -191 -96 -297t-269 -106q-137 0 -251 54zM127 1692q0 42 19 61t44 19q22 0 41 -19t19 -61q0 -43 -19 -62.5t-41 -19.5q-25 0 -44 19.5t-19 62.5zM426 1692q0 42 19 61t42 19q24 0 42.5 -19t18.5 -61q0 -43 -18.5 -62.5 t-42.5 -19.5q-23 0 -42 19.5t-19 62.5z" />
<glyph unicode="&#x4df;" horiz-adv-x="630" d="M50 50v97q41 -32 92 -57t121 -25q88 0 136.5 59.5t48.5 174.5q0 101 -54 161.5t-147 60.5h-48v85h54q45 0 83.5 25.5t60.5 73t22 109.5q0 94 -42.5 141t-113.5 47q-75 0 -150 -48l-44 72q92 58 204 58q115 0 178.5 -69.5t63.5 -195.5q0 -87 -40.5 -152t-103.5 -91v-8 q84 -27 128.5 -95.5t44.5 -173.5q0 -146 -78 -232.5t-203 -86.5q-138 0 -213 70zM67 1361q0 42 19 61t44 19q22 0 41 -19t19 -61q0 -43 -19 -62.5t-41 -19.5q-25 0 -44 19.5t-19 62.5zM366 1361q0 42 19 61t42 19q24 0 42.5 -19t18.5 -61q0 -43 -18.5 -62.5t-42.5 -19.5 q-23 0 -42 19.5t-19 62.5z" />
<glyph unicode="&#x4e0;" horiz-adv-x="781" d="M56 62v107q46 -47 113 -71.5t134 -24.5q149 0 215 85.5t66 245.5q0 312 -283 312h-88v85l311 538h-438v94h546v-88l-316 -537q177 -3 272.5 -108.5t95.5 -291.5q0 -209 -98.5 -318.5t-284.5 -109.5q-70 0 -139 23.5t-106 58.5z" />
<glyph unicode="&#x4e1;" horiz-adv-x="662" d="M40 -316q97 -77 223 -77q105 0 168 106.5t63 288.5q0 168 -64 255.5t-185 87.5h-80v72l291 562h-372v84h482v-69l-293 -565q155 -8 236 -117t81 -312q0 -225 -90 -353.5t-243 -128.5q-127 0 -217 66v100z" />
<glyph unicode="&#x4e2;" horiz-adv-x="1068" d="M157 0v1433h94v-1002q0 -33 -0.5 -66t-9.5 -202h8l538 1270h124v-1433h-94v1028q0 124 12 257h-8l-542 -1285h-122zM333 1557v80h443v-80h-443z" />
<glyph unicode="&#x4e3;" horiz-adv-x="865" d="M142 0v1063h93v-718l-7 -201l378 919h116v-1063h-92v688l4 231l-377 -919h-115zM203 1226v80h443v-80h-443z" />
<glyph unicode="&#x4e4;" horiz-adv-x="1068" d="M157 0v1433h94v-1002q0 -33 -0.5 -66t-9.5 -202h8l538 1270h124v-1433h-94v1028q0 124 12 257h-8l-542 -1285h-122zM328 1692q0 42 19 61t44 19q22 0 41 -19t19 -61q0 -43 -19 -62.5t-41 -19.5q-25 0 -44 19.5t-19 62.5zM627 1692q0 42 19 61t42 19q24 0 42.5 -19 t18.5 -61q0 -43 -18.5 -62.5t-42.5 -19.5q-23 0 -42 19.5t-19 62.5z" />
<glyph unicode="&#x4e5;" horiz-adv-x="865" d="M142 0v1063h93v-718l-7 -201l378 919h116v-1063h-92v688l4 231l-377 -919h-115zM227 1361q0 42 19 61t44 19q22 0 41 -19t19 -61q0 -43 -19 -62.5t-41 -19.5q-25 0 -44 19.5t-19 62.5zM526 1361q0 42 19 61t42 19q24 0 42.5 -19t18.5 -61q0 -43 -18.5 -62.5t-42.5 -19.5 q-23 0 -42 19.5t-19 62.5z" />
<glyph unicode="&#x4e6;" horiz-adv-x="1043" d="M109 720q0 371 104 552t311 181q200 0 305.5 -190.5t105.5 -544.5q0 -355 -106.5 -546.5t-307.5 -191.5q-203 0 -307.5 193t-104.5 547zM209 718q0 -319 79.5 -482t232.5 -163q154 0 234 161.5t80 483.5q0 319 -78.5 481t-232.5 162q-157 0 -236 -164t-79 -479zM324 1692 q0 42 19 61t44 19q22 0 41 -19t19 -61q0 -43 -19 -62.5t-41 -19.5q-25 0 -44 19.5t-19 62.5zM623 1692q0 42 19 61t42 19q24 0 42.5 -19t18.5 -61q0 -43 -18.5 -62.5t-42.5 -19.5q-23 0 -42 19.5t-19 62.5z" />
<glyph unicode="&#x4e7;" horiz-adv-x="833" d="M92 534q0 550 325 550q153 0 238.5 -144t85.5 -406q0 -268 -85 -411t-242 -143q-156 0 -239 143t-83 411zM189 534q0 -230 55 -347.5t172 -117.5q228 0 228 465q0 462 -228 462q-120 0 -173.5 -116t-53.5 -346zM206 1361q0 42 19 61t44 19q22 0 41 -19t19 -61 q0 -43 -19 -62.5t-41 -19.5q-25 0 -44 19.5t-19 62.5zM505 1361q0 42 19 61t42 19q24 0 42.5 -19t18.5 -61q0 -43 -18.5 -62.5t-42.5 -19.5q-23 0 -42 19.5t-19 62.5z" />
<glyph unicode="&#x4e8;" horiz-adv-x="1043" d="M109 720q0 371 104 552t311 181q200 0 305.5 -190.5t105.5 -544.5q0 -355 -106.5 -546.5t-307.5 -191.5q-203 0 -307.5 193t-104.5 547zM209 684q2 -294 80.5 -452.5t231.5 -158.5q151 0 230.5 154t83.5 457h-626zM209 777h624q-6 289 -84.5 436.5t-224.5 147.5 q-299 0 -315 -584z" />
<glyph unicode="&#x4e9;" horiz-adv-x="834" d="M92 534q0 550 325 550q153 0 238.5 -144t85.5 -406q0 -268 -85 -411t-242 -143q-156 0 -239 143t-83 411zM189 514q2 -449 227 -449q222 0 228 449h-455zM189 598h453q-16 398 -226 398q-112 0 -166 -100t-61 -298z" />
<glyph unicode="&#x4ea;" horiz-adv-x="1043" d="M109 720q0 371 104 552t311 181q200 0 305.5 -190.5t105.5 -544.5q0 -355 -106.5 -546.5t-307.5 -191.5q-203 0 -307.5 193t-104.5 547zM209 684q2 -294 80.5 -452.5t231.5 -158.5q151 0 230.5 154t83.5 457h-626zM209 777h624q-6 289 -84.5 436.5t-224.5 147.5 q-299 0 -315 -584zM322 1692q0 42 19 61t44 19q22 0 41 -19t19 -61q0 -43 -19 -62.5t-41 -19.5q-25 0 -44 19.5t-19 62.5zM621 1692q0 42 19 61t42 19q24 0 42.5 -19t18.5 -61q0 -43 -18.5 -62.5t-42.5 -19.5q-23 0 -42 19.5t-19 62.5z" />
<glyph unicode="&#x4eb;" horiz-adv-x="834" d="M92 534q0 550 325 550q153 0 238.5 -144t85.5 -406q0 -268 -85 -411t-242 -143q-156 0 -239 143t-83 411zM189 514q2 -449 227 -449q222 0 228 449h-455zM189 598h453q-16 398 -226 398q-112 0 -166 -100t-61 -298zM208 1361q0 42 19 61t44 19q22 0 41 -19t19 -61 q0 -43 -19 -62.5t-41 -19.5q-25 0 -44 19.5t-19 62.5zM507 1361q0 42 19 61t42 19q24 0 42.5 -19t18.5 -61q0 -43 -18.5 -62.5t-42.5 -19.5q-23 0 -42 19.5t-19 62.5z" />
<glyph unicode="&#x4ec;" horiz-adv-x="842" d="M50 1393q101 62 227 62q139 0 243 -89t159.5 -257t55.5 -395q0 -339 -122 -536.5t-334 -197.5q-59 0 -113.5 11t-85.5 29v93q83 -40 201 -40q161 0 255 167t98 465h-452v92h450q-14 266 -108.5 416t-246.5 150q-101 0 -183 -53zM105 1692q0 42 19 61t44 19q22 0 41 -19 t19 -61q0 -43 -19 -62.5t-41 -19.5q-25 0 -44 19.5t-19 62.5zM404 1692q0 42 19 61t42 19q24 0 42.5 -19t18.5 -61q0 -43 -18.5 -62.5t-42.5 -19.5q-23 0 -42 19.5t-19 62.5z" />
<glyph unicode="&#x4ed;" horiz-adv-x="668" d="M50 18v89q83 -38 165 -38q128 0 192.5 106t69.5 339h-288v84h286q-16 398 -247 398q-31 0 -69 -11.5t-57 -23.5l-35 85q79 38 172 38q164 0 249.5 -138t85.5 -408q0 -274 -88.5 -416t-265.5 -142q-45 0 -92 10.5t-78 27.5zM91 1361q0 42 19 61t44 19q22 0 41 -19t19 -61 q0 -43 -19 -62.5t-41 -19.5q-25 0 -44 19.5t-19 62.5zM390 1361q0 42 19 61t42 19q24 0 42.5 -19t18.5 -61q0 -43 -18.5 -62.5t-42.5 -19.5q-23 0 -42 19.5t-19 62.5z" />
<glyph unicode="&#x4ee;" horiz-adv-x="672" d="M0 1433h100l218 -734q10 -38 33 -141h9q11 83 27 141l185 734h100l-319 -1196q-36 -136 -90 -196.5t-141 -60.5q-47 0 -86 20v90q43 -17 85 -17q49 0 82 43.5t62 144.5l42 158zM127 1557v80h443v-80h-443z" />
<glyph unicode="&#x4ef;" horiz-adv-x="639" d="M-2 -381q39 -14 76 -14q59 0 93.5 50.5t60.5 162.5l47 184l-265 1061h94l161 -663q28 -120 54 -270h8q19 131 52 272l157 661h94l-311 -1264q-34 -140 -89.5 -210.5t-147.5 -70.5q-37 0 -84 16v85zM91 1226v80h443v-80h-443z" />
<glyph unicode="&#x4f0;" horiz-adv-x="672" d="M0 1433h100l218 -734q10 -38 33 -141h9q11 83 27 141l185 734h100l-319 -1196q-36 -136 -90 -196.5t-141 -60.5q-47 0 -86 20v90q43 -17 85 -17q49 0 82 43.5t62 144.5l42 158zM121 1692q0 42 19 61t44 19q22 0 41 -19t19 -61q0 -43 -19 -62.5t-41 -19.5q-25 0 -44 19.5 t-19 62.5zM420 1692q0 42 19 61t42 19q24 0 42.5 -19t18.5 -61q0 -43 -18.5 -62.5t-42.5 -19.5q-23 0 -42 19.5t-19 62.5z" />
<glyph unicode="&#x4f1;" horiz-adv-x="639" d="M-2 -381q39 -14 76 -14q59 0 93.5 50.5t60.5 162.5l47 184l-265 1061h94l161 -663q28 -120 54 -270h8q19 131 52 272l157 661h94l-311 -1264q-34 -140 -89.5 -210.5t-147.5 -70.5q-37 0 -84 16v85zM116 1361q0 42 19 61t44 19q22 0 41 -19t19 -61q0 -43 -19 -62.5 t-41 -19.5q-25 0 -44 19.5t-19 62.5zM415 1361q0 42 19 61t42 19q24 0 42.5 -19t18.5 -61q0 -43 -18.5 -62.5t-42.5 -19.5q-23 0 -42 19.5t-19 62.5z" />
<glyph unicode="&#x4f2;" horiz-adv-x="672" d="M0 1433h100l218 -734q10 -38 33 -141h9q11 83 27 141l185 734h100l-319 -1196q-36 -136 -90 -196.5t-141 -60.5q-47 0 -86 20v90q43 -17 85 -17q49 0 82 43.5t62 144.5l42 158zM135 1547v21q44 58 91 146.5t76 154.5h116v-17q-41 -74 -107.5 -161.5t-129.5 -143.5h-46z M396 1547v21q44 58 91 146.5t75 154.5h117v-17q-37 -72 -107 -161.5t-130 -143.5h-46z" />
<glyph unicode="&#x4f3;" horiz-adv-x="639" d="M-2 -381q39 -14 76 -14q59 0 93.5 50.5t60.5 162.5l47 184l-265 1061h94l161 -663q28 -120 54 -270h8q19 131 52 272l157 661h94l-311 -1264q-34 -140 -89.5 -210.5t-147.5 -70.5q-37 0 -84 16v85zM93 1216v21q44 58 91 146.5t76 154.5h116v-17q-41 -74 -107.5 -161.5 t-129.5 -143.5h-46zM354 1216v21q44 58 91 146.5t75 154.5h117v-17q-37 -72 -107 -161.5t-130 -143.5h-46z" />
<glyph unicode="&#x4f4;" horiz-adv-x="980" d="M132 881v552h96v-556q0 -132 47.5 -197.5t147.5 -65.5q76 0 142 16.5t163 68.5v734h97v-1433h-97v614q-164 -93 -312 -93q-284 0 -284 360zM275 1692q0 42 19 61t44 19q22 0 41 -19t19 -61q0 -43 -19 -62.5t-41 -19.5q-25 0 -44 19.5t-19 62.5zM574 1692q0 42 19 61 t42 19q24 0 42.5 -19t18.5 -61q0 -43 -18.5 -62.5t-42.5 -19.5q-23 0 -42 19.5t-19 62.5z" />
<glyph unicode="&#x4f5;" horiz-adv-x="844" d="M121 646v417h92v-439q0 -90 38 -131t102 -41q74 0 141 38.5t117 97.5v475h92v-1063h-92v488q-50 -58 -121.5 -90t-150.5 -32q-218 0 -218 280zM204 1361q0 42 19 61t44 19q22 0 41 -19t19 -61q0 -43 -19 -62.5t-41 -19.5q-25 0 -44 19.5t-19 62.5zM503 1361q0 42 19 61 t42 19q24 0 42.5 -19t18.5 -61q0 -43 -18.5 -62.5t-42.5 -19.5q-23 0 -42 19.5t-19 62.5z" />
<glyph unicode="&#x4f6;" horiz-adv-x="672" d="M157 0v1433h500v-92h-404v-1249h109v-454h-93v362h-112z" />
<glyph unicode="&#x4f7;" horiz-adv-x="580" d="M142 0v1063h422v-88h-329v-887h108v-450h-92v362h-109z" />
<glyph unicode="&#x4f8;" horiz-adv-x="1258" d="M157 0v1433h96v-636h153q192 0 283.5 -95.5t91.5 -299.5q0 -188 -99.5 -295t-273.5 -107h-251zM253 88h159q131 0 200.5 81t69.5 233q0 158 -65.5 232.5t-206.5 74.5h-157v-621zM423 1692q0 42 19 61t44 19q22 0 41 -19t19 -61q0 -43 -19 -62.5t-41 -19.5q-25 0 -44 19.5 t-19 62.5zM722 1692q0 42 19 61t42 19q24 0 42.5 -19t18.5 -61q0 -43 -18.5 -62.5t-42.5 -19.5q-23 0 -42 19.5t-19 62.5zM1005 0v1433h97v-1433h-97z" />
<glyph unicode="&#x4f9;" horiz-adv-x="1091" d="M142 0v1063h93v-465h138q155 0 237.5 -78t82.5 -221q0 -142 -84.5 -220.5t-237.5 -78.5h-229zM235 84h136q225 0 225 215t-223 215h-138v-430zM351 1361q0 42 19 61t44 19q22 0 41 -19t19 -61q0 -43 -19 -62.5t-41 -19.5q-25 0 -44 19.5t-19 62.5zM650 1361q0 42 19 61 t42 19q24 0 42.5 -19t18.5 -61q0 -43 -18.5 -62.5t-42.5 -19.5q-23 0 -42 19.5t-19 62.5zM857 0v1063h93v-1063h-93z" />
<glyph unicode="&#x4fa;" horiz-adv-x="672" d="M60 666v89h97v678h500v-92h-404v-586h220v-89h-220v-574h100v-230q0 -207 -173 -207q-57 0 -96 16v78q44 -18 83 -18q96 0 96 122v147h-106v666h-97z" />
<glyph unicode="&#x4fb;" horiz-adv-x="580" d="M10 502v80h132v481h422v-88h-329v-393h169v-80h-169v-418h94v-222q0 -207 -166 -207q-57 0 -96 16v78q44 -18 82 -18q96 0 96 122v147h-103v502h-132z" />
<glyph unicode="&#x4fc;" horiz-adv-x="758" d="M20 0l299 760l-257 673h101l212 -596l207 596h98l-253 -694l222 -647h94v-230q0 -102 -44 -154.5t-129 -52.5q-55 0 -97 16v78q44 -18 83 -18q97 0 97 122v147h-73l-214 659l-249 -659h-97z" />
<glyph unicode="&#x4fd;" horiz-adv-x="686" d="M34 0l253 552l-233 511h101l178 -431l186 431h97l-237 -523l209 -456h88v-222q0 -207 -166 -207q-57 0 -96 16v78q44 -18 82 -18q96 0 96 122v147h-62l-199 460l-201 -460h-96z" />
<glyph unicode="&#x4fe;" horiz-adv-x="700" d="M20 0l273 726h-176v88h168l-223 619h101l206 -600l213 600h98l-228 -619h168v-88h-176l236 -726h-100l-212 684l-251 -684h-97z" />
<glyph unicode="&#x4ff;" horiz-adv-x="662" d="M34 0l227 514h-165v80h161l-203 469h101l178 -441l186 441h97l-208 -469h162v-80h-168l226 -514h-98l-199 469l-201 -469h-96z" />
<glyph unicode="&#x2000;" horiz-adv-x="1003" />
<glyph unicode="&#x2001;" horiz-adv-x="2007" />
<glyph unicode="&#x2002;" horiz-adv-x="1003" />
<glyph unicode="&#x2003;" horiz-adv-x="2007" />
<glyph unicode="&#x2004;" horiz-adv-x="668" />
<glyph unicode="&#x2005;" horiz-adv-x="501" />
<glyph unicode="&#x2006;" horiz-adv-x="335" />
<glyph unicode="&#x2007;" />
<glyph unicode="&#x2008;" horiz-adv-x="377" />
<glyph unicode="&#x2009;" horiz-adv-x="401" />
<glyph unicode="&#x200a;" horiz-adv-x="200" />
<glyph unicode="&#x200b;" horiz-adv-x="0" />
<glyph unicode="&#x2010;" horiz-adv-x="505" d="M52 492v100h402v-100h-402z" />
<glyph unicode="&#x2011;" horiz-adv-x="505" d="M52 492v100h402v-100h-402z" />
<glyph unicode="&#x2012;" horiz-adv-x="505" d="M52 492v100h402v-100h-402z" />
<glyph unicode="&#x2013;" horiz-adv-x="1003" d="M80 502v80h843v-80h-843z" />
<glyph unicode="&#x2014;" horiz-adv-x="2007" d="M80 502v80h1847v-80h-1847z" />
<glyph unicode="&#x2015;" horiz-adv-x="2007" d="M80 502v80h1847v-80h-1847z" />
<glyph unicode="&#x2017;" horiz-adv-x="825" d="M-4 -180h833v-81h-833v81zM-4 -400h833v-81h-833v81z" />
<glyph unicode="&#x2018;" horiz-adv-x="308" d="M42 996q65 220 163 437h62q-74 -250 -98 -460h-113z" />
<glyph unicode="&#x2019;" horiz-adv-x="308" d="M42 973q74 250 98 460h113l14 -22q-63 -213 -163 -438h-62z" />
<glyph unicode="&#x201a;" horiz-adv-x="413" d="M76 -259q74 250 98 460h113l14 -23q-65 -220 -163 -437h-62z" />
<glyph unicode="&#x201b;" horiz-adv-x="308" d="M42 1411l14 22h113q24 -210 98 -460h-62q-100 225 -163 438z" />
<glyph unicode="&#x201c;" horiz-adv-x="586" d="M42 996q65 220 163 437h62q-74 -250 -98 -460h-113zM319 996q65 220 163 437h62q-74 -250 -98 -460h-113z" />
<glyph unicode="&#x201d;" horiz-adv-x="586" d="M42 973q74 250 98 460h113l14 -22q-63 -213 -163 -438h-62zM319 973q74 250 98 460h113l14 -22q-63 -213 -163 -438h-62z" />
<glyph unicode="&#x201e;" horiz-adv-x="645" d="M32 -259q74 250 98 460h113l14 -23q-65 -220 -163 -437h-62zM309 -259q34 118 61.5 246t37.5 214h111l15 -23q-61 -206 -163 -437h-62z" />
<glyph unicode="&#x2020;" horiz-adv-x="865" d="M121 1034v90l268 -19l-23 420h113l-23 -420l289 19v-90l-289 10l23 -1044h-113l23 1044z" />
<glyph unicode="&#x2021;" horiz-adv-x="865" d="M121 358v90l268 -11l-12 333l12 318l-268 -10v90l268 -17l-23 374h113l-23 -374l289 17v-90l-289 10l10 -318l-10 -333l289 11v-90l-289 15l23 -373h-113l23 373z" />
<glyph unicode="&#x2022;" horiz-adv-x="754" d="M165 733q0 118 55 177t157 59t157.5 -59t55.5 -177q0 -116 -55.5 -176.5t-157.5 -60.5q-101 0 -156.5 60.5t-55.5 176.5z" />
<glyph unicode="&#x2026;" horiz-adv-x="1240" d="M130 88q0 105 77 105q31 0 53.5 -23.5t22.5 -81.5q0 -56 -22.5 -80t-53.5 -24q-77 0 -77 104zM544 88q0 105 76 105q32 0 54.5 -23.5t22.5 -81.5q0 -56 -22.5 -80t-54.5 -24q-76 0 -76 104zM957 88q0 105 77 105q31 0 53.5 -23.5t22.5 -81.5q0 -56 -22.5 -80t-53.5 -24 q-77 0 -77 104z" />
<glyph unicode="&#x202f;" horiz-adv-x="409" />
<glyph unicode="&#x2030;" horiz-adv-x="1683" d="M92 1005q0 217 49.5 332.5t147.5 115.5t149.5 -114t51.5 -334q0 -215 -53 -333t-148 -118q-97 0 -147 117.5t-50 333.5zM180 1007q0 -186 25 -278.5t86 -92.5q59 0 85 91.5t26 279.5q0 370 -115 370q-58 0 -82.5 -91.5t-24.5 -278.5zM313 0l468 1433h86l-463 -1433h-91z M695 431q0 225 50.5 336.5t145.5 111.5q98 0 149.5 -114t51.5 -334q0 -218 -53 -334.5t-148 -116.5q-96 0 -146 119t-50 332zM783 433q0 -186 24.5 -278.5t85.5 -92.5q59 0 85 91.5t26 279.5q0 370 -115 370q-58 0 -82 -92t-24 -278zM1170 431q0 217 49.5 332.5t147.5 115.5 q97 0 148.5 -113.5t51.5 -334.5q0 -214 -53 -332.5t-147 -118.5q-97 0 -147 118t-50 333zM1258 433q0 -186 25 -278.5t86 -92.5q59 0 84.5 91.5t25.5 279.5q0 370 -114 370q-58 0 -82.5 -92t-24.5 -278z" />
<glyph unicode="&#x2032;" horiz-adv-x="381" d="M130 1433h121l-29 -518h-59z" />
<glyph unicode="&#x2033;" horiz-adv-x="672" d="M130 1433h121l-29 -518h-59zM421 1433h121l-28 -518h-60z" />
<glyph unicode="&#x2039;" horiz-adv-x="501" d="M80 504v26l282 359l59 -34l-214 -338l214 -337l-59 -36z" />
<glyph unicode="&#x203a;" horiz-adv-x="501" d="M80 180l215 337l-215 338l60 34l281 -359v-26l-281 -360z" />
<glyph unicode="&#x203c;" horiz-adv-x="823" d="M144 88q0 105 76 105q32 0 54.5 -23.5t22.5 -81.5q0 -56 -22.5 -80t-54.5 -24q-76 0 -76 104zM159 1433h122l-34 -1073h-54zM525 88q0 105 76 105q32 0 54.5 -23.5t22.5 -81.5q0 -56 -22.5 -80t-54.5 -24q-76 0 -76 104zM540 1433h122l-34 -1073h-54z" />
<glyph unicode="&#x2044;" horiz-adv-x="260" d="M-291 0l753 1433h90l-753 -1433h-90z" />
<glyph unicode="&#x205f;" horiz-adv-x="512" />
<glyph unicode="&#x20a3;" d="M86 291v80h138v1062h502v-92h-405v-608h382v-93h-382v-269h229v-80h-229v-291h-97v291h-138z" />
<glyph unicode="&#x20a4;" d="M78 467v85h155v189h-155v84h155v273q0 180 63.5 267.5t199.5 87.5q131 0 230 -86l-54 -74q-79 72 -178 72q-88 0 -126.5 -64t-38.5 -203v-273h245v-84h-245v-189h245v-85h-245v-80q0 -210 -118 -295h511v-92h-632v80q67 29 105 109t38 196v82h-155z" />
<glyph unicode="&#x20a7;" horiz-adv-x="1122" d="M157 0v1433h156q192 0 282.5 -98t90.5 -314q0 -221 -93.5 -325t-276.5 -104h-63v-592h-96zM253 680h56q151 0 215 79.5t64 261.5q0 174 -65.5 249t-203.5 75h-66v-665zM724 747v54l95 28l30 234h64v-234h169v-82h-169v-494q0 -108 23.5 -147t82.5 -39q43 0 77 11v-78 q-43 -20 -110 -20q-165 0 -165 246v521h-97z" />
<glyph unicode="&#x20ab;" horiz-adv-x="875" d="M92 530q0 271 77.5 412.5t228.5 141.5q71 0 135.5 -42t102.5 -115h8l-4 121v204h-257v81h257v192h93v-192h116v-81h-116v-1252h-76l-11 151h-8q-80 -171 -236 -171q-310 0 -310 550zM189 528q0 -229 52 -347.5t167 -118.5q110 0 171 107t61 329v32q0 241 -58.5 353.5 t-177.5 112.5q-115 0 -165 -120t-50 -348zM236 -181h443v-80h-443v80z" />
<glyph unicode="&#x20ac;" d="M34 524v80h135l-2 99v38l2 60h-135v80h138q17 266 116 420t250 154q121 0 219 -72l-50 -85q-86 60 -165 60q-232 0 -269 -477h319v-80h-323l-2 -75v-71l2 -51h291v-80h-287q15 -229 85.5 -338.5t199.5 -109.5q52 0 94 10.5t89 35.5v-98q-84 -44 -183 -44 q-173 0 -268.5 135t-117.5 409h-138z" />
<glyph unicode="&#x2122;" horiz-adv-x="1422" d="M14 1356v77h512v-77h-215v-630h-85v630h-212zM600 726v707h122l217 -594l219 594h123v-707h-84v390l5 203h-7l-224 -593h-71l-218 597h-8l6 -197v-400h-80z" />
<glyph unicode="&#x25fc;" horiz-adv-x="1063" d="M0 0v1063h1063v-1063h-1063z" />
<glyph horiz-adv-x="461" d="M65 0v74l117 14v1255l-117 15v75h333v-75l-119 -15v-1255l119 -14v-74h-333z" />
<glyph horiz-adv-x="461" d="M7 1852v17h123q26 -62 80.5 -149.5t106.5 -151.5v-21h-47q-64 52 -145.5 145t-117.5 160zM65 0v74l117 14v1255l-117 15v75h333v-75l-119 -15v-1255l119 -14v-74h-333z" />
<glyph horiz-adv-x="461" d="M65 0v74l117 14v1255l-117 15v75h333v-75l-119 -15v-1255l119 -14v-74h-333zM151 1547v21q125 162 187 301h123v-17q-38 -69 -116 -158t-148 -147h-46z" />
<glyph horiz-adv-x="461" d="M1 1547v19q119 164 182 303h94q23 -54 76.5 -142t109.5 -161v-19h-46q-32 31 -89 99l-96 110q-49 -55 -98.5 -112.5t-90.5 -96.5h-42zM65 0v74l117 14v1255l-117 15v75h333v-75l-119 -15v-1255l119 -14v-74h-333z" />
<glyph horiz-adv-x="461" d="M21 1692q0 42 19 61t44 19q22 0 41 -19t19 -61q0 -43 -19 -62.5t-41 -19.5q-25 0 -44 19.5t-19 62.5zM65 0v74l117 14v1255l-117 15v75h333v-75l-119 -15v-1255l119 -14v-74h-333zM320 1692q0 42 19 61t42 19q24 0 42.5 -19t18.5 -61q0 -43 -18.5 -62.5t-42.5 -19.5 q-23 0 -42 19.5t-19 62.5z" />
<glyph horiz-adv-x="461" d="M65 0v74l117 14v1255l-117 15v75h333v-75l-119 -15v-1255l119 -14v-74h-333z" />
<glyph horiz-adv-x="461" d="M21 1692q0 42 19 61t44 19q22 0 41 -19t19 -61q0 -43 -19 -62.5t-41 -19.5q-25 0 -44 19.5t-19 62.5zM65 0v74l117 14v1255l-117 15v75h333v-75l-119 -15v-1255l119 -14v-74h-333zM320 1692q0 42 19 61t42 19q24 0 42.5 -19t18.5 -61q0 -43 -18.5 -62.5t-42.5 -19.5 q-23 0 -42 19.5t-19 62.5z" />
<glyph horiz-adv-x="461" d="M65 0v74l117 14v1255l-117 15v75h333v-75l-119 -15v-1255l119 -14v-74h-333z" />
<glyph horiz-adv-x="461" d="M65 0v74l117 14v1255l-117 15v75h333v-75l-119 -15v-1255l119 -14v-74h-333z" />
<glyph horiz-adv-x="612" d="M62 1178l277 255h78v-1433h-94v1054q0 128 8 277q-20 -28 -96 -103l-122 -112z" />
<glyph horiz-adv-x="800" d="M100 550q0 272 79 418t223 146q141 0 220 -146.5t79 -417.5q0 -279 -79 -424.5t-224 -145.5q-142 0 -220 147t-78 423zM201 550q0 -234 49.5 -357.5t149.5 -123.5q102 0 151 118t49 363q0 476 -200 476q-199 0 -199 -476z" />
<glyph horiz-adv-x="524" d="M28 831l251 263h81v-1094h-97v678q0 130 12 295l-56 -67l-127 -136z" />
<glyph horiz-adv-x="788" d="M65 0v86l266 274q137 141 189 234t52 207q0 100 -55 162.5t-146 62.5q-73 0 -123 -25.5t-95 -77.5l-63 61q109 130 283 130q134 0 214.5 -86.5t80.5 -226.5q0 -123 -57.5 -229.5t-183.5 -232.5l-238 -243v-8h512v-88h-636z" />
<glyph horiz-adv-x="784" d="M56 984q79 74 148.5 102t150.5 28q140 0 224.5 -92.5t84.5 -246.5q0 -275 -233 -359v-8q120 -26 187.5 -120t67.5 -238q0 -186 -94.5 -297t-256.5 -111q-164 0 -270 53v106q120 -71 270 -71q120 0 186.5 86.5t66.5 237.5q0 143 -77.5 224.5t-229.5 81.5h-72v90h78 q125 0 203 86t78 230q0 125 -56.5 193.5t-153.5 68.5q-68 0 -121.5 -22.5t-119.5 -84.5z" />
<glyph horiz-adv-x="788" d="M16 0v82l470 1012h118v-1006h153v-88h-153v-341h-94v341h-494zM115 88h395v663q0 119 7 233h-7q-29 -90 -70 -185z" />
<glyph horiz-adv-x="790" d="M107 -195q106 -75 234 -75q129 0 206 105t77 278q0 161 -67.5 240.5t-188.5 79.5q-100 0 -203 -29l-48 62l42 628h485v-92h-405l-36 -504q88 19 170 19q161 0 255 -106.5t94 -293.5q0 -218 -104 -346.5t-273 -128.5q-150 0 -238 55v108z" />
<glyph horiz-adv-x="808" d="M100 611q0 430 105 636t310 206q76 0 125 -22v-94q-57 24 -132 24q-141 0 -221 -162t-90 -473h8q33 75 91 117t133 42q134 0 210.5 -118.5t76.5 -326.5q0 -215 -81 -337.5t-219 -122.5q-154 0 -235 162t-81 469zM199 514q0 -123 28 -228.5t76.5 -159t113.5 -53.5 q97 0 149 90t52 272q0 175 -51 267.5t-151 92.5q-97 0 -157 -79.5t-60 -201.5z" />
<glyph horiz-adv-x="668" d="M36 1002v92h576v-81l-401 -1354h-100l408 1343h-483z" />
<glyph horiz-adv-x="817" d="M84 343q0 125 54.5 221.5t186.5 182.5q-107 83 -156.5 175t-49.5 198q0 150 83 241.5t215 91.5q136 0 218.5 -87.5t82.5 -241.5q0 -238 -234 -377q112 -77 160.5 -130t76.5 -117.5t28 -144.5q0 -164 -91 -269.5t-231 -105.5q-151 0 -247 100.5t-96 262.5zM184 341 q0 -121 64.5 -196.5t170.5 -75.5t168 78.5t62 212.5q0 171 -203 314l-48 33q-121 -78 -167.5 -161t-46.5 -205zM217 1116q0 -101 44 -176.5t155 -148.5q108 65 156 144.5t48 180.5q0 118 -53.5 183.5t-150.5 65.5q-93 0 -146 -65.5t-53 -183.5z" />
<glyph horiz-adv-x="796" d="M80 655q0 213 83 336t230 123q150 0 227 -158t77 -454q0 -429 -107.5 -644.5t-314.5 -215.5q-26 0 -68.5 6t-64.5 17v94q54 -24 141 -24q142 0 224.5 163t92.5 470h-8q-33 -75 -91 -117t-133 -42q-135 0 -211.5 120.5t-76.5 325.5zM178 659q0 -175 51 -267.5t152 -92.5 q98 0 157.5 83t59.5 220q0 187 -56 303t-155 116q-96 0 -152.5 -90t-56.5 -272z" />
<glyph horiz-adv-x="875" d="M92 530q0 281 82.5 417.5t227.5 136.5q157 0 238 -163h4l15 142h74v-1113q0 -203 -80 -317.5t-220 -114.5q-74 0 -134 16t-117 52v105q115 -86 249 -86q102 0 155.5 87.5t53.5 255.5v29q0 66 9 178h-7q-41 -86 -104.5 -130.5t-139.5 -44.5q-148 0 -227 136t-79 414z M191 528q0 -243 52.5 -353t168.5 -110q216 0 228 417v48q0 241 -58.5 353.5t-177.5 112.5q-115 0 -164 -120t-49 -348z" />
</font>
</defs>
</svg>
